<svg xmlns="http://www.w3.org/2000/svg" width="127" height="223" viewBox="0 0 127 223">
  <g id="Grupo_1199662" data-name="Grupo 1199662" transform="translate(-600 -2768)">
    <g id="Grupo_1199441" data-name="Grupo 1199441" transform="translate(600 2768)">
      <path id="Trazado_902293" data-name="Trazado 902293" d="M12,0H115c6.627,0,12,8.474,12,18.927V204.073C127,214.526,121.627,223,115,223H12c-6.627,0-12-8.474-12-18.927V18.927C0,8.474,5.373,0,12,0Z" fill="#f1963d"/>
    </g>
    <g id="sprout_16912132" transform="translate(623.729 2838.729)">
      <circle id="Elipse_12152" data-name="Elipse 12152" cx="22.972" cy="22.972" r="22.972" transform="translate(17.799 1.207)" fill="#edf7ff"/>
      <path id="Trazado_1031601" data-name="Trazado 1031601" d="M59.185,23.213a22.9,22.9,0,0,0-2.153-9.724A22.01,22.01,0,1,0,26.489,44.032a22.984,22.984,0,0,0,32.7-20.819Z" transform="translate(4.559 0.967)" fill="#f7fdff"/>
      <g id="Grupo_1199661" data-name="Grupo 1199661" transform="translate(25.457 6.312)">
        <path id="Trazado_1031602" data-name="Trazado 1031602" d="M29.25,12.019C29.25,8.142,32.76,5,32.76,5s3.51,3.142,3.51,7.019-3.51,7.019-3.51,7.019S29.25,15.9,29.25,12.019Z" transform="translate(-17.445 -5)" fill="#61db70"/>
        <path id="Trazado_1031603" data-name="Trazado 1031603" d="M38.7,14.489c2.741-2.744,7.452-2.482,7.452-2.482s.255,4.7-2.482,7.446-7.444,2.481-7.444,2.481-.267-4.7,2.475-7.444Z" transform="translate(-15.521 -3.066)" fill="#61db70"/>
        <path id="Trazado_1031604" data-name="Trazado 1031604" d="M27.452,14.489c-2.741-2.741-7.446-2.482-7.446-2.482s-.255,4.7,2.482,7.446,7.444,2.481,7.444,2.481.26-4.7-2.481-7.444Z" transform="translate(-20 -3.066)" fill="#61db70"/>
      </g>
      <path id="Trazado_1031605" data-name="Trazado 1031605" d="M50.044,28a5.1,5.1,0,0,0-4.594,2.875,5.1,5.1,0,0,0-5.07.873,5.1,5.1,0,0,0-8.75,0,5.1,5.1,0,0,0-5.07-.873A5.1,5.1,0,0,0,21.967,28,7.64,7.64,0,0,0,17.5,30.085a22.915,22.915,0,0,0,37.011,0A7.64,7.64,0,0,0,50.044,28Z" transform="translate(4.766 7.666)" fill="#dd8457"/>
      <path id="Trazado_1031606" data-name="Trazado 1031606" d="M49.479,48.42l5.885-18.167a3.259,3.259,0,0,1,6.256,1.814L56.525,52.074Z" transform="translate(13.6 7.666)" fill="#fac7ad"/>
      <path id="Trazado_1031607" data-name="Trazado 1031607" d="M36.443,55.866v10.42H51.758V62.259L64.1,51.029a7.657,7.657,0,0,0,2.267-3.773l3.871-15.187a3.258,3.258,0,0,0-6.255-1.814L59.322,44.621,47.929,50.861" transform="translate(9.999 7.667)" fill="#ffe3d2"/>
      <path id="Trazado_1031608" data-name="Trazado 1031608" d="M46.653,48.8l8.894-4.873a3.191,3.191,0,1,0-3.067-5.6l-11.4,6.243a8.934,8.934,0,0,0-4.642,7.835V54.4" transform="translate(9.999 10.412)" fill="#ffe3d2"/>
      <path id="Trazado_1031609" data-name="Trazado 1031609" d="M57.426,40.026,57.013,41.3,45.621,47.544l-.112.05-.045.024a1.276,1.276,0,1,0,1.226,2.239l7.775-4.26a5.732,5.732,0,0,0,2.961-5.571Z" transform="translate(12.307 10.988)" fill="#ffd1bb"/>
      <path id="Trazado_1031610" data-name="Trazado 1031610" d="M34.443,58h20.42v6.381H34.443Z" transform="translate(9.446 15.953)" fill="#72eb8f"/>
      <path id="Trazado_1031611" data-name="Trazado 1031611" d="M37.443,60H54.034v3.829H37.443Z" transform="translate(10.275 16.505)" fill="#61db70"/>
      <path id="Trazado_1031612" data-name="Trazado 1031612" d="M17.171,48.42,11.286,30.253A3.259,3.259,0,0,0,5.03,32.066l5.095,20.008Z" transform="translate(1.293 7.666)" fill="#fac7ad"/>
      <path id="Trazado_1031613" data-name="Trazado 1031613" d="M34.893,55.866v10.42H19.578V62.259L7.238,51.029a7.657,7.657,0,0,1-2.267-3.773L1.1,32.069a3.258,3.258,0,0,1,6.255-1.814l4.658,14.365,11.393,6.241" transform="translate(0.208 7.667)" fill="#ffe3d2"/>
      <path id="Trazado_1031614" data-name="Trazado 1031614" d="M21.841,48.8,12.947,43.93a3.191,3.191,0,1,1,3.067-5.6l11.4,6.243a8.934,8.934,0,0,1,4.642,7.835V54.4" transform="translate(3.05 10.412)" fill="#ffe3d2"/>
      <path id="Trazado_1031615" data-name="Trazado 1031615" d="M9.313,40.026,9.725,41.3l11.393,6.242.112.05.045.024a1.276,1.276,0,0,1-1.226,2.239L12.273,45.6a5.732,5.732,0,0,1-2.961-5.571Z" transform="translate(2.497 10.988)" fill="#ffd1bb"/>
      <path id="Trazado_1031616" data-name="Trazado 1031616" d="M13.557,58h20.42v6.381H13.557Z" transform="translate(3.677 15.953)" fill="#72eb8f"/>
      <path id="Trazado_1031617" data-name="Trazado 1031617" d="M16.557,60H33.148v3.829H16.557Z" transform="translate(4.505 16.505)" fill="#61db70"/>
      <path id="Trazado_1031618" data-name="Trazado 1031618" d="M37.653,65.538h-1.6V55.368A9.893,9.893,0,0,0,30.92,46.69l-11.4-6.245a4.155,4.155,0,0,0-2.84-.422l-3.191-9.859a4.212,4.212,0,0,0-6.516-2.083A4.212,4.212,0,0,0,.382,32.514L4.253,47.7a8.613,8.613,0,0,0,2.552,4.246L18.832,62.89v2.648h-1.6a.957.957,0,0,0-.957.957v6.381a.957.957,0,0,0,.957.957h20.42a.957.957,0,0,0,.957-.957V66.5a.957.957,0,0,0-.96-.957ZM8.508,29.385a2.3,2.3,0,0,1,3.165,1.376l3.268,10.092c-.106.086-.211.176-.31.273A4.121,4.121,0,0,0,13.4,44.383l-.383-.207-4.531-14a4.2,4.2,0,0,0-.255-.627,2.242,2.242,0,0,1,.281-.161ZM8.091,50.534a6.705,6.705,0,0,1-1.983-3.3L2.237,32.037a2.3,2.3,0,1,1,4.422-1.276l4.653,14.364a.953.953,0,0,0,.451.545L24.435,52.6a.957.957,0,1,0,.92-1.678l-8.894-4.873a2.234,2.234,0,0,1,2.147-3.918L30,48.373a7.976,7.976,0,0,1,4.144,7v10.17h-13.4V62.475a.955.955,0,0,0-.314-.708ZM36.7,71.92H18.191V67.453H36.7Z" transform="translate(0 7.457)"/>
      <path id="Trazado_1031619" data-name="Trazado 1031619" d="M69.622,27.651a4.212,4.212,0,0,0-4.3.428,4.212,4.212,0,0,0-6.509,2.087l-3.191,9.859a4.152,4.152,0,0,0-2.838.422l-11.4,6.245a9.891,9.891,0,0,0-5.138,8.678V65.536h-1.6a.957.957,0,0,0-.957.957v6.381a.957.957,0,0,0,.957.957h20.42a.957.957,0,0,0,.957-.957V66.494a.957.957,0,0,0-.957-.957h-1.6V62.891L65.5,51.945A8.625,8.625,0,0,0,68.051,47.7l3.87-15.187A4.212,4.212,0,0,0,69.622,27.651Zm-8.994,3.108a2.3,2.3,0,0,1,3.16-1.372,2.241,2.241,0,0,1,.287.161,4.34,4.34,0,0,0-.255.627l-4.534,14-.383.207a4.116,4.116,0,0,0-1.235-3.257c-.1-.1-.2-.188-.31-.273ZM54.112,67.451v4.467H35.606V67.451ZM70.065,32.035,66.194,47.222a6.7,6.7,0,0,1-1.983,3.3L51.872,61.755a.958.958,0,0,0-.313.708v3.063h-13.4V55.366a7.976,7.976,0,0,1,4.144-7l11.4-6.244a2.234,2.234,0,1,1,2.147,3.918l-8.894,4.879a.957.957,0,1,0,.915,1.672l12.669-6.927a.962.962,0,0,0,.451-.545l4.657-14.364a2.3,2.3,0,1,1,4.422,1.276Z" transform="translate(9.241 7.459)"/>
      <path id="Trazado_1031620" data-name="Trazado 1031620" d="M61.109,24.179A23.929,23.929,0,1,0,37.179,48.109,23.929,23.929,0,0,0,61.109,24.179Zm-45.945,0A22.015,22.015,0,1,1,55.507,36.364a8.089,8.089,0,0,0-4.289-1.655,6.016,6.016,0,0,0-5.048,2.7,6.139,6.139,0,0,0-4.4.682,6.006,6.006,0,0,0-3.64-2.032V34.782a9.189,9.189,0,0,1,2.711-6.542l2.1-2.1c1.311,0,5.207-.244,7.733-2.769,3.008-3.009,2.771-7.965,2.761-8.168a.961.961,0,0,0-.9-.9c-.211-.009-5.166-.248-8.174,2.76-2.526,2.526-2.764,6.422-2.769,7.733l-2.1,2.1a11.386,11.386,0,0,0-1.357,1.64V20.758c.924-.932,3.51-3.856,3.51-7.426,0-4.255-3.672-7.592-3.829-7.733a.958.958,0,0,0-1.276,0c-.157.14-3.829,3.478-3.829,7.733,0,3.573,2.586,6.495,3.51,7.426v7.775a11.385,11.385,0,0,0-1.357-1.64l-2.1-2.1c0-1.311-.244-5.207-2.769-7.733-3.009-3.008-7.968-2.771-8.174-2.76a.961.961,0,0,0-.9.9c-.01.209-.248,5.165,2.761,8.168,2.526,2.526,6.422,2.764,7.733,2.769l2.1,2.1a9.189,9.189,0,0,1,2.711,6.542v1.276a6.006,6.006,0,0,0-3.635,2.032,6.145,6.145,0,0,0-4.394-.682,6.016,6.016,0,0,0-5.05-2.7,8.089,8.089,0,0,0-4.289,1.659,21.9,21.9,0,0,1-3.687-12.188ZM37.179,12.374a.957.957,0,0,0-.957.957v4.437a8.04,8.04,0,0,1-1.6-4.437,9.189,9.189,0,0,1,2.552-5.647,9.152,9.152,0,0,1,2.552,5.647,8.04,8.04,0,0,1-1.6,4.43v-4.43A.957.957,0,0,0,37.179,12.374ZM48.2,19.539a.956.956,0,0,0-1.353,0L43.71,22.677a8.029,8.029,0,0,1,2.009-4.266,9.189,9.189,0,0,1,5.8-2.186,9.147,9.147,0,0,1-2.189,5.8,8.056,8.056,0,0,1-4.26,2L48.2,20.892a.956.956,0,0,0,0-1.353ZM26.158,20.892,29.3,24.03a8.029,8.029,0,0,1-4.266-2.009,9.189,9.189,0,0,1-2.186-5.8,9.147,9.147,0,0,1,5.8,2.189,8.056,8.056,0,0,1,2,4.26l-3.133-3.132a.957.957,0,1,0-1.353,1.353Zm11.022,25.3a21.988,21.988,0,0,1-17.2-8.288,6.314,6.314,0,0,1,3.161-1.284,4.126,4.126,0,0,1,3.733,2.337.957.957,0,0,0,1.2.477,4.212,4.212,0,0,1,4.12.71.956.956,0,0,0,1.434-.239,4.152,4.152,0,0,1,7.111,0,.955.955,0,0,0,.662.451.93.93,0,0,0,.157.013.958.958,0,0,0,.615-.225,4.212,4.212,0,0,1,4.12-.71.957.957,0,0,0,1.2-.477,4.126,4.126,0,0,1,3.733-2.337,6.313,6.313,0,0,1,3.16,1.285,21.987,21.987,0,0,1-17.2,8.287Z" transform="translate(3.592 0)"/>
    </g>
  </g>
</svg>
