<svg xmlns="http://www.w3.org/2000/svg" xmlns:xlink="http://www.w3.org/1999/xlink" width="127" height="180.381" viewBox="0 0 127 180.381">
  <defs>
    <clipPath id="clip-path">
      <path id="path1377" d="M0-682.665H78.532v78.532H0Z" transform="translate(0 682.665)"/>
    </clipPath>
  </defs>
  <g id="Grupo_1199665" data-name="Grupo 1199665" transform="translate(-180 -4485.499)">
    <g id="Grupo_1199447" data-name="Grupo 1199447" transform="translate(180 4485.499)">
      <path id="Trazado_902293" data-name="Trazado 902293" d="M12,0H115c6.627,0,12,6.854,12,15.31V165.071c0,8.455-5.373,15.31-12,15.31H12c-6.627,0-12-6.854-12-15.31V15.31C0,6.854,5.373,0,12,0Z" transform="translate(0)" fill="#19793a"/>
    </g>
    <g id="g1371" transform="translate(207.234 5219.089)">
      <g id="g1373" transform="translate(0 -682.665)">
        <g id="g1375" clip-path="url(#clip-path)">
          <g id="g1381" transform="translate(17.792 68.408)">
            <path id="path1383" d="M-330.385-66.077h-42.947a8.589,8.589,0,0,1,8.589-8.589h25.768A8.589,8.589,0,0,1-330.385-66.077Z" transform="translate(373.332 74.666)" fill="#91def5"/>
          </g>
          <g id="g1385" transform="translate(34.971 1.534)">
            <path id="path1387" d="M-66.077-514.457h-8.589v-62.58a4.3,4.3,0,0,1,4.295-4.295h0a4.3,4.3,0,0,1,4.295,4.295Z" transform="translate(74.666 581.332)" fill="#91def5"/>
          </g>
          <g id="g1389" transform="translate(17.792 68.408)">
            <path id="path1391" d="M-330.385-66.077h-42.947a8.589,8.589,0,0,1,8.589-8.589h25.768A8.589,8.589,0,0,1-330.385-66.077Z" transform="translate(373.332 74.666)" fill="none" stroke="#000" stroke-linecap="round" stroke-linejoin="round" stroke-miterlimit="10" stroke-width="1.3"/>
          </g>
          <g id="g1393" transform="translate(34.971 1.534)">
            <path id="path1395" d="M-66.077-468.439v5.982h-8.589v-62.58a4.3,4.3,0,0,1,4.295-4.295h0a4.3,4.3,0,0,1,4.295,4.295v42.794" transform="translate(74.666 529.332)" fill="none" stroke="#000" stroke-linecap="round" stroke-linejoin="round" stroke-miterlimit="10" stroke-width="1.3"/>
          </g>
          <g id="g1397" transform="translate(9.816 7.669)">
            <path id="path1399" d="M0,0H58.9" fill="none" stroke="#000" stroke-linecap="round" stroke-linejoin="round" stroke-miterlimit="10" stroke-width="1.3"/>
          </g>
          <g id="g1401" transform="translate(1.718 39.266)">
            <path id="path1403" d="M-134.514-66.077h-8.9A8.589,8.589,0,0,1-152-74.666h26.075a8.589,8.589,0,0,1-8.589,8.589" transform="translate(152 74.666)" fill="#ffcb7c"/>
          </g>
          <g id="g1405" transform="translate(9.512 7.669)">
            <path id="path1407" d="M0-97.759l5.244-12.708L10.553-97.6" transform="translate(0 110.466)" fill="none" stroke="#000" stroke-linecap="round" stroke-linejoin="round" stroke-miterlimit="10" stroke-width="1.3"/>
          </g>
          <g id="g1409" transform="translate(1.718 30.403)">
            <path id="path1411" d="M-172.466-.02l3.656,8.861h-26.075l3.657-8.863" transform="translate(194.885 0.023)" fill="none" stroke="#000" stroke-linecap="round" stroke-linejoin="round" stroke-miterlimit="10" stroke-width="1.3"/>
          </g>
          <g id="g1413" transform="translate(1.718 39.266)">
            <path id="path1415" d="M-134.514-66.077h-8.9A8.589,8.589,0,0,1-152-74.666h26.075A8.589,8.589,0,0,1-134.514-66.077Z" transform="translate(152 74.666)" fill="none" stroke="#000" stroke-linecap="round" stroke-linejoin="round" stroke-miterlimit="10" stroke-width="1.3"/>
          </g>
          <g id="g1417" transform="translate(14.756 32.303)">
            <path id="path1419" d="M0,0V6.4" fill="none" stroke="#000" stroke-linecap="round" stroke-linejoin="round" stroke-miterlimit="10" stroke-width="1.3"/>
          </g>
          <g id="g1421" transform="translate(14.755 19.276)">
            <path id="path1423" d="M-78.682-78.682a10.224,10.224,0,0,1-9.881,2.648,10.224,10.224,0,0,1,2.648-9.881,10.224,10.224,0,0,1,9.881-2.648,10.224,10.224,0,0,1-2.648,9.881" transform="translate(88.91 88.909)" fill="#d8ec84"/>
          </g>
          <g id="g1425" transform="translate(1.534 19.276)">
            <path id="path1427" d="M-2.671-2.671A10.224,10.224,0,0,1,7.21-.022,10.224,10.224,0,0,1,9.859,9.859,10.224,10.224,0,0,1-.022,7.21,10.224,10.224,0,0,1-2.671-2.671" transform="translate(3.018 3.018)" fill="#d8ec84"/>
          </g>
          <g id="g1429" transform="translate(14.755 19.276)">
            <path id="path1431" d="M-78.682-78.682a10.224,10.224,0,0,1-9.881,2.648,10.224,10.224,0,0,1,2.648-9.881,10.224,10.224,0,0,1,9.881-2.648A10.224,10.224,0,0,1-78.682-78.682Z" transform="translate(88.91 88.909)" fill="none" stroke="#000" stroke-linecap="round" stroke-linejoin="round" stroke-miterlimit="10" stroke-width="1.3"/>
          </g>
          <g id="g1433" transform="translate(1.534 19.276)">
            <path id="path1435" d="M-2.671-2.671A10.224,10.224,0,0,1,7.21-.022,10.224,10.224,0,0,1,9.859,9.859,10.224,10.224,0,0,1-.022,7.21,10.224,10.224,0,0,1-2.671-2.671Z" transform="translate(3.018 3.018)" fill="none" stroke="#000" stroke-linecap="round" stroke-linejoin="round" stroke-miterlimit="10" stroke-width="1.3"/>
          </g>
          <g id="g1437" transform="translate(50.738 39.266)">
            <path id="path1439" d="M-66.077-66.077h8.9a8.589,8.589,0,0,0,8.589-8.589H-74.666a8.589,8.589,0,0,0,8.589,8.589" transform="translate(74.666 74.666)" fill="#ffcb7c"/>
          </g>
          <g id="g1441" transform="translate(58.466 7.669)">
            <path id="path1443" d="M-81.18-97.759l-5.244-12.708L-91.733-97.6" transform="translate(91.733 110.466)" fill="none" stroke="#000" stroke-linecap="round" stroke-linejoin="round" stroke-miterlimit="10" stroke-width="1.3"/>
          </g>
          <g id="g1445" transform="translate(50.738 30.403)">
            <path id="path1447" d="M-28.125-.02l-3.656,8.861H-5.706L-9.364-.023" transform="translate(31.781 0.023)" fill="none" stroke="#000" stroke-linecap="round" stroke-linejoin="round" stroke-miterlimit="10" stroke-width="1.3"/>
          </g>
          <g id="g1449" transform="translate(50.738 39.266)">
            <path id="path1451" d="M-66.077-66.077h8.9a8.589,8.589,0,0,0,8.589-8.589H-74.666A8.589,8.589,0,0,0-66.077-66.077Z" transform="translate(74.666 74.666)" fill="none" stroke="#000" stroke-linecap="round" stroke-linejoin="round" stroke-miterlimit="10" stroke-width="1.3"/>
          </g>
          <g id="g1453" transform="translate(63.776 32.303)">
            <path id="path1455" d="M0,0V6.4" fill="none" stroke="#000" stroke-linecap="round" stroke-linejoin="round" stroke-miterlimit="10" stroke-width="1.3"/>
          </g>
          <g id="g1457" transform="translate(50.554 19.276)">
            <path id="path1459" d="M-2.671-2.671A10.224,10.224,0,0,1,7.21-.022,10.224,10.224,0,0,1,9.859,9.859,10.224,10.224,0,0,1-.022,7.21,10.224,10.224,0,0,1-2.671-2.671" transform="translate(3.018 3.018)" fill="#d8ec84"/>
          </g>
          <g id="g1461" transform="translate(63.774 19.276)">
            <path id="path1463" d="M-78.682-78.682a10.224,10.224,0,0,1-9.881,2.648,10.224,10.224,0,0,1,2.648-9.881,10.224,10.224,0,0,1,9.881-2.648,10.224,10.224,0,0,1-2.648,9.881" transform="translate(88.91 88.909)" fill="#d8ec84"/>
          </g>
          <g id="g1465" transform="translate(50.554 19.276)">
            <path id="path1467" d="M-2.671-2.671A10.224,10.224,0,0,1,7.21-.022,10.224,10.224,0,0,1,9.859,9.859,10.224,10.224,0,0,1-.022,7.21,10.224,10.224,0,0,1-2.671-2.671Z" transform="translate(3.018 3.018)" fill="none" stroke="#000" stroke-linecap="round" stroke-linejoin="round" stroke-miterlimit="10" stroke-width="1.3"/>
          </g>
          <g id="g1469" transform="translate(63.774 19.276)">
            <path id="path1471" d="M-78.682-78.682a10.224,10.224,0,0,1-9.881,2.648,10.224,10.224,0,0,1,2.648-9.881,10.224,10.224,0,0,1,9.881-2.648A10.224,10.224,0,0,1-78.682-78.682Z" transform="translate(88.91 88.909)" fill="none" stroke="#000" stroke-linecap="round" stroke-linejoin="round" stroke-miterlimit="10" stroke-width="1.3"/>
          </g>
          <g id="g1473" transform="translate(43.56 55.524)">
            <path id="path1475" d="M0,0H0" fill="none" stroke="#000" stroke-linecap="round" stroke-linejoin="round" stroke-miterlimit="10" stroke-width="1.3"/>
          </g>
        </g>
      </g>
    </g>
  </g>
</svg>
