<svg xmlns="http://www.w3.org/2000/svg" xmlns:xlink="http://www.w3.org/1999/xlink" width="127" height="161.379" viewBox="0 0 127 161.379">
  <defs>
    <clipPath id="clip-path">
      <path id="path1095" d="M0-682.665H78.165V-604.5H0Z" transform="translate(0 682.665)"/>
    </clipPath>
  </defs>
  <g id="Grupo_1199666" data-name="Grupo 1199666" transform="translate(-600 -6951)">
    <g id="Grupo_1199497" data-name="Grupo 1199497" transform="translate(600 6951)">
      <path id="Trazado_902293" data-name="Trazado 902293" d="M12,0H115c6.627,0,12,6.132,12,13.7V147.682c0,7.565-5.373,13.7-12,13.7H12c-6.627,0-12-6.132-12-13.7V13.7C0,6.132,5.373,0,12,0Z" transform="translate(0)" fill="#9d978d"/>
    </g>
    <g id="g1089" transform="translate(627.417 7675.083)">
      <g id="g1091" transform="translate(0 -682.665)">
        <g id="g1093" clip-path="url(#clip-path)">
          <g id="g1099" transform="translate(61.821 27.092)">
            <path id="path1101" d="M-40.871,0h0a5.285,5.285,0,0,0-5.285,5.285V9.747l3.07,3.07L-38.6,8.336V2.267A2.267,2.267,0,0,0-40.871,0" transform="translate(46.156)" fill="#d88a55"/>
          </g>
          <g id="g1103" transform="translate(61.821 27.092)">
            <path id="path1105" d="M-40.871,0a5.285,5.285,0,0,0-5.285,5.285V9.747" transform="translate(46.156)" fill="none" stroke="#000" stroke-linecap="round" stroke-linejoin="round" stroke-miterlimit="10" stroke-width="1.3"/>
          </g>
          <g id="g1107" transform="translate(64.261 23.198)">
            <path id="path1109" d="M-69.646-79.929V-88a2.267,2.267,0,0,0-2.267-2.267A5.285,5.285,0,0,0-77.2-84.979v7.449l-1.454,1.454,2.577,2.577Z" transform="translate(78.652 90.264)" fill="#f7a86c"/>
          </g>
          <g id="g1111" transform="translate(65.715 23.198)">
            <path id="path1113" d="M-40.871,0a5.285,5.285,0,0,0-5.285,5.285v7.449" transform="translate(46.156)" fill="none" stroke="#000" stroke-linecap="round" stroke-linejoin="round" stroke-miterlimit="10" stroke-width="1.3"/>
          </g>
          <g id="g1115" transform="translate(44.064 19.445)">
            <path id="path1117" d="M-237.336,0h0a5.285,5.285,0,0,0-5.285,5.285v7.449l-4.555,4.555a6.436,6.436,0,0,0-8.923.171l-9.749,9.749a7.43,7.43,0,0,0-2.176,5.254v15.1l15.088-1.381V35.579a4.344,4.344,0,0,1,1.272-3.072l15.821-15.821a2.643,2.643,0,0,0,.774-1.868V2.267A2.267,2.267,0,0,0-237.336,0" transform="translate(268.025)" fill="#fed1a4"/>
          </g>
          <g id="g1119" transform="translate(54.171 19.445)">
            <path id="path1121" d="M-176.71-17.533V-4.982a2.635,2.635,0,0,1-.774,1.867L-193.3,12.707a4.34,4.34,0,0,0-1.273,3.072V26.385l-4.982,1.968V15.779a4.345,4.345,0,0,1,1.272-3.072l15.822-15.822a2.642,2.642,0,0,0,.774-1.867V-17.533a2.254,2.254,0,0,0-.385-1.263,5.257,5.257,0,0,1,3.1-1,2.267,2.267,0,0,1,2.267,2.267" transform="translate(199.56 19.8)" fill="#ffbc86"/>
          </g>
          <g id="g1123" transform="translate(44.064 19.445)">
            <path id="path1125" d="M-162.3-132.643l4.418-4.418v-7.449a5.285,5.285,0,0,1,5.285-5.285h0a2.267,2.267,0,0,1,2.267,2.267v12.551a2.642,2.642,0,0,1-.774,1.868l-15.821,15.821a4.344,4.344,0,0,0-1.272,3.072v10.606l-15.088,1.381v-15.1a7.431,7.431,0,0,1,2.176-5.254l9.749-9.749a6.437,6.437,0,0,1,9.1,0,2.263,2.263,0,0,1,0,3.2l-9.707,9.707" transform="translate(183.282 149.794)" fill="none" stroke="#000" stroke-linecap="round" stroke-linejoin="round" stroke-miterlimit="10" stroke-width="1.3"/>
          </g>
          <g id="g1127" transform="translate(41.892 64.208)">
            <path id="path1129" d="M-170.358-93.164h-22.028v-9.272a2.775,2.775,0,0,1,2.775-2.775h16.478a2.775,2.775,0,0,1,2.775,2.775Z" transform="translate(192.386 105.21)" fill="#0694fc"/>
          </g>
          <g id="g1131" transform="translate(56.164 64.207)">
            <path id="path1133" d="M-59.99-21.464v9.271h-4.981v-9.271a2.776,2.776,0,0,0-2.775-2.775h4.981a2.776,2.776,0,0,1,2.775,2.775" transform="translate(67.746 24.24)" fill="#0182fc"/>
          </g>
          <g id="g1135" transform="translate(55.492 64.208)">
            <path id="path1137" d="M-65.183-93.164v-9.272a2.775,2.775,0,0,0-2.775-2.775h-5.654" transform="translate(73.612 105.21)" fill="none" stroke="#000" stroke-linecap="round" stroke-linejoin="round" stroke-miterlimit="10" stroke-width="1.3"/>
          </g>
          <g id="g1139" transform="translate(41.892 64.208)">
            <path id="path1141" d="M-62.757,0H-68.1a2.775,2.775,0,0,0-2.775,2.775v9.272" transform="translate(70.872)" fill="none" stroke="#000" stroke-linecap="round" stroke-linejoin="round" stroke-miterlimit="10" stroke-width="1.3"/>
          </g>
          <g id="g1143" transform="translate(8.792 27.092)">
            <path id="path1145" d="M-17.532,0h0a5.285,5.285,0,0,1,5.285,5.285V9.747l-3.07,3.07L-19.8,8.336V2.267A2.267,2.267,0,0,1-17.532,0" transform="translate(19.799)" fill="#d88a55"/>
          </g>
          <g id="g1147" transform="translate(11.059 27.092)">
            <path id="path1149" d="M0,0A5.285,5.285,0,0,1,5.285,5.285V9.747" fill="none" stroke="#000" stroke-linecap="round" stroke-linejoin="round" stroke-miterlimit="10" stroke-width="1.3"/>
          </g>
          <g id="g1151" transform="translate(4.898 23.198)">
            <path id="path1153" d="M0-79.929V-88a2.267,2.267,0,0,1,2.267-2.267,5.285,5.285,0,0,1,5.285,5.285v7.449l1.454,1.454L6.429-73.5Z" transform="translate(0 90.264)" fill="#f7a86c"/>
          </g>
          <g id="g1155" transform="translate(7.165 23.198)">
            <path id="path1157" d="M0,0A5.285,5.285,0,0,1,5.285,5.285v7.449" fill="none" stroke="#000" stroke-linecap="round" stroke-linejoin="round" stroke-miterlimit="10" stroke-width="1.3"/>
          </g>
          <g id="g1159" transform="translate(1.145 19.445)">
            <path id="path1161" d="M-17.532,0h0a5.285,5.285,0,0,1,5.285,5.285v7.449l4.555,4.555a6.436,6.436,0,0,1,8.923.171l9.749,9.749a7.43,7.43,0,0,1,2.176,5.254v15.1L-1.931,46.185V35.579A4.345,4.345,0,0,0-3.2,32.507L-19.025,16.686a2.643,2.643,0,0,1-.774-1.868V2.267A2.267,2.267,0,0,1-17.532,0" transform="translate(19.799)" fill="#fed1a4"/>
          </g>
          <g id="g1163" transform="translate(14.657 35.02)">
            <path id="path1165" d="M-150.369-130.61v15.1l-5.933-.543v-14.56a7.436,7.436,0,0,0-2.176-5.255l-9.749-9.749a6.38,6.38,0,0,0-1.586-1.162,6.438,6.438,0,0,1,7.517,1.162l9.749,9.749a7.431,7.431,0,0,1,2.177,5.255" transform="translate(169.813 147.499)" fill="#ffbc86"/>
          </g>
          <g id="g1167" transform="translate(12.409 35.019)">
            <path id="path1169" d="M-99.372-38.43l-3.084-3.084a6.437,6.437,0,0,0-9.1,0,2.263,2.263,0,0,0,0,3.2l9.707,9.707" transform="translate(112.221 43.399)" fill="none" stroke="#000" stroke-linecap="round" stroke-linejoin="round" stroke-miterlimit="10" stroke-width="1.3"/>
          </g>
          <g id="g1171" transform="translate(1.145 19.445)">
            <path id="path1173" d="M-92.57-132.643l-4.418-4.418v-7.449a5.285,5.285,0,0,0-5.285-5.285h0a2.267,2.267,0,0,0-2.267,2.267v12.551a2.642,2.642,0,0,0,.774,1.868l15.821,15.821a4.344,4.344,0,0,1,1.272,3.072v10.606l15.088,1.381v-15.1a7.431,7.431,0,0,0-2.176-5.254l-2.861-2.861" transform="translate(104.54 149.794)" fill="none" stroke="#000" stroke-linecap="round" stroke-linejoin="round" stroke-miterlimit="10" stroke-width="1.3"/>
          </g>
          <g id="g1175" transform="translate(14.244 64.208)">
            <path id="path1177" d="M0-93.164H22.028v-9.272a2.775,2.775,0,0,0-2.775-2.775H2.775A2.775,2.775,0,0,0,0-102.435Z" transform="translate(0 105.21)" fill="#0694fc"/>
          </g>
          <g id="g1179" transform="translate(28.516 64.207)">
            <path id="path1181" d="M-59.978-21.464v9.271h-4.981v-9.271a2.774,2.774,0,0,0-2.774-2.775h4.981a2.774,2.774,0,0,1,2.774,2.775" transform="translate(67.733 24.24)" fill="#0182fc"/>
          </g>
          <g id="g1183" transform="translate(14.244 64.208)">
            <path id="path1185" d="M-170.358-93.164v-9.272a2.775,2.775,0,0,0-2.775-2.775h-16.478a2.775,2.775,0,0,0-2.775,2.775v9.272" transform="translate(192.386 105.21)" fill="none" stroke="#000" stroke-linecap="round" stroke-linejoin="round" stroke-miterlimit="10" stroke-width="1.3"/>
          </g>
          <g id="g1187" transform="translate(28.315 12.671)">
            <path id="path1189" d="M-65.925-17.349A7.66,7.66,0,0,1-64.15-9.292a7.658,7.658,0,0,1-8.056-1.776,7.654,7.654,0,0,1-2.039-7.177A1.536,1.536,0,0,1-73.1-19.388a7.653,7.653,0,0,1,7.177,2.039" transform="translate(74.45 19.592)" fill="#a1e62d"/>
          </g>
          <g id="g1191" transform="translate(30.406 12.671)">
            <path id="path1193" d="M-63.484-79.652a7.692,7.692,0,0,1-5.433-.056,7.774,7.774,0,0,0,1.621-.4,7.658,7.658,0,0,0-1.776-8.056,7.613,7.613,0,0,0-2.621-1.717,7.647,7.647,0,0,1,6.433,2.175,7.661,7.661,0,0,1,1.776,8.056" transform="translate(71.693 89.952)" fill="#97d729"/>
          </g>
          <g id="g1195" transform="translate(28.315 12.671)">
            <path id="path1197" d="M-65.925-17.349A7.66,7.66,0,0,1-64.15-9.292a7.658,7.658,0,0,1-8.056-1.776,7.654,7.654,0,0,1-2.039-7.177A1.536,1.536,0,0,1-73.1-19.388,7.653,7.653,0,0,1-65.925-17.349Z" transform="translate(74.45 19.592)" fill="none" stroke="#000" stroke-linecap="round" stroke-linejoin="round" stroke-miterlimit="10" stroke-width="1.3"/>
          </g>
          <g id="g1199" transform="translate(39.082 12.671)">
            <path id="path1201" d="M-17.349-17.349a7.659,7.659,0,0,0-1.776,8.056,7.658,7.658,0,0,0,8.056-1.776,7.653,7.653,0,0,0,2.039-7.177,1.536,1.536,0,0,0-1.143-1.143,7.653,7.653,0,0,0-7.177,2.039" transform="translate(19.592 19.592)" fill="#bbec6b"/>
          </g>
          <g id="g1203" transform="translate(40.515 12.671)">
            <path id="path1205" d="M-54.854-65.923a7.654,7.654,0,0,1-7.093,2.059,7.631,7.631,0,0,0,3.739-2.059,7.654,7.654,0,0,0,2.04-7.177,1.534,1.534,0,0,0-1.143-1.143c-.029-.006-.058-.014-.087-.018a7.7,7.7,0,0,1,3.44.018A1.534,1.534,0,0,1-52.816-73.1a7.653,7.653,0,0,1-2.038,7.177" transform="translate(61.947 74.447)" fill="#a1e62d"/>
          </g>
          <g id="g1207" transform="translate(39.082 12.671)">
            <path id="path1209" d="M-78.535-47.256a7.683,7.683,0,0,0,.408-4.763,1.536,1.536,0,0,0-1.143-1.143,7.654,7.654,0,0,0-7.177,2.039,7.66,7.66,0,0,0-1.776,8.056,7.679,7.679,0,0,0,5.873-.247" transform="translate(88.69 53.366)" fill="none" stroke="#000" stroke-linecap="round" stroke-linejoin="round" stroke-miterlimit="10" stroke-width="1.3"/>
          </g>
          <g id="g1211" transform="translate(27.09 26.273)">
            <path id="path1213" d="M-73.425-19.323a8.531,8.531,0,0,1,1.977,8.973,8.53,8.53,0,0,1-8.973-1.977,8.526,8.526,0,0,1-2.233-8.15,1.5,1.5,0,0,1,1.078-1.078,8.526,8.526,0,0,1,8.15,2.233" transform="translate(82.919 21.821)" fill="#a1e62d"/>
          </g>
          <g id="g1215" transform="translate(29.646 26.274)">
            <path id="path1217" d="M-68.951-88.7a8.552,8.552,0,0,1-5.841.015,8.513,8.513,0,0,0,2.03-.473,8.531,8.531,0,0,0-1.979-8.972,8.5,8.5,0,0,0-3.127-1.991,8.5,8.5,0,0,1,6.937,2.449A8.531,8.531,0,0,1-68.951-88.7" transform="translate(77.866 100.173)" fill="#97d729"/>
          </g>
          <g id="g1219" transform="translate(27.09 26.273)">
            <path id="path1221" d="M-73.425-19.323a8.531,8.531,0,0,1,1.977,8.973,8.53,8.53,0,0,1-8.973-1.977,8.526,8.526,0,0,1-2.233-8.15,1.5,1.5,0,0,1,1.078-1.078A8.526,8.526,0,0,1-73.425-19.323Z" transform="translate(82.919 21.821)" fill="none" stroke="#000" stroke-linecap="round" stroke-linejoin="round" stroke-miterlimit="10" stroke-width="1.3"/>
          </g>
          <g id="g1223" transform="translate(39.082 26.273)">
            <path id="path1225" d="M-19.322-19.323A8.531,8.531,0,0,0-21.3-10.35a8.53,8.53,0,0,0,8.973-1.977,8.525,8.525,0,0,0,2.233-8.15,1.5,1.5,0,0,0-1.078-1.078,8.526,8.526,0,0,0-8.15,2.233" transform="translate(21.821 21.821)" fill="#bbec6b"/>
          </g>
          <g id="g1227" transform="translate(40.867 26.274)">
            <path id="path1229" d="M-59.624-73.419a8.521,8.521,0,0,1-7.71,2.333,8.487,8.487,0,0,0,4.357-2.333,8.526,8.526,0,0,0,2.232-8.151,1.5,1.5,0,0,0-1.078-1.076c-.148-.038-.3-.072-.447-.1a8.585,8.585,0,0,1,3.8.1,1.5,1.5,0,0,1,1.078,1.076,8.523,8.523,0,0,1-2.232,8.151" transform="translate(67.333 82.912)" fill="#a1e62d"/>
          </g>
          <g id="g1231" transform="translate(39.082 26.273)">
            <path id="path1233" d="M-19.322-19.323A8.531,8.531,0,0,0-21.3-10.35a8.53,8.53,0,0,0,8.973-1.977,8.525,8.525,0,0,0,2.233-8.15,1.5,1.5,0,0,0-1.078-1.078A8.526,8.526,0,0,0-19.322-19.323Z" transform="translate(21.821 21.821)" fill="none" stroke="#000" stroke-linecap="round" stroke-linejoin="round" stroke-miterlimit="10" stroke-width="1.3"/>
          </g>
          <g id="g1235" transform="translate(30.885 1.911)">
            <path id="path1237" d="M-50.191-13.208A5.832,5.832,0,0,1-48.84-7.075a5.831,5.831,0,0,1-6.134-1.352,5.824,5.824,0,0,1-1.617-5.152,1.54,1.54,0,0,1,1.247-1.247,5.824,5.824,0,0,1,5.152,1.617" transform="translate(56.682 14.916)" fill="#a1e62d"/>
          </g>
          <g id="g1239" transform="translate(32.022 1.911)">
            <path id="path1241" d="M-51.855-60.647a5.846,5.846,0,0,1-4.575-.237,5.9,5.9,0,0,0,.765-.221,5.835,5.835,0,0,0-1.353-6.134,5.849,5.849,0,0,0-1.542-1.108,1.5,1.5,0,0,1,.2-.05,5.822,5.822,0,0,1,5.151,1.617,5.832,5.832,0,0,1,1.353,6.134" transform="translate(58.56 68.489)" fill="#97d729"/>
          </g>
          <g id="g1243" transform="translate(30.885 1.911)">
            <path id="path1245" d="M-50.191-13.208A5.832,5.832,0,0,1-48.84-7.075a5.831,5.831,0,0,1-6.134-1.352,5.824,5.824,0,0,1-1.617-5.152,1.54,1.54,0,0,1,1.247-1.247A5.824,5.824,0,0,1-50.191-13.208Z" transform="translate(56.682 14.916)" fill="none" stroke="#000" stroke-linecap="round" stroke-linejoin="round" stroke-miterlimit="10" stroke-width="1.3"/>
          </g>
          <g id="g1247" transform="translate(39.083 1.911)">
            <path id="path1249" d="M-13.208-13.208A5.832,5.832,0,0,0-14.56-7.075,5.831,5.831,0,0,0-8.426-8.426a5.825,5.825,0,0,0,1.617-5.152,1.54,1.54,0,0,0-1.247-1.247,5.824,5.824,0,0,0-5.152,1.617" transform="translate(14.916 14.916)" fill="#bbec6b"/>
          </g>
          <g id="g1251" transform="translate(39.774 1.911)">
            <path id="path1253" d="M-44.842-50.186a5.824,5.824,0,0,1-5.8,1.463,5.817,5.817,0,0,0,2.446-1.463,5.821,5.821,0,0,0,1.617-5.151,1.534,1.534,0,0,0-.728-1.053,5.853,5.853,0,0,1,2.833-.194,1.539,1.539,0,0,1,1.247,1.247,5.821,5.821,0,0,1-1.617,5.151" transform="translate(50.64 56.675)" fill="#a1e62d"/>
          </g>
          <g id="g1255" transform="translate(39.083 1.911)">
            <path id="path1257" d="M-13.208-13.208A5.832,5.832,0,0,0-14.56-7.075,5.831,5.831,0,0,0-8.426-8.426a5.825,5.825,0,0,0,1.617-5.152,1.54,1.54,0,0,0-1.247-1.247A5.824,5.824,0,0,0-13.208-13.208Z" transform="translate(14.916 14.916)" fill="none" stroke="#000" stroke-linecap="round" stroke-linejoin="round" stroke-miterlimit="10" stroke-width="1.3"/>
          </g>
          <g id="g1259" transform="translate(39.082 7.789)">
            <path id="path1261" d="M0,0V36" fill="none" stroke="#000" stroke-linecap="round" stroke-linejoin="round" stroke-miterlimit="10" stroke-width="1.3"/>
          </g>
          <g id="g1263" transform="translate(18.395 68.941)">
            <path id="path1265" d="M-31.811-15.906a2.057,2.057,0,0,1-2.057,2.057,2.057,2.057,0,0,1-2.057-2.057,2.057,2.057,0,0,1,2.057-2.057,2.057,2.057,0,0,1,2.057,2.057" transform="translate(35.924 17.963)" fill="#eaf6ff"/>
          </g>
          <g id="g1267" transform="translate(18.395 68.941)">
            <path id="path1269" d="M-31.811-15.906a2.057,2.057,0,0,1-2.057,2.057,2.057,2.057,0,0,1-2.057-2.057,2.057,2.057,0,0,1,2.057-2.057A2.057,2.057,0,0,1-31.811-15.906Z" transform="translate(35.924 17.963)" fill="none" stroke="#000" stroke-linecap="round" stroke-linejoin="round" stroke-miterlimit="10" stroke-width="1.3"/>
          </g>
          <g id="g1271" transform="translate(55.657 68.941)">
            <path id="path1273" d="M-31.811-15.906a2.057,2.057,0,0,1-2.057,2.057,2.057,2.057,0,0,1-2.057-2.057,2.057,2.057,0,0,1,2.057-2.057,2.057,2.057,0,0,1,2.057,2.057" transform="translate(35.924 17.963)" fill="#eaf6ff"/>
          </g>
          <g id="g1275" transform="translate(55.657 68.941)">
            <path id="path1277" d="M-31.811-15.906a2.057,2.057,0,0,1-2.057,2.057,2.057,2.057,0,0,1-2.057-2.057,2.057,2.057,0,0,1,2.057-2.057A2.057,2.057,0,0,1-31.811-15.906Z" transform="translate(35.924 17.963)" fill="none" stroke="#000" stroke-linecap="round" stroke-linejoin="round" stroke-miterlimit="10" stroke-width="1.3"/>
          </g>
        </g>
      </g>
    </g>
  </g>
</svg>
