<svg xmlns="http://www.w3.org/2000/svg" width="97" height="100" viewBox="0 0 97 100">
  <g id="Grupo_1199537" data-name="Grupo 1199537" transform="translate(-1083.051 -8780)">
    <g id="Grupo_1199522" data-name="Grupo 1199522" transform="translate(-30 -69)">
      <circle id="Elipse_12146" data-name="Elipse 12146" cx="21.5" cy="21.5" r="21.5" transform="translate(1167.051 8849)" fill="#9bc3a8"/>
      <circle id="Elipse_12147" data-name="Elipse 12147" cx="31" cy="31" r="31" transform="translate(1113.051 8887)" fill="#9bc3a8"/>
    </g>
    <g id="environmental-regulations_18780449_1_" data-name="environmental-regulations_18780449 (1)" transform="translate(1077.555 8792.206)">
      <g id="Grupo_1199540" data-name="Grupo 1199540" transform="translate(15.04 1.23)">
        <path id="Trazado_1031535" data-name="Trazado 1031535" d="M54.251,8.01H29.9a8.1,8.1,0,0,0-8.081,8.078V26.822H54.252V8.01Z" transform="translate(-21.82 -8.01)" fill="#8bd7fa" fill-rule="evenodd"/>
        <path id="Trazado_1031536" data-name="Trazado 1031536" d="M130.2,8.01a8.1,8.1,0,0,1,8.078,8.078V84.163H82.518V16.088A8.1,8.1,0,0,0,74.44,8.01Z" transform="translate(-66.361 -8.01)" fill="#daeafa" fill-rule="evenodd"/>
        <path id="Trazado_1031537" data-name="Trazado 1031537" d="M259.178,191.53h12.567a1.552,1.552,0,0,1,1.546,1.546v3.794H257.63v-3.794A1.555,1.555,0,0,1,259.178,191.53Z" transform="translate(-221.424 -163.352)" fill="#223c55" fill-rule="evenodd"/>
        <path id="Trazado_1031538" data-name="Trazado 1031538" d="M287.679,37.51a3.8,3.8,0,1,1-3.8,3.8A3.8,3.8,0,0,1,287.679,37.51Z" transform="translate(-243.643 -32.981)" fill="#986b54" fill-rule="evenodd"/>
        <path id="Trazado_1031539" data-name="Trazado 1031539" d="M188.092,318.73a19.327,19.327,0,0,0,18.033,23.914c1.331-5.441,3.6-12.5-3.341-16.238C196.275,323.327,192.308,323.732,188.092,318.73Z" transform="translate(-162.091 -271.022)" fill="#70da40" fill-rule="evenodd"/>
        <path id="Trazado_1031540" data-name="Trazado 1031540" d="M284.531,390.56a19.933,19.933,0,0,0,2.6.275c1.213-4.964,3.211-11.267-1.715-15.174a10.92,10.92,0,0,0-2.166,6.3A30.106,30.106,0,0,0,284.531,390.56Z" transform="translate(-243.094 -319.211)" fill="#65c43a" fill-rule="evenodd"/>
        <path id="Trazado_1031541" data-name="Trazado 1031541" d="M318.708,318.73a19.327,19.327,0,0,1-18.038,23.914c-1.327-5.441-3.6-12.5,3.346-16.238C310.524,323.327,314.487,323.732,318.708,318.73Z" transform="translate(-256.633 -271.022)" fill="#70da40" fill-rule="evenodd"/>
        <path id="Trazado_1031542" data-name="Trazado 1031542" d="M307.53,415.95c-.465.051-.929.089-1.4.106-.144-.591-.3-1.2-.451-1.826a29.707,29.707,0,0,1,2.877-4.2,22.142,22.142,0,0,1,4.711-4.373,1.226,1.226,0,0,1,1.351,2.045,19.562,19.562,0,0,0-4.17,3.883A27.36,27.36,0,0,0,307.53,415.95Z" transform="translate(-262.096 -344.432)" fill="#70da40" fill-rule="evenodd"/>
        <path id="Trazado_1031543" data-name="Trazado 1031543" d="M389.951,41.33a3.211,3.211,0,1,1-3.211,3.211A3.21,3.21,0,0,1,389.951,41.33Z" transform="translate(-330.71 -36.214)" fill="#986b54" fill-rule="evenodd"/>
        <path id="Trazado_1031544" data-name="Trazado 1031544" d="M191.931,41.33a3.211,3.211,0,1,1-3.211,3.211A3.211,3.211,0,0,1,191.931,41.33Z" transform="translate(-163.094 -36.214)" fill="#986b54" fill-rule="evenodd"/>
        <path id="Trazado_1031545" data-name="Trazado 1031545" d="M378.616,138.51H365.76v2.576a2.59,2.59,0,0,0,2.581,2.581h7.7a2.588,2.588,0,0,0,2.576-2.581V138.51Z" transform="translate(-312.951 -118.473)" fill="#fea832" fill-rule="evenodd"/>
        <path id="Trazado_1031546" data-name="Trazado 1031546" d="M180.626,138.51H167.77v2.576a2.586,2.586,0,0,0,2.576,2.581h7.7a2.59,2.59,0,0,0,2.581-2.581V138.51Z" transform="translate(-145.361 -118.473)" fill="#fea832" fill-rule="evenodd"/>
        <path id="Trazado_1031547" data-name="Trazado 1031547" d="M70.961,16.088V26.822h3.075V16.088A8.1,8.1,0,0,0,66,8.01h-.038a8.055,8.055,0,0,0-1.538.147A8.11,8.11,0,0,1,70.961,16.088Z" transform="translate(-57.879 -8.01)" fill="#7dc2e1" fill-rule="evenodd"/>
        <path id="Trazado_1031548" data-name="Trazado 1031548" d="M170.174,139.871V138.52h-2.4V141.1a2.586,2.586,0,0,0,2.576,2.581h2.408a2.59,2.59,0,0,1-2.581-2.581v-1.225Z" transform="translate(-145.361 -118.481)" fill="#e5972d" fill-rule="evenodd"/>
        <path id="Trazado_1031549" data-name="Trazado 1031549" d="M365.77,138.51v2.576a2.59,2.59,0,0,0,2.581,2.581h2.4a2.59,2.59,0,0,1-2.581-2.581V138.51h-2.4Z" transform="translate(-312.96 -118.473)" fill="#e5972d" fill-rule="evenodd"/>
        <path id="Trazado_1031550" data-name="Trazado 1031550" d="M260.048,196.87v-3.794a1.549,1.549,0,0,1,1.546-1.546h-2.408a1.552,1.552,0,0,0-1.546,1.546v3.794Z" transform="translate(-221.432 -163.352)" fill="#1f364d" fill-rule="evenodd"/>
        <path id="Trazado_1031551" data-name="Trazado 1031551" d="M190.244,44.532a3.211,3.211,0,0,1,2.441-3.118,3.21,3.21,0,1,0-.763,6.327,2.99,2.99,0,0,0,.765-.094,3.206,3.206,0,0,1-2.443-3.115Z" transform="translate(-163.086 -36.206)" fill="#89604c" fill-rule="evenodd"/>
        <path id="Trazado_1031552" data-name="Trazado 1031552" d="M287.687,37.51a3.8,3.8,0,0,0-3.594,2.569,3.8,3.8,0,0,0,4.365,4.953,3.773,3.773,0,0,1-1.994-1.107,3.9,3.9,0,0,1-.841-1.385,3.8,3.8,0,0,1,2.834-4.952A3.643,3.643,0,0,0,287.687,37.51Z" transform="translate(-243.652 -32.981)" fill="#89604c" fill-rule="evenodd"/>
        <path id="Trazado_1031553" data-name="Trazado 1031553" d="M386.971,43.312a3.212,3.212,0,0,0,2.969,4.44,3.007,3.007,0,0,0,.765-.094,3.211,3.211,0,0,1-2.447-3.117,3.141,3.141,0,0,1,.246-1.23,3.206,3.206,0,0,1,2.2-1.889,3.206,3.206,0,0,0-3.733,1.889Z" transform="translate(-330.701 -36.214)" fill="#89604c" fill-rule="evenodd"/>
      </g>
      <path id="Trazado_1031554" data-name="Trazado 1031554" d="M78.873,0H23.119A9.32,9.32,0,0,0,13.81,9.311V20.043a1.227,1.227,0,0,0,1.227,1.227H29.97V77.385A1.226,1.226,0,0,0,31.2,78.611H86.955a1.226,1.226,0,0,0,1.227-1.227V9.311A9.32,9.32,0,0,0,78.873,0ZM16.265,18.816V9.311a6.853,6.853,0,1,1,13.707,0v9.506ZM85.727,76.158h-53.3V9.311A9.293,9.293,0,0,0,29.41,2.455H78.873a6.862,6.862,0,0,1,6.854,6.856ZM80.7,20.039h-1.39l-2.451-6.88a4.436,4.436,0,1,0-6.853-4.827H63.95a5.027,5.027,0,0,0-9.75,0H48.139a4.436,4.436,0,1,0-6.848,4.827l-2.452,6.88h-1.39a1.226,1.226,0,0,0-1.227,1.227v2.581a3.81,3.81,0,0,0,3.808,3.8h7.7a3.809,3.809,0,0,0,3.808-3.8V21.265a1.226,1.226,0,0,0-1.227-1.227h-1.39l-2.452-6.882a4.44,4.44,0,0,0,1.674-2.372H54.2a5.046,5.046,0,0,0,3.647,3.648v13.75H52.8a2.776,2.776,0,0,0-2.773,2.773v3.8a1.226,1.226,0,0,0,1.227,1.227H66.9a1.226,1.226,0,0,0,1.227-1.227v-3.8a2.776,2.776,0,0,0-2.773-2.773H60.3V14.433a5.041,5.041,0,0,0,3.647-3.648h6.063a4.451,4.451,0,0,0,1.678,2.374l-2.452,6.88h-1.39a1.226,1.226,0,0,0-1.227,1.227v2.581a3.81,3.81,0,0,0,3.808,3.8h7.7a3.809,3.809,0,0,0,3.808-3.8V21.265A1.225,1.225,0,0,0,80.7,20.039ZM65.676,30.954v2.567h-13.2V30.954a.323.323,0,0,1,.318-.318H65.36A.321.321,0,0,1,65.676,30.954Zm8.6-23.38a1.983,1.983,0,1,1-1.984,1.985A1.987,1.987,0,0,1,74.276,7.574Zm-30.4,0a1.983,1.983,0,1,1-1.984,1.985A1.985,1.985,0,0,1,43.875,7.574Zm5.2,16.272a1.352,1.352,0,0,1-1.354,1.35h-7.7a1.353,1.353,0,0,1-1.354-1.35V22.492h10.4v1.354Zm-2.768-3.808H41.441L43.6,13.985c.091.006.183.009.275.009s.184,0,.275-.009Zm12.765-7.907a2.572,2.572,0,1,1,2.572-2.572A2.575,2.575,0,0,1,59.074,12.131ZM74,13.985c.091.006.183.009.275.009s.184,0,.275-.009l2.157,6.054H71.841Zm5.477,9.862a1.353,1.353,0,0,1-1.354,1.35h-7.7a1.353,1.353,0,0,1-1.354-1.35V22.492h10.4v1.354Zm-.14,16.065a1.226,1.226,0,0,1-1.227,1.227H40.041a1.227,1.227,0,1,1,0-2.454h38.07A1.227,1.227,0,0,1,79.338,39.911Zm-39.3,6.512a1.227,1.227,0,1,1,0-2.454H59.074a1.227,1.227,0,0,1,0,2.454Zm37.353,1.32a1.228,1.228,0,0,0-1.219.4c-2.606,3.092-5.05,3.923-8.436,5.076a51.973,51.973,0,0,0-5.845,2.283l-.057.028a11.488,11.488,0,0,0-2.77,2.034,11.345,11.345,0,0,0-2.758-2.036l-.055-.028a51.973,51.973,0,0,0-5.845-2.283c-3.384-1.152-5.83-1.984-8.436-5.076a1.228,1.228,0,0,0-2.131.5A20.561,20.561,0,0,0,59.025,74.08l.045,0h.051A20.559,20.559,0,0,0,78.3,48.648a1.222,1.222,0,0,0-.91-.9ZM45.361,64.438a18.046,18.046,0,0,1-3.538-12.92c2.472,2.217,4.978,3.069,7.8,4.029a50.14,50.14,0,0,1,5.557,2.165,8.575,8.575,0,0,1,2.4,1.862c-2,3.677-1.029,8.2-.109,11.913A18.036,18.036,0,0,1,45.361,64.438Zm27.432,0a18.037,18.037,0,0,1-11.548,6.968,20.982,20.982,0,0,1,6.321-6.9,1.227,1.227,0,0,0-1.359-2.044,23.121,23.121,0,0,0-6.687,7.06c-1.066-4.625-1.48-9.134,3.455-11.806a50.142,50.142,0,0,1,5.557-2.165c2.819-.96,5.326-1.812,7.8-4.029A18.051,18.051,0,0,1,72.793,64.438Z"/>
    </g>
  </g>
</svg>
