<svg xmlns="http://www.w3.org/2000/svg" xmlns:xlink="http://www.w3.org/1999/xlink" width="138" height="138" viewBox="0 0 138 138">
  <defs>
    <filter id="Trazado_896985" x="0" y="0" width="138" height="138" filterUnits="userSpaceOnUse">
      <feOffset dy="3" input="SourceAlpha"/>
      <feGaussianBlur stdDeviation="3" result="blur"/>
      <feFlood flood-opacity="0.161"/>
      <feComposite operator="in" in2="blur"/>
      <feComposite in="SourceGraphic"/>
    </filter>
  </defs>
  <g id="Grupo_1199694" data-name="Grupo 1199694" transform="translate(9 6)">
    <g id="Grupo_1199550" data-name="Grupo 1199550" transform="translate(0 0)">
      <g id="Grupo_1111318" data-name="Grupo 1111318" transform="translate(0)">
        <g id="Grupo_1109826" data-name="Grupo 1109826">
          <g id="Grupo_1098742" data-name="Grupo 1098742">
            <g transform="matrix(1, 0, 0, 1, -9, -6)" filter="url(#Trazado_896985)">
              <g id="Trazado_896985-2" data-name="Trazado 896985" transform="translate(9 6)" fill="#f1963d" opacity="0.859">
                <path d="M 59.99993896484375 118.5 C 52.10183715820312 118.5 44.44078826904297 116.9534759521484 37.22958755493164 113.9033966064453 C 33.7635383605957 112.4373931884766 30.42043876647949 110.6227951049805 27.29312324523926 108.510009765625 C 24.19512176513672 106.4170608520508 21.28185653686523 104.0133819580078 18.63423919677734 101.3657760620117 C 15.98662185668945 98.71816253662109 13.5829553604126 95.80489349365234 11.48998928070068 92.70689392089844 C 9.377205848693848 89.57958221435547 7.5626220703125 86.23646545410156 6.096605777740479 82.77043151855469 C 3.046522378921509 75.55922698974609 1.500005602836609 67.89817810058594 1.500005602836609 60.00008010864258 C 1.500005602836609 52.10181427001953 3.046522378921509 44.44076156616211 6.096605777740479 37.22956466674805 C 7.5626220703125 33.76353073120117 9.377205848693848 30.42041206359863 11.48998928070068 27.2930965423584 C 13.5829553604126 24.19511222839355 15.98662185668945 21.28184700012207 18.63423919677734 18.63422966003418 C 21.28185653686523 15.98661327362061 24.19512176513672 13.58294582366943 27.29312324523926 11.48997974395752 C 30.42043876647949 9.377196311950684 33.7635383605957 7.562613010406494 37.22958755493164 6.096596240997314 C 44.44078826904297 3.046512842178345 52.10183715820312 1.499996185302734 59.99993896484375 1.499996185302734 C 67.89804077148438 1.499996185302734 75.55908966064453 3.046512842178345 82.77028656005859 6.096596240997314 C 86.23633575439453 7.562613010406494 89.57943725585938 9.377196311950684 92.70675659179688 11.48997974395752 C 95.80475616455078 13.58294582366943 98.71802520751953 15.98661327362061 101.3656387329102 18.63422966003418 C 104.0132522583008 21.28184700012207 106.4169235229492 24.19511222839355 108.5098876953125 27.2930965423584 C 110.622673034668 30.42041206359863 112.437255859375 33.76353073120117 113.9032745361328 37.22956466674805 C 116.9533538818359 44.44076156616211 118.499870300293 52.10181427001953 118.499870300293 59.99991226196289 C 118.499870300293 67.89817810058594 116.9533538818359 75.55922698974609 113.9032745361328 82.77043151855469 C 112.437255859375 86.23646545410156 110.622673034668 89.57958221435547 108.5098876953125 92.70689392089844 C 106.4169235229492 95.80489349365234 104.0132522583008 98.71816253662109 101.3656387329102 101.3657760620117 C 98.71802520751953 104.0133819580078 95.80475616455078 106.4170608520508 92.70675659179688 108.510009765625 C 89.57943725585938 110.6227951049805 86.23633575439453 112.4373931884766 82.77028656005859 113.9033966064453 C 75.55908966064453 116.9534759521484 67.89804077148438 118.5 59.99993896484375 118.5 Z" stroke="none"/>
                <path d="M 59.99993896484375 2.999992370605469 C 52.30366516113281 2.999992370605469 44.83921051025391 4.50665283203125 37.81390380859375 7.478103637695312 C 34.43706512451172 8.906379699707031 31.17988586425781 10.67436218261719 28.1328125 12.73290252685547 C 25.11392211914062 14.77243041992188 22.27499389648438 17.11477661132812 19.69488525390625 19.69488525390625 C 17.11477661132812 22.27499389648438 14.77243041992188 25.11392211914062 12.73290252685547 28.1328125 C 10.67435455322266 31.17987060546875 8.9063720703125 34.43706512451172 7.478103637695312 37.81390380859375 C 4.506645202636719 44.83919525146484 2.999992370605469 52.30364990234375 2.999992370605469 60.00008773803711 C 2.999992370605469 67.69634246826172 4.506645202636719 75.16079711914062 7.478103637695312 82.18610382080078 C 8.9063720703125 85.56294250488281 10.67435455322266 88.82012176513672 12.73290252685547 91.86717987060547 C 14.77243041992188 94.88607025146484 17.11477661132812 97.72499847412109 19.69488525390625 100.3051071166992 C 22.27499389648438 102.8852157592773 25.11392211914062 105.2275619506836 28.1328125 107.26708984375 C 31.17988586425781 109.3256301879883 34.43706512451172 111.0936126708984 37.81390380859375 112.5218887329102 C 44.83921051025391 115.4933395385742 52.30366516113281 117 59.99993896484375 117 C 67.69621276855469 117 75.16066741943359 115.4933395385742 82.18597412109375 112.5218887329102 C 85.56281280517578 111.0936126708984 88.81999206542969 109.3256301879883 91.8670654296875 107.26708984375 C 94.88595581054688 105.2275619506836 97.72488403320312 102.8852157592773 100.3049926757812 100.3051071166992 C 102.8851013183594 97.72499847412109 105.2274475097656 94.88607025146484 107.266975402832 91.86717987060547 C 109.3255233764648 88.82012176513672 111.093505859375 85.56294250488281 112.5217742919922 82.18610382080078 C 115.4932327270508 75.16079711914062 116.999885559082 67.69634246826172 116.999885559082 59.99992370605469 C 116.999885559082 52.30364990234375 115.4932327270508 44.83919525146484 112.5217742919922 37.81390380859375 C 111.093505859375 34.43706512451172 109.3255233764648 31.17987060546875 107.266975402832 28.1328125 C 105.2274475097656 25.11392211914062 102.8851013183594 22.27499389648438 100.3049926757812 19.69488525390625 C 97.72488403320312 17.11477661132812 94.88595581054688 14.77243041992188 91.8670654296875 12.73290252685547 C 88.81999206542969 10.67436218261719 85.56281280517578 8.906379699707031 82.18597412109375 7.478103637695312 C 75.16066741943359 4.50665283203125 67.69621276855469 2.999992370605469 59.99993896484375 2.999992370605469 M 59.99993896484375 -7.62939453125e-06 C 93.13699340820312 -7.62939453125e-06 119.999885559082 26.86286926269531 119.999885559082 59.99992370605469 L 119.999885559082 60.00008773803711 C 119.999885559082 93.13712310791016 93.13699340820312 120 59.99993896484375 120 C 26.86288452148438 120 -7.62939453125e-06 93.13712310791016 -7.62939453125e-06 60.00008773803711 L -7.62939453125e-06 59.99992370605469 C -7.62939453125e-06 26.86286926269531 26.86288452148438 -7.62939453125e-06 59.99993896484375 -7.62939453125e-06 Z" stroke="none" fill="#fff"/>
              </g>
            </g>
            <g id="Rectángulo_400907" data-name="Rectángulo 400907" transform="translate(0)" fill="none" stroke="#fff" stroke-width="3">
              <rect width="120" height="120" rx="60" stroke="none"/>
              <rect x="1.5" y="1.5" width="117" height="117" rx="58.5" fill="none"/>
            </g>
          </g>
        </g>
      </g>
    </g>
    <g id="growth" transform="translate(23.847 22.94)">
      <path id="Trazado_1031667" data-name="Trazado 1031667" d="M68.295,55.922a3.024,3.024,0,0,1-2.014,2.854l-18.987,6.7H28.765L13.941,60.53H9V44.471L15.177,42h7.412l2.891.581,15.639,3.125,2.471,2.471v3.706H26.294l11.118,6.177h9.882l2.471-.729,14.651-4.311a2.965,2.965,0,0,1,.852-.124A3.031,3.031,0,0,1,68.295,55.922Z" transform="translate(-0.353 7.412)" fill="#ffdaaa"/>
      <path id="Trazado_1031668" data-name="Trazado 1031668" d="M36.177,49.412,20.538,46.287l-2.891-.581H10.235L9,46.2V44.471L15.177,42h7.412l2.891.581,15.639,3.125,2.471,2.471v3.706H38.647Z" transform="translate(-0.353 7.412)" fill="#ffb655"/>
      <path id="Trazado_1031669" data-name="Trazado 1031669" d="M65.706,53.846A3.024,3.024,0,0,1,63.693,56.7l-2.94,1.038a.936.936,0,0,0,.012-.185,3.031,3.031,0,0,0-3.026-3.026,2.964,2.964,0,0,0-.852.124L42.235,58.961l-2.471.729H29.882L20,53.513l6.671-2.471,8.153,4.941h9.882l2.471-.729,14.651-4.311a2.965,2.965,0,0,1,.852-.124A3.031,3.031,0,0,1,65.706,53.846Z" transform="translate(2.235 9.487)" fill="#ffb655"/>
      <path id="Trazado_1031670" data-name="Trazado 1031670" d="M54.933,32.791v.062a16.33,16.33,0,0,1-.321,3A8.3,8.3,0,0,1,51.7,41.093c-3.36,2.347-7.35,2.434-8.907.2s-.124-5.954,3.236-8.3,8.907-.2,8.907-.2Z" transform="translate(7.45 5.034)" fill="#ffde55"/>
      <path id="Trazado_1031671" data-name="Trazado 1031671" d="M54.933,23.45s.111,5.954-3.236,8.3-7.35,2.446-8.907.21-.124-5.954,3.236-8.3S54.933,23.45,54.933,23.45Z" transform="translate(7.45 2.838)" fill="#ffde55"/>
      <path id="Trazado_1031672" data-name="Trazado 1031672" d="M54.552,32.781v.062a16.33,16.33,0,0,1-.321,3,8.3,8.3,0,0,1-2.915,5.238c-2.606,1.828-5.6,2.285-7.535,1.334a10.154,10.154,0,0,0,2.594-1.334,8.3,8.3,0,0,0,2.915-5.238,16.331,16.331,0,0,0,.321-3v-.062a15.853,15.853,0,0,0-2.2-.618,13.371,13.371,0,0,1,7.14.618Z" transform="translate(7.831 5.044)" fill="#ffcd00"/>
      <path id="Trazado_1031673" data-name="Trazado 1031673" d="M51.318,31.741c-2.619,1.828-5.621,2.3-7.548,1.346a10.918,10.918,0,0,0,2.606-1.346c3.348-2.347,3.236-8.3,3.236-8.3a14.976,14.976,0,0,0-2.2-.605,13.291,13.291,0,0,1,7.14.605S54.665,29.394,51.318,31.741Z" transform="translate(7.829 2.847)" fill="#ffcd00"/>
      <ellipse id="Elipse_12153" data-name="Elipse 12153" cx="11.118" cy="11.118" rx="11.118" ry="11.118" transform="translate(38.294 1.235)" fill="#ffde55"/>
      <path id="Trazado_1031674" data-name="Trazado 1031674" d="M55.01,13.892a11.118,11.118,0,0,1-21.05,4.991A11.118,11.118,0,0,0,48.882,3.96a11.109,11.109,0,0,1,6.127,9.932Z" transform="translate(5.52 -1.539)" fill="#ffcd00"/>
      <path id="Trazado_1031675" data-name="Trazado 1031675" d="M40.407,23.66c3.36,2.347,4.805,6.065,3.236,8.3s-5.547,2.137-8.907-.21-3.236-8.3-3.236-8.3S37.059,21.313,40.407,23.66Z" transform="translate(4.941 2.838)" fill="#ffde55"/>
      <path id="Trazado_1031676" data-name="Trazado 1031676" d="M44.273,39.178a3.606,3.606,0,0,1-.63,2.112c-1.556,2.236-5.547,2.149-8.907-.2a8.3,8.3,0,0,1-2.915-5.238,16.33,16.33,0,0,1-.321-3v-.062s5.559-2.149,8.907.2A8.226,8.226,0,0,1,44.273,39.178Z" transform="translate(4.941 5.034)" fill="#ffde55"/>
      <path id="Trazado_1031677" data-name="Trazado 1031677" d="M43.222,31.961c-1.161,1.68-3.694,2.038-6.3,1.136a3.382,3.382,0,0,0,1.359-1.136c1.569-2.236.124-5.954-3.236-8.3a6.138,6.138,0,0,0-1.754-.815c1.915-.4,4.694-.581,6.7.815,3.36,2.347,4.805,6.065,3.236,8.3Z" transform="translate(5.363 2.837)" fill="#ffcd00"/>
      <path id="Trazado_1031678" data-name="Trazado 1031678" d="M43.852,39.178a3.606,3.606,0,0,1-.63,2.112c-1.161,1.68-3.694,2.051-6.312,1.136a3.23,3.23,0,0,0,1.371-1.136,3.606,3.606,0,0,0,.63-2.112,8.226,8.226,0,0,0-3.867-6.189,5.965,5.965,0,0,0-1.754-.815c1.927-.383,4.707-.581,6.7.815A8.226,8.226,0,0,1,43.852,39.178Z" transform="translate(5.363 5.034)" fill="#ffcd00"/>
      <path id="Trazado_1031679" data-name="Trazado 1031679" d="M10.412,61v2.471L3,64.706V40l7.412,1.235V61Z" transform="translate(-1.765 6.942)" fill="#00d7df"/>
      <path id="Trazado_1031680" data-name="Trazado 1031680" d="M68.249,42.209a11.783,11.783,0,0,0-2.755-.519c.049-.4.074-.729.1-1.013a11.839,11.839,0,0,1,3.3-1.013,13.356,13.356,0,0,1,6.782.754l.889-2.3a15.718,15.718,0,0,0-8.042-.9,14.38,14.38,0,0,0-4.138,1.3,17.417,17.417,0,0,0-2.928-.679,4.164,4.164,0,0,0,.4-.235c3.842-2.693,3.768-9.067,3.768-9.339a1.245,1.245,0,0,0-.791-1.124c-.259-.1-6.214-2.347-10.068.346a13.009,13.009,0,0,0-2.112,1.878V26.644a12.353,12.353,0,1,0-2.471,0v2.718a13.009,13.009,0,0,0-2.112-1.878A8.239,8.239,0,0,0,43.3,26.162a16.269,16.269,0,0,0-5.3.976,1.245,1.245,0,0,0-.791,1.124c0,.272-.074,6.646,3.768,9.339a4.164,4.164,0,0,0,.4.235,17.733,17.733,0,0,0-2.928.679,14.38,14.38,0,0,0-4.138-1.3,15.738,15.738,0,0,0-8.042.9l.889,2.3a13.493,13.493,0,0,1,6.782-.754,11.839,11.839,0,0,1,3.3,1.013c.025.284.049.618.1,1.013a11.544,11.544,0,0,0-2.742.506A13.648,13.648,0,0,0,26.41,49.46l2.248,1.013a11.4,11.4,0,0,1,6.658-5.917,10.169,10.169,0,0,1,2.483-.432,8.813,8.813,0,0,0,3.175,5,10.727,10.727,0,0,0,5.806,2.051h.185a6.089,6.089,0,0,0,3.212-.828V65.816l-1.408.42H39.38L32.71,62.53H45.236a1.235,1.235,0,0,0,1.235-1.235V57.589a1.276,1.276,0,0,0-.358-.877l-2.471-2.471a1.253,1.253,0,0,0-.63-.334L24.483,50.2a1.674,1.674,0,0,0-.247-.025H16.824a1.157,1.157,0,0,0-.457.086l-4.484,1.791V50.177a1.235,1.235,0,0,0-1.038-1.223L3.433,47.719a1.3,1.3,0,0,0-1,.284A1.249,1.249,0,0,0,2,48.941V73.648a1.249,1.249,0,0,0,.432.939,1.219,1.219,0,0,0,.8.3,1.062,1.062,0,0,0,.2-.012l7.412-1.235a1.235,1.235,0,0,0,1.038-1.223V71.177h3.508l14.626,4.879a1.463,1.463,0,0,0,.4.062h18.53a1.135,1.135,0,0,0,.408-.074l18.987-6.7a4.26,4.26,0,0,0-2.619-8.1L52.647,65.1V50.35a6.089,6.089,0,0,0,3.212.828h.185a10.727,10.727,0,0,0,5.806-2.051,8.813,8.813,0,0,0,3.175-5,9.728,9.728,0,0,1,2.5.445,11.365,11.365,0,0,1,6.646,5.9l2.248-1.013a13.608,13.608,0,0,0-8.165-7.251ZM9.412,71.362l-4.941.828V50.4l4.941.828ZM56.18,29.51c2.088-1.458,5.4-.766,6.93-.334-.111,1.594-.593,4.941-2.681,6.4A8.3,8.3,0,0,1,56,37.181a3.22,3.22,0,0,1-2.742-1.1C52.092,34.439,53.438,31.425,56.18,29.51Zm-16.467-.334c1.779-.519,4.978-1.038,6.93.334,2.742,1.915,4.089,4.929,2.928,6.572a3.256,3.256,0,0,1-2.742,1.1,8.3,8.3,0,0,1-4.435-1.606C40.307,34.118,39.825,30.758,39.714,29.177ZM49.571,47.62a3.241,3.241,0,0,1-2.742,1.087,8.38,8.38,0,0,1-4.435-1.594c-2.088-1.47-2.569-4.818-2.681-6.4,1.532-.445,4.842-1.136,6.93.321a8.269,8.269,0,0,1,3.014,3.632,3.212,3.212,0,0,1-.086,2.952Zm-.964-8.165a5.354,5.354,0,0,0,1.569-.63v2.1a11.864,11.864,0,0,0-1.569-1.47ZM66.421,63.617a1.746,1.746,0,0,1,1.569.284,1.786,1.786,0,0,1-.469,3.113L48.731,73.648H30.61L15.984,68.768a1.464,1.464,0,0,0-.4-.062H11.882V54.723l5.176-2.075h7.054L42.16,56.254,44,58.1v1.964H27.941a1.235,1.235,0,0,0-.605,2.31l11.118,6.177a1.17,1.17,0,0,0,.605.161h9.882a1.066,1.066,0,0,0,.346-.049ZM51.412,24.235a9.882,9.882,0,1,1,9.882-9.882,9.882,9.882,0,0,1-9.882,9.882Zm1.235,14.589a5.354,5.354,0,0,0,1.569.63,11.865,11.865,0,0,0-1.569,1.47Zm7.782,8.289A8.38,8.38,0,0,1,56,48.707a3.228,3.228,0,0,1-2.742-1.087,3.212,3.212,0,0,1-.086-2.952,8.269,8.269,0,0,1,3.014-3.632,5.742,5.742,0,0,1,3.323-.877,13.333,13.333,0,0,1,3.607.556c-.111,1.581-.593,4.929-2.681,6.4Z" transform="translate(-2 -2)"/>
      <path id="Trazado_1031681" data-name="Trazado 1031681" d="M43.941,20.824V18.353h1.235a1.235,1.235,0,0,0,1.235-1.235V13.412a1.235,1.235,0,0,0-1.235-1.235H41.471V10.941h4.941V8.471H43.941V6H41.471V8.471H40.235A1.235,1.235,0,0,0,39,9.706v3.706a1.235,1.235,0,0,0,1.235,1.235h3.706v1.235H39v2.471h2.471v2.471Z" transform="translate(6.706 -1.059)"/>
      <path id="Trazado_1031682" data-name="Trazado 1031682" d="M54.471,9.412h2.471V6.941h2.471V4.471H56.941V2H54.471V4.471H52V6.941h2.471Z" transform="translate(9.765 -2)"/>
      <path id="Trazado_1031683" data-name="Trazado 1031683" d="M58.471,8v2.471H56v2.471h2.471v2.471h2.471V12.941h2.471V10.471H60.941V8Z" transform="translate(10.706 -0.588)"/>
      <path id="Trazado_1031684" data-name="Trazado 1031684" d="M28.471,9.412h2.471V6.941h2.471V4.471H30.941V2H28.471V4.471H26V6.941h2.471Z" transform="translate(3.647 -2)"/>
      <path id="Trazado_1031685" data-name="Trazado 1031685" d="M24.471,15.412h2.471V12.941h2.471V10.471H26.941V8H24.471v2.471H22v2.471h2.471Z" transform="translate(2.706 -0.588)"/>
    </g>
  </g>
</svg>
