<svg xmlns="http://www.w3.org/2000/svg" xmlns:xlink="http://www.w3.org/1999/xlink" width="138" height="138" viewBox="0 0 138 138">
  <defs>
    <filter id="Trazado_896985" x="0" y="0" width="138" height="138" filterUnits="userSpaceOnUse">
      <feOffset dy="3" input="SourceAlpha"/>
      <feGaussianBlur stdDeviation="3" result="blur"/>
      <feFlood flood-opacity="0.161"/>
      <feComposite operator="in" in2="blur"/>
      <feComposite in="SourceGraphic"/>
    </filter>
  </defs>
  <g id="Grupo_1199696" data-name="Grupo 1199696" transform="translate(9 6)">
    <g id="Grupo_1199551" data-name="Grupo 1199551" transform="translate(0 0)">
      <g id="Grupo_1111318" data-name="Grupo 1111318" transform="translate(0)">
        <g id="Grupo_1109826" data-name="Grupo 1109826">
          <g id="Grupo_1098742" data-name="Grupo 1098742">
            <g transform="matrix(1, 0, 0, 1, -9, -6)" filter="url(#Trazado_896985)">
              <g id="Trazado_896985-2" data-name="Trazado 896985" transform="translate(9 6)" fill="#f1963d" opacity="0.859">
                <path d="M 59.99993896484375 118.5 C 52.10183715820312 118.5 44.44078826904297 116.9534759521484 37.22958755493164 113.9033966064453 C 33.7635383605957 112.4373931884766 30.42043876647949 110.6227951049805 27.29312324523926 108.510009765625 C 24.19512176513672 106.4170608520508 21.28185653686523 104.0133819580078 18.63423919677734 101.3657760620117 C 15.98662185668945 98.71816253662109 13.5829553604126 95.80489349365234 11.48998928070068 92.70689392089844 C 9.377205848693848 89.57958221435547 7.5626220703125 86.23646545410156 6.096605777740479 82.77043151855469 C 3.046522378921509 75.55922698974609 1.500005602836609 67.89817810058594 1.500005602836609 60.00008010864258 C 1.500005602836609 52.10181427001953 3.046522378921509 44.44076156616211 6.096605777740479 37.22956466674805 C 7.5626220703125 33.76353073120117 9.377205848693848 30.42041206359863 11.48998928070068 27.2930965423584 C 13.5829553604126 24.19511222839355 15.98662185668945 21.28184700012207 18.63423919677734 18.63422966003418 C 21.28185653686523 15.98661327362061 24.19512176513672 13.58294582366943 27.29312324523926 11.48997974395752 C 30.42043876647949 9.377196311950684 33.7635383605957 7.562613010406494 37.22958755493164 6.096596240997314 C 44.44078826904297 3.046512842178345 52.10183715820312 1.499996185302734 59.99993896484375 1.499996185302734 C 67.89804077148438 1.499996185302734 75.55908966064453 3.046512842178345 82.77028656005859 6.096596240997314 C 86.23633575439453 7.562613010406494 89.57943725585938 9.377196311950684 92.70675659179688 11.48997974395752 C 95.80475616455078 13.58294582366943 98.71802520751953 15.98661327362061 101.3656387329102 18.63422966003418 C 104.0132522583008 21.28184700012207 106.4169235229492 24.19511222839355 108.5098876953125 27.2930965423584 C 110.622673034668 30.42041206359863 112.437255859375 33.76353073120117 113.9032745361328 37.22956466674805 C 116.9533538818359 44.44076156616211 118.499870300293 52.10181427001953 118.499870300293 59.99991226196289 C 118.499870300293 67.89817810058594 116.9533538818359 75.55922698974609 113.9032745361328 82.77043151855469 C 112.437255859375 86.23646545410156 110.622673034668 89.57958221435547 108.5098876953125 92.70689392089844 C 106.4169235229492 95.80489349365234 104.0132522583008 98.71816253662109 101.3656387329102 101.3657760620117 C 98.71802520751953 104.0133819580078 95.80475616455078 106.4170608520508 92.70675659179688 108.510009765625 C 89.57943725585938 110.6227951049805 86.23633575439453 112.4373931884766 82.77028656005859 113.9033966064453 C 75.55908966064453 116.9534759521484 67.89804077148438 118.5 59.99993896484375 118.5 Z" stroke="none"/>
                <path d="M 59.99993896484375 2.999992370605469 C 52.30366516113281 2.999992370605469 44.83921051025391 4.50665283203125 37.81390380859375 7.478103637695312 C 34.43706512451172 8.906379699707031 31.17988586425781 10.67436218261719 28.1328125 12.73290252685547 C 25.11392211914062 14.77243041992188 22.27499389648438 17.11477661132812 19.69488525390625 19.69488525390625 C 17.11477661132812 22.27499389648438 14.77243041992188 25.11392211914062 12.73290252685547 28.1328125 C 10.67435455322266 31.17987060546875 8.9063720703125 34.43706512451172 7.478103637695312 37.81390380859375 C 4.506645202636719 44.83919525146484 2.999992370605469 52.30364990234375 2.999992370605469 60.00008773803711 C 2.999992370605469 67.69634246826172 4.506645202636719 75.16079711914062 7.478103637695312 82.18610382080078 C 8.9063720703125 85.56294250488281 10.67435455322266 88.82012176513672 12.73290252685547 91.86717987060547 C 14.77243041992188 94.88607025146484 17.11477661132812 97.72499847412109 19.69488525390625 100.3051071166992 C 22.27499389648438 102.8852157592773 25.11392211914062 105.2275619506836 28.1328125 107.26708984375 C 31.17988586425781 109.3256301879883 34.43706512451172 111.0936126708984 37.81390380859375 112.5218887329102 C 44.83921051025391 115.4933395385742 52.30366516113281 117 59.99993896484375 117 C 67.69621276855469 117 75.16066741943359 115.4933395385742 82.18597412109375 112.5218887329102 C 85.56281280517578 111.0936126708984 88.81999206542969 109.3256301879883 91.8670654296875 107.26708984375 C 94.88595581054688 105.2275619506836 97.72488403320312 102.8852157592773 100.3049926757812 100.3051071166992 C 102.8851013183594 97.72499847412109 105.2274475097656 94.88607025146484 107.266975402832 91.86717987060547 C 109.3255233764648 88.82012176513672 111.093505859375 85.56294250488281 112.5217742919922 82.18610382080078 C 115.4932327270508 75.16079711914062 116.999885559082 67.69634246826172 116.999885559082 59.99992370605469 C 116.999885559082 52.30364990234375 115.4932327270508 44.83919525146484 112.5217742919922 37.81390380859375 C 111.093505859375 34.43706512451172 109.3255233764648 31.17987060546875 107.266975402832 28.1328125 C 105.2274475097656 25.11392211914062 102.8851013183594 22.27499389648438 100.3049926757812 19.69488525390625 C 97.72488403320312 17.11477661132812 94.88595581054688 14.77243041992188 91.8670654296875 12.73290252685547 C 88.81999206542969 10.67436218261719 85.56281280517578 8.906379699707031 82.18597412109375 7.478103637695312 C 75.16066741943359 4.50665283203125 67.69621276855469 2.999992370605469 59.99993896484375 2.999992370605469 M 59.99993896484375 -7.62939453125e-06 C 93.13699340820312 -7.62939453125e-06 119.999885559082 26.86286926269531 119.999885559082 59.99992370605469 L 119.999885559082 60.00008773803711 C 119.999885559082 93.13712310791016 93.13699340820312 120 59.99993896484375 120 C 26.86288452148438 120 -7.62939453125e-06 93.13712310791016 -7.62939453125e-06 60.00008773803711 L -7.62939453125e-06 59.99992370605469 C -7.62939453125e-06 26.86286926269531 26.86288452148438 -7.62939453125e-06 59.99993896484375 -7.62939453125e-06 Z" stroke="none" fill="#fff"/>
              </g>
            </g>
            <g id="Rectángulo_400907" data-name="Rectángulo 400907" transform="translate(0)" fill="none" stroke="#fff" stroke-width="3">
              <rect width="120" height="120" rx="60" stroke="none"/>
              <rect x="1.5" y="1.5" width="117" height="117" rx="58.5" fill="none"/>
            </g>
          </g>
        </g>
      </g>
    </g>
    <g id="money-finance-plant-cash-growth" transform="translate(24.264 24.104)">
      <rect id="Rectángulo_408614" data-name="Rectángulo 408614" width="24" height="7" rx="2" transform="translate(39.896 34.896)" fill="#ee8700"/>
      <rect id="Rectángulo_408615" data-name="Rectángulo 408615" width="24" height="7" rx="2" transform="translate(5.896 34.896)" fill="#ee8700"/>
      <rect id="Rectángulo_408616" data-name="Rectángulo 408616" width="24" height="7" rx="2" transform="translate(7.896 27.896)" fill="#ff9811"/>
      <rect id="Rectángulo_408617" data-name="Rectángulo 408617" width="24" height="7" rx="2" transform="translate(41.896 27.896)" fill="#ff9811"/>
      <rect id="Rectángulo_408618" data-name="Rectángulo 408618" width="24" height="8" rx="2" transform="translate(39.896 19.896)" fill="#ffa733"/>
      <rect id="Rectángulo_408619" data-name="Rectángulo 408619" width="24" height="8" rx="2" transform="translate(5.896 19.896)" fill="#ffa733"/>
      <path id="Trazado_1031686" data-name="Trazado 1031686" d="M54.572,5.393V3H52.179A7.179,7.179,0,0,0,45,10.179v2.393h2.393a7.179,7.179,0,0,0,7.179-7.179Z" transform="translate(6.451 -1.803)" fill="#5eac24"/>
      <path id="Trazado_1031687" data-name="Trazado 1031687" d="M39.393,5H37V7.393a7.179,7.179,0,0,0,7.179,7.179h2.393V12.179A7.179,7.179,0,0,0,39.393,5Z" transform="translate(4.879 -1.41)" fill="#4e901e"/>
      <path id="Trazado_1031688" data-name="Trazado 1031688" d="M26.572,5.393V3H24.179A7.179,7.179,0,0,0,17,10.179v2.393h2.393a7.179,7.179,0,0,0,7.179-7.179Z" transform="translate(0.948 -1.803)" fill="#5eac24"/>
      <path id="Trazado_1031689" data-name="Trazado 1031689" d="M11.393,5H9V7.393a7.179,7.179,0,0,0,7.179,7.179h2.393V12.179A7.179,7.179,0,0,0,11.393,5Z" transform="translate(-0.624 -1.41)" fill="#4e901e"/>
      <path id="Trazado_1031690" data-name="Trazado 1031690" d="M3,37H53.254V65.717H3Z" transform="translate(-1.803 4.879)" fill="#91dc5a"/>
      <path id="Trazado_1031691" data-name="Trazado 1031691" d="M42.9,41H11.786A4.786,4.786,0,0,1,7,45.786v9.572a4.786,4.786,0,0,1,4.786,4.786H42.9c0-2.644,2.142-3.59,4.786-3.59V45.786A4.786,4.786,0,0,1,42.9,41Z" transform="translate(-1.017 5.665)" fill="#5eac24"/>
      <path id="Trazado_1031692" data-name="Trazado 1031692" d="M45,37h4.786V65.717H45Z" transform="translate(6.451 4.879)" fill="#5eac24"/>
      <path id="Trazado_1031693" data-name="Trazado 1031693" d="M53.762,37H49V65.717h4.786V37Z" transform="translate(7.237 4.879)" fill="#4e901e"/>
      <path id="Trazado_1031694" data-name="Trazado 1031694" d="M53,37h4.786V65.717H53Z" transform="translate(8.023 4.879)" fill="#447e1a"/>
      <path id="Trazado_1031695" data-name="Trazado 1031695" d="M57,37V65.717h4.786V37H57Z" transform="translate(8.809 4.879)" fill="#3c6e17"/>
      <ellipse id="Elipse_12154" data-name="Elipse 12154" cx="8.5" cy="8.5" rx="8.5" ry="8.5" transform="translate(17.896 47.896)" fill="#e6e7e8"/>
      <path id="Trazado_1031696" data-name="Trazado 1031696" d="M3,49H53.254V63.358H3Z" transform="translate(-1.803 7.237)" fill="#7ed63e"/>
      <path id="Trazado_1031697" data-name="Trazado 1031697" d="M7,49v4.786a4.786,4.786,0,0,1,4.786,4.786H42.9c0-2.644,2.142-3.59,4.786-3.59V49Z" transform="translate(-1.017 7.237)" fill="#4e901e"/>
      <path id="Trazado_1031698" data-name="Trazado 1031698" d="M25.376,57.376A8.376,8.376,0,0,0,33.751,49H17a8.376,8.376,0,0,0,8.376,8.376Z" transform="translate(0.948 7.237)" fill="#d1d3d4"/>
      <g id="Grupo_1199695" data-name="Grupo 1199695">
        <path id="Trazado_1031699" data-name="Trazado 1031699" d="M25.983,57.555V56.239c2.083-.391,3.59-1.767,3.59-3.47,0-2.013-2.1-3.59-4.786-3.59-1.461,0-2.393-.708-2.393-1.2s.932-1.2,2.393-1.2,2.393.708,2.393,1.2a1.2,1.2,0,1,0,2.393,0c0-1.7-1.506-3.076-3.59-3.47V43.2a1.2,1.2,0,0,0-2.393,0v1.316C21.506,44.9,20,46.28,20,47.983c0,2.013,2.1,3.59,4.786,3.59,1.461,0,2.393.708,2.393,1.2s-.932,1.2-2.393,1.2-2.393-.708-2.393-1.2a1.2,1.2,0,1,0-2.393,0c0,1.7,1.506,3.076,3.59,3.47v1.316a1.2,1.2,0,0,0,2.393,0Z" transform="translate(1.538 5.861)" fill="#231f20"/>
        <path id="Trazado_1031700" data-name="Trazado 1031700" d="M47.879,44.786a3.59,3.59,0,0,1-3.59-3.59,1.2,1.2,0,0,0-1.2-1.2H11.983a1.2,1.2,0,0,0-1.2,1.2,3.59,3.59,0,0,1-3.59,3.59,1.2,1.2,0,0,0-1.2,1.2v9.572a1.2,1.2,0,0,0,1.2,1.2,3.59,3.59,0,0,1,3.59,3.59,1.2,1.2,0,0,0,1.2,1.2h31.11a1.2,1.2,0,0,0,1.2-1.2c0-.592,0-2.393,3.59-2.393a1.2,1.2,0,0,0,1.2-1.2V45.983A1.2,1.2,0,0,0,47.879,44.786Zm-1.2,10.835c-2.54.293-4.188,1.548-4.654,3.524H13.06a6,6,0,0,0-4.666-4.666V47.06a6,6,0,0,0,4.666-4.666H42.016a6,6,0,0,0,4.666,4.666Z" transform="translate(-1.214 5.468)" fill="#231f20"/>
        <path id="Trazado_1031701" data-name="Trazado 1031701" d="M35.786,48H32.2a1.2,1.2,0,1,0,0,2.393h3.59a1.2,1.2,0,1,0,0-2.393Z" transform="translate(3.699 7.04)" fill="#231f20"/>
        <path id="Trazado_1031702" data-name="Trazado 1031702" d="M16.786,48H13.2a1.2,1.2,0,1,0,0,2.393h3.59a1.2,1.2,0,1,0,0-2.393Z" transform="translate(-0.035 7.04)" fill="#231f20"/>
        <path id="Trazado_1031703" data-name="Trazado 1031703" d="M72.6,42.682H66.4a3.59,3.59,0,0,0,.215-1.2V39.092a3.613,3.613,0,0,0-.263-1.34,3.582,3.582,0,0,0,2.656-3.446V31.913a3.582,3.582,0,0,0-2.656-3.446,3.614,3.614,0,0,0,.263-1.34V24.734a3.6,3.6,0,0,0-3.59-3.59H54.647V13.965h1.2A8.385,8.385,0,0,0,64.22,5.59V3.2a1.2,1.2,0,0,0-1.2-1.2H60.63a8.4,8.4,0,0,0-7.861,5.5,8.319,8.319,0,0,0-6.5-3.111H43.879a1.2,1.2,0,0,0-1.2,1.2V7.983a8.385,8.385,0,0,0,8.376,8.376h1.2v4.786H43.879a3.6,3.6,0,0,0-3.59,3.59v2.393a3.582,3.582,0,0,0,2.656,3.446,3.613,3.613,0,0,0-.263,1.34v2.393a3.613,3.613,0,0,0,.263,1.34,3.582,3.582,0,0,0-2.656,3.446v2.393a3.59,3.59,0,0,0,.215,1.2h-7.61a3.59,3.59,0,0,0,.215-1.2V39.092a3.613,3.613,0,0,0-.263-1.34A3.582,3.582,0,0,0,35.5,34.306V31.913a3.582,3.582,0,0,0-2.656-3.446,3.613,3.613,0,0,0,.263-1.34V24.734a3.6,3.6,0,0,0-3.59-3.59H21.144V13.965h1.2A8.385,8.385,0,0,0,30.717,5.59V3.2A1.2,1.2,0,0,0,29.52,2H27.127a8.4,8.4,0,0,0-7.861,5.5,8.319,8.319,0,0,0-6.5-3.111H10.376a1.2,1.2,0,0,0-1.2,1.2V7.983a8.385,8.385,0,0,0,8.376,8.376h1.2v4.786H10.376a3.6,3.6,0,0,0-3.59,3.59v2.393a3.582,3.582,0,0,0,2.656,3.446,3.613,3.613,0,0,0-.263,1.34v2.393a3.613,3.613,0,0,0,.263,1.34,3.582,3.582,0,0,0-2.656,3.446v2.393A3.59,3.59,0,0,0,7,42.682H3.2a1.2,1.2,0,0,0-1.2,1.2V72.6a1.2,1.2,0,0,0,1.2,1.2H72.6a1.2,1.2,0,0,0,1.2-1.2V43.879A1.2,1.2,0,0,0,72.6,42.682ZM54.647,10.376A5.983,5.983,0,0,1,60.63,4.393h1.2v1.2a5.983,5.983,0,0,1-5.983,5.983h-1.2Zm-33.5,0a5.983,5.983,0,0,1,5.983-5.983h1.2v1.2a5.983,5.983,0,0,1-5.983,5.983h-1.2ZM61.826,23.538h1.2a1.2,1.2,0,0,1,1.2,1.2v2.393a1.2,1.2,0,0,1-1.2,1.2h-1.2Zm1.2,10.769a1.2,1.2,0,0,0,1.2-1.2V30.717h1.2a1.2,1.2,0,0,1,1.2,1.2v2.393a1.2,1.2,0,0,1-1.2,1.2H59.433V30.717h2.393V33.11A1.2,1.2,0,0,0,63.023,34.306ZM51.058,13.965a5.983,5.983,0,0,1-5.983-5.983v-1.2h1.2a5.983,5.983,0,0,1,5.983,5.983v1.2Zm1.2,9.572h2.393v2.393a1.2,1.2,0,1,0,2.393,0V23.538h2.393v4.786H52.254Zm1.2,8.376a1.2,1.2,0,0,0-1.2,1.2V35.5H49.861V30.717H57.04V35.5H54.647V33.11A1.2,1.2,0,0,0,53.451,31.913ZM47.468,37.9h2.393v2.393a1.2,1.2,0,0,0,2.393,0V37.9h2.393v4.786H47.468Zm-1.2-2.393a1.2,1.2,0,0,1-1.2-1.2V31.913a1.2,1.2,0,0,1,1.2-1.2h1.2V35.5Zm-3.59-8.376V24.734a1.2,1.2,0,0,1,1.2-1.2h5.983v4.786H47.468V25.931a1.2,1.2,0,1,0-2.393,0v2.393h-1.2A1.2,1.2,0,0,1,42.682,27.127Zm0,11.965a1.2,1.2,0,0,1,1.2-1.2h1.2v4.786h-1.2a1.2,1.2,0,0,1-1.2-1.2ZM33.11,31.913v2.393a1.2,1.2,0,0,1-1.2,1.2H25.931V30.717h2.393V33.11a1.2,1.2,0,1,0,2.393,0V30.717h1.2A1.2,1.2,0,0,1,33.11,31.913Zm-5.983,7.179a1.2,1.2,0,0,0-1.2,1.2v2.393H23.538V37.9H29.52a1.2,1.2,0,0,1,1.2,1.2v2.393a1.2,1.2,0,0,1-1.2,1.2h-1.2V40.289A1.2,1.2,0,0,0,27.127,39.092Zm-3.59-15.555h2.393v2.393a1.2,1.2,0,1,0,2.393,0V23.538h1.2a1.2,1.2,0,0,1,1.2,1.2v2.393a1.2,1.2,0,0,1-1.2,1.2H23.538Zm0,7.179V35.5H21.144V33.11a1.2,1.2,0,0,0-2.393,0V35.5H16.358V30.717ZM17.555,41.485a1.2,1.2,0,0,0,1.2-1.2V37.9h2.393v4.786H13.965V37.9h2.393v2.393A1.2,1.2,0,0,0,17.555,41.485Zm0-27.52a5.983,5.983,0,0,1-5.983-5.983v-1.2h1.2a5.983,5.983,0,0,1,5.983,5.983v1.2Zm-3.59,9.572h7.179v4.786H18.751V25.931a1.2,1.2,0,1,0-2.393,0v2.393H13.965Zm-1.2,7.179h1.2V35.5h-1.2a1.2,1.2,0,0,1-1.2-1.2V31.913A1.2,1.2,0,0,1,12.769,30.717Zm-3.59-3.59V24.734a1.2,1.2,0,0,1,1.2-1.2h1.2v4.786h-1.2A1.2,1.2,0,0,1,9.179,27.127Zm0,11.965a1.2,1.2,0,0,1,1.2-1.2h1.2v4.786h-1.2a1.2,1.2,0,0,1-1.2-1.2ZM52.254,71.4H4.393V45.075H52.254Zm4.786,0H54.647V45.075H57.04Zm4.786,0H59.433V45.075h2.393Zm1.2-28.717h-1.2V40.289a1.2,1.2,0,0,0-2.393,0v2.393H57.04V37.9h5.983a1.2,1.2,0,0,1,1.2,1.2v2.393A1.2,1.2,0,0,1,63.023,42.682ZM66.613,71.4H64.22V45.075h2.393Zm4.786,0H69.006V45.075H71.4Z" transform="translate(-2 -2)" fill="#231f20"/>
      </g>
    </g>
  </g>
</svg>
