<svg xmlns="http://www.w3.org/2000/svg" width="127" height="388.114" viewBox="0 0 127 388.114">
  <g id="Grupo_1199698" data-name="Grupo 1199698" transform="translate(-179.975 -12132.528)">
    <g id="Grupo_1199713" data-name="Grupo 1199713">
      <rect id="Rectángulo_408526" data-name="Rectángulo 408526" width="127" height="388.114" rx="8" transform="translate(179.975 12132.528)" fill="#f9d4b0"/>
      <g id="seeds_3397571" transform="translate(197.237 12279.207)">
        <g id="Grupo_1199711" data-name="Grupo 1199711" transform="translate(2.772 11.472)">
          <g id="Grupo_1199699" data-name="Grupo 1199699" transform="translate(27.243 67.562)">
            <path id="Trazado_1031704" data-name="Trazado 1031704" d="M29.8,65.772h-.015A21.128,21.128,0,0,1,20.21,60.4h.03a11.953,11.953,0,0,0,11-7.241,18.026,18.026,0,0,0,13.225,0,11.953,11.953,0,0,0,11,7.241h.03a21.128,21.128,0,0,1-9.575,5.371H45.9a20.8,20.8,0,0,1-5.057.613H34.856a20.8,20.8,0,0,1-5.057-.613Z" transform="translate(-20.21 -53.16)" fill="#d3a06c"/>
          </g>
          <g id="Grupo_1199700" data-name="Grupo 1199700" transform="translate(68.819 35.906)">
            <path id="Trazado_1031705" data-name="Trazado 1031705" d="M68.945,33.5v7.48H48V33.5A1.5,1.5,0,0,1,49.5,32H67.449A1.5,1.5,0,0,1,68.945,33.5Z" transform="translate(-48 -32)" fill="#d3a06c"/>
          </g>
          <g id="Grupo_1199701" data-name="Grupo 1199701" transform="translate(0 35.906)">
            <path id="Trazado_1031706" data-name="Trazado 1031706" d="M22.945,33.5v7.48H2V33.5A1.5,1.5,0,0,1,3.5,32H21.449A1.5,1.5,0,0,1,22.945,33.5Z" transform="translate(-2 -32)" fill="#d3a06c"/>
          </g>
          <g id="Grupo_1199702" data-name="Grupo 1199702" transform="translate(62.52 44.882)">
            <path id="Trazado_1031707" data-name="Trazado 1031707" d="M50.088,38V52.961a20.841,20.841,0,0,1-6.3,14.961H69.537a1.5,1.5,0,0,0,1.5-1.5V38Z" transform="translate(-43.79 -38)" fill="#dfb28b"/>
          </g>
          <g id="Grupo_1199703" data-name="Grupo 1199703" transform="translate(0 44.882)">
            <path id="Trazado_1031708" data-name="Trazado 1031708" d="M22.945,52.961V38H2V66.425a1.5,1.5,0,0,0,1.5,1.5H29.243a20.841,20.841,0,0,1-6.3-14.961Z" transform="translate(-2 -38)" fill="#dfb28b"/>
          </g>
          <g id="Grupo_1199704" data-name="Grupo 1199704" transform="translate(26.929 24.251)">
            <path id="Trazado_1031709" data-name="Trazado 1031709" d="M40.586,31.286l.4-.03,6.7-.524v.015a28.639,28.639,0,0,1,8.213,20.077,17.953,17.953,0,1,1-35.906,0A28.6,28.6,0,0,1,34.213,26.08l3.217-1.87a38.791,38.791,0,0,1,2.05,4.1c.4.972.778,1.975,1.107,2.977Z" transform="translate(-20 -24.21)" fill="#cf9e76"/>
          </g>
          <g id="Grupo_1199705" data-name="Grupo 1199705" transform="translate(46.408 13.465)">
            <path id="Trazado_1031710" data-name="Trazado 1031710" d="M34.127,34.863c-.329-1-.7-2-1.107-2.977l1.96-5.909a11.992,11.992,0,0,1,10.368-8.139L55.431,17l-1.346,7.376A11.954,11.954,0,0,1,43.238,34.16l-2,.15-6.7.524Z" transform="translate(-33.02 -17)" fill="#b4dd7f"/>
          </g>
          <g id="Grupo_1199706" data-name="Grupo 1199706">
            <path id="Trazado_1031711" data-name="Trazado 1031711" d="M39.237,19.969l.688,1.182-2.065,1.242a24.992,24.992,0,0,1-12.866,3.561A27.547,27.547,0,0,1,4.229,16.528L2,13.984l4.443-2.543A26.138,26.138,0,0,1,19.429,8a22.968,22.968,0,0,1,16.217,6.717l1.317,1.317Z" transform="translate(-2 -8)" fill="#b4dd7f"/>
          </g>
          <g id="Grupo_1199707" data-name="Grupo 1199707" transform="translate(77.795 62.835)">
            <circle id="Elipse_12155" data-name="Elipse 12155" cx="2.992" cy="2.992" r="2.992" fill="#fcd770"/>
          </g>
          <g id="Grupo_1199708" data-name="Grupo 1199708" transform="translate(68.819 50.866)">
            <circle id="Elipse_12156" data-name="Elipse 12156" cx="2.992" cy="2.992" r="2.992" fill="#fcd770"/>
          </g>
          <g id="Grupo_1199709" data-name="Grupo 1199709" transform="translate(14.961 50.866)">
            <circle id="Elipse_12157" data-name="Elipse 12157" cx="2.992" cy="2.992" r="2.992" fill="#fcd770"/>
          </g>
          <g id="Grupo_1199710" data-name="Grupo 1199710" transform="translate(5.984 62.835)">
            <circle id="Elipse_12158" data-name="Elipse 12158" cx="2.992" cy="2.992" r="2.992" fill="#fcd770"/>
          </g>
        </g>
        <g id="Grupo_1199712" data-name="Grupo 1199712" transform="translate(0.443 1)">
          <path id="Trazado_1031712" data-name="Trazado 1031712" d="M9.488,49a4.488,4.488,0,1,0,4.488,4.488A4.494,4.494,0,0,0,9.488,49Zm0,5.984a1.5,1.5,0,1,1,1.5-1.5A1.5,1.5,0,0,1,9.488,54.984Z" transform="translate(1.818 22.811)"/>
          <path id="Trazado_1031713" data-name="Trazado 1031713" d="M5,41H7.992v2.992H5Z" transform="translate(1.818 18.843)"/>
          <path id="Trazado_1031714" data-name="Trazado 1031714" d="M7,45H9.992v2.992H7Z" transform="translate(2.81 20.827)"/>
          <path id="Trazado_1031715" data-name="Trazado 1031715" d="M91.04,45.882H73.087A3,3,0,0,0,70.1,48.874V71.315a19.377,19.377,0,0,1-5.413,13.448,10.452,10.452,0,0,1-8.381-5.03A19.452,19.452,0,0,0,67.1,62.339a29.949,29.949,0,0,0-6.629-18.861,13.468,13.468,0,0,0,11.247-10.9l1.689-9.294-12.033,1a13.449,13.449,0,0,0-11.656,9.16l-.814,2.44c-.165-.3-.314-.61-.486-.908L38.479,17.8a9.662,9.662,0,0,1-1.3-4.832,8.985,8.985,0,0,1,8.976-8.976,5.99,5.99,0,0,1,5.984,5.984,2.992,2.992,0,1,1-5.984,0H43.166a5.984,5.984,0,1,0,11.969,0A8.985,8.985,0,0,0,46.158,1,11.982,11.982,0,0,0,34.19,12.969a12.552,12.552,0,0,0,.1,1.5A24.255,24.255,0,0,0,20.194,9.976,27.692,27.692,0,0,0,6.469,13.622L.443,17.066l3.435,3.927a29.08,29.08,0,0,0,21.883,9.928,26.539,26.539,0,0,0,13.649-3.781l.757-.455,4.916,8.492L43.162,36.3a30.249,30.249,0,0,0-14.956,26.04,19.452,19.452,0,0,0,10.8,17.395,10.456,10.456,0,0,1-8.381,5.03,19.377,19.377,0,0,1-5.413-13.448V48.874a3,3,0,0,0-2.992-2.992H4.268a3,3,0,0,0-2.992,2.992V84.78a3,3,0,0,0,2.992,2.992H29.42a22.358,22.358,0,0,0,15.242,5.984h5.984a22.358,22.358,0,0,0,15.242-5.984H91.04a3,3,0,0,0,2.992-2.992V48.874A3,3,0,0,0,91.04,45.882ZM22.221,48.874v5.984H4.268V48.874ZM4.268,84.78V57.85H22.221v3.267a4.438,4.438,0,0,0-1.5-.275,4.488,4.488,0,1,0,0,8.976,4.438,4.438,0,0,0,1.5-.275v1.771a22.329,22.329,0,0,0,4.5,13.465ZM22.221,65.331a1.5,1.5,0,1,1-1.5-1.5A1.5,1.5,0,0,1,22.221,65.331ZM61.628,27.269l8.143-.679-.992,5.453a10.479,10.479,0,0,1-9.5,8.568l-6.212.479A15.065,15.065,0,0,1,64.356,32.4l-.492-2.952a18.032,18.032,0,0,0-12.45,8.391L52.563,34.4a10.457,10.457,0,0,1,9.065-7.126ZM6.13,19.02,5.1,17.847l2.85-1.629a24.721,24.721,0,0,1,12.241-3.249,21.318,21.318,0,0,1,15.173,6.285l1.18,1.18.844,1.457a73.217,73.217,0,0,1-17.345-2.765l-.4-.115-.824,2.877.4.115a76.244,76.244,0,0,0,18.095,2.88,23.55,23.55,0,0,1-11.556,3.046A26.081,26.081,0,0,1,6.13,19.02ZM31.2,62.339A27.251,27.251,0,0,1,44.67,38.882l1.869-1.091a35.946,35.946,0,0,1,4.108,16.668,28.585,28.585,0,0,1-6.613,18.265l-.521.625,2.3,1.913.521-.624a31.581,31.581,0,0,0,7.305-20.18,39.079,39.079,0,0,0-1.39-10.308l4.523-.349a26.985,26.985,0,0,1,7.34,18.536,16.457,16.457,0,0,1-32.913,0ZM56.061,89.984a12.188,12.188,0,0,1-3.994-5.678l-2.838.947a15.163,15.163,0,0,0,3.178,5.425c-.582.051-1.167.085-1.759.085H44.662c-.592,0-1.177-.034-1.758-.087a15.207,15.207,0,0,0,3.178-5.425l-2.838-.947a12.188,12.188,0,0,1-3.994,5.678A19.422,19.422,0,0,1,33.594,87.3a13.441,13.441,0,0,0,8.2-6.418,19.387,19.387,0,0,0,11.719,0,13.441,13.441,0,0,0,8.2,6.418A19.426,19.426,0,0,1,56.061,89.984ZM91.04,48.874v5.984H73.087V48.874ZM68.589,84.78a22.329,22.329,0,0,0,4.5-13.465V69.544a4.438,4.438,0,0,0,1.5.275,4.488,4.488,0,0,0,0-8.976,4.438,4.438,0,0,0-1.5.275V57.85H91.04V84.78Zm4.5-19.449a1.5,1.5,0,1,1,1.5,1.5A1.5,1.5,0,0,1,73.087,65.331Z" transform="translate(-0.443 -1)"/>
          <path id="Trazado_1031716" data-name="Trazado 1031716" d="M57.488,49a4.488,4.488,0,1,0,4.488,4.488A4.494,4.494,0,0,0,57.488,49Zm0,5.984a1.5,1.5,0,1,1,1.5-1.5A1.5,1.5,0,0,1,57.488,54.984Z" transform="translate(25.629 22.811)"/>
          <path id="Trazado_1031717" data-name="Trazado 1031717" d="M57,41h2.992v2.992H57Z" transform="translate(27.613 18.843)"/>
          <path id="Trazado_1031718" data-name="Trazado 1031718" d="M55,45h2.992v2.992H55Z" transform="translate(26.621 20.827)"/>
        </g>
      </g>
    </g>
  </g>
</svg>
