<svg xmlns="http://www.w3.org/2000/svg" xmlns:xlink="http://www.w3.org/1999/xlink" width="118" height="118" viewBox="0 0 118 118">
  <defs>
    <filter id="Trazado_874925" x="0" y="0" width="117.999" height="118" filterUnits="userSpaceOnUse">
      <feOffset dy="3" input="SourceAlpha"/>
      <feGaussianBlur stdDeviation="3" result="blur"/>
      <feFlood flood-opacity="0.161"/>
      <feComposite operator="in" in2="blur"/>
      <feComposite in="SourceGraphic"/>
    </filter>
  </defs>
  <g id="Grupo_1199720" data-name="Grupo 1199720" transform="translate(-1108.25 -14961.999)">
    <g id="Grupo_1111618" data-name="Grupo 1111618" transform="translate(0.116 13028)">
      <g id="Grupo_1111553" data-name="Grupo 1111553" transform="translate(308.634 -577.158)">
        <g id="Grupo_1111316" data-name="Grupo 1111316" transform="translate(808.5 2517.157)">
          <g id="Grupo_1109835" data-name="Grupo 1109835" transform="translate(0 0)">
            <g id="Grupo_1107913" data-name="Grupo 1107913" transform="translate(0 0)">
              <g transform="matrix(1, 0, 0, 1, -9, -6)" filter="url(#Trazado_874925)">
                <g id="Trazado_874925-2" data-name="Trazado 874925" transform="translate(9 6)" fill="#fc0" opacity="0.859">
                  <path d="M 49.99972534179688 98.4998779296875 C 43.45164108276367 98.4998779296875 37.10022354125977 97.21776580810547 31.12189674377441 94.68914794921875 C 25.34676742553711 92.24647521972656 20.15985298156738 88.74925994873047 15.70523929595947 84.29464721679688 C 11.25062561035156 79.84004974365234 7.753411293029785 74.65313720703125 5.310725212097168 68.87800598144531 C 2.782111167907715 62.89969253540039 1.499996781349182 56.54829406738281 1.499996781349182 50.00022125244141 C 1.499996781349182 43.45157623291016 2.782111167907715 37.10017776489258 5.310725212097168 31.12186431884766 C 7.753411293029785 25.34673500061035 11.25062561035156 20.15983581542969 15.70523929595947 15.70522117614746 C 20.15985298156738 11.25062084197998 25.34676742553711 7.753406524658203 31.12189674377441 5.31073522567749 C 37.10022354125977 2.782120943069458 43.45164108276367 1.500006556510925 49.99972534179688 1.500006556510925 C 56.54780960083008 1.500006556510925 62.89922714233398 2.782120943069458 68.87755584716797 5.31073522567749 C 74.65267944335938 7.753406524658203 79.839599609375 11.25062084197998 84.29421234130859 15.70522117614746 C 88.74882507324219 20.15983581542969 92.24604034423828 25.34673500061035 94.68872833251953 31.12186431884766 C 97.21733856201172 37.10017776489258 98.49945068359375 43.45157623291016 98.49945068359375 49.99964904785156 C 98.49945068359375 56.54829406738281 97.21733856201172 62.89969253540039 94.68872833251953 68.87800598144531 C 92.24604034423828 74.65313720703125 88.74882507324219 79.84004974365234 84.29421234130859 84.29464721679688 C 79.839599609375 88.74925994873047 74.65267944335938 92.24647521972656 68.87755584716797 94.68914794921875 C 62.89922714233398 97.21776580810547 56.54780960083008 98.4998779296875 49.99972534179688 98.4998779296875 Z" stroke="none"/>
                  <path d="M 49.99972534179688 3 C 43.65348052978516 3 37.49866485595703 4.242240905761719 31.70623016357422 6.692230224609375 C 26.10989379882812 9.059272766113281 21.08323669433594 12.44853210449219 16.76589202880859 16.76587677001953 C 12.44855499267578 21.08321380615234 9.059295654296875 26.10985565185547 6.692230224609375 31.70618438720703 C 4.24224853515625 37.49859619140625 3 43.65341186523438 3 50.00022888183594 C 3 56.34645843505859 4.24224853515625 62.50127410888672 6.692230224609375 68.29368591308594 C 9.059295654296875 73.8900146484375 12.44855499267578 78.91665649414062 16.76589202880859 83.23399353027344 C 21.08323669433594 87.55132293701172 26.10989379882812 90.94059753417969 31.70623016357422 93.30764007568359 C 37.49866485595703 95.75762939453125 43.65348052978516 96.99987030029297 49.99972534179688 96.99987030029297 C 56.34597015380859 96.99987030029297 62.50078582763672 95.75762939453125 68.293212890625 93.30764007568359 C 73.88955688476562 90.94059753417969 78.91621398925781 87.55132293701172 83.23355865478516 83.23399353027344 C 87.55089569091797 78.91665649414062 90.94015502929688 73.8900146484375 93.30722045898438 68.29368591308594 C 95.7572021484375 62.50127410888672 96.99945068359375 56.34645843505859 96.99945068359375 49.99964141845703 C 96.99945068359375 43.65341186523438 95.7572021484375 37.49859619140625 93.30722045898438 31.70618438720703 C 90.94015502929688 26.10985565185547 87.55089569091797 21.08321380615234 83.23355865478516 16.76587677001953 C 78.91621398925781 12.44853210449219 73.88955688476562 9.059272766113281 68.293212890625 6.692230224609375 C 62.50078582763672 4.242240905761719 56.34597015380859 3 49.99972534179688 3 M 49.99972534179688 0 C 77.61381530761719 0 99.99945068359375 22.38559722900391 99.99945068359375 49.99964141845703 L 99.99945068359375 50.00022888183594 C 99.99945068359375 77.6142578125 77.61381530761719 99.99987030029297 49.99972534179688 99.99987030029297 C 22.38563537597656 99.99987030029297 0 77.6142578125 0 50.00022888183594 L 0 49.99964141845703 C 0 22.38559722900391 22.38563537597656 0 49.99972534179688 0 Z" stroke="none" fill="#fff4cb"/>
                </g>
              </g>
              <g id="Trazado_874923" data-name="Trazado 874923" transform="translate(0 0)" fill="none">
                <path d="M50,0a50,50,0,0,1,50,50h0A50,50,0,0,1,0,50H0A50,50,0,0,1,50,0Z" stroke="none"/>
                <path d="M 49.99972534179688 3 C 43.65348052978516 3 37.49866485595703 4.242240905761719 31.70623016357422 6.692230224609375 C 26.10989379882812 9.059272766113281 21.08323669433594 12.44853210449219 16.76589202880859 16.76587677001953 C 12.44855499267578 21.08321380615234 9.059295654296875 26.10985565185547 6.692230224609375 31.70618438720703 C 4.24224853515625 37.49859619140625 3 43.65341186523438 3 50.00022888183594 C 3 56.34645843505859 4.24224853515625 62.50127410888672 6.692230224609375 68.29368591308594 C 9.059295654296875 73.8900146484375 12.44855499267578 78.91665649414062 16.76589202880859 83.23399353027344 C 21.08323669433594 87.55132293701172 26.10989379882812 90.94059753417969 31.70623016357422 93.30764007568359 C 37.49866485595703 95.75762939453125 43.65348052978516 96.99987030029297 49.99972534179688 96.99987030029297 C 56.34597015380859 96.99987030029297 62.50078582763672 95.75762939453125 68.293212890625 93.30764007568359 C 73.88955688476562 90.94059753417969 78.91621398925781 87.55132293701172 83.23355865478516 83.23399353027344 C 87.55089569091797 78.91665649414062 90.94015502929688 73.8900146484375 93.30722045898438 68.29368591308594 C 95.7572021484375 62.50127410888672 96.99945068359375 56.34645843505859 96.99945068359375 49.99964141845703 C 96.99945068359375 43.65341186523438 95.7572021484375 37.49859619140625 93.30722045898438 31.70618438720703 C 90.94015502929688 26.10985565185547 87.55089569091797 21.08321380615234 83.23355865478516 16.76587677001953 C 78.91621398925781 12.44853210449219 73.88955688476562 9.059272766113281 68.293212890625 6.692230224609375 C 62.50078582763672 4.242240905761719 56.34597015380859 3 49.99972534179688 3 M 49.99972534179688 0 C 77.61381530761719 0 99.99945068359375 22.38559722900391 99.99945068359375 49.99964141845703 L 99.99945068359375 50.00022888183594 C 99.99945068359375 77.6142578125 77.61381530761719 99.99987030029297 49.99972534179688 99.99987030029297 C 22.38563537597656 99.99987030029297 0 77.6142578125 0 50.00022888183594 L 0 49.99964141845703 C 0 22.38559722900391 22.38563537597656 0 49.99972534179688 0 Z" stroke="none" fill="#fff4cb"/>
              </g>
            </g>
          </g>
        </g>
      </g>
    </g>
    <g id="Grupo_1199719" data-name="Grupo 1199719">
      <g id="field_2853206" transform="translate(1134.358 14986.608)">
        <g id="Grupo_1199717" data-name="Grupo 1199717" transform="translate(5.537 5.536)">
          <path id="Trazado_1031719" data-name="Trazado 1031719" d="M6.5,46.25H58.21V80.086H6.5Z" transform="translate(-6.5 -28.376)" fill="#f4a86c"/>
          <path id="Trazado_1031720" data-name="Trazado 1031720" d="M38.313,46.25C18.056,46.25,12.8,80.086,12.8,80.086H6.5V46.25Z" transform="translate(-6.5 -28.376)" fill="#d78759"/>
          <circle id="Elipse_12159" data-name="Elipse 12159" cx="4.496" cy="4.496" r="4.496" transform="translate(5.329)" fill="#fff4cb"/>
          <g id="Grupo_1199716" data-name="Grupo 1199716" transform="translate(31.381 2.979)">
            <path id="Trazado_1031721" data-name="Trazado 1031721" d="M99.463,19.836c0,2.763-1.074,3.294-2.4,3.294s-2.4-.531-2.4-3.294,1.074-6.711,2.4-6.711S99.463,17.073,99.463,19.836Z" transform="translate(-86.402 -13.125)" fill="#bae543"/>
            <path id="Trazado_1031722" data-name="Trazado 1031722" d="M81.088,19.836c0,2.763-1.074,3.294-2.4,3.294s-2.4-.531-2.4-3.294,1.074-6.711,2.4-6.711S81.088,17.073,81.088,19.836Z" transform="translate(-76.289 -13.125)" fill="#bae543"/>
          </g>
        </g>
        <g id="Grupo_1199718" data-name="Grupo 1199718" transform="translate(4.75 4.748)">
          <path id="Trazado_1031723" data-name="Trazado 1031723" d="M57.246,26.27H48.366V22.883c1.612-.306,2.4-1.625,2.4-4.01,0-2.533-.962-7.5-3.186-7.5s-3.186,4.965-3.186,7.5c0,2.385.787,3.7,2.4,4.01V26.27H40.1V22.883c1.613-.3,2.4-1.625,2.4-4.011,0-2.533-.962-7.5-3.186-7.5-.693,0-1.3.464-1.818,1.38a.787.787,0,1,0,1.373.769,1.535,1.535,0,0,1,.45-.567c.549.27,1.609,3.08,1.609,5.915,0,2.486-.879,2.507-1.594,2.507l-.021,0H39.3c-.854,0-1.323-.228-1.519-1.424a.787.787,0,1,0-1.553.254,2.86,2.86,0,0,0,2.3,2.663v3.4H5.537a.787.787,0,0,0,0,1.574H30.056C24.6,30.311,19.915,35.652,16.278,43.649a74.817,74.817,0,0,0-5.223,17.123.786.786,0,0,0,.656.9.8.8,0,0,0,.122.009.787.787,0,0,0,.777-.666c.052-.333,5.38-33.171,24.74-33.171h19.9a.787.787,0,1,0,0-1.574Zm-11.28-7.4c0-2.84,1.064-5.654,1.612-5.916.548.262,1.612,3.076,1.612,5.916,0,2.483-.877,2.507-1.592,2.507l-.021,0a.063.063,0,0,0-.021,0C46.843,21.379,45.967,21.356,45.967,18.872Z" transform="translate(-4.75 -8.395)" fill="#111b35"/>
          <path id="Trazado_1031724" data-name="Trazado 1031724" d="M21.885,15.316a5.251,5.251,0,0,0,3.074-.985.787.787,0,0,0-.917-1.28,3.71,3.71,0,1,1,1.552-3.018,3.755,3.755,0,0,1-.045.591.787.787,0,1,0,1.554.249,5.284,5.284,0,1,0-5.216,4.443Z" transform="translate(-11.273 -4.748)" fill="#111b35"/>
          <path id="Trazado_1031725" data-name="Trazado 1031725" d="M17.249,56.375H13.542a.787.787,0,1,0,0,1.574h3.707a.787.787,0,1,0,0-1.574Z" transform="translate(-9.156 -33.161)" fill="#111b35"/>
          <path id="Trazado_1031726" data-name="Trazado 1031726" d="M16.687,71.922a.787.787,0,0,0,.787.787H20.79a.787.787,0,1,0,0-1.574H17.474A.787.787,0,0,0,16.687,71.922Z" transform="translate(-11.32 -41.284)" fill="#111b35"/>
          <path id="Trazado_1031727" data-name="Trazado 1031727" d="M12.214,94.537a.786.786,0,0,0-.787-.787h-5.1a.787.787,0,0,0,0,1.574h5.1a.786.786,0,0,0,.787-.787Z" transform="translate(-5.187 -53.73)" fill="#111b35"/>
          <path id="Trazado_1031728" data-name="Trazado 1031728" d="M62.48,74.949a.787.787,0,0,0,0-1.574H54.724a.787.787,0,0,0,0,1.574Z" transform="translate(-31.82 -42.517)" fill="#111b35"/>
          <path id="Trazado_1031729" data-name="Trazado 1031729" d="M77.772,56.375H74.287a.787.787,0,0,0,0,1.574h3.485a.787.787,0,0,0,0-1.574Z" transform="translate(-42.587 -33.161)" fill="#111b35"/>
          <path id="Trazado_1031730" data-name="Trazado 1031730" d="M110.059,73.375h-4.272a.787.787,0,0,0,0,1.574h4.272a.787.787,0,1,0,0-1.574Z" transform="translate(-59.923 -42.517)" fill="#111b35"/>
          <path id="Trazado_1031731" data-name="Trazado 1031731" d="M52.271,113.5H47.662a.787.787,0,0,0,0,1.574h4.609a.787.787,0,0,0,0-1.574Z" transform="translate(-27.934 -64.6)" fill="#111b35"/>
          <path id="Trazado_1031732" data-name="Trazado 1031732" d="M98.483,108.5H93.537a.787.787,0,1,0,0,1.574h4.946a.787.787,0,1,0,0-1.574Z" transform="translate(-53.181 -61.848)" fill="#111b35"/>
          <path id="Trazado_1031733" data-name="Trazado 1031733" d="M92.812,90.037a.787.787,0,0,0,.787.787h4.89a.787.787,0,1,0,0-1.574H93.6a.787.787,0,0,0-.787.787Z" transform="translate(-53.215 -51.254)" fill="#111b35"/>
          <path id="Trazado_1031734" data-name="Trazado 1031734" d="M68.632,99.5H63.349a.787.787,0,0,0,0,1.574h5.283a.787.787,0,1,0,0-1.574Z" transform="translate(-36.567 -56.895)" fill="#111b35"/>
          <path id="Trazado_1031735" data-name="Trazado 1031735" d="M97.172,65.888a.787.787,0,0,0,0-1.574H92.537a.787.787,0,0,0,0,1.574Z" transform="translate(-52.631 -37.53)" fill="#111b35"/>
          <path id="Trazado_1031736" data-name="Trazado 1031736" d="M50.983,87.324a.787.787,0,1,0,0-1.574H46.037a.787.787,0,0,0,0,1.574Z" transform="translate(-27.039 -49.328)" fill="#111b35"/>
          <path id="Trazado_1031737" data-name="Trazado 1031737" d="M75.484,21.988a.848.848,0,0,0,.1.006.787.787,0,0,0,.78-.687,15.078,15.078,0,0,1,.3-1.636.787.787,0,0,0-1.529-.371,16.664,16.664,0,0,0-.332,1.807A.787.787,0,0,0,75.484,21.988Z" transform="translate(-43.301 -12.438)" fill="#111b35"/>
        </g>
      </g>
      <g id="check-mark_12503645" transform="translate(1175.837 15008.781)">
        <path id="Trazado_1031738" data-name="Trazado 1031738" d="M1.238,13.472,10.424,25.9a1.6,1.6,0,0,0,2.69-.155L26.386,2.769A1.155,1.155,0,0,0,24.56,1.377L10.732,16.19,2.708,11.748a1.16,1.16,0,0,0-1.47,1.724Z" transform="translate(-0.561 -0.561)" fill="#6bb577"/>
        <path id="Trazado_1031739" data-name="Trazado 1031739" d="M9.508,25.6a2.046,2.046,0,0,0,1.647.835c.038,0,.077,0,.115,0A2.052,2.052,0,0,0,12.934,25.4L24.174,5.948a.441.441,0,0,0-.763-.441L12.171,24.964a1.164,1.164,0,0,1-1.954.113L1.032,12.649a.716.716,0,0,1,.039-.924.672.672,0,0,1,.864-.153l8.023,4.441a.442.442,0,0,0,.536-.085L24.321,1.117a.662.662,0,0,1,.927-.088.7.7,0,0,1,.2.958L24.292,3.981a.441.441,0,0,0,.763.441l1.152-1.994A1.581,1.581,0,0,0,25.772.321a1.543,1.543,0,0,0-2.1.194L10.083,15.076,2.36,10.8a1.551,1.551,0,0,0-1.953.343,1.587,1.587,0,0,0-.084,2.028Z" transform="translate(0 0)" fill="#161616"/>
      </g>
    </g>
  </g>
</svg>
