<svg xmlns="http://www.w3.org/2000/svg" xmlns:xlink="http://www.w3.org/1999/xlink" width="118" height="118" viewBox="0 0 118 118">
  <defs>
    <filter id="Trazado_874925" x="0" y="0" width="118" height="118" filterUnits="userSpaceOnUse">
      <feOffset dy="3" input="SourceAlpha"/>
      <feGaussianBlur stdDeviation="3" result="blur"/>
      <feFlood flood-opacity="0.161"/>
      <feComposite operator="in" in2="blur"/>
      <feComposite in="SourceGraphic"/>
    </filter>
  </defs>
  <g id="Grupo_1199722" data-name="Grupo 1199722" transform="translate(5199.8 -3353.999)">
    <g id="Grupo_1199575" data-name="Grupo 1199575" transform="translate(-6307.935 1420)">
      <g id="Grupo_1111553" data-name="Grupo 1111553" transform="translate(308.634 -577.158)">
        <g id="Grupo_1111316" data-name="Grupo 1111316" transform="translate(808.5 2517.157)">
          <g id="Grupo_1109835" data-name="Grupo 1109835" transform="translate(0 0)">
            <g id="Grupo_1107913" data-name="Grupo 1107913" transform="translate(0 0)">
              <g transform="matrix(1, 0, 0, 1, -9, -6)" filter="url(#Trazado_874925)">
                <g id="Trazado_874925-2" data-name="Trazado 874925" transform="translate(9 6)" fill="#fc0" opacity="0.859">
                  <path d="M 49.99972534179688 98.4998779296875 C 43.45164108276367 98.4998779296875 37.10022354125977 97.21776580810547 31.12189674377441 94.68914794921875 C 25.34676742553711 92.24647521972656 20.15985298156738 88.74925994873047 15.70523929595947 84.29464721679688 C 11.25062561035156 79.84004974365234 7.753411293029785 74.65313720703125 5.310725212097168 68.87800598144531 C 2.782111167907715 62.89969253540039 1.499996781349182 56.54829406738281 1.499996781349182 50.00022125244141 C 1.499996781349182 43.45157623291016 2.782111167907715 37.10017776489258 5.310725212097168 31.12186431884766 C 7.753411293029785 25.34673500061035 11.25062561035156 20.15983581542969 15.70523929595947 15.70522117614746 C 20.15985298156738 11.25062084197998 25.34676742553711 7.753406524658203 31.12189674377441 5.31073522567749 C 37.10022354125977 2.782120943069458 43.45164108276367 1.500006556510925 49.99972534179688 1.500006556510925 C 56.54780960083008 1.500006556510925 62.89922714233398 2.782120943069458 68.87755584716797 5.31073522567749 C 74.65267944335938 7.753406524658203 79.839599609375 11.25062084197998 84.29421234130859 15.70522117614746 C 88.74882507324219 20.15983581542969 92.24604034423828 25.34673500061035 94.68872833251953 31.12186431884766 C 97.21733856201172 37.10017776489258 98.49945068359375 43.45157623291016 98.49945068359375 49.99964904785156 C 98.49945068359375 56.54829406738281 97.21733856201172 62.89969253540039 94.68872833251953 68.87800598144531 C 92.24604034423828 74.65313720703125 88.74882507324219 79.84004974365234 84.29421234130859 84.29464721679688 C 79.839599609375 88.74925994873047 74.65267944335938 92.24647521972656 68.87755584716797 94.68914794921875 C 62.89922714233398 97.21776580810547 56.54780960083008 98.4998779296875 49.99972534179688 98.4998779296875 Z" stroke="none"/>
                  <path d="M 49.99972534179688 3 C 43.65348052978516 3 37.49866485595703 4.242240905761719 31.70623016357422 6.692230224609375 C 26.10989379882812 9.059272766113281 21.08323669433594 12.44853210449219 16.76589202880859 16.76587677001953 C 12.44855499267578 21.08321380615234 9.059295654296875 26.10985565185547 6.692230224609375 31.70618438720703 C 4.24224853515625 37.49859619140625 3 43.65341186523438 3 50.00022888183594 C 3 56.34645843505859 4.24224853515625 62.50127410888672 6.692230224609375 68.29368591308594 C 9.059295654296875 73.8900146484375 12.44855499267578 78.91665649414062 16.76589202880859 83.23399353027344 C 21.08323669433594 87.55132293701172 26.10989379882812 90.94059753417969 31.70623016357422 93.30764007568359 C 37.49866485595703 95.75762939453125 43.65348052978516 96.99987030029297 49.99972534179688 96.99987030029297 C 56.34597015380859 96.99987030029297 62.50078582763672 95.75762939453125 68.293212890625 93.30764007568359 C 73.88955688476562 90.94059753417969 78.91621398925781 87.55132293701172 83.23355865478516 83.23399353027344 C 87.55089569091797 78.91665649414062 90.94015502929688 73.8900146484375 93.30722045898438 68.29368591308594 C 95.7572021484375 62.50127410888672 96.99945068359375 56.34645843505859 96.99945068359375 49.99964141845703 C 96.99945068359375 43.65341186523438 95.7572021484375 37.49859619140625 93.30722045898438 31.70618438720703 C 90.94015502929688 26.10985565185547 87.55089569091797 21.08321380615234 83.23355865478516 16.76587677001953 C 78.91621398925781 12.44853210449219 73.88955688476562 9.059272766113281 68.293212890625 6.692230224609375 C 62.50078582763672 4.242240905761719 56.34597015380859 3 49.99972534179688 3 M 49.99972534179688 0 C 77.61381530761719 0 99.99945068359375 22.38559722900391 99.99945068359375 49.99964141845703 L 99.99945068359375 50.00022888183594 C 99.99945068359375 77.6142578125 77.61381530761719 99.99987030029297 49.99972534179688 99.99987030029297 C 22.38563537597656 99.99987030029297 0 77.6142578125 0 50.00022888183594 L 0 49.99964141845703 C 0 22.38559722900391 22.38563537597656 0 49.99972534179688 0 Z" stroke="none" fill="#fff4cb"/>
                </g>
              </g>
              <g id="Trazado_874923" data-name="Trazado 874923" transform="translate(0 0)" fill="none">
                <path d="M50,0a50,50,0,0,1,50,50h0A50,50,0,0,1,0,50H0A50,50,0,0,1,50,0Z" stroke="none"/>
                <path d="M 49.99972534179688 3 C 43.65348052978516 3 37.49866485595703 4.242240905761719 31.70623016357422 6.692230224609375 C 26.10989379882812 9.059272766113281 21.08323669433594 12.44853210449219 16.76589202880859 16.76587677001953 C 12.44855499267578 21.08321380615234 9.059295654296875 26.10985565185547 6.692230224609375 31.70618438720703 C 4.24224853515625 37.49859619140625 3 43.65341186523438 3 50.00022888183594 C 3 56.34645843505859 4.24224853515625 62.50127410888672 6.692230224609375 68.29368591308594 C 9.059295654296875 73.8900146484375 12.44855499267578 78.91665649414062 16.76589202880859 83.23399353027344 C 21.08323669433594 87.55132293701172 26.10989379882812 90.94059753417969 31.70623016357422 93.30764007568359 C 37.49866485595703 95.75762939453125 43.65348052978516 96.99987030029297 49.99972534179688 96.99987030029297 C 56.34597015380859 96.99987030029297 62.50078582763672 95.75762939453125 68.293212890625 93.30764007568359 C 73.88955688476562 90.94059753417969 78.91621398925781 87.55132293701172 83.23355865478516 83.23399353027344 C 87.55089569091797 78.91665649414062 90.94015502929688 73.8900146484375 93.30722045898438 68.29368591308594 C 95.7572021484375 62.50127410888672 96.99945068359375 56.34645843505859 96.99945068359375 49.99964141845703 C 96.99945068359375 43.65341186523438 95.7572021484375 37.49859619140625 93.30722045898438 31.70618438720703 C 90.94015502929688 26.10985565185547 87.55089569091797 21.08321380615234 83.23355865478516 16.76587677001953 C 78.91621398925781 12.44853210449219 73.88955688476562 9.059272766113281 68.293212890625 6.692230224609375 C 62.50078582763672 4.242240905761719 56.34597015380859 3 49.99972534179688 3 M 49.99972534179688 0 C 77.61381530761719 0 99.99945068359375 22.38559722900391 99.99945068359375 49.99964141845703 L 99.99945068359375 50.00022888183594 C 99.99945068359375 77.6142578125 77.61381530761719 99.99987030029297 49.99972534179688 99.99987030029297 C 22.38563537597656 99.99987030029297 0 77.6142578125 0 50.00022888183594 L 0 49.99964141845703 C 0 22.38559722900391 22.38563537597656 0 49.99972534179688 0 Z" stroke="none" fill="#fff4cb"/>
              </g>
            </g>
          </g>
        </g>
      </g>
    </g>
    <g id="Filled_outline" data-name="Filled outline" transform="translate(-5170.772 3379.228)">
      <path id="Trazado_1031740" data-name="Trazado 1031740" d="M3,3H58.626V58.626H3Z" transform="translate(-0.041 -0.041)" fill="#d1f5c9"/>
      <path id="Trazado_1031741" data-name="Trazado 1031741" d="M19,49H43.936v3.836H19Z" transform="translate(-0.696 -1.924)" fill="#ad6327"/>
      <path id="Trazado_1031742" data-name="Trazado 1031742" d="M28.869,53.9a1.99,1.99,0,0,0-1.995-1.6H22.181l-3.836-3.836.959-.959a2.6,2.6,0,0,0,0-3.836l-4.8-5.754A4.731,4.731,0,0,0,10.673,36H3v8.632H5.877l4.8,6.714,9.591,4.8h6.714a1.918,1.918,0,0,0,1.892-2.24Z" transform="translate(-0.041 -1.391)" fill="#ffd782"/>
      <path id="Trazado_1031743" data-name="Trazado 1031743" d="M34.026,53.9a1.99,1.99,0,0,1,1.995-1.6h4.693l3.836-3.836-.959-.959a2.6,2.6,0,0,1,0-3.836l4.8-5.754A4.731,4.731,0,0,1,52.222,36h7.673v8.632H57.018l-4.8,6.714-9.591,4.8H35.918a1.918,1.918,0,0,1-1.892-2.24Z" transform="translate(-1.31 -1.391)" fill="#ffd782"/>
      <path id="Trazado_1031744" data-name="Trazado 1031744" d="M26,7h2.877a2.877,2.877,0,0,1,2.877,2.877v.959H28.877A2.877,2.877,0,0,1,26,7.959Z" transform="translate(-0.982 -0.205)" fill="#8ec13f"/>
      <path id="Trazado_1031745" data-name="Trazado 1031745" d="M2.877,0H5.754V.959A2.877,2.877,0,0,1,2.877,3.836H0V2.877A2.877,2.877,0,0,1,2.877,0Z" transform="translate(36.527 10.632) rotate(180)" fill="#c8d952"/>
      <g id="Grupo_1199721" data-name="Grupo 1199721" transform="translate(6.795 6.795)">
        <path id="Trazado_1031746" data-name="Trazado 1031746" d="M7,7H20.427v7.673H7Z" transform="translate(-7 -7)" fill="#ceac9a"/>
        <path id="Trazado_1031747" data-name="Trazado 1031747" d="M7,19H20.427V30.509H7Z" transform="translate(-7 -7.491)" fill="#ceac9a"/>
        <path id="Trazado_1031748" data-name="Trazado 1031748" d="M42,23H56.386v7.673H42Z" transform="translate(-8.432 -7.655)" fill="#ceac9a"/>
        <path id="Trazado_1031749" data-name="Trazado 1031749" d="M42,7H56.386V18.509H42Z" transform="translate(-8.432 -7)" fill="#ceac9a"/>
      </g>
      <path id="Trazado_1031750" data-name="Trazado 1031750" d="M24,33H37.427v9.591a1.918,1.918,0,0,1-1.918,1.918H25.918A1.918,1.918,0,0,1,24,42.591Z" transform="translate(-0.9 -1.269)" fill="#f9bb4b"/>
      <path id="Trazado_1031751" data-name="Trazado 1031751" d="M26,15h2.877a2.877,2.877,0,0,1,2.877,2.877v.959H28.877A2.877,2.877,0,0,1,26,15.959Z" transform="translate(-0.982 -0.532)" fill="#8ec13f"/>
      <path id="Trazado_1031752" data-name="Trazado 1031752" d="M2.877,0H5.754V.959A2.877,2.877,0,0,1,2.877,3.836H0V2.877A2.877,2.877,0,0,1,2.877,0Z" transform="translate(36.527 18.304) rotate(180)" fill="#c8d952"/>
      <path id="Trazado_1031753" data-name="Trazado 1031753" d="M26,23h2.877a2.877,2.877,0,0,1,2.877,2.877v.959H28.877A2.877,2.877,0,0,1,26,23.959Z" transform="translate(-0.982 -0.859)" fill="#8ec13f"/>
      <path id="Trazado_1031754" data-name="Trazado 1031754" d="M2.877,0H5.754V.959A2.877,2.877,0,0,1,2.877,3.836H0V2.877A2.877,2.877,0,0,1,2.877,0Z" transform="translate(36.527 25.977) rotate(180)" fill="#c8d952"/>
      <path id="Trazado_1031755" data-name="Trazado 1031755" d="M58.585,2H2.959A.959.959,0,0,0,2,2.959V58.585a.959.959,0,0,0,.959.959H58.585a.959.959,0,0,0,.959-.959V2.959A.959.959,0,0,0,58.585,2ZM3.918,35.568h6.714a3.747,3.747,0,0,1,3.1,1.574l4.855,5.818a1.649,1.649,0,0,1,0,2.48l-.281.281L14.187,41.6l-1.356,1.356,8.632,8.632a.959.959,0,0,0,.678.281h4.693a1.039,1.039,0,0,1,1.047.791.959.959,0,0,1-.945,1.127H20.449L11.273,49.2,6.616,42.681a.959.959,0,0,0-.78-.4H3.918Zm16.7,12.468H40.925l-1.918,1.918H22.538Zm37.007,9.591H3.918V44.2H5.342L9.85,50.511a.959.959,0,0,0,.351.3l9.591,4.8a.959.959,0,0,0,.431.1h6.714a2.877,2.877,0,0,0,2.839-3.357,2.646,2.646,0,0,0-.128-.48H31.9a2.646,2.646,0,0,0-.128.48,2.877,2.877,0,0,0,2.839,3.357h6.714a.959.959,0,0,0,.429-.1l9.591-4.8a.959.959,0,0,0,.351-.3L56.2,44.2h1.424Zm0-15.345H55.708a.959.959,0,0,0-.78.4L50.271,49.2,41.1,53.79H34.609a.959.959,0,0,1-.945-1.127,1.039,1.039,0,0,1,1.047-.791H39.4a.959.959,0,0,0,.678-.281l8.632-8.632L47.357,41.6,43.24,45.72l-.281-.281A1.75,1.75,0,0,1,42.4,44.2a1.836,1.836,0,0,1,.621-1.3L47.8,37.159a3.769,3.769,0,0,1,3.115-1.591h6.714Zm0-8.632H50.913a5.67,5.67,0,0,0-4.574,2.262L41.6,41.6a3.521,3.521,0,0,0-.54,4.514H20.482A3.48,3.48,0,0,0,20,41.666l-4.812-5.772a5.649,5.649,0,0,0-4.559-2.245H3.918V3.918H57.626Z"/>
      <path id="Trazado_1031756" data-name="Trazado 1031756" d="M6.959,15.591H20.386a.959.959,0,0,0,.959-.959V6.959A.959.959,0,0,0,20.386,6H6.959A.959.959,0,0,0,6,6.959v7.673A.959.959,0,0,0,6.959,15.591Zm.959-7.673H19.427v5.754H7.918Z" transform="translate(-0.164 -0.164)"/>
      <path id="Trazado_1031757" data-name="Trazado 1031757" d="M6.959,31.427H20.386a.959.959,0,0,0,.959-.959V18.959A.959.959,0,0,0,20.386,18H6.959A.959.959,0,0,0,6,18.959V30.468A.959.959,0,0,0,6.959,31.427Zm.959-11.509H19.427v9.591H7.918Z" transform="translate(-0.164 -0.655)"/>
      <path id="Trazado_1031758" data-name="Trazado 1031758" d="M41.959,31.591H56.345a.959.959,0,0,0,.959-.959V22.959A.959.959,0,0,0,56.345,22H41.959a.959.959,0,0,0-.959.959v7.673A.959.959,0,0,0,41.959,31.591Zm.959-7.673H55.386v5.754H42.918Z" transform="translate(-1.596 -0.819)"/>
      <path id="Trazado_1031759" data-name="Trazado 1031759" d="M41.959,19.427H56.345a.959.959,0,0,0,.959-.959V6.959A.959.959,0,0,0,56.345,6H41.959A.959.959,0,0,0,41,6.959V18.468A.959.959,0,0,0,41.959,19.427Zm.959-11.509H55.386v9.591H42.918Z" transform="translate(-1.596 -0.164)"/>
      <path id="Trazado_1031760" data-name="Trazado 1031760" d="M10,10h7.673v1.918H10Z" transform="translate(-0.327 -0.327)"/>
      <path id="Trazado_1031761" data-name="Trazado 1031761" d="M10,22h7.673v1.918H10Z" transform="translate(-0.327 -0.819)"/>
      <path id="Trazado_1031762" data-name="Trazado 1031762" d="M45,10h8.632v1.918H45Z" transform="translate(-1.76 -0.327)"/>
      <path id="Trazado_1031763" data-name="Trazado 1031763" d="M45,14h5.754v1.918H45Z" transform="translate(-1.76 -0.491)"/>
      <path id="Trazado_1031764" data-name="Trazado 1031764" d="M45,26h8.632v1.918H45Z" transform="translate(-1.76 -0.982)"/>
      <path id="Trazado_1031765" data-name="Trazado 1031765" d="M25.877,44.363h9.591a2.877,2.877,0,0,0,2.877-2.877V31.895a.959.959,0,0,0-.959-.959h-4.8V27.1h1.918a3.836,3.836,0,0,0,3.836-3.836V22.3a.959.959,0,0,0-.959-.959H34.509a3.8,3.8,0,0,0-1.918.533V19.427h1.918a3.836,3.836,0,0,0,3.836-3.836v-.959a.959.959,0,0,0-.959-.959H34.509a3.8,3.8,0,0,0-1.918.533V11.754h1.918a3.836,3.836,0,0,0,3.836-3.836V6.959A.959.959,0,0,0,37.386,6H34.509a3.811,3.811,0,0,0-2.877,1.325A3.811,3.811,0,0,0,28.754,6H25.877a.959.959,0,0,0-.959.959v.959a3.836,3.836,0,0,0,3.836,3.836h1.918v2.451a3.8,3.8,0,0,0-1.918-.533H25.877a.959.959,0,0,0-.959.959v.959a3.836,3.836,0,0,0,3.836,3.836h1.918v2.451a3.8,3.8,0,0,0-1.918-.533H25.877a.959.959,0,0,0-.959.959v.959A3.836,3.836,0,0,0,28.754,27.1h1.918v3.836H23.959a.959.959,0,0,0-.959.959v9.591A2.877,2.877,0,0,0,25.877,44.363ZM34.509,7.918h1.918a1.918,1.918,0,0,1-1.918,1.918H32.591A1.918,1.918,0,0,1,34.509,7.918Zm0,7.673h1.918a1.918,1.918,0,0,1-1.918,1.918H32.591A1.918,1.918,0,0,1,34.509,15.591Zm0,7.673h1.918a1.918,1.918,0,0,1-1.918,1.918H32.591A1.918,1.918,0,0,1,34.509,23.263ZM28.754,9.836a1.918,1.918,0,0,1-1.918-1.918h1.918a1.918,1.918,0,0,1,1.918,1.918Zm0,7.673a1.918,1.918,0,0,1-1.918-1.918h1.918a1.918,1.918,0,0,1,1.918,1.918Zm0,7.673a1.918,1.918,0,0,1-1.918-1.918h1.918a1.918,1.918,0,0,1,1.918,1.918Zm-3.836,7.673H36.427v8.632a.959.959,0,0,1-.959.959H25.877a.959.959,0,0,1-.959-.959Z" transform="translate(-0.859 -0.164)"/>
      <path id="Trazado_1031766" data-name="Trazado 1031766" d="M33,40h1.918v1.918H33Z" transform="translate(-1.269 -1.555)"/>
      <path id="Trazado_1031767" data-name="Trazado 1031767" d="M10,26h7.673v1.918H10Z" transform="translate(-0.327 -0.982)"/>
    </g>
  </g>
</svg>
