<svg xmlns="http://www.w3.org/2000/svg" xmlns:xlink="http://www.w3.org/1999/xlink" width="86.109" height="86.109" viewBox="0 0 86.109 86.109">
  <defs>
    <filter id="Trazado_896985" x="0" y="0" width="86.109" height="86.109" filterUnits="userSpaceOnUse">
      <feOffset dy="3" input="SourceAlpha"/>
      <feGaussianBlur stdDeviation="3" result="blur"/>
      <feFlood flood-opacity="0.161"/>
      <feComposite operator="in" in2="blur"/>
      <feComposite in="SourceGraphic"/>
    </filter>
  </defs>
  <g id="Grupo_1199754" data-name="Grupo 1199754" transform="translate(-755.474 -16833.086)">
    <g id="Grupo_1199584" data-name="Grupo 1199584" transform="translate(558.584 12371.764)">
      <g id="Grupo_1198139" data-name="Grupo 1198139" transform="translate(205.891 4467.322)">
        <g id="Grupo_1111318" data-name="Grupo 1111318" transform="translate(0)">
          <g id="Grupo_1109826" data-name="Grupo 1109826" transform="translate(0 0)">
            <g id="Grupo_1098742" data-name="Grupo 1098742" transform="translate(0)">
              <g transform="matrix(1, 0, 0, 1, -9, -6)" filter="url(#Trazado_896985)">
                <g id="Trazado_896985-2" data-name="Trazado 896985" transform="translate(9 6)" fill="#fc0" opacity="0.859">
                  <path d="M 34.05470275878906 67.6094970703125 C 29.52462196350098 67.6094970703125 25.13032341003418 66.72238159179688 20.99385261535645 64.97280120849609 C 16.99824333190918 63.28280639648438 13.40971279144287 60.86331558227539 10.32794284820557 57.78155517578125 C 7.246182918548584 54.69978332519531 4.826692581176758 51.11125564575195 3.136692762374878 47.11564636230469 C 1.387112736701965 42.97917556762695 0.5000027418136597 38.58487319946289 0.5000027418136597 34.05479431152344 C 0.5000027418136597 29.52469444274902 1.387112736701965 25.13037490844727 3.136692762374878 20.9938850402832 C 4.826692581176758 16.99826431274414 7.246182918548584 13.40972518920898 10.32794284820557 10.32795429229736 C 13.40971279144287 7.246184825897217 16.99824333190918 4.826694488525391 20.99385261535645 3.136694669723511 C 25.13032341003418 1.387114763259888 29.52462196350098 0.5000047087669373 34.05470275878906 0.5000047087669373 C 38.58478164672852 0.5000047087669373 42.97908401489258 1.387114763259888 47.11555099487305 3.136694669723511 C 51.11116409301758 4.826694488525391 54.69969177246094 7.246174812316895 57.78146362304688 10.3279447555542 C 60.86322402954102 13.4097146987915 63.28271102905273 16.99823379516602 64.97270965576172 20.99384498596191 C 66.7222900390625 25.13031387329102 67.60940551757812 29.52461433410645 67.60940551757812 34.05469512939453 C 67.60940551757812 38.58479309082031 66.7222900390625 42.9791145324707 64.97270965576172 47.11560440063477 C 63.28271102905273 51.11122512817383 60.86322402954102 54.69976425170898 57.78146362304688 57.78153610229492 C 54.69969177246094 60.86330413818359 51.11116409301758 63.28280639648438 47.11555099487305 64.97280120849609 C 42.97908401489258 66.72238159179688 38.58478164672852 67.6094970703125 34.05470275878906 67.6094970703125 Z" stroke="none"/>
                  <path d="M 34.05470275878906 0.9999923706054688 C 29.59190368652344 0.9999923706054688 25.26313400268555 1.873817443847656 21.18863296508789 3.597183227539062 C 17.25262451171875 5.261985778808594 13.71751403808594 7.645496368408203 10.68150329589844 10.68150329589844 C 7.645492553710938 13.71752548217773 5.261981964111328 17.25263595581055 3.597190856933594 21.18866348266602 C 1.873825073242188 25.26318359375 1 29.59197616577148 1 34.05479431152344 C 1 38.51759338378906 1.873825073242188 42.84636688232422 3.597190856933594 46.92086410522461 C 5.261981964111328 50.85687255859375 7.645492553710938 54.39198303222656 10.68150329589844 57.42799377441406 C 13.71751403808594 60.46399307250977 17.25262451171875 62.84750366210938 21.18863296508789 64.51229858398438 C 25.26313400268555 66.23566436767578 29.59190368652344 67.10948181152344 34.05470275878906 67.10948181152344 C 38.51750183105469 67.10948181152344 42.84627532958984 66.23566436767578 46.92077255249023 64.51229858398438 C 50.85679244995117 62.84749603271484 54.39189147949219 60.46399307250977 57.42790222167969 57.42798614501953 C 60.46391296386719 54.39196395874023 62.8474235534668 50.85684204101562 64.51221466064453 46.92082214355469 C 66.23558044433594 42.84630584716797 67.10940551757812 38.51751708984375 67.10940551757812 34.05469512939453 C 67.10940551757812 29.59189605712891 66.23558044433594 25.26312637329102 64.51221466064453 21.18862533569336 C 62.8474235534668 17.25261306762695 60.46391296386719 13.71750640869141 57.42790222167969 10.68149566650391 C 54.39189147949219 7.645484924316406 50.85678100585938 5.261974334716797 46.92077255249023 3.597183227539062 C 42.84627532958984 1.873817443847656 38.51750183105469 0.9999923706054688 34.05470275878906 0.9999923706054688 M 34.05470275878906 -7.62939453125e-06 C 52.86259460449219 -7.62939453125e-06 68.10940551757812 15.24680328369141 68.10940551757812 34.05469512939453 L 68.10940551757812 34.05479431152344 C 68.10940551757812 52.86268615722656 52.86259460449219 68.10948181152344 34.05470275878906 68.10948181152344 C 15.24681091308594 68.10948181152344 0 52.86268615722656 0 34.05479431152344 L 0 34.05469512939453 C 0 15.24680328369141 15.24681091308594 -7.62939453125e-06 34.05470275878906 -7.62939453125e-06 Z" stroke="none" fill="#fff"/>
                </g>
              </g>
              <g id="Rectángulo_400907" data-name="Rectángulo 400907" transform="translate(0)" fill="none" stroke="#fff" stroke-width="1">
                <rect width="68.109" height="68.109" rx="34.055" stroke="none"/>
                <rect x="0.5" y="0.5" width="67.109" height="67.109" rx="33.555" fill="none"/>
              </g>
            </g>
          </g>
        </g>
      </g>
    </g>
    <g id="Layer_1" transform="translate(136.694 16667.115)">
      <g id="Grupo_1199752" data-name="Grupo 1199752" transform="translate(644.8 181.585)">
        <g id="Grupo_1199737" data-name="Grupo 1199737" transform="translate(0 21.941)">
          <path id="Trazado_1031845" data-name="Trazado 1031845" d="M678.078,1872.229H645.6a.8.8,0,0,1-.8-.8v-8.961a11.784,11.784,0,0,1,11.994-11.566.8.8,0,0,0,.827-.76V1848.6a.8.8,0,1,1,1.591,0v1.551a2.388,2.388,0,0,1-2.42,2.352,10.194,10.194,0,0,0-10.4,9.975v8.166H677.28v-8.166a10.193,10.193,0,0,0-10.4-9.975,2.383,2.383,0,0,1-2.42-2.35V1848.6a.8.8,0,1,1,1.591,0v1.552a.8.8,0,0,0,.827.758,11.785,11.785,0,0,1,11.995,11.566v8.961A.792.792,0,0,1,678.078,1872.229Z" transform="translate(-644.8 -1847.8)" fill-rule="evenodd"/>
        </g>
        <g id="Grupo_1199738" data-name="Grupo 1199738" transform="translate(8.94 10.915)">
          <path id="Trazado_1031846" data-name="Trazado 1031846" d="M1331.775,1023.966a8.1,8.1,0,0,1-8.075-8.1V1011.3a.8.8,0,1,1,1.591,0v4.573a6.5,6.5,0,1,0,13.007,0V1011.3a.8.8,0,1,1,1.591,0v4.573A8.091,8.091,0,0,1,1331.775,1023.966Z" transform="translate(-1323.7 -1010.5)" fill-rule="evenodd"/>
        </g>
        <g id="Grupo_1199739" data-name="Grupo 1199739" transform="translate(13.946 18.601)">
          <path id="Trazado_1031847" data-name="Trazado 1031847" d="M1704.133,1595.522a.8.8,0,1,1,1.126-1.126,2.448,2.448,0,0,0,3.462,0,.8.8,0,0,1,1.126,1.126A4.037,4.037,0,0,1,1704.133,1595.522Z" transform="translate(-1703.9 -1594.163)" fill-rule="evenodd"/>
        </g>
        <g id="Grupo_1199740" data-name="Grupo 1199740" transform="translate(4.535 35.748)">
          <path id="Trazado_1031848" data-name="Trazado 1031848" d="M1013.408,2906.923a.8.8,0,0,1-.8-.8v-8.237H990.791v8.237a.8.8,0,1,1-1.591,0V2897.1a.8.8,0,0,1,.8-.8h23.416a.8.8,0,0,1,.8.8v9.032A.8.8,0,0,1,1013.408,2906.923Z" transform="translate(-989.2 -2896.3)" fill-rule="evenodd"/>
        </g>
        <g id="Grupo_1199741" data-name="Grupo 1199741" transform="translate(11.926 24.882)">
          <path id="Trazado_1031849" data-name="Trazado 1031849" d="M1552.169,2074.342a3.058,3.058,0,0,1-1.726-2.36.8.8,0,1,1,1.587-.117c.059.8,1.518,1.7,3.519,1.7s3.46-.894,3.518-1.7a.8.8,0,1,1,1.587.117,3.054,3.054,0,0,1-1.725,2.36A7.434,7.434,0,0,1,1552.169,2074.342Z" transform="translate(-1550.441 -2071.128)" fill-rule="evenodd"/>
        </g>
        <g id="Grupo_1199742" data-name="Grupo 1199742" transform="translate(6.371 26.098)">
          <path id="Trazado_1031850" data-name="Trazado 1031850" d="M1129.4,2174.74a.8.8,0,0,1-.8-.8v-9.65a.8.8,0,0,1,1.591,0v9.65A.794.794,0,0,1,1129.4,2174.74Z" transform="translate(-1128.6 -2163.5)" fill-rule="evenodd"/>
        </g>
        <g id="Grupo_1199743" data-name="Grupo 1199743" transform="translate(9.901 25.121)">
          <path id="Trazado_1031851" data-name="Trazado 1031851" d="M1397.5,2101.518a.8.8,0,0,1-.8-.8V2090.1a.8.8,0,1,1,1.591,0v10.627A.8.8,0,0,1,1397.5,2101.518Z" transform="translate(-1396.7 -2089.3)" fill-rule="evenodd"/>
        </g>
        <g id="Grupo_1199744" data-name="Grupo 1199744" transform="translate(26.11 26.098)">
          <path id="Trazado_1031852" data-name="Trazado 1031852" d="M2628.4,2174.74a.8.8,0,0,1-.8-.8v-9.65a.8.8,0,0,1,1.591,0v9.65A.793.793,0,0,1,2628.4,2174.74Z" transform="translate(-2627.6 -2163.5)" fill-rule="evenodd"/>
        </g>
        <g id="Grupo_1199745" data-name="Grupo 1199745" transform="translate(22.582 25.121)">
          <path id="Trazado_1031853" data-name="Trazado 1031853" d="M2360.5,2101.518a.8.8,0,0,1-.8-.8V2090.1a.8.8,0,0,1,1.591,0v10.627A.8.8,0,0,1,2360.5,2101.518Z" transform="translate(-2359.7 -2089.3)" fill-rule="evenodd"/>
        </g>
        <g id="Grupo_1199746" data-name="Grupo 1199746" transform="translate(5.137 6.28)">
          <path id="Trazado_1031854" data-name="Trazado 1031854" d="M1046.789,665.7a28.4,28.4,0,0,1-7.52-1.006c-3.5-1.01-4.185-2.344-4.288-2.6l-.021-.054a1.906,1.906,0,0,1,.349-1.711,5.115,5.115,0,0,1,3.077-1.488,16.885,16.885,0,0,1,2.919-.327h.01a.8.8,0,0,1,.007,1.591c-1.621.022-4.174.452-4.758,1.2a.316.316,0,0,0-.082.211c.167.215.9.972,3.229,1.647.637.184,1.348.349,2.116.491a27.338,27.338,0,0,0,9.926,0c.768-.141,1.48-.307,2.116-.49a9.639,9.639,0,0,0,2.366-.959,3.031,3.031,0,0,0,.861-.687.3.3,0,0,0-.051-.17c-.086-.136-.5-.6-2.162-.957a15.028,15.028,0,0,0-2.632-.3.8.8,0,0,1,.009-1.591,16.427,16.427,0,0,1,2.954.337c1.651.35,2.69.894,3.177,1.663a1.932,1.932,0,0,1,.229,1.541l-.021.054a3.015,3.015,0,0,1-1.163,1.235v.018a13.787,13.787,0,0,1-5.4,1.875A29.205,29.205,0,0,1,1046.789,665.7Z" transform="translate(-1034.889 -658.5)" fill-rule="evenodd"/>
        </g>
        <g id="Grupo_1199747" data-name="Grupo 1199747" transform="translate(10.694 0)">
          <path id="Trazado_1031855" data-name="Trazado 1031855" d="M1463.263,191.531a17.6,17.6,0,0,1-5.317-.855,1.711,1.711,0,0,1-.978-1.977,10.5,10.5,0,0,0,.317-2.872,6.98,6.98,0,0,1,.379-2.738,2.328,2.328,0,0,1,2.773-1.423,5.334,5.334,0,0,1,1.317.552,2.925,2.925,0,0,0,1.093.151c.278-.009.56-.009.835,0a2.919,2.919,0,0,0,1.093-.151,5.334,5.334,0,0,1,1.317-.552,2.329,2.329,0,0,1,2.775,1.423,7.008,7.008,0,0,1,.379,2.738,10.365,10.365,0,0,0,.317,2.873,1.713,1.713,0,0,1-.98,1.975A17.61,17.61,0,0,1,1463.263,191.531Zm-4.122-7.855a5.421,5.421,0,0,0-.269,2.05,12.092,12.092,0,0,1-.357,3.338.129.129,0,0,0,.042.14,13.077,13.077,0,0,0,3.567.679,11.954,11.954,0,0,0,2.277,0,13.171,13.171,0,0,0,3.566-.679.13.13,0,0,0,.042-.14,12.018,12.018,0,0,1-.357-3.338.044.044,0,0,1,0-.013,5.43,5.43,0,0,0-.27-2.037.736.736,0,0,0-.872-.477,4.1,4.1,0,0,0-1.043.45,4.25,4.25,0,0,1-1.846.308c-.24-.008-.483-.008-.722,0a4.256,4.256,0,0,1-1.846-.308,3.976,3.976,0,0,0-1.043-.45A.738.738,0,0,0,1459.141,183.676Z" transform="translate(-1456.92 -181.585)" fill-rule="evenodd"/>
        </g>
        <g id="Grupo_1199748" data-name="Grupo 1199748" transform="translate(7.9 38.651)">
          <path id="Trazado_1031856" data-name="Trazado 1031856" d="M1262.179,3118.391H1245.5a.8.8,0,0,1,0-1.591h16.684a.8.8,0,0,1,0,1.591Z" transform="translate(-1244.7 -3116.8)" fill-rule="evenodd"/>
        </g>
        <g id="Grupo_1199749" data-name="Grupo 1199749" transform="translate(7.9 41.913)">
          <path id="Trazado_1031857" data-name="Trazado 1031857" d="M1262.179,3366.091H1245.5a.8.8,0,0,1,0-1.591h16.684a.8.8,0,0,1,0,1.591Z" transform="translate(-1244.7 -3364.5)" fill-rule="evenodd"/>
        </g>
        <g id="Grupo_1199750" data-name="Grupo 1199750" transform="translate(26.09 9.88)">
          <path id="Trazado_1031858" data-name="Trazado 1031858" d="M2626.888,949.706a.8.8,0,1,1,.084-1.588,3.32,3.32,0,0,0,2.338-1.19,4.568,4.568,0,0,1-2.343-2.241,4.839,4.839,0,0,1-.485-2.013c0-.367,1.094-5.244-.33-9.737a.8.8,0,1,1,1.523-.46,22.285,22.285,0,0,1,.4,10.265,3.423,3.423,0,0,0,.352,1.309,3.231,3.231,0,0,0,2.4,1.692.8.8,0,0,1,.511,1.214,8.051,8.051,0,0,1-1.209,1.393A4.57,4.57,0,0,1,2626.888,949.706Z" transform="translate(-2626.115 -931.9)" fill-rule="evenodd"/>
        </g>
        <g id="Grupo_1199751" data-name="Grupo 1199751" transform="translate(2.629 9.878)">
          <path id="Trazado_1031859" data-name="Trazado 1031859" d="M848.838,949.514a4.634,4.634,0,0,1-3.067-1.364,7.981,7.981,0,0,1-1.209-1.393.8.8,0,0,1,.511-1.214,3.224,3.224,0,0,0,2.4-1.692,3.434,3.434,0,0,0,.352-1.309,22.239,22.239,0,0,1,.4-10.267.8.8,0,0,1,1.559.221,20.435,20.435,0,0,0-.378,9.859,4.682,4.682,0,0,1-2.818,4.373,3.337,3.337,0,0,0,2.34,1.189.8.8,0,1,1,.084,1.588A1.345,1.345,0,0,1,848.838,949.514Z" transform="translate(-844.434 -931.7)" fill-rule="evenodd"/>
        </g>
      </g>
      <g id="Grupo_1199753" data-name="Grupo 1199753" transform="translate(646.391 183.175)">
        <path id="Trazado_1031860" data-name="Trazado 1031860" d="M1581.472,309.112a11.958,11.958,0,0,0,2.277,0,13.173,13.173,0,0,0,3.566-.679.13.13,0,0,0,.042-.14l-.04-.172a.963.963,0,0,1-.028-.125,11.509,11.509,0,0,1-.29-3.039.048.048,0,0,1,0-.013,5.425,5.425,0,0,0-.27-2.037.736.736,0,0,0-.872-.477,4.094,4.094,0,0,0-1.043.45,4.25,4.25,0,0,1-1.846.308c-.24-.008-.483-.008-.722,0a4.255,4.255,0,0,1-1.846-.308,3.973,3.973,0,0,0-1.043-.45.735.735,0,0,0-.873.477,5.42,5.42,0,0,0-.269,2.05,11.786,11.786,0,0,1-.3,3.1c0,.017-.007.033-.01.05q-.022.1-.043.19a.129.129,0,0,0,.042.14A13.048,13.048,0,0,0,1581.472,309.112Z" transform="translate(-1567.162 -302.403)" fill="sienna" fill-rule="evenodd"/>
        <path id="Trazado_1031861" data-name="Trazado 1031861" d="M1171.423,783.776a16.973,16.973,0,0,1-10.636,0,1.677,1.677,0,0,1-.977-1.161c-1.551.125-3.439.529-3.932,1.16a.315.315,0,0,0-.082.211c.167.215.894.971,3.221,1.645l.008,0h.005c.635.183,1.344.348,2.111.489a27.335,27.335,0,0,0,9.926,0c.745-.137,1.437-.3,2.058-.473a.865.865,0,0,1,.113-.033,9.75,9.75,0,0,0,2.286-.928.375.375,0,0,1,.055-.032,2.969,2.969,0,0,0,.833-.672.294.294,0,0,0-.051-.17c-.086-.136-.5-.6-2.162-.957a14.932,14.932,0,0,0-1.795-.258A1.685,1.685,0,0,1,1171.423,783.776Z" transform="translate(-1150.658 -776.275)" fill="#c76537" fill-rule="evenodd"/>
        <path id="Trazado_1031862" data-name="Trazado 1031862" d="M1456.355,1149.459a28.922,28.922,0,0,1-5.25.482,29.218,29.218,0,0,1-6.505-.741v3.542a6.5,6.5,0,0,0,13.007,0V1149.2C1457.224,1149.289,1456.807,1149.378,1456.355,1149.459Zm-8.108,5.833a.8.8,0,0,1,1.126,0,2.448,2.448,0,0,0,3.462,0,.8.8,0,1,1,1.126,1.126,4.039,4.039,0,0,1-5.715,0A.8.8,0,0,1,1448.248,1155.293Z" transform="translate(-1435.659 -1138.048)" fill="#ffe0b2" fill-rule="evenodd"/>
        <path id="Trazado_1031863" data-name="Trazado 1031863" d="M1016.432,1090.875a8.092,8.092,0,0,1-3.881-6.915v-3.985a12.931,12.931,0,0,1-1.244-.475,21.078,21.078,0,0,0-.09,8.708,4.683,4.683,0,0,1-2.818,4.373,3.485,3.485,0,0,0,2.206,1.192,12.336,12.336,0,0,1,5-1.051.883.883,0,0,0,.365-.078l.039-.018a.75.75,0,0,0,.424-.664v-1.088Z" transform="translate(-1005.203 -1069.266)" fill="#b6bbbd" fill-rule="evenodd"/>
        <path id="Trazado_1031864" data-name="Trazado 1031864" d="M1681.965,2000v.341a2.316,2.316,0,0,1-.765,1.716,5.034,5.034,0,0,0,6.778,0,2.306,2.306,0,0,1-.765-1.717V2000a8.128,8.128,0,0,1-5.247,0Z" transform="translate(-1669.143 -1977.645)" fill="#f7c77e" fill-rule="evenodd"/>
        <path id="Trazado_1031865" data-name="Trazado 1031865" d="M2262.481,1084.058a8.1,8.1,0,0,1-3.881,6.915v1.09a.747.747,0,0,0,.411.656.629.629,0,0,1,.064.032.889.889,0,0,0,.352.072,12.33,12.33,0,0,1,5.005,1.052,3.464,3.464,0,0,0,2.2-1.193,4.569,4.569,0,0,1-2.343-2.241,4.832,4.832,0,0,1-.484-2.013,23.5,23.5,0,0,0-.076-8.828,13.173,13.173,0,0,1-1.251.477Z" transform="translate(-2238.94 -1069.364)" fill="#b6bbbd" fill-rule="evenodd"/>
        <path id="Trazado_1031866" data-name="Trazado 1031866" d="M1526.327,2205.563a7.441,7.441,0,0,1-6.763,0,3.546,3.546,0,0,1-1.479-1.463c-.061,0-.122.007-.184.007-.167,0-.334,0-.5.012v9.1h11.09v-9.1c-.166-.008-.334-.012-.5-.012-.062,0-.124,0-.184-.007A3.531,3.531,0,0,1,1526.327,2205.563Z" transform="translate(-1507.5 -2179.057)" fill="#a4c400" fill-rule="evenodd"/>
        <path id="Trazado_1031867" data-name="Trazado 1031867" d="M770.38,2332.028V2324.5a9.881,9.881,0,0,0-4.78,8.395v8.166h2.944v-8.237a.8.8,0,0,1,.8-.8Z" transform="translate(-765.6 -2297.872)" fill="#a4c400" fill-rule="evenodd"/>
        <path id="Trazado_1031868" data-name="Trazado 1031868" d="M1130.779,3017.1H1110v7.44h21.822v-7.44Zm-1.526,1.312a.8.8,0,0,1,0,1.591h-16.684a.8.8,0,1,1,0-1.591Zm-16.684,3.262h16.684a.8.8,0,0,1,0,1.591h-16.684a.8.8,0,1,1,0-1.591Z" transform="translate(-1105.465 -2981.351)" fill="#c76537" fill-rule="evenodd"/>
        <path id="Trazado_1031869" data-name="Trazado 1031869" d="M2750.438,2333.022v8.237h2.94v-8.166a9.864,9.864,0,0,0-4.779-8.393v7.527h1.043A.794.794,0,0,1,2750.438,2333.022Z" transform="translate(-2722.488 -2298.069)" fill="#a4c400" fill-rule="evenodd"/>
        <path id="Trazado_1031870" data-name="Trazado 1031870" d="M2482.437,2228.9v-8.33a10.665,10.665,0,0,0-1.937-.574v8.9Z" transform="translate(-2457.918 -2194.748)" fill="#ffeb3a" fill-rule="evenodd"/>
        <path id="Trazado_1031871" data-name="Trazado 1031871" d="M1251.338,2228.806V2219.9a10.69,10.69,0,0,0-1.938.574v8.333h1.938Z" transform="translate(-1243.029 -2194.649)" fill="#ffeb3a" fill-rule="evenodd"/>
        <path id="Trazado_1031872" data-name="Trazado 1031872" d="M2137.214,304.857a11.623,11.623,0,0,0,.29,3.039c0,.02.012.062.025.117,0,0,0,.005,0,.008s0,.018.007.028c.051.211.142.557.159.627a6.77,6.77,0,0,0,1.2-.344.13.13,0,0,0,.042-.14l-.04-.172a.943.943,0,0,1-.027-.125,11.51,11.51,0,0,1-.29-3.039.041.041,0,0,1,0-.013,5.423,5.423,0,0,0-.27-2.037.736.736,0,0,0-.872-.477,3.841,3.841,0,0,0-.641.234.828.828,0,0,1,.145.241,5.423,5.423,0,0,1,.27,2.037A.081.081,0,0,0,2137.214,304.857Z" transform="translate(-2118.744 -302.304)" fill="#824325" fill-rule="evenodd"/>
        <path id="Trazado_1031873" data-name="Trazado 1031873" d="M1871.55,783.915a.3.3,0,0,1,.052.17,2.976,2.976,0,0,1-.834.672l-.054.032a9.817,9.817,0,0,1-2.286.928.8.8,0,0,0-.113.033c-.622.176-1.313.336-2.058.473a27.556,27.556,0,0,1-3.957.436,27.315,27.315,0,0,0,5.968-.436c.745-.137,1.437-.3,2.058-.473a.858.858,0,0,1,.113-.033,9.748,9.748,0,0,0,2.286-.928.389.389,0,0,1,.055-.032,2.971,2.971,0,0,0,.833-.672.3.3,0,0,0-.051-.17c-.086-.136-.5-.6-2.162-.957a14.907,14.907,0,0,0-1.795-.258,1.675,1.675,0,0,1-.094.284C1871.076,783.335,1871.467,783.784,1871.55,783.915Z" transform="translate(-1847.858 -776.374)" fill="#a1522d" fill-rule="evenodd"/>
        <path id="Trazado_1031874" data-name="Trazado 1031874" d="M2563.111,1079.827a24.033,24.033,0,0,1-.021,8.4,4.835,4.835,0,0,0,.485,2.013,4.569,4.569,0,0,0,2.343,2.241,4.43,4.43,0,0,1-1.416,1.019c.138.055.277.113.412.174a3.463,3.463,0,0,0,2.2-1.193,4.568,4.568,0,0,1-2.343-2.241,4.83,4.83,0,0,1-.485-2.013,23.5,23.5,0,0,0-.076-8.828C2563.909,1079.534,2563.546,1079.679,2563.111,1079.827Z" transform="translate(-2539.42 -1069.167)" fill="#949799" fill-rule="evenodd"/>
        <path id="Trazado_1031875" data-name="Trazado 1031875" d="M1894.182,1152.742V1149.2c-.383.089-.8.178-1.252.261l-.116.021v3.262a6.515,6.515,0,0,1-5.814,6.468,6.786,6.786,0,0,0,.7.037A6.516,6.516,0,0,0,1894.182,1152.742Z" transform="translate(-1872.233 -1138.048)" fill="#cfb690" fill-rule="evenodd"/>
        <path id="Trazado_1031876" data-name="Trazado 1031876" d="M1889.906,2000a8.108,8.108,0,0,1-1.368.337v.007a2.306,2.306,0,0,0,.765,1.717,3.663,3.663,0,0,1-2.7,1.275,6.391,6.391,0,0,0,.685.036,4.1,4.1,0,0,0,3.388-1.31,2.306,2.306,0,0,1-.765-1.717V2000Z" transform="translate(-1871.838 -1977.645)" fill="#c8a166" fill-rule="evenodd"/>
        <path id="Trazado_1031877" data-name="Trazado 1031877" d="M2748.5,2325.706a9.758,9.758,0,0,1,3.41,7.387v8.166h1.368v-8.166a9.864,9.864,0,0,0-4.779-8.393Z" transform="translate(-2722.389 -2298.069)" fill="#859e00" fill-rule="evenodd"/>
      </g>
    </g>
  </g>
</svg>
