<svg xmlns="http://www.w3.org/2000/svg" xmlns:xlink="http://www.w3.org/1999/xlink" width="86.109" height="86.109" viewBox="0 0 86.109 86.109">
  <defs>
    <filter id="Trazado_896985" x="0" y="0" width="86.109" height="86.109" filterUnits="userSpaceOnUse">
      <feOffset dy="3" input="SourceAlpha"/>
      <feGaussianBlur stdDeviation="3" result="blur"/>
      <feFlood flood-opacity="0.161"/>
      <feComposite operator="in" in2="blur"/>
      <feComposite in="SourceGraphic"/>
    </filter>
  </defs>
  <g id="Grupo_1199756" data-name="Grupo 1199756" transform="translate(-966.474 -16833.086)">
    <g id="Grupo_1199585" data-name="Grupo 1199585" transform="translate(769.584 12371.764)">
      <g id="Grupo_1198139" data-name="Grupo 1198139" transform="translate(205.891 4467.322)">
        <g id="Grupo_1111318" data-name="Grupo 1111318" transform="translate(0)">
          <g id="Grupo_1109826" data-name="Grupo 1109826" transform="translate(0 0)">
            <g id="Grupo_1098742" data-name="Grupo 1098742" transform="translate(0)">
              <g transform="matrix(1, 0, 0, 1, -9, -6)" filter="url(#Trazado_896985)">
                <g id="Trazado_896985-2" data-name="Trazado 896985" transform="translate(9 6)" fill="#fc0" opacity="0.859">
                  <path d="M 34.05470275878906 67.6094970703125 C 29.52462196350098 67.6094970703125 25.13032341003418 66.72238159179688 20.99385261535645 64.97280120849609 C 16.99824333190918 63.28280639648438 13.40971279144287 60.86331558227539 10.32794284820557 57.78155517578125 C 7.246182918548584 54.69978332519531 4.826692581176758 51.11125564575195 3.136692762374878 47.11564636230469 C 1.387112736701965 42.97917556762695 0.5000027418136597 38.58487319946289 0.5000027418136597 34.05479431152344 C 0.5000027418136597 29.52469444274902 1.387112736701965 25.13037490844727 3.136692762374878 20.9938850402832 C 4.826692581176758 16.99826431274414 7.246182918548584 13.40972518920898 10.32794284820557 10.32795429229736 C 13.40971279144287 7.246184825897217 16.99824333190918 4.826694488525391 20.99385261535645 3.136694669723511 C 25.13032341003418 1.387114763259888 29.52462196350098 0.5000047087669373 34.05470275878906 0.5000047087669373 C 38.58478164672852 0.5000047087669373 42.97908401489258 1.387114763259888 47.11555099487305 3.136694669723511 C 51.11116409301758 4.826694488525391 54.69969177246094 7.246174812316895 57.78146362304688 10.3279447555542 C 60.86322402954102 13.4097146987915 63.28271102905273 16.99823379516602 64.97270965576172 20.99384498596191 C 66.7222900390625 25.13031387329102 67.60940551757812 29.52461433410645 67.60940551757812 34.05469512939453 C 67.60940551757812 38.58479309082031 66.7222900390625 42.9791145324707 64.97270965576172 47.11560440063477 C 63.28271102905273 51.11122512817383 60.86322402954102 54.69976425170898 57.78146362304688 57.78153610229492 C 54.69969177246094 60.86330413818359 51.11116409301758 63.28280639648438 47.11555099487305 64.97280120849609 C 42.97908401489258 66.72238159179688 38.58478164672852 67.6094970703125 34.05470275878906 67.6094970703125 Z" stroke="none"/>
                  <path d="M 34.05470275878906 0.9999923706054688 C 29.59190368652344 0.9999923706054688 25.26313400268555 1.873817443847656 21.18863296508789 3.597183227539062 C 17.25262451171875 5.261985778808594 13.71751403808594 7.645496368408203 10.68150329589844 10.68150329589844 C 7.645492553710938 13.71752548217773 5.261981964111328 17.25263595581055 3.597190856933594 21.18866348266602 C 1.873825073242188 25.26318359375 1 29.59197616577148 1 34.05479431152344 C 1 38.51759338378906 1.873825073242188 42.84636688232422 3.597190856933594 46.92086410522461 C 5.261981964111328 50.85687255859375 7.645492553710938 54.39198303222656 10.68150329589844 57.42799377441406 C 13.71751403808594 60.46399307250977 17.25262451171875 62.84750366210938 21.18863296508789 64.51229858398438 C 25.26313400268555 66.23566436767578 29.59190368652344 67.10948181152344 34.05470275878906 67.10948181152344 C 38.51750183105469 67.10948181152344 42.84627532958984 66.23566436767578 46.92077255249023 64.51229858398438 C 50.85679244995117 62.84749603271484 54.39189147949219 60.46399307250977 57.42790222167969 57.42798614501953 C 60.46391296386719 54.39196395874023 62.8474235534668 50.85684204101562 64.51221466064453 46.92082214355469 C 66.23558044433594 42.84630584716797 67.10940551757812 38.51751708984375 67.10940551757812 34.05469512939453 C 67.10940551757812 29.59189605712891 66.23558044433594 25.26312637329102 64.51221466064453 21.18862533569336 C 62.8474235534668 17.25261306762695 60.46391296386719 13.71750640869141 57.42790222167969 10.68149566650391 C 54.39189147949219 7.645484924316406 50.85678100585938 5.261974334716797 46.92077255249023 3.597183227539062 C 42.84627532958984 1.873817443847656 38.51750183105469 0.9999923706054688 34.05470275878906 0.9999923706054688 M 34.05470275878906 -7.62939453125e-06 C 52.86259460449219 -7.62939453125e-06 68.10940551757812 15.24680328369141 68.10940551757812 34.05469512939453 L 68.10940551757812 34.05479431152344 C 68.10940551757812 52.86268615722656 52.86259460449219 68.10948181152344 34.05470275878906 68.10948181152344 C 15.24681091308594 68.10948181152344 0 52.86268615722656 0 34.05479431152344 L 0 34.05469512939453 C 0 15.24680328369141 15.24681091308594 -7.62939453125e-06 34.05470275878906 -7.62939453125e-06 Z" stroke="none" fill="#fff"/>
                </g>
              </g>
              <g id="Rectángulo_400907" data-name="Rectángulo 400907" transform="translate(0)" fill="none" stroke="#fff" stroke-width="1">
                <rect width="68.109" height="68.109" rx="34.055" stroke="none"/>
                <rect x="0.5" y="0.5" width="67.109" height="67.109" rx="33.555" fill="none"/>
              </g>
            </g>
          </g>
        </g>
      </g>
    </g>
    <g id="farmer_1100469" transform="translate(990.292 16849.754)">
      <path id="Trazado_1031878" data-name="Trazado 1031878" d="M102.534,215.86l-1.71-12.825H79.983l-1.71,12.825Zm0,0" transform="translate(-71.166 -184.598)" fill="#534741"/>
      <path id="Trazado_1031879" data-name="Trazado 1031879" d="M81.822,319.634v-9.619a9.618,9.618,0,0,0-8.915-9.593H61.879a9.619,9.619,0,0,0-8.914,9.593v9.619Zm0,0" transform="translate(-48.156 -273.142)" fill="#c1272d"/>
      <g id="Grupo_1199755" data-name="Grupo 1199755" transform="translate(4.809 30.46)">
        <path id="Trazado_1031880" data-name="Trazado 1031880" d="M52.965,406.07H81.822v1.6H52.965Zm0,0" transform="translate(-52.965 -399.657)" fill="#9c1f24"/>
        <path id="Trazado_1031881" data-name="Trazado 1031881" d="M83.05,372.361H54.465a8.9,8.9,0,0,1,.409-1.6H82.641a8.865,8.865,0,0,1,.409,1.6Zm0,0" transform="translate(-54.329 -367.552)" fill="#9c1f24"/>
        <path id="Trazado_1031882" data-name="Trazado 1031882" d="M93.456,337.052H67.18a9.187,9.187,0,0,1,1.162-1.6H92.294a9.17,9.17,0,0,1,1.162,1.6Zm0,0" transform="translate(-65.889 -335.449)" fill="#9c1f24"/>
      </g>
      <path id="Trazado_1031883" data-name="Trazado 1031883" d="M109.118,319.744v-1.6a5.811,5.811,0,0,0,0-8.016V301.8a9.552,9.552,0,0,0-4.008-1.258v1.566a5.611,5.611,0,0,1-11.222,0v-1.566A9.545,9.545,0,0,0,89.88,301.8v8.324a5.811,5.811,0,0,0,0,8.016v1.6Zm0,0" transform="translate(-80.261 -273.252)" fill="#005a95"/>
      <path id="Trazado_1031884" data-name="Trazado 1031884" d="M158.9,441.379h9.619v6.413H158.9Zm0,0" transform="translate(-144.47 -401.3)" fill="#0071bc"/>
      <path id="Trazado_1031885" data-name="Trazado 1031885" d="M158.9,441.379h9.619v3.207H158.9Zm0,0" transform="translate(-144.47 -401.3)" fill="#29abe2"/>
      <path id="Trazado_1031886" data-name="Trazado 1031886" d="M40.122,442.181a5.368,5.368,0,0,1,.064-.8H35.312v3.207h5.357a5.71,5.71,0,0,1-.547-2.4Zm0,0" transform="translate(-32.106 -401.299)" fill="#9c1f24"/>
      <path id="Trazado_1031887" data-name="Trazado 1031887" d="M57.775,479.9v-1.6a6.168,6.168,0,0,1-1.056-1.6H52.965V479.9Zm0,0" transform="translate(-48.156 -433.405)" fill="#f2c09a"/>
      <path id="Trazado_1031888" data-name="Trazado 1031888" d="M329.965,442.181a5.367,5.367,0,0,0-.064-.8h4.874v3.207h-5.357A5.71,5.71,0,0,0,329.965,442.181Zm0,0" transform="translate(-299.505 -401.299)" fill="#9c1f24"/>
      <path id="Trazado_1031889" data-name="Trazado 1031889" d="M317.793,479.9v-1.6a6.159,6.159,0,0,0,1.056-1.6H322.6V479.9Zm0,0" transform="translate(-288.936 -433.405)" fill="#f2c09a"/>
      <path id="Trazado_1031890" data-name="Trazado 1031890" d="M161.292,282.484v3.206a5.611,5.611,0,0,1-11.222,0v-3.206Zm0,0" transform="translate(-136.443 -256.833)" fill="#f2c09a"/>
      <path id="Trazado_1031891" data-name="Trazado 1031891" d="M155.681,301.285a10.361,10.361,0,0,1-5.611-1.649v1.649a5.653,5.653,0,0,0,.062.793,10.359,10.359,0,0,0,11.1,0,5.658,5.658,0,0,0,.062-.793v-1.649A10.361,10.361,0,0,1,155.681,301.285Zm0,0" transform="translate(-136.443 -272.428)" fill="#cc9c72"/>
      <path id="Trazado_1031892" data-name="Trazado 1031892" d="M10.431,105.93H44.1a1.6,1.6,0,0,1,0,3.207H10.431a1.6,1.6,0,1,1,0-3.207Zm0,0" transform="translate(-8.027 -96.311)" fill="#e3b874"/>
      <path id="Trazado_1031893" data-name="Trazado 1031893" d="M117.946,17.646H97.1l1.453-5.326a4.737,4.737,0,0,1,4.571-3.492h8.794a4.737,4.737,0,0,1,4.569,3.492Zm0,0" transform="translate(-88.288 -8.027)" fill="#e3b874"/>
      <path id="Trazado_1031894" data-name="Trazado 1031894" d="M97.979,70.621l-.874,3.206h20.841l-.874-3.206Zm0,0" transform="translate(-88.288 -64.208)" fill="#a67c52"/>
      <path id="Trazado_1031895" data-name="Trazado 1031895" d="M11.233,107.533a1.6,1.6,0,0,1,1.6-1.6h-2.4a1.6,1.6,0,0,0,0,3.207h2.4A1.6,1.6,0,0,1,11.233,107.533Zm0,0" transform="translate(-8.027 -96.311)" fill="#d4ac6c"/>
      <path id="Trazado_1031896" data-name="Trazado 1031896" d="M105.534,8.828h-2.4A4.738,4.738,0,0,0,98.56,12.32l-1.455,5.326h2.4l1.453-5.326a4.737,4.737,0,0,1,4.571-3.492Zm0,0" transform="translate(-88.288 -8.026)" fill="#d4ac6c"/>
      <path id="Trazado_1031897" data-name="Trazado 1031897" d="M97.979,70.621l-.874,3.206h2.4l.875-3.206Zm0,0" transform="translate(-88.288 -64.208)" fill="#916d48"/>
      <path id="Trazado_1031898" data-name="Trazado 1031898" d="M326.621,150.07h.8a2.4,2.4,0,0,1,0,4.809h-.8Zm0,0" transform="translate(-296.963 -136.443)" fill="#cc9c72"/>
      <path id="Trazado_1031899" data-name="Trazado 1031899" d="M65,154.88h-.8a2.4,2.4,0,1,1,0-4.809H65Zm0,0" transform="translate(-56.182 -136.443)" fill="#cc9c72"/>
      <path id="Trazado_1031900" data-name="Trazado 1031900" d="M117.946,141.242v5.611a10.421,10.421,0,1,1-20.841,0v-5.611Zm0,0" transform="translate(-88.288 -128.416)" fill="#f2c09a"/>
      <path id="Trazado_1031901" data-name="Trazado 1031901" d="M229.52,141.242a8.015,8.015,0,0,0,6.412,3.206h2.4v-3.206Zm0,0" transform="translate(-208.679 -128.416)" fill="#534741"/>
      <path id="Trazado_1031902" data-name="Trazado 1031902" d="M173.335,144.449h-.424a5.8,5.8,0,0,1-5.188-3.206h5.611v3.206Zm0,0" transform="translate(-152.493 -128.417)" fill="#534741"/>
      <path id="Trazado_1031903" data-name="Trazado 1031903" d="M99.509,146.853v-5.611H97.1v5.611A10.381,10.381,0,0,0,108.728,157.2a10.421,10.421,0,0,1-9.219-10.346Zm0,0" transform="translate(-88.287 -128.416)" fill="#e8b894"/>
      <path id="Trazado_1031904" data-name="Trazado 1031904" d="M98.33,144.449H97.106v-3.206h6.413a5.8,5.8,0,0,1-5.188,3.206Zm0,0" transform="translate(-88.288 -128.417)" fill="#534741"/>
      <path id="Trazado_1031905" data-name="Trazado 1031905" d="M99.51,144.313v-3.071h-2.4v3.206H98.33A5.74,5.74,0,0,0,99.51,144.313Zm0,0" transform="translate(-88.288 -128.417)" fill="#3d3430"/>
      <path id="Trazado_1031906" data-name="Trazado 1031906" d="M36.071,8.817h-5.8L28.979,4.082A5.551,5.551,0,0,0,23.635,0H14.84A5.551,5.551,0,0,0,9.5,4.082L8.2,8.818H2.4a2.4,2.4,0,1,0,0,4.809H5.917a3.186,3.186,0,0,0,1.986,5.6L6.437,30.22a10.381,10.381,0,0,0-2.43,6.653v2.4h-.8a.8.8,0,0,0-.8.8v3.206a.8.8,0,0,0,.8.8h.8v2.4h1.6v-2.4H8.069a7.144,7.144,0,0,0,.748,1.106v1.3h1.6v-1.6a.8.8,0,0,0-.235-.567,5.3,5.3,0,0,1-1.368-3.441,5.38,5.38,0,0,1,1.368-3.441.8.8,0,0,0,.235-.567V29.03a8.711,8.711,0,0,1,2.4-.823v.651a6.413,6.413,0,1,0,12.825,0v-.651a8.709,8.709,0,0,1,2.4.823v7.844a.8.8,0,0,0,.235.567,5.3,5.3,0,0,1,1.368,3.441,5.383,5.383,0,0,1-1.368,3.441.8.8,0,0,0-.235.566v1.6h1.6v-1.3a7.164,7.164,0,0,0,.748-1.105h2.458v2.4h1.6v-2.4h.8a.8.8,0,0,0,.8-.8V40.08a.8.8,0,0,0-.8-.8h-.8v-2.4a10.379,10.379,0,0,0-2.43-6.653L30.572,19.227a3.186,3.186,0,0,0,1.986-5.6h3.513a2.4,2.4,0,0,0,0-4.81ZM11.043,4.5a3.944,3.944,0,0,1,3.8-2.9h8.795a3.944,3.944,0,0,1,3.8,2.9l.3,1.108H10.741ZM10.3,7.214H28.172l.438,1.6H9.867ZM11.778,26.8a10.364,10.364,0,0,0-3.49,1.67l.721-5.432A11.258,11.258,0,0,0,11.778,26.8Zm-2.16-8.361v-1.6h.424a6.55,6.55,0,0,0,5.188-2.54,6.549,6.549,0,0,0,5.188,2.54h.424a.8.8,0,0,0,.8-.8V14.811a8.86,8.86,0,0,0,5.611,2.023h1.6v1.6a9.619,9.619,0,0,1-19.238,0Zm19.844,4.6.721,5.432a10.37,10.37,0,0,0-3.49-1.67A11.268,11.268,0,0,0,29.463,23.036Zm-.606-7.806h-1.6a7.245,7.245,0,0,1-4.521-1.6h6.125Zm-8.817-.014a4.954,4.954,0,0,1-3.287-1.589h3.287Zm-10,.014H9.619v-1.6h4.095a4.968,4.968,0,0,1-3.671,1.6Zm-3.63.8a1.6,1.6,0,0,1,1.6-1.6v3.206A1.6,1.6,0,0,1,6.412,16.032Zm-2.4,26.453v-1.6H7.214a6.292,6.292,0,0,0,.213,1.6Zm4.81-5.915a7.233,7.233,0,0,0-1.39,2.709H5.611v-2.4a8.817,8.817,0,0,1,3.207-6.779Zm10.421-2.9a4.814,4.814,0,0,1-4.809-4.809v-.3a11.081,11.081,0,0,0,9.619,0v.3a4.814,4.814,0,0,1-4.809,4.809Zm15.23,8.818H31.049a6.292,6.292,0,0,0,.213-1.6h3.206Zm-1.6-3.207H31.049a7.238,7.238,0,0,0-1.39-2.709V30.094a8.817,8.817,0,0,1,3.206,6.779Zm-2.4-21.643V14.429a1.6,1.6,0,1,1,0,3.206Zm5.611-5.611H2.4a.8.8,0,1,1,0-1.6H36.071a.8.8,0,0,1,0,1.6Zm0,0" transform="translate(0)"/>
      <path id="Trazado_1031907" data-name="Trazado 1031907" d="M160.49,432.551h-9.619a.8.8,0,0,0-.8.8v6.413h1.6v-2.4h8.016v2.4h1.6v-6.413a.8.8,0,0,0-.8-.8Zm-8.817,3.207v-1.6h8.016v1.6Zm0,0" transform="translate(-136.443 -393.273)"/>
      <path id="Trazado_1031914" data-name="Trazado 1031914" d="M132.414,388.414h1.6v1.6h-1.6Zm0,0" transform="translate(-120.391 -353.144)"/>
      <path id="Trazado_1031915" data-name="Trazado 1031915" d="M273.656,388.414h1.6v1.6h-1.6Zm0,0" transform="translate(-248.807 -353.144)"/>
    </g>
  </g>
</svg>
