<svg xmlns="http://www.w3.org/2000/svg" xmlns:xlink="http://www.w3.org/1999/xlink" width="272" height="212.826" viewBox="0 0 272 212.826">
  <defs>
    <clipPath id="clip-path">
      <rect id="Rectángulo_408390" data-name="Rectángulo 408390" width="272" height="178.022" rx="8" transform="translate(205.083 5119.432)" fill="#eaf4ff" opacity="0.58"/>
    </clipPath>
    <clipPath id="clip-path-2">
      <rect id="Rectángulo_408485" data-name="Rectángulo 408485" width="271.999" height="586.711" fill="none"/>
    </clipPath>
  </defs>
  <g id="Grupo_1199759" data-name="Grupo 1199759" transform="translate(-625.051 -17393.877)">
    <g id="Enmascarar_grupo_1098806" data-name="Enmascarar grupo 1098806" transform="translate(419.968 12283.703)" clip-path="url(#clip-path)">
      <g id="Grupo_1198312" data-name="Grupo 1198312" transform="translate(205.083 4843.001)">
        <rect id="Rectángulo_408483" data-name="Rectángulo 408483" width="272" height="586.712" transform="translate(0 -0.001)" fill="#e2f7f2"/>
        <rect id="Rectángulo_408484" data-name="Rectángulo 408484" width="2.304" height="30.387" transform="translate(42.33 345.595)" fill="#872a21"/>
        <g id="Grupo_1198311" data-name="Grupo 1198311" transform="translate(0 0)">
          <g id="Grupo_1198310" data-name="Grupo 1198310" clip-path="url(#clip-path-2)">
            <path id="Trazado_916645" data-name="Trazado 916645" d="M47.342,304.563c-1.139-2.671-4.185-2.671-5.324,0-4.556,10.68-13.362,32.959-13.355,45.611,0,4.223,4.511,7.619,8.745,9.878a15.156,15.156,0,0,0,14.544,0c4.233-2.259,8.742-5.655,8.745-9.878.007-12.652-8.8-34.932-13.355-45.611" transform="translate(-1.197 -12.636)" fill="#569171"/>
            <path id="Trazado_916646" data-name="Trazado 916646" d="M47.451,357.868c-4.463-1.757-9.333-4.614-9.82-8.809-1.438-12.387,4.554-35.041,7.886-46.348a2.8,2.8,0,0,0-3.5,1.852c-4.556,10.68-13.362,32.959-13.355,45.612,0,4.222,4.511,7.619,8.745,9.877a15.157,15.157,0,0,0,14.544,0c.635-.338,1.276-.7,1.908-1.092a15.522,15.522,0,0,1-6.409-1.091" transform="translate(-1.197 -12.636)" fill="#3a6d50"/>
            <path id="Trazado_916647" data-name="Trazado 916647" d="M0,353.282s127.385-5.24,271.626,85.644V601.464H0Z" transform="translate(0 -14.752)" fill="#7dbb77"/>
            <path id="Trazado_916648" data-name="Trazado 916648" d="M0,477.091c114.322,7.4,232.118,60.223,271.626,79.43V502.95C178.87,425.237.008,401.7,0,401.7Z" transform="translate(0 -16.777)" fill="#569171"/>
            <path id="Trazado_916649" data-name="Trazado 916649" d="M251.683,271.481H130.5s.458-5.727,10.079-5.268c.458-9.393,13.745-15.119,22.45-7.56-6.414-15.806-2.52-27.489,8.476-28.634s18.325,10.308,20.387,17.409c6.642-7.1,8.017-1.145,8.246,0,10.08-10.995,23.595-7.33,27.718-2.977s3.207,14.66,3.207,14.66,14.431-6.184,17.638.458-2.519,8.934-2.519,8.934,4.81-.916,5.5,2.978" transform="translate(-5.45 -9.603)" fill="#fff"/>
          </g>
        </g>
      </g>
    </g>
    <g id="Grupo_1118544" data-name="Grupo 1118544" transform="translate(700.051 17393.877)">
      <g id="Grupo_1118363" data-name="Grupo 1118363" transform="translate(11.711)">
        <circle id="Elipse_11816" data-name="Elipse 11816" cx="14.085" cy="14.085" r="14.085" fill="#281b14"/>
      </g>
      <g id="Grupo_1118364" data-name="Grupo 1118364" transform="translate(0.962 72.929)">
        <path id="Trazado_910436" data-name="Trazado 910436" d="M200.124,205.163s-29.8,14.812-35.084,37.608l9.452,61.439H277.354s-2.12-63.053-17.515-79.509c-16.124-17.236-34.75-20.294-34.75-20.294Z" transform="translate(-165.04 -204.406)" fill="#625970"/>
      </g>
      <g id="Grupo_1118365" data-name="Grupo 1118365" transform="translate(83.564 104.102)">
        <path id="Trazado_910437" data-name="Trazado 910437" d="M218.977,333.623h.033a.429.429,0,0,0,.394-.46l-2.753-36.338a7.8,7.8,0,0,0,3.972-3.042c1.92-2.688-3.736-21.745-4.387-23.91a.428.428,0,1,0-.82.247c2.413,8.02,5.771,21.4,4.51,23.166a6.664,6.664,0,0,1-3.8,2.792.43.43,0,0,0-.354.454l2.78,36.7A.427.427,0,0,0,218.977,333.623Z" transform="translate(-215.399 -269.568)" fill="#281b14"/>
      </g>
      <g id="Grupo_1118512" data-name="Grupo 1118512" transform="translate(37.3 123.323)">
        <g id="Grupo_1118414" data-name="Grupo 1118414">
          <g id="Grupo_1118381" data-name="Grupo 1118381" transform="translate(85.2 3.336)">
            <g id="Grupo_1118367" data-name="Grupo 1118367">
              <g id="Grupo_1118366" data-name="Grupo 1118366">
                <path id="Trazado_910438" data-name="Trazado 910438" d="M66.925,373.855l8.3-4.086a18.118,18.118,0,0,1,3.52-2.842l.268-.161a24.387,24.387,0,0,1,2.346-1.212c.683-.317,1.37-.607,2.072-.885l.062-.031c.171-.065.33-.133.493-.194,1.836-.72,3.7-1.4,5.467-2.257a16.714,16.714,0,0,0,5.88-4.5c.113-.162.242-.312.351-.481A9.176,9.176,0,0,0,97.07,354.2a15.353,15.353,0,0,0-.362-7.065c-.045-.21-.087-.411-.144-.624-.018-.135-.06-.279-.082-.422a10.374,10.374,0,0,1-.276-3.028,13.5,13.5,0,0,1,1.7-4.626,24.909,24.909,0,0,0,2.606-7.659c.032-.151.044-.3.065-.456a10.747,10.747,0,0,0-.642-5.143,14.465,14.465,0,0,0-3.173-4.505,15.8,15.8,0,0,0-3.782-2.942c-.147-.063-.289-.137-.432-.192a8.027,8.027,0,0,0-1.131-.437,11.476,11.476,0,0,0-5.228-.156,17.97,17.97,0,0,0-7.144,2.928c-.136.1-.268.18-.392.28a16.085,16.085,0,0,0-6.177,8.693c-.551,2.056-.685,4.272-1.166,6.332-.067.313-.151.634-.25.942l0,.012,0,.008a8.544,8.544,0,0,1-2.273,3.868q-.461.473-.969.911c-.125.1-.241.2-.374.3-.315.261-.642.519-.968.776-.509.4-1.023.8-1.505,1.233a17.057,17.057,0,0,0-5.362,9.507,5.745,5.745,0,0,0-.12.638l0,.012a16.486,16.486,0,0,0,.121,5.988C60.723,364.783,64.106,369.185,66.925,373.855Z" transform="translate(-59.266 -316.721)" fill="#777221"/>
              </g>
            </g>
            <g id="Grupo_1118370" data-name="Grupo 1118370" transform="translate(10.205 0.818)">
              <g id="Grupo_1118369" data-name="Grupo 1118369">
                <g id="Grupo_1118368" data-name="Grupo 1118368">
                  <path id="Trazado_910439" data-name="Trazado 910439" d="M75.319,373.479l.435-.214c-.038-1.428-.04-2.864.015-4.3.01-.294.023-.581.04-.878a46.98,46.98,0,0,1,.543-5.245,50.674,50.674,0,0,1,1.159-5.248l.008,0,0-.008.008,0c.064-.224.123-.456.194-.684.178-.618.367-1.232.561-1.839.418-1.325.883-2.634,1.363-3.912.52-1.394,1.054-2.757,1.593-4.073l.008-.023c.106-.255.212-.509.31-.761.212-.509.417-1.015.617-1.509.35-.838.715-1.741,1.108-2.687.11-.247.216-.5.322-.757a.008.008,0,0,0,0-.011c.825-1.93,1.739-3.972,2.731-5.916.294-.559.576-1.123.885-1.671.039-.077.09-.15.129-.228l0-.008a62.805,62.805,0,0,1,11.449-14.876c-.147-.063-.289-.137-.432-.192A63.68,63.68,0,0,0,87.214,332.86c-.109.189-.219.378-.317.571-.329.586-.646,1.176-.948,1.778-1.626,3.183-3.045,6.63-4.188,9.4-.149.363-.3.737-.452,1.119-.1.243-.209.5-.31.761-.008,0,0,.011-.012.015l0,.008c-.542,1.328-1.085,2.695-1.612,4.092-.48,1.278-.941,2.576-1.372,3.9-.3.888-.568,1.784-.826,2.692-.059.212-.115.433-.178.657l-.008,0c-.424,1.607-.8,3.258-1.072,4.916-.129.835-.239,1.67-.321,2.5-.024.167-.037.317-.053.48-.1,1.044-.168,2.089-.205,3.13C75.272,370.425,75.274,371.957,75.319,373.479Z" transform="translate(-75.287 -318.431)" fill="#281b14"/>
                </g>
              </g>
            </g>
            <g id="Grupo_1118372" data-name="Grupo 1118372" transform="translate(18.023 13.604)">
              <g id="Grupo_1118371" data-name="Grupo 1118371">
                <path id="Trazado_910440" data-name="Trazado 910440" d="M59.467,355.975a.2.2,0,0,0,.121.059.317.317,0,0,0,.088,0,.207.207,0,0,0,.095-.05A39.1,39.1,0,0,1,82.638,345.61c.026-.149.044-.3.059-.451A39.611,39.611,0,0,0,59.91,355.271c-.146.133-.291.267-.429.4A.225.225,0,0,0,59.467,355.975Z" transform="translate(-59.413 -345.159)" fill="#281b14"/>
              </g>
            </g>
            <g id="Grupo_1118374" data-name="Grupo 1118374" transform="translate(19.388 3.153)">
              <g id="Grupo_1118373" data-name="Grupo 1118373">
                <path id="Trazado_910441" data-name="Trazado 910441" d="M101.658,336.133a.215.215,0,0,0,.255.169l.009,0c.009,0,.025-.006.032-.017a.212.212,0,0,0,.132-.228l0-.008c-.043-.212-.088-.433-.131-.645-.844-4.007-1.636-8.055-2.362-12.091-.137.1-.267.181-.386.281.751,4.137,1.559,8.288,2.425,12.387A.921.921,0,0,0,101.658,336.133Z" transform="translate(-99.205 -323.311)" fill="#281b14"/>
              </g>
            </g>
            <g id="Grupo_1118376" data-name="Grupo 1118376" transform="translate(8.181 24.196)">
              <g id="Grupo_1118375" data-name="Grupo 1118375">
                <path id="Trazado_910442" data-name="Trazado 910442" d="M71.378,383.18a.194.194,0,0,0,.138.163l.009,0a.172.172,0,0,0,.117.007.372.372,0,0,0,.08-.037,3.172,3.172,0,0,1,.319-.229l.006-.01A52.671,52.671,0,0,1,96.9,372.9c-.024-.137-.059-.279-.086-.424a53.323,53.323,0,0,0-24.583,9.908c-.175.123-.342.244-.514.375l-.018-.076c-1.023-4.739-2.2-10-3.548-15.383-.127.1-.245.2-.371.3C69.152,373.07,70.337,378.4,71.378,383.18Z" transform="translate(-67.783 -367.3)" fill="#281b14"/>
              </g>
            </g>
            <g id="Grupo_1118378" data-name="Grupo 1118378" transform="translate(0.216 36.018)">
              <g id="Grupo_1118377" data-name="Grupo 1118377">
                <path id="Trazado_910443" data-name="Trazado 910443" d="M123.314,392.646l0,.008A45.039,45.039,0,0,0,133.484,404.1a.221.221,0,0,0,.081.043.2.2,0,0,0,.107,0,.251.251,0,0,0,.116-.073.21.21,0,0,0-.038-.3c-.044-.034-.089-.076-.133-.11a44.446,44.446,0,0,1-10.181-11.644C123.388,392.218,123.351,392.432,123.314,392.646Z" transform="translate(-123.314 -392.011)" fill="#281b14"/>
              </g>
            </g>
            <g id="Grupo_1118380" data-name="Grupo 1118380" transform="translate(10.264 40.488)">
              <g id="Grupo_1118379" data-name="Grupo 1118379">
                <path id="Trazado_910444" data-name="Trazado 910444" d="M69.743,412.332a.2.2,0,0,0,.157.024.214.214,0,0,0,.135-.1l.019-.031c1.574-2.86,4.719-4.465,7.6-5.658a68.471,68.471,0,0,1,16.839-4.589c.311-.04.628-.091.939-.131.121-.163.243-.318.354-.487-.111.018-.225.028-.336.046-.336.046-.672.092-1.017.141a69.348,69.348,0,0,0-16.948,4.616c-2.71,1.124-5.661,2.61-7.395,5.18a7.479,7.479,0,0,0-.434.7A.217.217,0,0,0,69.743,412.332Z" transform="translate(-69.63 -401.355)" fill="#281b14"/>
              </g>
            </g>
          </g>
          <g id="Grupo_1118397" data-name="Grupo 1118397" transform="translate(38.972)">
            <g id="Grupo_1118383" data-name="Grupo 1118383">
              <g id="Grupo_1118382" data-name="Grupo 1118382">
                <path id="Trazado_910445" data-name="Trazado 910445" d="M189.616,366.882l-8.3-4.085a18.118,18.118,0,0,0-3.52-2.842l-.268-.161a24.492,24.492,0,0,0-2.346-1.213c-.683-.317-1.37-.607-2.072-.885l-.062-.03c-.171-.065-.33-.134-.493-.195-1.835-.72-3.7-1.405-5.467-2.257a16.717,16.717,0,0,1-5.88-4.5c-.113-.162-.242-.312-.351-.482a9.164,9.164,0,0,1-1.385-3.006,15.355,15.355,0,0,1,.362-7.066c.045-.209.087-.411.143-.624.019-.136.06-.279.083-.422a10.374,10.374,0,0,0,.275-3.029,13.489,13.489,0,0,0-1.7-4.626,24.9,24.9,0,0,1-2.606-7.658c-.032-.151-.045-.3-.065-.456a10.749,10.749,0,0,1,.641-5.144,14.471,14.471,0,0,1,3.173-4.505,15.787,15.787,0,0,1,3.782-2.942c.147-.063.289-.137.432-.192a8.03,8.03,0,0,1,1.131-.437,11.468,11.468,0,0,1,5.228-.156A17.963,17.963,0,0,1,177.5,312.9c.136.1.268.18.392.28a16.084,16.084,0,0,1,6.177,8.693c.551,2.056.685,4.272,1.166,6.332.067.313.151.634.249.943l0,.011,0,.008a8.546,8.546,0,0,0,2.273,3.868q.461.474.969.911c.124.1.241.2.374.3.315.262.642.518.968.776.509.4,1.023.8,1.505,1.233a17.058,17.058,0,0,1,5.362,9.507,5.724,5.724,0,0,1,.12.638l0,.012a16.477,16.477,0,0,1-.121,5.988C195.818,357.81,192.435,362.212,189.616,366.882Z" transform="translate(-155.899 -309.748)" fill="#777221"/>
              </g>
            </g>
            <g id="Grupo_1118386" data-name="Grupo 1118386" transform="translate(7.664 0.818)">
              <g id="Grupo_1118385" data-name="Grupo 1118385">
                <g id="Grupo_1118384" data-name="Grupo 1118384">
                  <path id="Trazado_910446" data-name="Trazado 910446" d="M200.707,366.505l-.435-.214c.037-1.428.04-2.864-.015-4.3-.01-.294-.023-.58-.04-.878a47.071,47.071,0,0,0-.543-5.245,50.639,50.639,0,0,0-1.159-5.249l-.008,0,0-.008-.008,0c-.063-.224-.122-.456-.194-.684-.178-.618-.368-1.232-.561-1.838-.419-1.325-.883-2.634-1.363-3.912-.52-1.394-1.054-2.757-1.593-4.073l-.008-.023c-.106-.255-.212-.51-.31-.761-.212-.509-.417-1.016-.617-1.509-.35-.838-.715-1.741-1.108-2.687-.11-.247-.216-.5-.322-.756a.009.009,0,0,1,0-.012c-.825-1.93-1.739-3.972-2.731-5.916-.294-.559-.576-1.123-.885-1.67-.039-.077-.09-.151-.13-.228l0-.008a62.772,62.772,0,0,0-11.448-14.876c.147-.063.289-.137.432-.192a63.65,63.65,0,0,1,11.147,14.429c.11.189.219.378.317.571.329.586.646,1.177.948,1.779,1.626,3.183,3.045,6.63,4.188,9.4.149.363.3.738.452,1.12.1.243.208.5.31.76.008,0,0,.012.012.016l0,.008c.542,1.328,1.085,2.695,1.612,4.093.48,1.278.941,2.576,1.371,3.9.3.888.569,1.784.826,2.692.06.213.115.433.178.657l.008,0c.424,1.607.8,3.257,1.072,4.916.129.835.239,1.671.321,2.5.024.166.036.317.053.479.1,1.045.168,2.089.205,3.13C200.754,363.451,200.752,364.984,200.707,366.505Z" transform="translate(-177.232 -311.458)" fill="#281b14"/>
                </g>
              </g>
            </g>
            <g id="Grupo_1118388" data-name="Grupo 1118388" transform="translate(0.07 13.604)">
              <g id="Grupo_1118387" data-name="Grupo 1118387">
                <path id="Trazado_910447" data-name="Trazado 910447" d="M216.8,349a.2.2,0,0,1-.122.06.31.31,0,0,1-.088,0,.208.208,0,0,1-.1-.05,39.09,39.09,0,0,0-22.866-10.371c-.026-.149-.044-.3-.059-.451A39.618,39.618,0,0,1,216.361,348.3c.145.133.291.267.429.4A.224.224,0,0,1,216.8,349Z" transform="translate(-193.573 -338.185)" fill="#281b14"/>
              </g>
            </g>
            <g id="Grupo_1118390" data-name="Grupo 1118390" transform="translate(19.106 3.153)">
              <g id="Grupo_1118389" data-name="Grupo 1118389">
                <path id="Trazado_910448" data-name="Trazado 910448" d="M196.856,329.16a.215.215,0,0,1-.255.169l-.008,0a.051.051,0,0,1-.032-.017.212.212,0,0,1-.132-.228l0-.009c.043-.212.088-.433.131-.645.844-4.008,1.635-8.055,2.362-12.091.137.1.267.181.386.281-.751,4.137-1.559,8.287-2.425,12.387A.971.971,0,0,1,196.856,329.16Z" transform="translate(-196.427 -316.338)" fill="#281b14"/>
              </g>
            </g>
            <g id="Grupo_1118392" data-name="Grupo 1118392" transform="translate(4.074 24.196)">
              <g id="Grupo_1118391" data-name="Grupo 1118391">
                <path id="Trazado_910449" data-name="Trazado 910449" d="M198.526,376.207a.193.193,0,0,1-.137.162l-.009,0a.173.173,0,0,1-.117.007.353.353,0,0,1-.08-.037,3.279,3.279,0,0,0-.318-.229l-.006-.01A52.679,52.679,0,0,0,173,365.927c.024-.136.059-.279.086-.424a53.325,53.325,0,0,1,24.583,9.908c.175.123.341.244.514.375l.018-.076c1.023-4.739,2.2-10,3.548-15.382.126.1.244.2.371.3C200.753,366.1,199.568,371.428,198.526,376.207Z" transform="translate(-173.001 -360.327)" fill="#281b14"/>
              </g>
            </g>
            <g id="Grupo_1118394" data-name="Grupo 1118394" transform="translate(30.639 36.017)">
              <g id="Grupo_1118393" data-name="Grupo 1118393">
                <path id="Trazado_910450" data-name="Trazado 910450" d="M166.872,385.672l0,.009A45.062,45.062,0,0,1,156.7,397.123a.239.239,0,0,1-.081.043.209.209,0,0,1-.107,0,.256.256,0,0,1-.116-.073.21.21,0,0,1,.038-.3c.044-.034.09-.077.134-.11a44.451,44.451,0,0,0,10.181-11.644C166.8,385.245,166.835,385.458,166.872,385.672Z" transform="translate(-156.351 -385.037)" fill="#281b14"/>
              </g>
            </g>
            <g id="Grupo_1118396" data-name="Grupo 1118396" transform="translate(4.958 40.487)">
              <g id="Grupo_1118395" data-name="Grupo 1118395">
                <path id="Trazado_910451" data-name="Trazado 910451" d="M203.4,405.358a.205.205,0,0,1-.157.024.22.22,0,0,1-.135-.1l-.019-.032c-1.573-2.86-4.718-4.465-7.6-5.657A68.454,68.454,0,0,0,178.646,395c-.31-.04-.628-.091-.939-.131-.121-.163-.243-.318-.354-.487.111.018.225.028.336.046l1.017.141a69.347,69.347,0,0,1,16.948,4.616c2.71,1.125,5.661,2.611,7.395,5.18a7.432,7.432,0,0,1,.434.7A.217.217,0,0,1,203.4,405.358Z" transform="translate(-177.354 -394.381)" fill="#281b14"/>
              </g>
            </g>
          </g>
          <g id="Grupo_1118413" data-name="Grupo 1118413" transform="translate(0 4.847)">
            <g id="Grupo_1118399" data-name="Grupo 1118399">
              <g id="Grupo_1118398" data-name="Grupo 1118398">
                <path id="Trazado_910452" data-name="Trazado 910452" d="M269.638,373.888l-8.753-3a18.112,18.112,0,0,0-3.854-2.37l-.286-.125a24.48,24.48,0,0,0-2.48-.9c-.718-.227-1.437-.427-2.169-.614l-.066-.022c-.177-.043-.344-.09-.513-.13-1.912-.481-3.846-.923-5.71-1.542a16.711,16.711,0,0,1-6.4-3.71c-.133-.146-.28-.279-.41-.433a9.177,9.177,0,0,1-1.757-2.806,15.356,15.356,0,0,1-.541-7.054c.018-.213.033-.418.063-.637,0-.137.024-.285.028-.43a10.365,10.365,0,0,0-.113-3.039,13.487,13.487,0,0,0-2.272-4.372,24.919,24.919,0,0,1-3.56-7.264c-.051-.145-.083-.293-.122-.444a10.747,10.747,0,0,1-.019-5.183,14.469,14.469,0,0,1,2.573-4.873,15.8,15.8,0,0,1,3.377-3.4c.137-.081.269-.173.4-.246a8.033,8.033,0,0,1,1.066-.577,11.466,11.466,0,0,1,5.165-.821,17.959,17.959,0,0,1,7.459,1.994c.147.078.289.145.425.228a16.086,16.086,0,0,1,7.234,7.835c.808,1.969,1.223,4.15,1.963,6.132.107.3.231.609.368.9l.005.011,0,.008a8.541,8.541,0,0,0,2.747,3.547q.518.41,1.077.78c.136.083.264.164.409.25.346.219.7.432,1.06.646.555.327,1.116.666,1.65,1.031a17.054,17.054,0,0,1,6.529,8.746,5.9,5.9,0,0,1,.2.618l.005.011a16.492,16.492,0,0,1,.642,5.955C274.633,364.1,271.84,368.9,269.638,373.888Z" transform="translate(-230.39 -319.879)" fill="#777221"/>
              </g>
            </g>
            <g id="Grupo_1118402" data-name="Grupo 1118402" transform="translate(6.258 1.415)">
              <g id="Grupo_1118401" data-name="Grupo 1118401">
                <g id="Grupo_1118400" data-name="Grupo 1118400">
                  <path id="Trazado_910453" data-name="Trazado 910453" d="M277.769,374.5l-.459-.157c-.144-1.422-.325-2.846-.563-4.263-.047-.29-.1-.573-.152-.866a47,47,0,0,0-1.207-5.133,50.692,50.692,0,0,0-1.818-5.058l-.008,0,0-.008-.008,0c-.091-.214-.18-.436-.28-.653-.255-.59-.521-1.175-.791-1.752-.584-1.261-1.211-2.5-1.85-3.707-.693-1.316-1.4-2.6-2.1-3.837l-.01-.022c-.138-.239-.276-.478-.4-.715-.276-.478-.543-.954-.8-1.418-.453-.786-.931-1.636-1.441-2.524-.14-.231-.278-.47-.416-.709a.008.008,0,0,1-.005-.011c-1.064-1.809-2.231-3.718-3.462-5.52-.363-.518-.714-1.04-1.091-1.544-.049-.071-.109-.137-.157-.209l0-.008a62.8,62.8,0,0,0-13.25-13.3c.137-.081.269-.173.4-.246A63.69,63.69,0,0,1,260.8,335.729c.133.174.265.347.387.526.4.54.791,1.085,1.166,1.643,2.018,2.95,3.865,6.188,5.352,8.792.194.341.394.693.591,1.053.133.228.27.467.4.715.009,0,.006.011.014.014l0,.008c.707,1.248,1.419,2.535,2.121,3.854.639,1.207,1.262,2.435,1.856,3.69.407.843.791,1.7,1.162,2.565.086.2.169.415.261.629l.008,0c.625,1.54,1.206,3.129,1.689,4.74.234.812.45,1.627.638,2.441.045.162.077.31.114.469.235,1.023.432,2.05.6,3.078C277.426,371.466,277.619,372.987,277.769,374.5Z" transform="translate(-247.497 -322.838)" fill="#281b14"/>
                </g>
              </g>
            </g>
            <g id="Grupo_1118404" data-name="Grupo 1118404" transform="translate(0.33 15.101)">
              <g id="Grupo_1118403" data-name="Grupo 1118403">
                <path id="Trazado_910454" data-name="Trazado 910454" d="M296.467,359.234a.2.2,0,0,1-.113.075.308.308,0,0,1-.088.008.21.21,0,0,1-.1-.037,39.093,39.093,0,0,0-24-7.374c-.045-.144-.081-.287-.116-.44a39.615,39.615,0,0,1,23.89,7.126c.162.114.323.228.475.341A.224.224,0,0,1,296.467,359.234Z" transform="translate(-272.048 -351.446)" fill="#281b14"/>
              </g>
            </g>
            <g id="Grupo_1118406" data-name="Grupo 1118406" transform="translate(19.505 2.011)">
              <g id="Grupo_1118405" data-name="Grupo 1118405">
                <path id="Trazado_910455" data-name="Trazado 910455" d="M280.865,337.063a.215.215,0,0,1-.231.2h-.009a.052.052,0,0,1-.034-.012.211.211,0,0,1-.159-.209v-.009c.015-.216.032-.441.047-.657.327-4.082.6-8.2.8-12.293.148.078.288.145.418.23-.218,4.2-.49,8.418-.828,12.6A.939.939,0,0,1,280.865,337.063Z" transform="translate(-280.432 -324.082)" fill="#281b14"/>
              </g>
            </g>
            <g id="Grupo_1118408" data-name="Grupo 1118408" transform="translate(6.364 21.453)">
              <g id="Grupo_1118407" data-name="Grupo 1118407">
                <path id="Trazado_910456" data-name="Trazado 910456" d="M278.214,380.886a.193.193,0,0,1-.116.179h-.009a.174.174,0,0,1-.116.022.385.385,0,0,1-.084-.027,3.24,3.24,0,0,0-.345-.187l-.008-.01a52.678,52.678,0,0,0-25.95-6.922c.007-.139.023-.285.031-.432a53.332,53.332,0,0,1,25.645,6.7c.189.1.37.2.558.306l.009-.077c.41-4.831.908-10.2,1.56-15.71.139.086.268.17.407.255C279.134,370.574,278.638,376.013,278.214,380.886Z" transform="translate(-251.587 -364.724)" fill="#281b14"/>
              </g>
            </g>
            <g id="Grupo_1118410" data-name="Grupo 1118410" transform="translate(35.022 32.131)">
              <g id="Grupo_1118409" data-name="Grupo 1118409">
                <path id="Trazado_910457" data-name="Trazado 910457" d="M240.836,387.661v.009a45.059,45.059,0,0,1-8.627,12.644.235.235,0,0,1-.076.053.206.206,0,0,1-.106.014.255.255,0,0,1-.124-.057.21.21,0,0,1,0-.3c.039-.039.079-.087.119-.126a44.445,44.445,0,0,0,8.615-12.846C240.708,387.246,240.772,387.453,240.836,387.661Z" transform="translate(-231.836 -387.046)" fill="#281b14"/>
              </g>
            </g>
            <g id="Grupo_1118412" data-name="Grupo 1118412" transform="translate(8.603 41.161)">
              <g id="Grupo_1118411" data-name="Grupo 1118411">
                <path id="Trazado_910458" data-name="Trazado 910458" d="M276,413.492a.2.2,0,0,1-.153.044.217.217,0,0,1-.147-.086l-.023-.029c-1.925-2.636-5.249-3.827-8.257-4.644a68.47,68.47,0,0,0-17.286-2.407c-.313,0-.635-.01-.948-.011-.14-.146-.282-.284-.412-.438.113,0,.226,0,.339,0l1.027.01a69.364,69.364,0,0,1,17.4,2.419c2.831.77,5.948,1.868,7.994,4.2a7.434,7.434,0,0,1,.52.642A.218.218,0,0,1,276,413.492Z" transform="translate(-248.772 -405.922)" fill="#281b14"/>
              </g>
            </g>
          </g>
        </g>
        <g id="Grupo_1118511" data-name="Grupo 1118511" transform="translate(24.032 5.28)">
          <g id="Grupo_1118446" data-name="Grupo 1118446" transform="translate(62.547)">
            <g id="Grupo_1118416" data-name="Grupo 1118416" transform="translate(0.041)">
              <g id="Grupo_1118415" data-name="Grupo 1118415">
                <path id="Trazado_910459" data-name="Trazado 910459" d="M94.254,339.435c-.051.189-.1.368-.136.549-.476,1.812-.918,3.621-1.362,5.441l0,.01c-.037.182-.086.36-.123.542l0,.011c-.125.508-.24,1.018-.365,1.526-.234.952-.46,1.917-.672,2.875-.048.178-.1.357-.133.539-.246,1.084-.482,2.17-.674,3.258-.043.2-.083.395-.113.589a43.466,43.466,0,0,0-.7,6.216,2.99,2.99,0,0,0-.006.314c-.009.2-.015.39-.013.594l0,.01c0,.011.005.023,0,.034,0,.452.013.917.036,1.374a15.56,15.56,0,0,0,.712,4.059c.072.233.155.47.252.7a8.568,8.568,0,0,0,1.786,2.792c.008.013.018.016.026.03a5.575,5.575,0,0,0,.47.431,12.274,12.274,0,0,0,5.629,2.506c.182.037.364.075.537.1.192.041.374.078.558.105a12.534,12.534,0,0,0,6.4-.251,8.241,8.241,0,0,0,2.719-1.727,2.35,2.35,0,0,0,.242-.228c.108-.106.2-.2.3-.314a6.722,6.722,0,0,0,.469-.528,12.531,12.531,0,0,0,1.473-2.333,16.572,16.572,0,0,0,.935-2.387l0-.01c.061-.187.11-.365.16-.554a40.8,40.8,0,0,0,.909-4.221c.062-.355.121-.7.183-1.056.027-.184.067-.377.094-.561.21-1.285.41-2.573.579-3.87.027-.184.054-.368.07-.556.226-1.721.407-3.442.525-5.181.014-.177.03-.364.033-.543.14-1.947.193-3.906.165-5.853,0-.193,0-.372-.016-.568a54.8,54.8,0,0,0-.45-5.916c-.031-.177-.059-.366-.08-.541a43.13,43.13,0,0,0-1.17-5.546c-.042-.18-.1-.353-.152-.526-.326-1.136-.713-2.255-1.15-3.354-.055-.173-.131-.351-.2-.516-.008-.013-.012-.037-.02-.051a16.123,16.123,0,0,0-1.494-2.916c-.113-.166-.219-.319-.338-.463-.09-.126-.183-.241-.277-.356a7.783,7.783,0,0,0-.658-.7.275.275,0,0,1-.062-.062l-.011,0a5.728,5.728,0,0,0-2.657-1.482,4.13,4.13,0,0,0-.543-.079,4.314,4.314,0,0,0-2.411.581c-.213.123-.43.256-.638.4a8.554,8.554,0,0,0-.979.83,5.127,5.127,0,0,0-.39.4l0,.01-.011,0a14.841,14.841,0,0,0-.972,1.182c-.368.488-.716,1.025-1.056,1.576-.1.154-.185.311-.272.468a36.014,36.014,0,0,0-2.243,4.651c-.069.173-.135.336-.2.5-.357.908-.668,1.771-.916,2.527q-.093.28-.176.528c-.107.355-.2.667-.289.948C94.992,336.735,94.616,338.089,94.254,339.435Z" transform="translate(-89.945 -320.785)" fill="#ffbf5c"/>
              </g>
            </g>
            <g id="Grupo_1118423" data-name="Grupo 1118423" transform="translate(2.856 0.009)">
              <g id="Grupo_1118418" data-name="Grupo 1118418" transform="translate(16.393 1.562)">
                <g id="Grupo_1118417" data-name="Grupo 1118417">
                  <path id="Trazado_910460" data-name="Trazado 910460" d="M95.977,324.07c.09.419.191.841.278,1.27.031.178.076.348.107.525.214,1.049.393,2.1.552,3.147.029.188.06.366.08.541.184,1.244.339,2.47.489,3.672.01.172.033.336.055.51,0,.011,0,.024,0,.034.208,1.826.393,3.612.531,5.363.018.185.028.357.049.532.163,1.994.281,3.943.366,5.849.007.183.014.365.011.544l.01,0c.082,1.916.11,3.785.1,5.61.008.182,0,.362,0,.541-.008,1.667-.053,3.3-.145,4.9,0,.18-.009.37-.023.546-.083,1.4-.181,2.77-.316,4.11-.017.187-.033.374-.057.548-.183,1.811-.417,3.563-.709,5.278-.027.184-.054.369-.089.54-.29,1.748-.642,3.435-1.044,5.1l-.085.315c.108-.106.2-.2.3-.314a6.741,6.741,0,0,0,.469-.528c.346-1.5.659-3.036.921-4.6.038-.181.062-.355.089-.54.292-1.715.526-3.467.7-5.27a5.129,5.129,0,0,0,.057-.548c.143-1.326.238-2.688.3-4.068a4.617,4.617,0,0,0,.033-.543c.095-1.609.132-3.257.135-4.947a4.758,4.758,0,0,0,.012-.549l-.011,0c.017-1.822-.022-3.693-.09-5.617l-.022-.547c-.085-1.905-.206-3.844-.369-5.838-.018-.185-.038-.36-.056-.545-.146-1.764-.314-3.568-.53-5.408,0-.011,0-.024,0-.034-.018-.185-.049-.363-.067-.548-.14-1.2-.3-2.414-.477-3.635-.028-.188-.059-.365-.077-.551-.169-1.049-.356-2.114-.57-3.164-.031-.177-.062-.355-.107-.525-.022-.13-.054-.263-.086-.4a7.788,7.788,0,0,0-.658-.7A.274.274,0,0,1,95.977,324.07Z" transform="translate(-95.977 -324.07)" fill="#281b14"/>
                </g>
              </g>
              <g id="Grupo_1118420" data-name="Grupo 1118420" transform="translate(6.099)">
                <g id="Grupo_1118419" data-name="Grupo 1118419">
                  <path id="Trazado_910461" data-name="Trazado 910461" d="M115.3,320.8c-.035.972-.085,1.95-.131,2.919,0,.179-.02.366-.033.543q-.076,1.6-.184,3.2c0,.179-.017.356-.033.543-.086,1.409-.182,2.815-.3,4.226-.013.177-.03.364-.046.551-.1,1.393-.232,2.79-.37,4.185-.014.177-.03.364-.055.538-.188,1.956-.4,3.907-.64,5.86a4.455,4.455,0,0,1-.068.546c-.2,1.76-.432,3.537-.68,5.3-.027.185-.041.361-.078.543-.209,1.488-.428,2.974-.668,4.454-.016.188-.051.358-.078.543-.232,1.449-.474,2.894-.717,4.34-.037.182-.075.363-.1.537q-.494,2.776-1.05,5.536a4.4,4.4,0,0,1-.107.524c-.292,1.545-.612,3.071-.956,4.6a4.6,4.6,0,0,1-.11.534c-.216,1.013-.443,2.024-.677,3.021.182.037.364.075.537.1.234-1,.461-2.007.674-3.01a4.465,4.465,0,0,0,.11-.534c.344-1.531.667-3.068.959-4.613a4.506,4.506,0,0,0,.107-.524c.368-1.829.718-3.674,1.033-5.518.038-.181.075-.363.1-.537.255-1.454.5-2.9.73-4.348.027-.184.065-.366.089-.54.23-1.483.459-2.966.657-4.458a4.531,4.531,0,0,0,.078-.542c.251-1.771.48-3.547.7-5.315.027-.184.041-.361.067-.545q.349-2.934.63-5.863c.027-.184.041-.361.055-.538.136-1.429.273-2.858.377-4.3a4.488,4.488,0,0,0,.044-.541c.114-1.39.219-2.783.3-4.17a4.535,4.535,0,0,0,.033-.543c.082-1.061.141-2.116.191-3.185.014-.177.02-.367.023-.546.057-.966.1-1.924.136-2.9A4.124,4.124,0,0,0,115.3,320.8Z" transform="translate(-108.216 -320.804)" fill="#281b14"/>
                </g>
              </g>
              <g id="Grupo_1118422" data-name="Grupo 1118422" transform="translate(0 0.581)">
                <g id="Grupo_1118421" data-name="Grupo 1118421">
                  <path id="Trazado_910462" data-name="Trazado 910462" d="M124.524,322.421c-.067.377-.138.764-.216,1.137-.027.184-.062.355-.1.537-.2,1.095-.419,2.187-.634,3.28-.038.181-.072.353-.11.534q-.446,2.349-.923,4.691c-.024.174-.062.355-.1.526-.212,1.082-.438,2.171-.653,3.264l-.112.545c-.374,1.85-.744,3.69-1.118,5.54q-.057.272-.113.544c-.359,1.753-.717,3.506-1.086,5.255a4.624,4.624,0,0,1-.11.534c-.287,1.445-.6,2.895-.9,4.337-.038.182-.075.364-.123.542-.274,1.313-.545,2.616-.819,3.929-.038.181-.086.36-.116.555q-.626,2.892-1.257,5.807c-.035.171-.073.353-.11.534-.328,1.513-.656,3.026-.995,4.536l-.112.545c-.141.65-.282,1.3-.433,1.947a5.574,5.574,0,0,0,.47.431c.164-.734.317-1.471.477-2.194.038-.182.086-.36.121-.531.331-1.524.659-3.036.986-4.549.038-.181.083-.35.121-.531.417-1.929.821-3.85,1.238-5.778q.057-.273.113-.545c.287-1.321.567-2.655.844-3.978.038-.182.073-.353.11-.534.311-1.45.609-2.892.907-4.334.037-.182.072-.353.107-.524q.554-2.624,1.087-5.255l.112-.545c.374-1.85.75-3.711,1.124-5.561.037-.181.065-.366.1-.537.234-1.121.457-2.245.678-3.358.038-.182.065-.366.1-.537.312-1.539.612-3.071.911-4.6.038-.182.065-.366.1-.537.215-1.092.427-2.174.629-3.259.037-.182.075-.363.11-.534.111-.579.221-1.158.329-1.727C124.948,322.141,124.732,322.274,124.524,322.421Z" transform="translate(-114.391 -322.018)" fill="#281b14"/>
                </g>
              </g>
            </g>
            <g id="Grupo_1118425" data-name="Grupo 1118425" transform="translate(0 2.234)">
              <g id="Grupo_1118424" data-name="Grupo 1118424">
                <path id="Trazado_910463" data-name="Trazado 910463" d="M121.219,353.268a4.681,4.681,0,0,0-.144.536c-.3,1.1-.583,2.211-.856,3.31l-.15.557q-.725,2.883-1.412,5.754a2.362,2.362,0,0,0-.063.277.16.16,0,0,0,.057.038c-.009.2-.015.39-.013.594l0,.011c0,.011.005.023,0,.034,0,.452.013.917.036,1.374.089-.416.189-.829.288-1.241.038-.182.075-.364.123-.542q.707-3.007,1.477-6c.038-.181.086-.36.136-.55.282-1.13.577-2.269.879-3.394a4.565,4.565,0,0,1,.142-.526c.374-1.433.762-2.873,1.159-4.311.048-.178.1-.357.155-.533.483-1.753.974-3.493,1.488-5.237.048-.179.107-.354.155-.533.5-1.7,1.009-3.416,1.546-5.121.048-.178.1-.357.155-.533q.429-1.406.89-2.8c.048-.179.1-.344.159-.51.5-1.6,1.016-3.188,1.543-4.771.056-.165.111-.331.17-.507.354-1.066.706-2.122,1.071-3.185l-.011,0a14.867,14.867,0,0,0-.972,1.182c-.193.591-.4,1.189-.595,1.791l-.17.507c-.533,1.6-1.056,3.212-1.56,4.835a4.282,4.282,0,0,0-.159.51c-.3.9-.579,1.817-.86,2.734-.058.176-.117.352-.165.531-.521,1.686-1.032,3.376-1.522,5.07a4.875,4.875,0,0,0-.157.544c-.528,1.752-1.021,3.5-1.507,5.267a4.532,4.532,0,0,0-.141.526C121.983,350.384,121.6,351.825,121.219,353.268Z" transform="translate(-118.593 -325.454)" fill="#281b14"/>
              </g>
            </g>
            <g id="Grupo_1118427" data-name="Grupo 1118427" transform="translate(9.306 4.992)">
              <g id="Grupo_1118426" data-name="Grupo 1118426">
                <path id="Trazado_910464" data-name="Trazado 910464" d="M96.268,331.688a5.79,5.79,0,0,0,.564.253,3.106,3.106,0,0,0,.506.215,13.754,13.754,0,0,0,1.554.553,4.756,4.756,0,0,0,.531.165l.063.017c.147.04.295.079.444.108a19.044,19.044,0,0,0,2.689.442l.541.044a19.406,19.406,0,0,0,4.069-.2,4.236,4.236,0,0,0,.543-.091,13.281,13.281,0,0,0,1.488-.333c-.055-.173-.131-.351-.2-.516a11.145,11.145,0,0,1-1.366.3c-.18.042-.358.073-.546.1a18.326,18.326,0,0,1-3.955.2l-.541-.044a17.553,17.553,0,0,1-2.591-.426c-.179-.048-.36-.086-.539-.134a4.65,4.65,0,0,1-.52-.162,15.268,15.268,0,0,1-1.494-.526c-.173-.069-.336-.136-.506-.215-.152-.064-.3-.137-.461-.214C96.443,331.374,96.356,331.531,96.268,331.688Z" transform="translate(-96.268 -331.22)" fill="#281b14"/>
              </g>
            </g>
            <g id="Grupo_1118429" data-name="Grupo 1118429" transform="translate(6.861 9.985)">
              <g id="Grupo_1118428" data-name="Grupo 1118428">
                <path id="Trazado_910465" data-name="Trazado 910465" d="M93.547,342.281c.431.161.853.309,1.289.448.178.048.344.1.523.152l.178.048a19.559,19.559,0,0,0,2.058.441c.171.035.355.062.54.089.108.018.219.025.327.043a24.776,24.776,0,0,0,3.531.161l.547-.022a27.466,27.466,0,0,0,4.957-.7l.541-.125c.748-.182,1.494-.4,2.246-.636-.042-.18-.1-.353-.152-.526-.728.233-1.447.434-2.161.614-.18.042-.35.087-.531.128a27.789,27.789,0,0,1-4.857.7c-.182.007-.365.014-.544.011a22.836,22.836,0,0,1-3.51-.155c-.1-.015-.2-.019-.3-.034-.185-.027-.369-.054-.543-.078a21.853,21.853,0,0,1-2.173-.472c-.178-.048-.347-.093-.523-.152-.418-.124-.84-.271-1.247-.437C93.68,341.956,93.614,342.119,93.547,342.281Z" transform="translate(-93.547 -341.657)" fill="#281b14"/>
              </g>
            </g>
            <g id="Grupo_1118431" data-name="Grupo 1118431" transform="translate(5.769 13.136)">
              <g id="Grupo_1118430" data-name="Grupo 1118430">
                <path id="Trazado_910466" data-name="Trazado 910466" d="M90.935,348.773c.442.242.893.454,1.357.658.16.077.33.156.5.225.818.355,1.658.672,2.516.959l.528.176c.457.146.927.284,1.39.408.925.249,1.872.458,2.82.623.181.037.355.062.54.088a31.155,31.155,0,0,0,4.428.39c.528.007,1.049,0,1.54-.025.2-.015.378-.022.55-.033a14.806,14.806,0,0,0,2.907-.537c-.031-.177-.059-.366-.08-.541a13.548,13.548,0,0,1-2.883.532c-.175.021-.357.028-.543.046-.478.018-.967.033-1.482.019a30.881,30.881,0,0,1-4.383-.389c-.184-.027-.358-.051-.54-.089a31.331,31.331,0,0,1-4.166-1.03c-.176-.058-.341-.114-.514-.184a26.472,26.472,0,0,1-2.474-.947,4.191,4.191,0,0,1-.493-.222,13.41,13.41,0,0,1-1.346-.655Q91.018,348.525,90.935,348.773Z" transform="translate(-90.935 -348.245)" fill="#281b14"/>
              </g>
            </g>
            <g id="Grupo_1118433" data-name="Grupo 1118433" transform="translate(4.213 18.65)">
              <g id="Grupo_1118432" data-name="Grupo 1118432">
                <path id="Trazado_910467" data-name="Trazado 910467" d="M90.1,359.77c-.051.189-.1.368-.136.549.4.255.812.5,1.234.738.156.088.324.177.481.265a29.605,29.605,0,0,0,2.986,1.389c.173.069.349.128.522.2.861.322,1.743.6,2.626.841.694.187,1.4.355,2.112.489.182.037.366.065.551.091a28.1,28.1,0,0,0,7.043.35l.01,0c.183-.007.368-.025.553-.043a23.756,23.756,0,0,0,2.982-.438c0-.193,0-.372-.016-.568a23.106,23.106,0,0,1-2.988.459c-.185.018-.37.036-.553.043a28.088,28.088,0,0,1-6.964-.351c-.184-.027-.369-.054-.55-.092a28.026,28.026,0,0,1-4.694-1.33c-.176-.058-.349-.128-.522-.2a26.594,26.594,0,0,1-2.944-1.378c-.157-.087-.324-.177-.478-.276C90.928,360.286,90.513,360.028,90.1,359.77Z" transform="translate(-89.961 -359.77)" fill="#281b14"/>
              </g>
            </g>
            <g id="Grupo_1118435" data-name="Grupo 1118435" transform="translate(2.722 24.65)">
              <g id="Grupo_1118434" data-name="Grupo 1118434">
                <path id="Trazado_910468" data-name="Trazado 910468" d="M90.431,372.313c-.037.182-.086.36-.123.542l0,.01c.359.176.715.361,1.076.526.156.088.327.167.487.244,1.121.527,2.27.994,3.432,1.408.173.069.349.128.525.186.856.3,1.73.567,2.6.8.852.229,1.7.424,2.57.59a4.72,4.72,0,0,0,.534.11,38.262,38.262,0,0,0,7.934.645c.183-.007.354-.017.537-.024.373,0,.74-.027,1.107-.052.505-.034,1.037-.082,1.588-.16.014-.177.03-.364.033-.543-.572.071-1.138.122-1.667.16-.344.02-.7.038-1.05.045l-.011,0c-.185.018-.357.028-.54.035a37.995,37.995,0,0,1-7.854-.647,4.412,4.412,0,0,1-.534-.11,37.737,37.737,0,0,1-5.145-1.373c-.173-.069-.349-.128-.522-.2-1.152-.411-2.288-.886-3.387-1.407-.17-.079-.341-.159-.5-.236C91.153,372.688,90.787,372.5,90.431,372.313Z" transform="translate(-90.305 -372.313)" fill="#281b14"/>
              </g>
            </g>
            <g id="Grupo_1118437" data-name="Grupo 1118437" transform="translate(1.552 29.603)">
              <g id="Grupo_1118436" data-name="Grupo 1118436">
                <path id="Trazado_910469" data-name="Trazado 910469" d="M91.606,382.667c-.048.178-.1.357-.133.539.32.154.629.3.93.442.17.079.341.159.5.225.241.11.485.21.719.306.983.411,1.985.793,3,1.144a4.758,4.758,0,0,0,.528.176c1.021.354,2.054.665,3.095.945.778.21,1.562.4,2.349.576l.534.109a53.216,53.216,0,0,0,8.512,1.094c.179,0,.359.007.536.02.76.024,1.513.035,2.269.035.027-.184.054-.368.07-.556-.769.008-1.535,0-2.305-.022-.177-.014-.367-.02-.546-.023a52.384,52.384,0,0,1-8.446-1.087c-.185-.027-.363-.075-.545-.113a50.861,50.861,0,0,1-5.411-1.512,3.149,3.149,0,0,1-.514-.184c-.982-.332-1.956-.695-2.918-1.1-.255-.1-.506-.215-.778-.333-.16-.077-.333-.146-.5-.236C92.235,382.971,91.923,382.831,91.606,382.667Z" transform="translate(-91.473 -382.667)" fill="#281b14"/>
              </g>
            </g>
            <g id="Grupo_1118439" data-name="Grupo 1118439" transform="translate(0.765 33.4)">
              <g id="Grupo_1118438" data-name="Grupo 1118438">
                <path id="Trazado_910470" data-name="Trazado 910470" d="M92.943,390.6c-.043.2-.083.395-.113.589.24.155.47.307.71.462l.494.3a34.691,34.691,0,0,0,3.795,1.991c.17.079.343.149.506.215a34.3,34.3,0,0,0,4.793,1.672c.263.071.526.142.792.2.168.045.35.083.52.117a34.264,34.264,0,0,0,8.968.867,4.828,4.828,0,0,0,.547-.022c.661-.025,1.306-.077,1.957-.15.027-.184.067-.376.094-.561-.664.08-1.333.137-1.994.163a4.915,4.915,0,0,1-.547.022,33.879,33.879,0,0,1-8.926-.856c-.171-.035-.353-.073-.521-.118a34.187,34.187,0,0,1-5.571-1.882,5.027,5.027,0,0,1-.5-.225,31.818,31.818,0,0,1-3.774-1.985c-.165-.1-.329-.2-.48-.31C93.439,390.94,93.189,390.783,92.943,390.6Z" transform="translate(-92.83 -390.604)" fill="#281b14"/>
              </g>
            </g>
            <g id="Grupo_1118441" data-name="Grupo 1118441" transform="translate(0.041 40.52)">
              <g id="Grupo_1118440" data-name="Grupo 1118440">
                <path id="Trazado_910471" data-name="Trazado 910471" d="M95.326,405.486c-.009.2-.015.39-.013.594l0,.01c.111.052.217.115.327.167a39.048,39.048,0,0,0,4.028,1.794c.163.066.338.125.514.183,1.076.4,2.179.744,3.294,1.044.831.223,1.66.412,2.494.581.181.037.363.075.537.1a38.45,38.45,0,0,0,9.31.643c.193,0,.375-.012.56-.03.492-.025.989-.072,1.487-.119l0-.011c.061-.187.11-.365.16-.554-.514.065-1.032.106-1.561.144-.182.007-.378.022-.561.03a38.808,38.808,0,0,1-9.291-.628c-.171-.034-.355-.062-.537-.1A40.9,40.9,0,0,1,100.3,407.7c-.176-.059-.349-.128-.525-.187a38.789,38.789,0,0,1-4.015-1.8C95.611,405.641,95.473,405.571,95.326,405.486Z" transform="translate(-95.31 -405.486)" fill="#281b14"/>
              </g>
            </g>
            <g id="Grupo_1118443" data-name="Grupo 1118443" transform="translate(0.792 46.592)">
              <g id="Grupo_1118442" data-name="Grupo 1118442">
                <path id="Trazado_910472" data-name="Trazado 910472" d="M101.665,418.179c.072.233.155.47.252.7.739.312,1.495.605,2.246.875.173.069.338.125.514.184,1.247.437,2.494.829,3.767,1.171.684.184,1.37.357,2.061.51.182.038.35.083.534.11a50.9,50.9,0,0,0,7.451,1.057c.5.032,1.021.06,1.557.08a2.354,2.354,0,0,0,.242-.228c.108-.106.2-.2.3-.314a1.386,1.386,0,0,1-.214,0c-.631,0-1.254-.033-1.85-.08a51.137,51.137,0,0,1-7.374-1.048c-.185-.027-.363-.075-.534-.109A51.064,51.064,0,0,1,104.8,419.4a4.687,4.687,0,0,1-.522-.2C103.387,418.9,102.522,418.556,101.665,418.179Z" transform="translate(-101.665 -418.179)" fill="#281b14"/>
              </g>
            </g>
            <g id="Grupo_1118445" data-name="Grupo 1118445" transform="translate(11.617 1.824)">
              <g id="Grupo_1118444" data-name="Grupo 1118444">
                <path id="Trazado_910473" data-name="Trazado 910473" d="M99.852,325l0,.011a10.4,10.4,0,0,0,1.057.431,3.175,3.175,0,0,0,.515.183c.278.1.559.184.832.258l.189.051a14.081,14.081,0,0,0,1.664.312c.184.027.372.044.548.057a11.738,11.738,0,0,0,3.212-.162,4.078,4.078,0,0,0,.528-.118,2.615,2.615,0,0,0,.422-.1c-.113-.166-.219-.319-.338-.463-.072.014-.133.032-.191.039a5.062,5.062,0,0,1-.528.117,11.327,11.327,0,0,1-3.082.141c-.177-.014-.364-.03-.538-.055a12.806,12.806,0,0,1-1.566-.3c-.347-.093-.694-.187-1.043-.314-.176-.058-.352-.117-.525-.186q-.386-.138-.763-.307A5.12,5.12,0,0,0,99.852,325Z" transform="translate(-99.849 -324.597)" fill="#281b14"/>
              </g>
            </g>
          </g>
          <g id="Grupo_1118478" data-name="Grupo 1118478" transform="translate(33.966 2.173)">
            <g id="Grupo_1118448" data-name="Grupo 1118448" transform="translate(0)">
              <g id="Grupo_1118447" data-name="Grupo 1118447">
                <path id="Trazado_910474" data-name="Trazado 910474" d="M149.225,346.731c.009.2.016.381.035.565.091,1.871.214,3.729.337,5.6v.011c.019.185.026.37.045.554v.011c.033.521.077,1.043.111,1.564.064.978.138,1.967.224,2.944.008.185.016.37.034.554.091,1.108.193,2.215.338,3.31.02.206.039.4.069.6a43.4,43.4,0,0,0,1.2,6.139,3.076,3.076,0,0,0,.089.3c.052.194.1.377.166.571v.011c0,.011.012.022.012.033.138.43.288.87.448,1.3a15.571,15.571,0,0,0,1.9,3.657c.139.2.289.4.45.591a8.567,8.567,0,0,0,2.543,2.125c.012.01.022.01.034.021a5.5,5.5,0,0,0,.578.269,12.265,12.265,0,0,0,6.122.7c.185-.019.369-.037.542-.067.2-.02.38-.038.564-.068a12.531,12.531,0,0,0,6.032-2.165,8.248,8.248,0,0,0,2.074-2.465,2.543,2.543,0,0,0,.162-.29c.071-.134.131-.256.191-.389a6.991,6.991,0,0,0,.288-.645,12.514,12.514,0,0,0,.7-2.667,16.63,16.63,0,0,0,.174-2.557v-.011c0-.2-.005-.381-.014-.577a40.783,40.783,0,0,0-.4-4.3c-.048-.357-.1-.7-.143-1.062-.03-.184-.049-.379-.079-.564-.186-1.289-.382-2.578-.612-3.864-.03-.184-.059-.368-.1-.552-.3-1.709-.647-3.406-1.057-5.1-.04-.173-.081-.356-.132-.528-.452-1.9-.99-3.783-1.6-5.631-.062-.183-.113-.355-.187-.537a54.991,54.991,0,0,0-2.208-5.507c-.083-.16-.167-.331-.239-.491a43.179,43.179,0,0,0-2.783-4.938c-.094-.159-.2-.308-.3-.455-.653-.986-1.358-1.937-2.105-2.853-.1-.148-.231-.3-.346-.432-.011-.01-.023-.032-.034-.042a16.1,16.1,0,0,0-2.3-2.332c-.158-.124-.3-.238-.461-.34-.124-.093-.247-.175-.371-.256a7.739,7.739,0,0,0-.837-.466.254.254,0,0,1-.078-.04h-.011a5.731,5.731,0,0,0-2.98-.614,4.184,4.184,0,0,0-.541.089,4.314,4.314,0,0,0-2.125,1.279c-.166.182-.333.374-.487.577a8.517,8.517,0,0,0-.684,1.086,5.08,5.08,0,0,0-.251.5v.011h-.011a14.946,14.946,0,0,0-.572,1.419c-.2.575-.374,1.193-.532,1.821-.047.176-.083.352-.119.528a36.061,36.061,0,0,0-.741,5.11c-.014.186-.028.361-.043.536-.067.973-.1,1.89-.114,2.686q0,.294-.009.556c0,.371.008.7.01.992C149.116,343.934,149.165,345.339,149.225,346.731Z" transform="translate(-149.08 -325.327)" fill="#ffbf5c"/>
              </g>
            </g>
            <g id="Grupo_1118455" data-name="Grupo 1118455" transform="translate(3.075 0.022)">
              <g id="Grupo_1118450" data-name="Grupo 1118450" transform="translate(6.144 0.613)">
                <g id="Grupo_1118449" data-name="Grupo 1118449">
                  <path id="Trazado_910475" data-name="Trazado 910475" d="M150.914,326.656c.212.373.435.744.647,1.128.083.16.177.309.26.469.52.937,1.007,1.886,1.472,2.836.083.171.167.331.239.491.55,1.132,1.066,2.254,1.571,3.355.062.161.133.31.206.471,0,.01.012.021.012.032.748,1.679,1.461,3.327,2.119,4.956.073.171.134.332.206.492q1.132,2.78,2.108,5.468c.062.171.123.343.175.515h.011c.654,1.8,1.242,3.576,1.786,5.319.062.172.112.344.164.516q.74,2.387,1.335,4.716c.051.172.1.355.142.528.342,1.359.66,2.7.935,4.015.04.183.081.367.11.54.37,1.782.674,3.524.911,5.247.03.184.059.368.077.542.25,1.755.421,3.469.537,5.176l.014.326c.071-.134.131-.256.191-.389a7,7,0,0,0,.288-.645c-.12-1.531-.285-3.094-.5-4.665-.019-.184-.048-.357-.078-.541-.237-1.723-.541-3.464-.921-5.235a5.071,5.071,0,0,0-.11-.54c-.263-1.307-.581-2.634-.932-3.971a4.589,4.589,0,0,0-.132-.529c-.394-1.563-.854-3.146-1.359-4.759a4.816,4.816,0,0,0-.153-.528h-.011c-.532-1.743-1.131-3.515-1.775-5.33l-.186-.515c-.654-1.792-1.353-3.6-2.108-5.457-.073-.171-.145-.332-.218-.5-.669-1.639-1.373-3.309-2.132-5,0-.011-.012-.021-.012-.032-.073-.171-.155-.331-.228-.5-.494-1.1-1.01-2.213-1.548-3.323-.084-.171-.167-.331-.24-.5-.476-.95-.975-1.909-1.494-2.846-.083-.16-.166-.32-.26-.468-.06-.118-.13-.234-.2-.351a7.713,7.713,0,0,0-.837-.466A.254.254,0,0,1,150.914,326.656Z" transform="translate(-150.914 -326.656)" fill="#281b14"/>
                </g>
              </g>
              <g id="Grupo_1118452" data-name="Grupo 1118452" transform="translate(2.612)">
                <g id="Grupo_1118451" data-name="Grupo 1118451">
                  <path id="Trazado_910476" data-name="Trazado 910476" d="M170.379,325.463c.258.937.506,1.886.753,2.823.051.172.091.355.132.528q.409,1.552.786,3.105c.051.172.091.345.132.529.342,1.37.673,2.739.983,4.121.04.173.08.356.121.54.32,1.36.618,2.731.906,4.1.04.173.081.356.11.53q.613,2.883,1.151,5.781a4.429,4.429,0,0,1,.1.541c.336,1.74.651,3.5.944,5.257.03.184.07.356.089.541.248,1.482.486,2.965.7,4.449.041.184.059.357.089.542.215,1.451.418,2.9.622,4.354.019.185.038.369.067.542q.365,2.8.664,5.6a4.439,4.439,0,0,1,.056.532c.187,1.561.34,3.113.472,4.677a4.649,4.649,0,0,1,.056.543c.1,1.031.186,2.063.263,3.084.185-.019.369-.037.542-.067-.077-1.021-.164-2.053-.262-3.073a4.42,4.42,0,0,0-.056-.543c-.132-1.564-.286-3.127-.473-4.688a4.46,4.46,0,0,0-.056-.531c-.2-1.855-.421-3.72-.674-5.573-.019-.184-.037-.369-.066-.542-.194-1.463-.4-2.915-.612-4.366-.03-.184-.048-.368-.078-.542-.227-1.483-.454-2.967-.713-4.449a4.555,4.555,0,0,0-.089-.541c-.293-1.764-.608-3.527-.934-5.279-.03-.184-.07-.357-.1-.541-.366-1.936-.753-3.859-1.162-5.781-.03-.184-.07-.356-.11-.529-.3-1.4-.6-2.808-.932-4.211a4.626,4.626,0,0,0-.121-.529c-.309-1.36-.629-2.72-.969-4.067a4.688,4.688,0,0,0-.132-.529c-.24-1.036-.5-2.06-.775-3.095-.04-.173-.091-.356-.143-.528-.236-.938-.483-1.865-.741-2.8A4.188,4.188,0,0,0,170.379,325.463Z" transform="translate(-170.379 -325.374)" fill="#281b14"/>
                </g>
              </g>
              <g id="Grupo_1118454" data-name="Grupo 1118454" transform="translate(0 1.367)">
                <g id="Grupo_1118453" data-name="Grupo 1118453">
                  <path id="Trazado_910477" data-name="Trazado 910477" d="M184.309,328.809c.049.379.1.77.136,1.15.03.184.048.357.066.542.134,1.106.258,2.212.382,3.319.019.184.037.358.056.542q.281,2.375.53,4.751c.029.173.048.357.066.531.123,1.1.236,2.2.359,3.309q.029.277.056.553c.2,1.877.4,3.743.6,5.62q.028.276.056.553c.185,1.779.37,3.559.544,5.339a4.635,4.635,0,0,1,.056.542c.161,1.464.3,2.941.45,4.405.019.184.038.369.045.554.133,1.335.266,2.658.4,3.994.019.184.026.369.056.564.182,1.965.365,3.94.547,5.916.018.174.037.358.056.542.142,1.542.284,3.083.415,4.625q.029.277.056.553c.061.662.122,1.325.172,1.987a5.5,5.5,0,0,0,.578.269c-.065-.749-.141-1.5-.2-2.236-.019-.185-.027-.37-.045-.543-.143-1.552-.285-3.094-.427-4.635-.019-.185-.026-.359-.045-.543-.182-1.965-.375-3.918-.557-5.883q-.028-.277-.056-.553c-.122-1.346-.257-2.7-.391-4.049-.019-.184-.037-.358-.056-.543-.139-1.476-.289-2.941-.439-4.406-.019-.185-.037-.358-.056-.531-.174-1.78-.359-3.56-.544-5.339l-.056-.553c-.2-1.877-.4-3.765-.6-5.642-.019-.185-.049-.368-.067-.542-.114-1.14-.239-2.279-.364-3.407-.019-.185-.048-.368-.066-.542-.165-1.562-.34-3.113-.516-4.664-.019-.185-.048-.369-.066-.542-.123-1.106-.247-2.2-.381-3.3-.019-.185-.037-.369-.056-.542-.068-.586-.137-1.171-.205-1.746C184.63,328.414,184.464,328.606,184.309,328.809Z" transform="translate(-184.309 -328.232)" fill="#281b14"/>
                </g>
              </g>
            </g>
            <g id="Grupo_1118457" data-name="Grupo 1118457" transform="translate(1.478 3.565)">
              <g id="Grupo_1118456" data-name="Grupo 1118456">
                <path id="Trazado_910478" data-name="Trazado 910478" d="M196.268,362.007a4.771,4.771,0,0,0,.023.555c.049,1.142.109,2.284.179,3.415l.024.576c.117,1.979.245,3.946.384,5.912a2.322,2.322,0,0,0,.023.282.153.153,0,0,0,.066.019c.052.194.1.377.166.571v.011c0,.011.012.021.012.033.138.43.288.87.448,1.3-.04-.423-.069-.847-.1-1.271-.019-.184-.037-.369-.045-.554q-.23-3.08-.394-6.163c-.019-.185-.027-.37-.035-.565-.071-1.163-.133-2.337-.182-3.5a4.488,4.488,0,0,1-.023-.544c-.074-1.479-.138-2.969-.191-4.46-.008-.185-.016-.37-.013-.555-.066-1.817-.122-3.624-.156-5.442-.008-.185-.005-.371-.013-.555-.033-1.775-.065-3.561-.065-5.348-.008-.185-.016-.37-.013-.555q-.014-1.47,0-2.943c-.008-.185,0-.36,0-.534-.006-1.678.01-3.346.036-5.014,0-.175.007-.349.01-.535.017-1.123.035-2.236.064-3.359h-.011a14.95,14.95,0,0,0-.572,1.419c-.006.621-.022,1.254-.028,1.887,0,.175-.006.36-.01.534-.026,1.691-.041,3.38-.034,5.08a4.325,4.325,0,0,0,0,.534c-.014.949-.005,1.908,0,2.866,0,.185-.006.371,0,.556.01,1.765.031,3.53.074,5.293a4.9,4.9,0,0,0,.013.566c.023,1.83.079,3.648.147,5.476a4.5,4.5,0,0,0,.023.544C196.13,359.026,196.193,360.517,196.268,362.007Z" transform="translate(-195.817 -332.779)" fill="#281b14"/>
              </g>
            </g>
            <g id="Grupo_1118459" data-name="Grupo 1118459" transform="translate(0.906 4.112)">
              <g id="Grupo_1118458" data-name="Grupo 1118458">
                <path id="Trazado_910479" data-name="Trazado 910479" d="M174.093,337.145a5.984,5.984,0,0,0,.614.072,3.173,3.173,0,0,0,.547.053,13.823,13.823,0,0,0,1.649.06,4.789,4.789,0,0,0,.555,0l.066,0c.152-.007.3-.013.456-.031a19.065,19.065,0,0,0,2.7-.388l.529-.121a19.391,19.391,0,0,0,3.819-1.417,4.049,4.049,0,0,0,.491-.25,13.381,13.381,0,0,0,1.319-.764c-.1-.148-.231-.3-.346-.432a11.133,11.133,0,0,1-1.213.7c-.159.094-.319.177-.49.261a18.335,18.335,0,0,1-3.712,1.379l-.529.121a17.573,17.573,0,0,1-2.6.373c-.185.008-.37.027-.554.035a4.584,4.584,0,0,1-.545,0,15.1,15.1,0,0,1-1.582-.053c-.186-.013-.361-.028-.547-.053-.164-.015-.329-.041-.5-.066C174.165,336.793,174.129,336.969,174.093,337.145Z" transform="translate(-174.093 -333.923)" fill="#281b14"/>
              </g>
            </g>
            <g id="Grupo_1118461" data-name="Grupo 1118461" transform="translate(0.123 7.397)">
              <g id="Grupo_1118460" data-name="Grupo 1118460">
                <path id="Trazado_910480" data-name="Trazado 910480" d="M169.059,346.373c.459.024.906.038,1.364.04.185-.008.36,0,.544-.012l.185-.008a19.474,19.474,0,0,0,2.095-.2c.174-.018.358-.048.542-.078.109-.016.216-.042.325-.057a24.834,24.834,0,0,0,3.416-.909l.515-.186a27.391,27.391,0,0,0,4.518-2.155l.478-.282c.659-.4,1.305-.83,1.951-1.282-.094-.159-.2-.308-.3-.455-.624.441-1.25.849-1.876,1.235-.16.094-.308.188-.468.282a27.781,27.781,0,0,1-4.421,2.129c-.172.062-.344.123-.516.175a22.9,22.9,0,0,1-3.394.908c-.1.015-.195.041-.292.056l-.541.089a22,22,0,0,1-2.215.2c-.185.008-.359.016-.544.013-.435.008-.883-.006-1.32-.042C169.088,346.023,169.073,346.2,169.059,346.373Z" transform="translate(-169.059 -340.79)" fill="#281b14"/>
              </g>
            </g>
            <g id="Grupo_1118463" data-name="Grupo 1118463" transform="translate(0 12.79)">
              <g id="Grupo_1118462" data-name="Grupo 1118462">
                <path id="Trazado_910481" data-name="Trazado 910481" d="M162.742,355.5c.495.1.988.165,1.492.22.176.025.362.05.548.064.886.093,1.782.142,2.688.157l.556.009c.479,0,.97-.009,1.448-.029.957-.041,1.924-.126,2.877-.254.184-.019.357-.048.542-.078a31.125,31.125,0,0,0,4.34-.959c.506-.152,1-.315,1.462-.487.182-.073.354-.135.515-.2a14.86,14.86,0,0,0,2.611-1.387c-.083-.16-.167-.331-.239-.491a13.543,13.543,0,0,1-2.589,1.375c-.16.072-.332.134-.5.207-.451.161-.913.322-1.408.463a30.871,30.871,0,0,1-4.3.947c-.184.03-.357.059-.542.077a31.388,31.388,0,0,1-4.283.27c-.185,0-.36-.006-.546-.021-.883-.006-1.768-.066-2.644-.159a4.226,4.226,0,0,1-.537-.064,13.53,13.53,0,0,1-1.481-.22C162.748,355.136,162.745,355.321,162.742,355.5Z" transform="translate(-162.742 -352.064)" fill="#281b14"/>
              </g>
            </g>
            <g id="Grupo_1118465" data-name="Grupo 1118465" transform="translate(0.145 18.789)">
              <g id="Grupo_1118464" data-name="Grupo 1118464">
                <path id="Trazado_910482" data-name="Trazado 910482" d="M157.737,367.218c.009.2.016.381.035.565.463.122.925.233,1.4.333.176.036.363.072.539.108a29.841,29.841,0,0,0,3.266.427c.186.014.371.017.557.031.918.048,1.844.052,2.758.013.718-.031,1.446-.084,2.162-.169.184-.019.368-.048.553-.078a28.115,28.115,0,0,0,6.822-1.785h.011c.172-.062.343-.134.514-.207a23.786,23.786,0,0,0,2.712-1.315c-.062-.183-.113-.355-.187-.537a23.126,23.126,0,0,1-2.711,1.337c-.171.073-.343.145-.514.208a28.137,28.137,0,0,1-6.747,1.76c-.184.03-.368.059-.553.078a28.055,28.055,0,0,1-4.876.143c-.186,0-.371-.017-.557-.031a26.6,26.6,0,0,1-3.222-.429c-.176-.036-.363-.072-.539-.119C158.685,367.46,158.211,367.339,157.737,367.218Z" transform="translate(-157.737 -364.603)" fill="#281b14"/>
              </g>
            </g>
            <g id="Grupo_1118467" data-name="Grupo 1118467" transform="translate(0.518 24.958)">
              <g id="Grupo_1118466" data-name="Grupo 1118466">
                <path id="Trazado_910483" data-name="Trazado 910483" d="M154.111,380.118c.019.185.026.37.045.554v.011c.395.059.79.13,1.184.178.176.036.362.06.538.086,1.228.166,2.464.266,3.7.311.186.014.371.017.557.02.906.027,1.821.02,2.724-.018.881-.038,1.75-.108,2.628-.211a4.763,4.763,0,0,0,.542-.056,38.3,38.3,0,0,0,7.76-1.77c.172-.062.332-.123.5-.185.355-.113.7-.248,1.041-.382.472-.184.964-.39,1.466-.63-.04-.173-.081-.356-.132-.528-.524.24-1.049.459-1.542.654-.321.123-.654.246-.987.358h-.011c-.171.073-.332.134-.5.2a37.979,37.979,0,0,1-7.685,1.745,4.484,4.484,0,0,1-.542.056,37.767,37.767,0,0,1-5.319.238c-.186-.014-.371-.017-.557-.031-1.222-.046-2.448-.157-3.654-.324-.186-.024-.373-.049-.548-.075C154.912,380.258,154.506,380.188,154.111,380.118Z" transform="translate(-154.111 -377.498)" fill="#281b14"/>
              </g>
            </g>
            <g id="Grupo_1118469" data-name="Grupo 1118469" transform="translate(0.898 30.585)">
              <g id="Grupo_1118468" data-name="Grupo 1118468">
                <path id="Trazado_910484" data-name="Trazado 910484" d="M151.693,391.327c.008.185.016.37.034.555.351.05.691.1,1.019.142.187.025.373.05.548.064.263.032.525.054.777.076,1.062.1,2.132.16,3.2.19a4.679,4.679,0,0,0,.556.009c1.08.03,2.158.017,3.236-.029.8-.034,1.609-.09,2.413-.157l.542-.056a53.185,53.185,0,0,0,8.447-1.517c.172-.051.344-.1.517-.142.732-.206,1.453-.422,2.174-.649-.03-.184-.059-.368-.1-.552-.731.238-1.462.465-2.205.672-.173.04-.356.091-.528.143a52.435,52.435,0,0,1-8.382,1.5c-.184.03-.369.037-.553.056a50.873,50.873,0,0,1-5.616.186,3.1,3.1,0,0,1-.546-.02c-1.036-.021-2.074-.075-3.113-.172-.273-.021-.547-.053-.842-.084-.176-.025-.362-.039-.548-.075C152.384,391.429,152.044,391.388,151.693,391.327Z" transform="translate(-151.693 -389.261)" fill="#281b14"/>
              </g>
            </g>
            <g id="Grupo_1118471" data-name="Grupo 1118471" transform="translate(1.271 35.001)">
              <g id="Grupo_1118470" data-name="Grupo 1118470">
                <path id="Trazado_910485" data-name="Trazado 910485" d="M150.249,400.007c.02.206.039.4.069.6l.816.227.562.14a34.554,34.554,0,0,0,4.217.757c.187.025.372.039.547.053a34.332,34.332,0,0,0,5.074.154c.272-.011.544-.023.816-.046.174-.007.358-.026.532-.044a34.252,34.252,0,0,0,8.813-1.87,4.83,4.83,0,0,0,.515-.186c.622-.222,1.222-.466,1.822-.731-.03-.184-.049-.379-.079-.564-.609.276-1.23.532-1.853.755a4.865,4.865,0,0,1-.515.186,33.864,33.864,0,0,1-8.77,1.868c-.174.018-.358.037-.532.044a34.223,34.223,0,0,1-5.879-.119,5.167,5.167,0,0,1-.547-.064,31.938,31.938,0,0,1-4.2-.758c-.187-.046-.375-.093-.551-.151C150.823,400.178,150.536,400.1,150.249,400.007Z" transform="translate(-150.249 -398.492)" fill="#281b14"/>
              </g>
            </g>
            <g id="Grupo_1118473" data-name="Grupo 1118473" transform="translate(2.628 40.925)">
              <g id="Grupo_1118472" data-name="Grupo 1118472">
                <path id="Trazado_910486" data-name="Trazado 910486" d="M149.08,413.5c.052.194.1.377.166.571v.01c.121.017.242.044.362.061a38.847,38.847,0,0,0,4.381.5c.175.014.36.017.546.021,1.147.06,2.3.054,3.455,0,.859-.037,1.706-.106,2.553-.2.185-.019.369-.038.542-.067a38.439,38.439,0,0,0,9.072-2.186c.183-.062.354-.124.526-.2.461-.172.922-.366,1.382-.56v-.011c0-.2-.005-.381-.014-.577-.47.216-.952.411-1.445.607-.172.062-.354.135-.526.2a38.821,38.821,0,0,1-9.05,2.2c-.174.018-.357.048-.542.067a40.867,40.867,0,0,1-6,.18c-.186,0-.372-.017-.557-.02a38.821,38.821,0,0,1-4.371-.51C149.4,413.565,149.245,413.539,149.08,413.5Z" transform="translate(-149.08 -410.875)" fill="#281b14"/>
              </g>
            </g>
            <g id="Grupo_1118475" data-name="Grupo 1118475" transform="translate(5.155 47.382)">
              <g id="Grupo_1118474" data-name="Grupo 1118474">
                <path id="Trazado_910487" data-name="Trazado 910487" d="M151.517,426.114c.139.2.289.4.45.591.8.075,1.607.127,2.4.159.186.014.361.017.546.021,1.32.042,2.628.04,3.945-.016.707-.03,1.414-.071,2.119-.134.185-.019.359-.026.543-.056a50.9,50.9,0,0,0,7.424-1.233c.486-.119.992-.249,1.509-.391a2.543,2.543,0,0,0,.162-.29c.071-.134.131-.256.191-.389a1.516,1.516,0,0,1-.2.063c-.6.189-1.206.346-1.789.479a51.162,51.162,0,0,1-7.348,1.219c-.184.03-.369.037-.543.055a50.883,50.883,0,0,1-6.053.15,4.729,4.729,0,0,1-.557-.031C153.377,426.285,152.447,426.216,151.517,426.114Z" transform="translate(-151.517 -424.374)" fill="#281b14"/>
              </g>
            </g>
            <g id="Grupo_1118477" data-name="Grupo 1118477" transform="translate(2.14 1.398)">
              <g id="Grupo_1118476" data-name="Grupo 1118476">
                <path id="Trazado_910488" data-name="Trazado 910488" d="M179.7,330.406v.011a10.362,10.362,0,0,0,1.137.093,3.147,3.147,0,0,0,.546.02c.295.009.589.008.872,0l.2-.009a14.077,14.077,0,0,0,1.681-.2c.184-.03.367-.07.54-.11a11.735,11.735,0,0,0,3.015-1.12,4.063,4.063,0,0,0,.468-.271,2.59,2.59,0,0,0,.372-.223c-.158-.124-.3-.238-.461-.34-.064.035-.117.07-.17.095a5,5,0,0,1-.468.27,11.3,11.3,0,0,1-2.9,1.061c-.173.04-.356.081-.529.11a12.794,12.794,0,0,1-1.583.188c-.359.015-.718.031-1.089.014-.185,0-.371-.006-.556-.02q-.41-.016-.82-.063A5.109,5.109,0,0,0,179.7,330.406Z" transform="translate(-179.698 -328.25)" fill="#281b14"/>
              </g>
            </g>
          </g>
          <g id="Grupo_1118510" data-name="Grupo 1118510" transform="translate(0 3.327)">
            <g id="Grupo_1118480" data-name="Grupo 1118480" transform="translate(0)">
              <g id="Grupo_1118479" data-name="Grupo 1118479">
                <path id="Trazado_910489" data-name="Trazado 910489" d="M222.2,348.849c0,.2,0,.381.011.566.011,1.873.054,3.735.1,5.607v.011c.011.185.011.37.022.555v.011c.011.522.033,1.045.044,1.568.022.98.054,1.971.1,2.951,0,.185,0,.37.011.555.043,1.111.1,2.222.2,3.321.011.207.022.4.044.6a43.506,43.506,0,0,0,.937,6.185,3.135,3.135,0,0,0,.076.3c.044.2.087.381.142.577v.011c0,.011.011.022.011.032.12.436.25.882.392,1.318a15.58,15.58,0,0,0,1.742,3.735c.131.207.272.414.425.61a8.565,8.565,0,0,0,2.45,2.232c.011.011.022.011.033.022a5.541,5.541,0,0,0,.566.294,12.269,12.269,0,0,0,6.086.958c.185-.011.37-.022.544-.043.2-.011.381-.022.566-.044a12.531,12.531,0,0,0,6.119-1.905,8.228,8.228,0,0,0,2.178-2.374,2.415,2.415,0,0,0,.175-.283c.076-.131.142-.25.207-.381a6.76,6.76,0,0,0,.316-.632,12.5,12.5,0,0,0,.817-2.635,16.527,16.527,0,0,0,.283-2.548v-.011c.011-.2.011-.381.011-.577a40.909,40.909,0,0,0-.218-4.312c-.033-.36-.066-.708-.1-1.067-.022-.185-.032-.381-.055-.566-.131-1.3-.272-2.592-.446-3.887-.022-.185-.044-.37-.077-.555-.229-1.72-.5-3.43-.838-5.139-.032-.174-.066-.359-.109-.533-.37-1.916-.828-3.822-1.361-5.695-.055-.185-.1-.359-.163-.544a54.989,54.989,0,0,0-1.971-5.6c-.076-.164-.153-.338-.218-.5a43.194,43.194,0,0,0-2.57-5.053c-.087-.163-.185-.316-.283-.468-.609-1.013-1.274-1.993-1.981-2.94-.1-.152-.218-.3-.327-.446-.011-.011-.022-.033-.033-.044a16.146,16.146,0,0,0-2.2-2.428c-.153-.131-.294-.25-.446-.359-.12-.1-.24-.185-.359-.272a7.809,7.809,0,0,0-.817-.5.261.261,0,0,1-.077-.044h-.01a5.736,5.736,0,0,0-2.951-.741,4.21,4.21,0,0,0-.544.066A4.309,4.309,0,0,0,226.467,329c-.174.174-.348.359-.512.555a8.6,8.6,0,0,0-.73,1.056,5.17,5.17,0,0,0-.272.49v.011h-.011a14.962,14.962,0,0,0-.632,1.394c-.228.566-.424,1.176-.609,1.8-.055.174-.1.348-.142.522a36.081,36.081,0,0,0-.958,5.074c-.022.185-.044.359-.065.533-.109.969-.185,1.883-.229,2.678q-.016.294-.033.555c-.011.37-.021.7-.032.991C222.21,346.05,222.2,347.455,222.2,348.849Z" transform="translate(-222.199 -327.739)" fill="#ffbf5c"/>
              </g>
            </g>
            <g id="Grupo_1118487" data-name="Grupo 1118487" transform="translate(3.756 0.008)">
              <g id="Grupo_1118482" data-name="Grupo 1118482" transform="translate(6.196 0.741)">
                <g id="Grupo_1118481" data-name="Grupo 1118481">
                  <path id="Trazado_910490" data-name="Trazado 910490" d="M224.527,329.3c.2.381.4.762.6,1.154.077.163.164.316.24.479.479.958.926,1.927,1.35,2.9.077.174.153.337.218.5.5,1.154.969,2.3,1.426,3.419.055.163.12.316.185.479,0,.011.011.022.011.033.675,1.71,1.317,3.387,1.905,5.042.066.174.12.337.185.5q1.012,2.825,1.873,5.553c.055.174.109.348.153.522h.011c.577,1.829,1.089,3.626,1.557,5.39.055.174.1.348.142.523.425,1.611.806,3.2,1.132,4.769.044.174.087.359.12.533.283,1.372.544,2.722.762,4.051.033.185.065.37.087.544.294,1.8.522,3.55.686,5.281.022.185.044.37.055.544.174,1.764.272,3.484.316,5.194v.327c.076-.131.142-.25.207-.381a6.755,6.755,0,0,0,.316-.632c-.055-1.535-.152-3.1-.3-4.682-.011-.185-.033-.359-.055-.544-.163-1.731-.392-3.484-.7-5.27a5.07,5.07,0,0,0-.087-.544c-.207-1.317-.468-2.657-.762-4.007a4.807,4.807,0,0,0-.109-.534c-.327-1.579-.719-3.179-1.154-4.813a4.724,4.724,0,0,0-.131-.533h-.011c-.457-1.764-.98-3.561-1.546-5.4l-.164-.522c-.577-1.818-1.2-3.659-1.872-5.542-.065-.175-.131-.338-.2-.512-.6-1.666-1.23-3.364-1.916-5.085,0-.011-.011-.022-.011-.033-.065-.174-.142-.338-.207-.512-.446-1.121-.915-2.254-1.405-3.386-.076-.175-.152-.338-.218-.512-.435-.969-.893-1.949-1.372-2.907-.076-.164-.152-.327-.239-.479-.055-.12-.12-.239-.185-.359a7.822,7.822,0,0,0-.817-.5A.257.257,0,0,1,224.527,329.3Z" transform="translate(-224.527 -329.303)" fill="#281b14"/>
                </g>
              </g>
              <g id="Grupo_1118484" data-name="Grupo 1118484" transform="translate(2.689)">
                <g id="Grupo_1118483" data-name="Grupo 1118483">
                  <path id="Trazado_910491" data-name="Trazado 910491" d="M244.511,327.821c.218.947.425,1.905.632,2.853.044.175.076.359.109.534q.343,1.568.654,3.136c.044.174.076.348.109.533.283,1.383.555,2.766.806,4.16.033.174.065.359.1.544.262,1.372.5,2.754.73,4.137.033.174.066.359.088.533.326,1.938.631,3.876.9,5.825a4.408,4.408,0,0,1,.076.544c.261,1.753.5,3.528.719,5.292.022.185.055.359.066.544.185,1.492.359,2.984.512,4.475.033.185.044.359.065.544.153,1.459.294,2.918.436,4.377.011.185.022.37.044.544q.245,2.809.424,5.619a4.333,4.333,0,0,1,.033.533c.12,1.568.207,3.125.272,4.693a4.756,4.756,0,0,1,.033.544c.055,1.034.1,2.069.131,3.092.185-.011.37-.022.544-.044-.033-1.024-.076-2.058-.131-3.081a4.621,4.621,0,0,0-.033-.544c-.066-1.568-.153-3.136-.272-4.7a4.469,4.469,0,0,0-.033-.533c-.12-1.862-.261-3.735-.435-5.6-.011-.186-.022-.37-.044-.545-.131-1.47-.272-2.929-.425-4.388-.022-.185-.033-.37-.055-.544-.163-1.492-.326-2.984-.522-4.475a4.6,4.6,0,0,0-.066-.544c-.218-1.775-.457-3.55-.707-5.313-.022-.185-.055-.36-.076-.545q-.425-2.923-.915-5.825c-.022-.185-.055-.359-.087-.533-.24-1.416-.479-2.831-.752-4.247a4.543,4.543,0,0,0-.1-.533c-.25-1.372-.512-2.744-.795-4.105a4.684,4.684,0,0,0-.109-.533c-.2-1.045-.414-2.08-.642-3.125-.033-.175-.076-.36-.12-.534-.2-.947-.4-1.883-.621-2.831A4.188,4.188,0,0,0,244.511,327.821Z" transform="translate(-244.511 -327.755)" fill="#281b14"/>
                </g>
              </g>
              <g id="Grupo_1118486" data-name="Grupo 1118486" transform="translate(0 1.252)">
                <g id="Grupo_1118485" data-name="Grupo 1118485">
                  <path id="Trazado_910492" data-name="Trazado 910492" d="M258.372,330.928c.033.381.066.773.088,1.154.022.185.033.36.044.544.087,1.111.163,2.222.239,3.332.011.185.022.359.033.544q.18,2.385.326,4.77c.022.174.033.359.044.533.077,1.1.142,2.21.218,3.321l.033.555c.12,1.883.24,3.756.359,5.64.011.185.021.37.033.555.109,1.786.218,3.571.316,5.357a4.773,4.773,0,0,1,.033.544c.1,1.47.174,2.951.261,4.421.011.185.022.37.022.555.076,1.339.152,2.667.228,4.007.011.185.011.37.033.566.1,1.971.2,3.953.294,5.934.011.174.022.359.033.544.077,1.546.153,3.092.218,4.638q.017.278.033.555c.033.664.066,1.328.087,1.992a5.5,5.5,0,0,0,.566.294c-.033-.751-.077-1.5-.109-2.243-.011-.185-.011-.37-.022-.544l-.229-4.649c-.011-.185-.011-.359-.022-.544-.1-1.971-.207-3.93-.3-5.9q-.016-.278-.032-.555c-.066-1.35-.142-2.711-.218-4.061-.011-.185-.021-.359-.033-.544-.076-1.481-.163-2.951-.251-4.421-.011-.185-.022-.359-.033-.533-.1-1.786-.207-3.572-.316-5.357-.011-.185-.021-.37-.033-.555-.12-1.884-.24-3.778-.359-5.662-.011-.185-.033-.37-.044-.544-.066-1.143-.142-2.287-.218-3.419-.011-.185-.033-.37-.044-.544-.1-1.568-.207-3.125-.316-4.682-.01-.185-.033-.37-.044-.544-.076-1.111-.152-2.211-.239-3.31-.011-.185-.022-.37-.033-.545-.044-.588-.087-1.176-.131-1.753C258.71,330.547,258.536,330.732,258.372,330.928Z" transform="translate(-258.372 -330.373)" fill="#281b14"/>
                </g>
              </g>
            </g>
            <g id="Grupo_1118489" data-name="Grupo 1118489" transform="translate(1.288 3.373)">
              <g id="Grupo_1118488" data-name="Grupo 1118488">
                <path id="Trazado_910493" data-name="Trazado 910493" d="M267.871,363.981a4.893,4.893,0,0,0,0,.555c0,1.143.011,2.287.033,3.419v.577c.033,1.981.076,3.952.131,5.923a2.436,2.436,0,0,0,.011.283.153.153,0,0,0,.065.022c.043.2.087.381.142.577v.011c0,.011.011.022.011.033.12.436.25.882.392,1.318-.022-.424-.033-.849-.044-1.274-.011-.185-.022-.37-.022-.555q-.1-3.087-.131-6.174c-.011-.185-.011-.37-.011-.566-.022-1.165-.033-2.341-.033-3.506a4.5,4.5,0,0,1,0-.544c-.011-1.481-.011-2.972,0-4.464,0-.185,0-.371.011-.555.011-1.818.033-3.626.077-5.445,0-.185.01-.37.01-.555.044-1.775.087-3.56.164-5.346,0-.185,0-.37.011-.555q.05-1.47.131-2.94c0-.185.01-.359.022-.533.065-1.677.153-3.342.251-5.009.01-.174.022-.348.033-.533.066-1.121.131-2.232.207-3.353h-.011a14.97,14.97,0,0,0-.632,1.394c-.033.62-.076,1.252-.109,1.884-.011.174-.022.359-.033.533-.1,1.688-.185,3.376-.251,5.074a4.339,4.339,0,0,0-.022.534c-.055.947-.087,1.905-.12,2.864-.01.185-.021.37-.021.555-.066,1.764-.12,3.528-.153,5.291a5.018,5.018,0,0,0-.011.566c-.054,1.829-.076,3.648-.087,5.477a4.45,4.45,0,0,0,0,.544C267.86,361,267.86,362.489,267.871,363.981Z" transform="translate(-267.863 -334.789)" fill="#281b14"/>
              </g>
            </g>
            <g id="Grupo_1118491" data-name="Grupo 1118491" transform="translate(1.361 4.396)">
              <g id="Grupo_1118490" data-name="Grupo 1118490">
                <path id="Trazado_910494" data-name="Trazado 910494" d="M243.919,339.617a6,6,0,0,0,.61.1,3.128,3.128,0,0,0,.544.076,13.6,13.6,0,0,0,1.644.131,4.667,4.667,0,0,0,.555.022h.066c.153,0,.3,0,.457-.011a19,19,0,0,0,2.711-.272c.175-.032.36-.065.534-.1a19.407,19.407,0,0,0,3.876-1.252,4.178,4.178,0,0,0,.5-.229,13.2,13.2,0,0,0,1.35-.708c-.1-.152-.218-.3-.327-.446a11.14,11.14,0,0,1-1.241.643c-.163.087-.326.163-.5.24a18.338,18.338,0,0,1-3.767,1.219l-.533.1a17.639,17.639,0,0,1-2.613.261c-.185,0-.37.011-.555.011a4.5,4.5,0,0,1-.544-.022,15.152,15.152,0,0,1-1.579-.12c-.185-.022-.359-.044-.544-.076-.163-.022-.327-.054-.5-.087C244.006,339.269,243.963,339.443,243.919,339.617Z" transform="translate(-243.919 -336.928)" fill="#281b14"/>
              </g>
            </g>
            <g id="Grupo_1118493" data-name="Grupo 1118493" transform="translate(0.338 7.782)">
              <g id="Grupo_1118492" data-name="Grupo 1118492">
                <path id="Trazado_910495" data-name="Trazado 910495" d="M239.185,348.918c.457.044.9.076,1.361.1.185,0,.359.01.544.01h.185a19.57,19.57,0,0,0,2.1-.109c.175-.011.359-.032.545-.055.109-.011.218-.033.326-.044a24.772,24.772,0,0,0,3.452-.762l.523-.164a27.414,27.414,0,0,0,4.606-1.96l.49-.261c.675-.37,1.339-.773,2-1.2-.087-.163-.185-.316-.283-.468-.642.414-1.284.795-1.927,1.154-.164.087-.316.174-.479.262a27.717,27.717,0,0,1-4.508,1.938c-.174.055-.348.109-.522.153a22.813,22.813,0,0,1-3.43.762c-.1.011-.2.032-.294.044-.185.022-.37.043-.544.066a22.02,22.02,0,0,1-2.221.109c-.185,0-.359,0-.544-.011-.435-.01-.882-.044-1.317-.1C239.229,348.569,239.207,348.743,239.185,348.918Z" transform="translate(-239.185 -344.007)" fill="#281b14"/>
              </g>
            </g>
            <g id="Grupo_1118495" data-name="Grupo 1118495" transform="translate(0.076 13.303)">
              <g id="Grupo_1118494" data-name="Grupo 1118494">
                <path id="Trazado_910496" data-name="Trazado 910496" d="M233.358,358.171c.49.12.98.207,1.481.283.174.033.359.065.544.087.882.13,1.775.218,2.678.272l.555.033c.479.022.969.033,1.448.033.958,0,1.927-.044,2.886-.131.185-.01.359-.032.544-.055a31.113,31.113,0,0,0,4.377-.773c.511-.131,1.012-.272,1.481-.424.185-.066.359-.12.523-.174a14.834,14.834,0,0,0,2.667-1.274c-.076-.164-.153-.338-.218-.5a13.575,13.575,0,0,1-2.646,1.263c-.163.065-.338.12-.512.185-.457.142-.926.283-1.427.4a30.9,30.9,0,0,1-4.333.762c-.185.022-.36.043-.545.054a31.4,31.4,0,0,1-4.29.087c-.185-.011-.359-.022-.544-.044-.882-.044-1.764-.142-2.635-.272a4.243,4.243,0,0,1-.533-.087,13.423,13.423,0,0,1-1.47-.283Q233.375,357.91,233.358,358.171Z" transform="translate(-233.358 -355.547)" fill="#281b14"/>
              </g>
            </g>
            <g id="Grupo_1118497" data-name="Grupo 1118497" transform="translate(0 19.4)">
              <g id="Grupo_1118496" data-name="Grupo 1118496">
                <path id="Trazado_910497" data-name="Trazado 910497" d="M228.9,370c0,.2,0,.381.011.566.457.142.915.272,1.383.392l.534.131a29.6,29.6,0,0,0,3.244.566c.185.022.37.033.555.055.915.087,1.84.131,2.755.131.719,0,1.448-.022,2.167-.077.185-.011.37-.033.555-.054a28.146,28.146,0,0,0,6.893-1.492H247c.175-.054.349-.12.523-.185a23.749,23.749,0,0,0,2.766-1.2c-.055-.185-.1-.359-.163-.544a23.281,23.281,0,0,1-2.766,1.219c-.174.065-.348.131-.522.185a28.1,28.1,0,0,1-6.816,1.47c-.185.022-.37.044-.555.055a28.045,28.045,0,0,1-4.878-.065c-.185-.011-.37-.032-.555-.055a26.562,26.562,0,0,1-3.2-.566c-.174-.044-.359-.087-.533-.142C229.833,370.285,229.365,370.144,228.9,370Z" transform="translate(-228.897 -368.293)" fill="#281b14"/>
              </g>
            </g>
            <g id="Grupo_1118499" data-name="Grupo 1118499" transform="translate(0.109 25.64)">
              <g id="Grupo_1118498" data-name="Grupo 1118498">
                <path id="Trazado_910498" data-name="Trazado 910498" d="M225.824,382.99c.011.185.011.37.022.555v.011c.392.076.784.163,1.176.229.174.044.359.076.534.109,1.219.218,2.45.37,3.68.468.185.022.37.033.555.043.9.066,1.819.1,2.723.1.882,0,1.753-.033,2.635-.1a4.743,4.743,0,0,0,.544-.033,38.311,38.311,0,0,0,7.829-1.437c.174-.055.338-.109.512-.164.359-.1.708-.218,1.056-.338.479-.163.98-.348,1.492-.566-.032-.174-.066-.359-.109-.533-.533.218-1.067.414-1.568.588-.327.109-.664.218-1,.316h-.011c-.174.065-.338.12-.512.174a38.006,38.006,0,0,1-7.753,1.416,4.49,4.49,0,0,1-.544.033,37.834,37.834,0,0,1-5.324.011c-.185-.022-.37-.033-.555-.055-1.22-.1-2.439-.261-3.637-.479-.185-.033-.37-.066-.544-.1C226.619,383.164,226.216,383.077,225.824,382.99Z" transform="translate(-225.824 -381.335)" fill="#281b14"/>
              </g>
            </g>
            <g id="Grupo_1118501" data-name="Grupo 1118501" transform="translate(0.272 31.312)">
              <g id="Grupo_1118500" data-name="Grupo 1118500">
                <path id="Trazado_910499" data-name="Trazado 910499" d="M223.912,394.26c0,.185,0,.37.011.555.348.066.686.131,1.012.185.185.033.37.065.545.087.261.044.522.077.773.109,1.056.142,2.123.251,3.19.327a4.681,4.681,0,0,0,.555.033c1.078.077,2.156.109,3.234.109.806,0,1.612-.022,2.417-.055l.544-.033a53.236,53.236,0,0,0,8.5-1.154c.174-.044.348-.087.522-.12.741-.175,1.47-.359,2.2-.555-.022-.185-.044-.37-.077-.555-.74.207-1.481.4-2.232.577-.175.033-.36.076-.534.12a52.457,52.457,0,0,1-8.439,1.143c-.185.021-.37.021-.555.032a50.829,50.829,0,0,1-5.619-.055,3.156,3.156,0,0,1-.544-.044c-1.034-.066-2.069-.163-3.1-.3-.272-.033-.544-.077-.838-.12-.175-.033-.36-.054-.545-.1C224.6,394.391,224.26,394.336,223.912,394.26Z" transform="translate(-223.912 -393.193)" fill="#281b14"/>
              </g>
            </g>
            <g id="Grupo_1118503" data-name="Grupo 1118503" transform="translate(0.479 35.755)">
              <g id="Grupo_1118502" data-name="Grupo 1118502">
                <path id="Trazado_910500" data-name="Trazado 910500" d="M222.865,402.981c.011.207.022.4.044.6l.806.262.555.163a34.578,34.578,0,0,0,4.181.936c.185.033.37.055.544.077a34.359,34.359,0,0,0,5.063.37c.272,0,.544,0,.817-.011.174,0,.359-.011.533-.022a34.269,34.269,0,0,0,8.885-1.492,4.844,4.844,0,0,0,.522-.163c.631-.2,1.241-.414,1.851-.654-.022-.185-.033-.381-.055-.566-.62.25-1.252.479-1.884.675a4.841,4.841,0,0,1-.522.163,33.841,33.841,0,0,1-8.841,1.492c-.174.011-.359.022-.533.022a34.205,34.205,0,0,1-5.869-.37,5.051,5.051,0,0,1-.545-.087,31.9,31.9,0,0,1-4.159-.936c-.185-.055-.37-.109-.544-.175C223.431,403.177,223.148,403.089,222.865,402.981Z" transform="translate(-222.865 -402.48)" fill="#281b14"/>
              </g>
            </g>
            <g id="Grupo_1118505" data-name="Grupo 1118505" transform="translate(1.535 41.7)">
              <g id="Grupo_1118504" data-name="Grupo 1118504">
                <path id="Trazado_910501" data-name="Trazado 910501" d="M222.2,416.551c.044.2.087.381.142.577v.011c.12.022.24.055.359.076a38.934,38.934,0,0,0,4.355.686c.175.022.36.033.545.044,1.143.109,2.3.153,3.452.153.86,0,1.709-.033,2.559-.087.185-.011.37-.022.544-.044a38.435,38.435,0,0,0,9.157-1.8c.185-.054.359-.109.533-.174.468-.153.936-.327,1.4-.5v-.011c.011-.2.011-.381.011-.577-.479.2-.969.37-1.47.544-.174.054-.359.12-.533.174a38.818,38.818,0,0,1-9.136,1.808c-.174.011-.359.033-.544.044a40.915,40.915,0,0,1-6-.077c-.185-.011-.37-.033-.555-.044a38.84,38.84,0,0,1-4.344-.7C222.521,416.627,222.369,416.595,222.2,416.551Z" transform="translate(-222.205 -414.907)" fill="#281b14"/>
              </g>
            </g>
            <g id="Grupo_1118507" data-name="Grupo 1118507" transform="translate(3.822 48.103)">
              <g id="Grupo_1118506" data-name="Grupo 1118506">
                <path id="Trazado_910502" data-name="Trazado 910502" d="M225.187,429.205c.131.207.272.414.425.61.795.109,1.6.2,2.4.261.185.022.359.033.544.044,1.317.1,2.624.153,3.942.153.708,0,1.416-.011,2.123-.044.185-.011.359-.011.544-.033a50.938,50.938,0,0,0,7.469-.915c.49-.1,1-.207,1.524-.327a2.455,2.455,0,0,0,.175-.283c.076-.131.142-.25.207-.381a1.433,1.433,0,0,1-.207.054c-.61.164-1.219.294-1.808.4a51.181,51.181,0,0,1-7.393.9c-.185.022-.37.022-.544.032a50.94,50.94,0,0,1-6.054-.109,4.738,4.738,0,0,1-.555-.055C227.038,429.456,226.113,429.347,225.187,429.205Z" transform="translate(-225.187 -428.291)" fill="#281b14"/>
              </g>
            </g>
            <g id="Grupo_1118509" data-name="Grupo 1118509" transform="translate(2.755 1.565)">
              <g id="Grupo_1118508" data-name="Grupo 1118508">
                <path id="Trazado_910503" data-name="Trazado 910503" d="M249.268,332.807v.011a10.34,10.34,0,0,0,1.132.141,3.1,3.1,0,0,0,.544.044c.294.021.588.032.871.032h.2a14.187,14.187,0,0,0,1.688-.131c.185-.022.37-.055.544-.087a11.72,11.72,0,0,0,3.06-.991,3.944,3.944,0,0,0,.479-.25,2.544,2.544,0,0,0,.381-.207c-.153-.131-.294-.25-.446-.359-.066.033-.12.066-.174.087a5,5,0,0,1-.479.251,11.327,11.327,0,0,1-2.94.936c-.174.033-.359.066-.533.087a12.794,12.794,0,0,1-1.59.12c-.36,0-.719,0-1.089-.033-.185-.01-.37-.021-.555-.044q-.409-.032-.817-.1A5.179,5.179,0,0,0,249.268,332.807Z" transform="translate(-249.268 -331.01)" fill="#281b14"/>
              </g>
            </g>
          </g>
        </g>
      </g>
      <g id="Grupo_1118520" data-name="Grupo 1118520" transform="translate(28.77 16.912)">
        <g id="Grupo_1118513" data-name="Grupo 1118513" transform="translate(5.151)">
          <path id="Trazado_910504" data-name="Trazado 910504" d="M287.923,107.026c0-.569-.038-1.129-.085-1.685v-.015h0a19.707,19.707,0,1,0-38.658,6.8c.483,3.4,2.625,20.4,2.625,20.4s15.637,1.19,24.731.85a13.853,13.853,0,0,0,8.056-2.574,8.066,8.066,0,0,0,3.1-6.4l.12-15.274A19.935,19.935,0,0,0,287.923,107.026Z" transform="translate(-248.49 -87.309)" fill="#f08c7b"/>
        </g>
        <g id="Grupo_1118514" data-name="Grupo 1118514" transform="translate(7.275 36.373)">
          <path id="Trazado_910505" data-name="Trazado 910505" d="M296.08,167.337v15.378s4.76,8.96-6.71,11.983-19.292-10.954-19.292-10.954l.089-20.4Z" transform="translate(-270.077 -163.343)" fill="#f08c7b"/>
        </g>
        <g id="Grupo_1118515" data-name="Grupo 1118515" transform="translate(0 25.954)">
          <path id="Trazado_910506" data-name="Trazado 910506" d="M319.455,141.652a6.231,6.231,0,0,0-4.948,4.5,6.065,6.065,0,0,0,2.27,6.266,10.83,10.83,0,0,0,5.455,1.562,5.14,5.14,0,0,0,3.577-.6,3.8,3.8,0,0,0,1.237-1.907C328.638,146.573,324.964,140.771,319.455,141.652Z" transform="translate(-314.336 -141.563)" fill="#f08c7b"/>
        </g>
        <g id="Grupo_1118516" data-name="Grupo 1118516" transform="translate(15.014 45.89)">
          <path id="Trazado_910507" data-name="Trazado 910507" d="M290.388,184.114v5.762l-18.264-6.641,18.184.17Z" transform="translate(-272.124 -183.236)" fill="#281b14"/>
        </g>
        <g id="Grupo_1118519" data-name="Grupo 1118519" transform="translate(21.808 22.351)">
          <g id="Grupo_1118517" data-name="Grupo 1118517">
            <path id="Trazado_910508" data-name="Trazado 910508" d="M291.745,136.028a2,2,0,1,1-2-2A2,2,0,0,1,291.745,136.028Z" transform="translate(-287.75 -134.031)" fill="#281b14"/>
          </g>
          <g id="Grupo_1118518" data-name="Grupo 1118518" transform="translate(16.062)">
            <path id="Trazado_910509" data-name="Trazado 910509" d="M258.169,136.028a2,2,0,1,1-2-2A2,2,0,0,1,258.169,136.028Z" transform="translate(-254.175 -134.031)" fill="#281b14"/>
          </g>
        </g>
      </g>
      <g id="Grupo_1118521" data-name="Grupo 1118521" transform="translate(27.56 19.108)">
        <path id="Trazado_910510" data-name="Trazado 910510" d="M315.243,91.915c2.352.071,3.9,2.6,5.015,4.671a17.689,17.689,0,0,1,2.28,8.614,12.089,12.089,0,0,1-3.212,8.189,20.656,20.656,0,0,1-3.275,2.568l-1.994,5.021-3.984-5.19s-3.243-.093-4.912,2.317c0,0-3.058-8.155-2.409-15.939S307.162,91.67,315.243,91.915Z" transform="translate(-302.66 -91.9)" fill="#281b14"/>
      </g>
      <g id="Grupo_1118522" data-name="Grupo 1118522" transform="translate(36.639 11.53)">
        <path id="Trazado_910511" data-name="Trazado 910511" d="M245.548,86.584A9.646,9.646,0,0,1,255,92.514h26.689s-1.761-13.066-14.364-15.754-23.445,2.873-25.576,7.691Z" transform="translate(-241.749 -76.059)" fill="#281b14"/>
      </g>
      <g id="Grupo_1118525" data-name="Grupo 1118525" transform="translate(57.309 39.071)">
        <g id="Grupo_1118523" data-name="Grupo 1118523" transform="translate(3.487)">
          <path id="Trazado_910512" data-name="Trazado 910512" d="M269.183,142.821a1.685,1.685,0,0,0,.275-.022,2.053,2.053,0,0,0,1.346-.883,4.184,4.184,0,0,0,.485-2.369,29.992,29.992,0,0,0-.387-4.729l-.113-.817a.423.423,0,0,0-.482-.366.429.429,0,0,0-.366.482l.113.819a29,29,0,0,1,.378,4.618,3.444,3.444,0,0,1-.347,1.9,1.184,1.184,0,0,1-.766.5.625.625,0,0,1-.5-.107.428.428,0,1,0-.531.671A1.43,1.43,0,0,0,269.183,142.821Z" transform="translate(-268.124 -133.629)" fill="#281b14"/>
        </g>
        <g id="Grupo_1118524" data-name="Grupo 1118524" transform="translate(0 9.694)">
          <path id="Trazado_910513" data-name="Trazado 910513" d="M274.007,157.011a3.459,3.459,0,0,0,1.915-.573.428.428,0,0,0-.476-.711,2.567,2.567,0,0,1-3.918-1.511.428.428,0,1,0-.83.209,3.476,3.476,0,0,0,2.09,2.362A3.405,3.405,0,0,0,274.007,157.011Z" transform="translate(-270.685 -153.893)" fill="#281b14"/>
        </g>
      </g>
      <g id="Grupo_1118528" data-name="Grupo 1118528" transform="translate(50.043 34.669)">
        <g id="Grupo_1118526" data-name="Grupo 1118526" transform="translate(0)">
          <path id="Trazado_910514" data-name="Trazado 910514" d="M286.24,126.872a.425.425,0,0,0,.351-.183,3.3,3.3,0,0,1,4.073-1.106.428.428,0,1,0,.356-.778,4.153,4.153,0,0,0-5.13,1.394.427.427,0,0,0,.1.6A.422.422,0,0,0,286.24,126.872Z" transform="translate(-285.812 -124.428)" fill="#281b14"/>
        </g>
        <g id="Grupo_1118527" data-name="Grupo 1118527" transform="translate(16.862 0.003)">
          <path id="Trazado_910515" data-name="Trazado 910515" d="M255.887,126.834a.421.421,0,0,0,.231-.068.427.427,0,0,0,.129-.591,3.8,3.8,0,0,0-2.175-1.55,5.806,5.806,0,0,0-2.589-.087.428.428,0,0,0-.35.495.433.433,0,0,0,.494.35,4.946,4.946,0,0,1,2.209.066,2.989,2.989,0,0,1,1.691,1.19A.426.426,0,0,0,255.887,126.834Z" transform="translate(-251.125 -124.433)" fill="#281b14"/>
        </g>
      </g>
      <g id="Grupo_1118534" data-name="Grupo 1118534" transform="translate(9.488 170.514)">
        <g id="Grupo_1118529" data-name="Grupo 1118529" transform="translate(12.232)">
          <path id="Trazado_910516" data-name="Trazado 910516" d="M68.463,408.394l-2.595,42.313h139V408.394Z" transform="translate(-65.868 -408.394)" fill="#6e3121"/>
        </g>
        <g id="Grupo_1118530" data-name="Grupo 1118530" transform="translate(0)">
          <rect id="Rectángulo_405106" data-name="Rectángulo 405106" width="30.019" height="42.313" fill="#281b14"/>
        </g>
        <g id="Grupo_1118533" data-name="Grupo 1118533" transform="translate(6.902 12.087)">
          <g id="Grupo_1118531" data-name="Grupo 1118531" transform="translate(0.265)">
            <path id="Trazado_910517" data-name="Trazado 910517" d="M65.212,436.164h0L208.958,434.5a.418.418,0,0,0,0-.836h0L65.207,435.329a.418.418,0,0,0,0,.836Z" transform="translate(-64.794 -433.661)" fill="#281b14"/>
          </g>
          <g id="Grupo_1118532" data-name="Grupo 1118532" transform="translate(0 16.68)">
            <path id="Trazado_910518" data-name="Trazado 910518" d="M65.765,469.642h0l143.741-.278a.418.418,0,0,0,0-.836h0l-143.741.278a.418.418,0,0,0,0,.836Z" transform="translate(-65.347 -468.528)" fill="#281b14"/>
          </g>
        </g>
      </g>
      <g id="Grupo_1118541" data-name="Grupo 1118541" transform="translate(30.43 164.485)">
        <g id="Grupo_1118539" data-name="Grupo 1118539">
          <g id="Grupo_1118535" data-name="Grupo 1118535">
            <path id="Trazado_910519" data-name="Trazado 910519" d="M276.162,395.792s2.409,1.946,8.155,6.394c5.294,4.1,14.914,12.883,14.086,13.9s-14.815-6.863-14.815-6.863a23.582,23.582,0,0,0,5.2,7.922c3.45,3.23,8.744,6.272,8.577,7.5s-5.894-.489-5.894-.489,2.873,2.4.857,3.379-6.12-1.586-6.12-1.586,2.391,2.71,1.252,3.244-4.261-1.73-10.527-5.469-14.944-9.588-14.944-9.588Z" transform="translate(-261.984 -395.792)" fill="#f08c7b"/>
          </g>
          <g id="Grupo_1118536" data-name="Grupo 1118536" transform="translate(1.367 16.193)">
            <path id="Trazado_910520" data-name="Trazado 910520" d="M308.156,439.025s7.159,6.672,6.6,7.784S295.924,432.7,295.924,432.7l2.433-3.058,9.522,9.105Z" transform="translate(-295.924 -429.642)" fill="#f08c7b"/>
          </g>
          <g id="Grupo_1118537" data-name="Grupo 1118537" transform="translate(17.92 10.765)">
            <path id="Trazado_910521" data-name="Trazado 910521" d="M279.044,437.595a3.7,3.7,0,0,0,1.359-.213,1.223,1.223,0,0,0,.832-.919c.17-.94-1.1-1.893-3.766-3.791a32.9,32.9,0,0,1-5.876-4.909,30.676,30.676,0,0,1-4.757-9.166.428.428,0,0,0-.819.25,30.979,30.979,0,0,0,4.919,9.467,33.559,33.559,0,0,0,6.035,5.055c1.394.993,3.5,2.494,3.421,2.941-.02.109-.125.2-.313.278-1.216.5-4.49-.2-6.732-1.792-2.327-1.659-7.17-5.111-9.189-8.667a.428.428,0,1,0-.744.423c2.113,3.72,7.06,7.246,9.437,8.941A11.645,11.645,0,0,0,279.044,437.595Z" transform="translate(-263.358 -418.294)" fill="#281b14"/>
          </g>
          <g id="Grupo_1118538" data-name="Grupo 1118538" transform="translate(13.866 21.072)">
            <path id="Trazado_910522" data-name="Trazado 910522" d="M287.676,451.35a3.311,3.311,0,0,0,1.694-.464,1.474,1.474,0,0,0,.784-1.1,3.61,3.61,0,0,0-1.15-2.453.428.428,0,0,0-.606.605c.26.261.985,1.141.906,1.737a.622.622,0,0,1-.364.472c-1.513.874-3.275.18-7.254-2.852a96.2,96.2,0,0,1-8.273-7.326.428.428,0,0,0-.608.6,97.3,97.3,0,0,0,8.362,7.4C283.979,450.115,285.975,451.35,287.676,451.35Z" transform="translate(-272.683 -439.841)" fill="#281b14"/>
          </g>
        </g>
        <g id="Grupo_1118540" data-name="Grupo 1118540" transform="translate(9.904 22.437)">
          <path id="Trazado_910523" data-name="Trazado 910523" d="M298.481,454.232a1.241,1.241,0,0,0,.784-.232,1.211,1.211,0,0,0,.468-.886c.088-1.188-1.356-2.745-1.521-2.919a.428.428,0,0,0-.621.59,4.4,4.4,0,0,1,1.288,2.266.351.351,0,0,1-.142.274c-.406.32-2.708-.3-8.492-4.907a55.019,55.019,0,0,1-6.064-5.58.428.428,0,0,0-.638.571,55.926,55.926,0,0,0,6.169,5.679C294.009,452.508,296.948,454.232,298.481,454.232Z" transform="translate(-283.435 -442.695)" fill="#281b14"/>
        </g>
      </g>
      <g id="Grupo_1118542" data-name="Grupo 1118542" transform="translate(0 111.294)">
        <path id="Trazado_910524" data-name="Trazado 910524" d="M300.824,284.6a131.615,131.615,0,0,0,1.112,39.2c3.892,20.572,28.634,36.7,28.634,36.7l18.07-20.85s-20.572-12.51-21.963-38.365Z" transform="translate(-299.862 -284.602)" fill="#625970"/>
      </g>
      <g id="Grupo_1118543" data-name="Grupo 1118543" transform="translate(23.886 108.92)">
        <path id="Trazado_910525" data-name="Trazado 910525" d="M323.859,337.486a.428.428,0,0,0,.233-.788c-.121-.078-12.186-7.931-16.9-17.893-4.731-10.008-7.348-38.49-7.374-38.775a.428.428,0,1,0-.853.077c.106,1.176,2.657,28.919,7.453,39.065,4.816,10.187,17.083,18.168,17.206,18.247A.425.425,0,0,0,323.859,337.486Z" transform="translate(-298.967 -279.639)" fill="#281b14"/>
      </g>
    </g>
  </g>
</svg>
