<svg xmlns="http://www.w3.org/2000/svg" width="127" height="349.496" viewBox="0 0 127 349.496">
  <g id="Grupo_1199760" data-name="Grupo 1199760" transform="translate(-180.051 -17867)">
    <rect id="Rectángulo_408566" data-name="Rectángulo 408566" width="127" height="349.497" rx="8" transform="translate(180.051 17867)" fill="#19793a"/>
    <g id="Artwork" transform="translate(191.406 17989.355)">
      <path id="Trazado_1031916" data-name="Trazado 1031916" d="M71.583,179.561l-11.3-16.042a4.311,4.311,0,0,0-3.522-1.827H22.1a4.311,4.311,0,0,0-3.522,1.827l-11.3,16.042A4.286,4.286,0,0,0,6.5,182.04v17.425a4.311,4.311,0,0,0,4.307,4.306H68.061a4.311,4.311,0,0,0,4.307-4.306V182.04A4.284,4.284,0,0,0,71.583,179.561Z" transform="translate(0 -105.636)" fill="#f5ba4e"/>
      <path id="Trazado_1031917" data-name="Trazado 1031917" d="M72.369,199.465v-3.241c-35.152-.773-46.237-27.706-48.486-34.533H22.1a4.311,4.311,0,0,0-3.522,1.827l-11.3,16.042A4.286,4.286,0,0,0,6.5,182.04v17.426a4.311,4.311,0,0,0,4.307,4.306H68.061A4.311,4.311,0,0,0,72.369,199.465Z" transform="translate(0 -105.636)" fill="#ebae3f"/>
      <path id="Trazado_1031918" data-name="Trazado 1031918" d="M83.746,202.654v-21.56a3.545,3.545,0,0,0-3.543-3.542H77.617l3.394-14.811a4.311,4.311,0,0,0-2.817-1.05H71.3l-5.131,15.861H55.559l-5.132-15.861h-6.9a4.312,4.312,0,0,0-2.817,1.05l3.394,14.811H41.52a3.544,3.544,0,0,0-3.542,3.542v21.56a1.118,1.118,0,0,0,1.118,1.118H82.628A1.118,1.118,0,0,0,83.746,202.654Z" transform="translate(-21.427 -105.637)" fill="#a6675a"/>
      <path id="Trazado_1031919" data-name="Trazado 1031919" d="M53.086,63.812a5.892,5.892,0,1,0,0,11.783A1.118,1.118,0,0,0,54.2,74.477V64.93a1.118,1.118,0,0,0-1.118-1.118Z" transform="translate(-27.7 -39.011)" fill="#f0b6aa"/>
      <path id="Trazado_1031920" data-name="Trazado 1031920" d="M83.742,236.768v-4.9C50.8,230.31,42.467,216.7,40.529,211.809a3.545,3.545,0,0,0-2.557,3.4v21.56a1.118,1.118,0,0,0,1.118,1.118H82.624A1.117,1.117,0,0,0,83.742,236.768Z" transform="translate(-21.422 -139.75)" fill="#9c5d50"/>
      <path id="Trazado_1031921" data-name="Trazado 1031921" d="M154.828,74.834a1.118,1.118,0,0,0-1.061-.766H148.5a1.118,1.118,0,0,0-1.11,1.245l.728,6.274a1.118,1.118,0,0,0,1.11.99,5.9,5.9,0,0,0,5.6-7.743Z" transform="translate(-95.899 -45.992)" fill="#f0b6aa"/>
      <path id="Trazado_1031922" data-name="Trazado 1031922" d="M93.841,246.307H78.553A3.357,3.357,0,0,0,75.2,249.66v10.59a1.118,1.118,0,0,0,1.118,1.118H96.075a1.118,1.118,0,0,0,1.118-1.118V249.66A3.357,3.357,0,0,0,93.841,246.307Z" transform="translate(-46.763 -163.232)" fill="#8f5a4e"/>
      <path id="Trazado_1031923" data-name="Trazado 1031923" d="M97.2,261.724v-6.116c-9.344-1.539-15.976-4.213-20.671-7.136a3.347,3.347,0,0,0-1.322,2.662v10.59a1.118,1.118,0,0,0,1.118,1.118H96.078A1.118,1.118,0,0,0,97.2,261.724Z" transform="translate(-46.765 -164.706)" fill="#825247"/>
      <path id="Trazado_1031924" data-name="Trazado 1031924" d="M79.151,6.5A15,15,0,0,0,64.906,16.75a1.118,1.118,0,0,0,.881,1.457c28.345,4.606,27.091,4.421,27.263,4.421a1.118,1.118,0,0,0,1.118-1.118A15.031,15.031,0,0,0,79.151,6.5Z" transform="translate(-39.717 0)" fill="#f5d08c"/>
      <path id="Trazado_1031925" data-name="Trazado 1031925" d="M91.724,62.387l-27.8-4.94a1.118,1.118,0,0,0-1.313,1.1V71.895a15.016,15.016,0,1,0,30.032,0V63.487A1.118,1.118,0,0,0,91.724,62.387Z" transform="translate(-38.196 -34.667)" fill="#f7ccc1"/>
      <path id="Trazado_1031926" data-name="Trazado 1031926" d="M104.564,64.208l-23.087-4.1V69.94a15.028,15.028,0,0,0,19.738,14.248,14.958,14.958,0,0,0,4.271-10.471V65.308A1.118,1.118,0,0,0,104.564,64.208Z" transform="translate(-51.036 -36.488)" fill="#ffdad1"/>
      <path id="Trazado_1031927" data-name="Trazado 1031927" d="M94.167,24.3a15.034,15.034,0,0,0-.192-2.38C81.327,23.305,75.451,15.039,73.014,10.6a14.987,14.987,0,0,0-8.108,8.941A1.118,1.118,0,0,0,65.787,21L92.87,25.4a1.118,1.118,0,0,0,1.3-1.1Z" transform="translate(-39.717 -2.791)" fill="#f2c777"/>
      <path id="Trazado_1031928" data-name="Trazado 1031928" d="M79.787,40.739c-16.872-.5-18.865-4.83-35.923-5.365a4.532,4.532,0,0,0-.269,9.061c16.871.5,18.865,4.83,35.923,5.365a4.532,4.532,0,1,0,.269-9.061Z" transform="translate(-22.256 -19.653)" fill="#f5ba4e"/>
      <path id="Trazado_1031929" data-name="Trazado 1031929" d="M70.389,22.835H83.131a1.118,1.118,0,1,0,0-2.235H72.194A14.947,14.947,0,0,0,70.389,22.835Z" transform="translate(-43.488 -9.598)" fill="#f5ba4e"/>
      <path id="Trazado_1031930" data-name="Trazado 1031930" d="M78.82,20.6H72.2a15.036,15.036,0,0,0-1.809,2.235H80.694A23.4,23.4,0,0,1,78.82,20.6Z" transform="translate(-43.488 -9.598)" fill="#ebad3d"/>
      <path id="Trazado_1031931" data-name="Trazado 1031931" d="M132.035,34.988h-8.649a1.118,1.118,0,1,0,0,2.235h9.408A14.914,14.914,0,0,0,132.035,34.988Z" transform="translate(-78.802 -19.391)" fill="#f5ba4e"/>
      <path id="Trazado_1031932" data-name="Trazado 1031932" d="M244.659,138.678h-6.738A1.118,1.118,0,0,0,236.8,139.8V151.04a.975.975,0,0,1-.974.974h-2.494a.975.975,0,0,1-.974-.974V139.8a1.118,1.118,0,0,0-1.118-1.118h-6.738a1.118,1.118,0,0,0-1.118,1.118v11.171a8.92,8.92,0,0,0,7.788,8.836v7.231a1.118,1.118,0,0,0,1.118,1.118h4.577a1.118,1.118,0,0,0,1.118-1.118V159.8a8.92,8.92,0,0,0,7.788-8.836V139.8A1.118,1.118,0,0,0,244.659,138.678Z" transform="translate(-147.633 -89.971)" fill="#d1d4de"/>
      <path id="Trazado_1031933" data-name="Trazado 1031933" d="M59.345,229.046H55.2a1.118,1.118,0,0,1,0-2.235h4.145a1.118,1.118,0,1,1,0,2.235Z" transform="translate(-32.389 -149.962)" fill="#8f5a4e"/>
      <path id="Trazado_1031934" data-name="Trazado 1031934" d="M150.482,229.046h-4.145a1.118,1.118,0,0,1,0-2.235h4.145a1.118,1.118,0,1,1,0,2.235Z" transform="translate(-94.424 -149.962)" fill="#8f5a4e"/>
      <path id="Trazado_1031935" data-name="Trazado 1031935" d="M251.467,223.976H243.35a1.118,1.118,0,0,0-1.118,1.118v16.054a5.034,5.034,0,0,0,5.029,5.029h.3a5.034,5.034,0,0,0,5.029-5.029V225.094A1.118,1.118,0,0,0,251.467,223.976Z" transform="translate(-160.459 -148.032)" fill="#e8ebf7"/>
      <path id="Trazado_1031936" data-name="Trazado 1031936" d="M243.35,223.976a1.118,1.118,0,0,0-1.118,1.118v16.054a5.034,5.034,0,0,0,5.029,5.029h.3a5.033,5.033,0,0,0,4.854-3.734c-9.141-3.687-8.407-18.466-8.407-18.466Z" transform="translate(-160.459 -148.032)" fill="#e1e4f0"/>
      <path id="Trazado_1031937" data-name="Trazado 1031937" d="M242.232,255.238h10.353v6.837H242.232Z" transform="translate(-160.459 -169.312)" fill="#d1d4de"/>
      <path id="Trazado_1031938" data-name="Trazado 1031938" d="M244.991,255.238h-2.759v6.837h6.137A17.2,17.2,0,0,1,244.991,255.238Z" transform="translate(-160.459 -169.312)" fill="#c7cad4"/>
      <path id="Trazado_1031939" data-name="Trazado 1031939" d="M256.06,76.327a1.118,1.118,0,0,1-1.118-1.118V52.553a1.118,1.118,0,1,1,2.235,0V75.209A1.118,1.118,0,0,1,256.06,76.327Z" transform="translate(-169.11 -30.586)" fill="#e8b65b"/>
      <g id="Grupo_1199757" data-name="Grupo 1199757" transform="translate(76.198 8.056)">
        <ellipse id="Elipse_12163" data-name="Elipse 12163" cx="2.761" cy="7.602" rx="2.761" ry="7.602" transform="translate(7.991 0)" fill="#f5c876"/>
        <path id="Trazado_1031940" data-name="Trazado 1031940" d="M245.769,94.163a10.116,10.116,0,0,0-9.619,5.538,10.054,10.054,0,0,0-9.619-5.538,1.094,1.094,0,0,0-1.08,1.107,10.026,10.026,0,0,0,9.885,10.137h1.625a10.025,10.025,0,0,0,9.886-10.137A1.094,1.094,0,0,0,245.769,94.163Z" transform="translate(-225.235 -67.723)" fill="#f5c876"/>
        <path id="Trazado_1031941" data-name="Trazado 1031941" d="M245.493,55.167c-.124.034-6.68-.6-9.809,5.43-3.146-6.064-9.659-5.389-9.809-5.43a1.094,1.094,0,0,0-1.1,1.086,10.022,10.022,0,0,0,10.082,9.938h1.659a10.022,10.022,0,0,0,10.081-9.938A1.094,1.094,0,0,0,245.493,55.167Z" transform="translate(-224.773 -41.179)" fill="#f5c876"/>
      </g>
      <path id="Trazado_1031942" data-name="Trazado 1031942" d="M83.529,47.613C60.3,45.086,50.538,39.253,46.555,35.495c-.857-.052-1.752-.094-2.694-.124a4.532,4.532,0,1,0-.269,9.061c16.871.5,18.865,4.83,35.923,5.365A4.5,4.5,0,0,0,83.529,47.613Z" transform="translate(-22.254 -19.65)" fill="#ebad3d"/>
      <path id="Trazado_1031943" data-name="Trazado 1031943" d="M244.685,138.68v0h-6.8v0a1.116,1.116,0,0,0-1.075,1.113V151.04a.975.975,0,0,1-.974.974h-2.494a.975.975,0,0,1-.974-.974V139.8a1.118,1.118,0,0,0-1.118-1.118c-.027,0-.052.006-.078.008v-.008h-6.8v.014a1.114,1.114,0,0,0-.974,1.1v11.171a8.92,8.92,0,0,0,7.788,8.836v6.113h-.653a1.118,1.118,0,0,0-1.118,1.118v16.054a5.034,5.034,0,0,0,5.026,5.029h.3a5.034,5.034,0,0,0,5.029-5.029V167.033a1.118,1.118,0,0,0-1.118-1.118h-.653V159.8a8.919,8.919,0,0,0,7.788-8.836V139.8A1.118,1.118,0,0,0,244.685,138.68Zm-7.158,44.407c0,3.727-5.882,3.731-5.882,0v-.351h5.882Zm0-2.586h-5.882v-2.366h5.882Zm0-4.6h-5.882V168.15h5.882Zm-.653-18.261a1.118,1.118,0,0,0-1.118,1.118v7.161h-2.342v-7.162a1.118,1.118,0,0,0-1.118-1.118,6.678,6.678,0,0,1-6.67-6.67V140.913h4.5V151.04a3.213,3.213,0,0,0,3.209,3.209h2.494a3.213,3.213,0,0,0,3.209-3.209V140.913h4.5v10.053a6.678,6.678,0,0,1-6.67,6.67Z" transform="translate(-147.637 -89.971)"/>
      <path id="Trazado_1031944" data-name="Trazado 1031944" d="M43.592,24.786c1.029.03,2,.074,2.92.131a5.887,5.887,0,0,0,.16,11.586v.73a15.016,15.016,0,1,0,30.032,0V36.48A5.9,5.9,0,0,0,81.41,29.8a4.534,4.534,0,0,0-1.626-8.71c-1.094-.032-2.122-.08-3.095-.142A15.015,15.015,0,0,0,47.75,15.929c-1.21-.091-2.5-.16-3.889-.2a4.532,4.532,0,1,0-.269,9.061Zm3.08,9.436a3.651,3.651,0,0,1,0-7.045Zm27.8,3.013a12.781,12.781,0,1,1-25.562,0V25.1c10.609.978,14.556,3.759,25.562,4.751ZM76.7,34.179V30.02q1.195.074,2.5.12a3.658,3.658,0,0,1-2.5,4.037ZM51.944,13.242H61.9a1.118,1.118,0,1,0,0-2.235H54.415a12.784,12.784,0,0,1,18.6,4.594H66.839a1.118,1.118,0,0,0,0,2.235h7.089a12.709,12.709,0,0,1,.52,2.938c-10.265-.95-14.178-3.549-24.356-4.634a12.732,12.732,0,0,1,1.852-2.9Zm-8.228,4.716h.074c1.666.052,3.178.141,4.574.26h.019c12.641,1.074,15.863,4.649,31.336,5.1a2.3,2.3,0,1,1-.133,4.593c-16.7-.525-18.792-4.862-35.928-5.365a2.3,2.3,0,1,1,.058-4.594Z" transform="translate(-22.254 -0.004)"/>
      <path id="Trazado_1031945" data-name="Trazado 1031945" d="M59.345,226.811H55.2a1.118,1.118,0,0,0,0,2.235h4.145a1.118,1.118,0,1,0,0-2.235Z" transform="translate(-32.389 -149.962)"/>
      <path id="Trazado_1031946" data-name="Trazado 1031946" d="M234.408,36.529v4.726a10.632,10.632,0,0,0-8.471-3.868,1.118,1.118,0,0,0-1.156,1.078,10.24,10.24,0,0,0,9.865,10.579c1.089.038.615.03,1.721.03a10.24,10.24,0,0,0,10.228-10.228,1.118,1.118,0,0,0-1.118-1.118,10.392,10.392,0,0,0-8.835,3.857v-5.02a10.238,10.238,0,0,0,9.952-10.221,1.118,1.118,0,0,0-1.118-1.118,10.392,10.392,0,0,0-8.835,3.857V26.1a8.334,8.334,0,0,0-.587-14.573,1.119,1.119,0,0,0-1.061,0,8.335,8.335,0,0,0-.587,14.573v2.647a10.637,10.637,0,0,0-8.471-3.866,1.118,1.118,0,0,0-1.156,1.078,10.238,10.238,0,0,0,9.627,10.565Zm-7.354,3.142a7.991,7.991,0,0,1,7.315,7.121,8.007,8.007,0,0,1-7.315-7.121Zm17.227.3a8.007,8.007,0,0,1-7.559,6.86,8.007,8.007,0,0,1,7.559-6.86Zm0-12.5a8.007,8.007,0,0,1-7.559,6.86,8.006,8.006,0,0,1,7.559-6.86Zm-8.756-13.654a6.075,6.075,0,0,1,0,10.351,6.076,6.076,0,0,1,0-10.352ZM234.369,34.29a8.007,8.007,0,0,1-7.316-7.121,7.991,7.991,0,0,1,7.316,7.12Z" transform="translate(-148.576 -3.334)"/>
      <path id="Trazado_1031947" data-name="Trazado 1031947" d="M60.288,163.519a4.311,4.311,0,0,0-3.522-1.827H22.1a4.311,4.311,0,0,0-3.522,1.827l-11.3,16.042A4.286,4.286,0,0,0,6.5,182.04v17.425a4.311,4.311,0,0,0,4.307,4.306H68.061a4.311,4.311,0,0,0,4.307-4.306V182.04a4.284,4.284,0,0,0-.785-2.479Zm-11.144.408-4.408,13.626h-10.6l-4.409-13.626ZM16.55,181.094v20.442H10.807a2.076,2.076,0,0,1-2.072-2.071V182.04a2.058,2.058,0,0,1,.378-1.192l10.8-15.345,2.762,12.05H20.093A3.544,3.544,0,0,0,16.55,181.094Zm31.644,20.442H30.672v-9.473a1.118,1.118,0,0,1,1.118-1.118H47.077a1.118,1.118,0,0,1,1.118,1.118Zm11.889,0H50.43v-9.473a3.357,3.357,0,0,0-3.353-3.353H31.79a3.357,3.357,0,0,0-3.353,3.353v9.473H18.785V181.094a1.309,1.309,0,0,1,1.307-1.306h3.991a1.118,1.118,0,0,0,1.09-1.367l-3.32-14.479a2.078,2.078,0,0,1,.249-.015h5.272l4.882,15.087a1.118,1.118,0,0,0,1.063.774h12.23a1.118,1.118,0,0,0,1.063-.774l4.881-15.087h5.272a2.081,2.081,0,0,1,.249.015L53.7,178.421a1.118,1.118,0,0,0,1.089,1.367h3.991a1.309,1.309,0,0,1,1.307,1.306Zm10.049-2.071a2.074,2.074,0,0,1-2.072,2.071H62.319V181.094a3.544,3.544,0,0,0-3.542-3.542H56.19l2.762-12.05,10.8,15.345a2.062,2.062,0,0,1,.377,1.192Z" transform="translate(0 -105.636)"/>
      <path id="Trazado_1031948" data-name="Trazado 1031948" d="M150.482,226.811h-4.145a1.118,1.118,0,0,0,0,2.235h4.145a1.118,1.118,0,1,0,0-2.235Z" transform="translate(-94.424 -149.962)"/>
    </g>
  </g>
</svg>
