<svg xmlns="http://www.w3.org/2000/svg" width="127" height="180.381" viewBox="0 0 127 180.381">
  <g id="Grupo_1199664" data-name="Grupo 1199664" transform="translate(-600 -4026.499)">
    <g id="Grupo_1199445" data-name="Grupo 1199445" transform="translate(600 4026.499)">
      <path id="Trazado_902293" data-name="Trazado 902293" d="M12,0H115c6.627,0,12,6.854,12,15.31V165.071c0,8.455-5.373,15.31-12,15.31H12c-6.627,0-12-6.854-12-15.31V15.31C0,6.854,5.373,0,12,0Z" fill="#f6bc84"/>
    </g>
    <g id="environmental-regulations_18780449_4_" data-name="environmental-regulations_18780449 (4)" transform="translate(615.27 4084.613)">
      <g id="Grupo_1199663" data-name="Grupo 1199663" transform="translate(14.948 1.138)">
        <path id="Trazado_1031621" data-name="Trazado 1031621" d="M51.839,8.01H29.3a7.5,7.5,0,0,0-7.48,7.477v9.936H51.84V8.01Z" transform="translate(-21.82 -8.01)" fill="#8bd7fa" fill-rule="evenodd"/>
        <path id="Trazado_1031622" data-name="Trazado 1031622" d="M126.05,8.01a7.5,7.5,0,0,1,7.477,7.477V78.5H81.917V15.487A7.5,7.5,0,0,0,74.44,8.01Z" transform="translate(-66.962 -8.01)" fill="#daeafa" fill-rule="evenodd"/>
        <path id="Trazado_1031623" data-name="Trazado 1031623" d="M259.063,191.53H270.7a1.437,1.437,0,0,1,1.431,1.431v3.512h-14.5v-3.512A1.439,1.439,0,0,1,259.063,191.53Z" transform="translate(-224.117 -165.448)" fill="#223c55" fill-rule="evenodd"/>
        <path id="Trazado_1031624" data-name="Trazado 1031624" d="M287.4,37.51a3.517,3.517,0,1,1-3.516,3.516A3.519,3.519,0,0,1,287.4,37.51Z" transform="translate(-246.636 -33.317)" fill="#986b54" fill-rule="evenodd"/>
        <path id="Trazado_1031625" data-name="Trazado 1031625" d="M188.05,318.73a17.89,17.89,0,0,0,16.692,22.135c1.232-5.037,3.336-11.57-3.093-15.031-6.024-2.85-9.7-2.474-13.6-7.1Z" transform="translate(-163.984 -274.57)" fill="#70da40" fill-rule="evenodd"/>
        <path id="Trazado_1031626" data-name="Trazado 1031626" d="M284.435,389.451a18.451,18.451,0,0,0,2.4.254c1.123-4.595,2.972-10.429-1.587-14.046a10.108,10.108,0,0,0-2.005,5.834A27.865,27.865,0,0,0,284.435,389.451Z" transform="translate(-246.079 -323.409)" fill="#65c43a" fill-rule="evenodd"/>
        <path id="Trazado_1031627" data-name="Trazado 1031627" d="M317.259,318.73a17.89,17.89,0,0,1-16.7,22.135c-1.228-5.037-3.336-11.57,3.1-15.031C309.684,322.985,313.352,323.36,317.259,318.73Z" transform="translate(-259.801 -274.57)" fill="#70da40" fill-rule="evenodd"/>
        <path id="Trazado_1031628" data-name="Trazado 1031628" d="M307.393,415.169c-.431.047-.86.082-1.295.1-.134-.547-.277-1.11-.418-1.69a27.493,27.493,0,0,1,2.663-3.887,20.494,20.494,0,0,1,4.36-4.048,1.134,1.134,0,0,1,1.251,1.893,18.1,18.1,0,0,0-3.86,3.594A25.321,25.321,0,0,0,307.393,415.169Z" transform="translate(-265.338 -348.971)" fill="#70da40" fill-rule="evenodd"/>
        <path id="Trazado_1031629" data-name="Trazado 1031629" d="M389.712,41.33A2.972,2.972,0,1,1,386.74,44.3,2.971,2.971,0,0,1,389.712,41.33Z" transform="translate(-334.877 -36.595)" fill="#986b54" fill-rule="evenodd"/>
        <path id="Trazado_1031630" data-name="Trazado 1031630" d="M191.692,41.33A2.972,2.972,0,1,1,188.72,44.3,2.972,2.972,0,0,1,191.692,41.33Z" transform="translate(-165 -36.595)" fill="#986b54" fill-rule="evenodd"/>
        <path id="Trazado_1031631" data-name="Trazado 1031631" d="M377.66,138.51h-11.9v2.385a2.4,2.4,0,0,0,2.389,2.389h7.124a2.4,2.4,0,0,0,2.385-2.389V138.51Z" transform="translate(-316.879 -119.963)" fill="#fea832" fill-rule="evenodd"/>
        <path id="Trazado_1031632" data-name="Trazado 1031632" d="M179.67,138.51h-11.9v2.385a2.393,2.393,0,0,0,2.385,2.389h7.124a2.4,2.4,0,0,0,2.389-2.389V138.51Z" transform="translate(-147.028 -119.963)" fill="#fea832" fill-rule="evenodd"/>
        <path id="Trazado_1031633" data-name="Trazado 1031633" d="M70.474,15.487v9.936h2.847V15.487A7.494,7.494,0,0,0,65.88,8.01h-.036a7.456,7.456,0,0,0-1.424.136,7.507,7.507,0,0,1,6.054,7.341Z" transform="translate(-58.366 -8.01)" fill="#7dc2e1" fill-rule="evenodd"/>
        <path id="Trazado_1031634" data-name="Trazado 1031634" d="M170,139.771V138.52H167.77V140.9a2.393,2.393,0,0,0,2.385,2.389h2.228a2.4,2.4,0,0,1-2.389-2.389v-1.134Z" transform="translate(-147.028 -119.972)" fill="#e5972d" fill-rule="evenodd"/>
        <path id="Trazado_1031635" data-name="Trazado 1031635" d="M365.77,138.51v2.385a2.4,2.4,0,0,0,2.389,2.389h2.226A2.4,2.4,0,0,1,368,140.895V138.51H365.77Z" transform="translate(-316.888 -119.963)" fill="#e5972d" fill-rule="evenodd"/>
        <path id="Trazado_1031636" data-name="Trazado 1031636" d="M259.868,196.473v-3.512a1.434,1.434,0,0,1,1.431-1.431h-2.228a1.437,1.437,0,0,0-1.431,1.431v3.512Z" transform="translate(-224.125 -165.448)" fill="#1f364d" fill-rule="evenodd"/>
        <path id="Trazado_1031637" data-name="Trazado 1031637" d="M190.13,44.293a2.972,2.972,0,0,1,2.26-2.886,2.971,2.971,0,1,0-.706,5.857,2.767,2.767,0,0,0,.708-.087,2.968,2.968,0,0,1-2.261-2.884Z" transform="translate(-164.992 -36.586)" fill="#89604c" fill-rule="evenodd"/>
        <path id="Trazado_1031638" data-name="Trazado 1031638" d="M287.4,37.51a3.513,3.513,0,0,0-3.327,2.378,3.515,3.515,0,0,0,4.04,4.585,3.493,3.493,0,0,1-1.846-1.025,3.612,3.612,0,0,1-.779-1.282,3.516,3.516,0,0,1,2.624-4.583A3.372,3.372,0,0,0,287.4,37.51Z" transform="translate(-246.645 -33.317)" fill="#89604c" fill-rule="evenodd"/>
        <path id="Trazado_1031639" data-name="Trazado 1031639" d="M386.953,43.165a2.973,2.973,0,0,0,2.749,4.11,2.783,2.783,0,0,0,.708-.087,2.972,2.972,0,0,1-2.265-2.885,2.907,2.907,0,0,1,.227-1.138,2.968,2.968,0,0,1,2.037-1.748,2.968,2.968,0,0,0-3.455,1.748Z" transform="translate(-334.869 -36.595)" fill="#89604c" fill-rule="evenodd"/>
      </g>
      <path id="Trazado_1031640" data-name="Trazado 1031640" d="M74.034,0H22.427A8.627,8.627,0,0,0,13.81,8.618v9.934a1.136,1.136,0,0,0,1.136,1.136H28.768V71.629A1.135,1.135,0,0,0,29.9,72.764H81.515a1.135,1.135,0,0,0,1.136-1.136V8.618A8.627,8.627,0,0,0,74.034,0ZM16.083,17.417v-8.8a6.344,6.344,0,1,1,12.687,0v8.8Zm64.3,53.076H31.041V8.618a8.6,8.6,0,0,0-2.791-6.346H74.034a6.352,6.352,0,0,1,6.344,6.346ZM75.729,18.548H74.443L72.175,12.18a4.106,4.106,0,1,0-6.343-4.468H60.221a4.653,4.653,0,0,0-9.025,0H45.585a4.106,4.106,0,1,0-6.339,4.468l-2.27,6.368H35.691a1.135,1.135,0,0,0-1.136,1.136v2.389a3.527,3.527,0,0,0,3.525,3.52H45.2a3.526,3.526,0,0,0,3.525-3.52V19.684a1.135,1.135,0,0,0-1.136-1.136H46.306l-2.27-6.37a4.11,4.11,0,0,0,1.549-2.2H51.2a4.671,4.671,0,0,0,3.375,3.377V26.086H49.9a2.569,2.569,0,0,0-2.567,2.567v3.513A1.135,1.135,0,0,0,48.465,33.3H62.955a1.135,1.135,0,0,0,1.136-1.136V28.651a2.569,2.569,0,0,0-2.567-2.567H56.843V13.359a4.666,4.666,0,0,0,3.375-3.377H65.83a4.12,4.12,0,0,0,1.553,2.2l-2.27,6.368H63.828a1.135,1.135,0,0,0-1.136,1.136v2.389a3.527,3.527,0,0,0,3.525,3.52H73.34a3.526,3.526,0,0,0,3.525-3.52V19.684a1.134,1.134,0,0,0-1.136-1.136Zm-13.911,10.1v2.376H49.6V28.651a.3.3,0,0,1,.294-.294H61.525A.3.3,0,0,1,61.818,28.651Zm7.96-21.641a1.835,1.835,0,1,1-1.836,1.838A1.84,1.84,0,0,1,69.778,7.011Zm-28.14,0A1.835,1.835,0,1,1,39.8,8.848,1.838,1.838,0,0,1,41.639,7.011Zm4.815,15.062A1.252,1.252,0,0,1,45.2,23.322H38.077a1.253,1.253,0,0,1-1.253-1.249V20.819h9.629v1.254Zm-2.562-3.525H39.386l2-5.6c.084.006.169.009.254.009s.171,0,.254-.009Zm11.816-7.319a2.381,2.381,0,1,1,2.381-2.381A2.383,2.383,0,0,1,55.707,11.229Zm13.817,1.715c.084.006.169.009.254.009s.171,0,.254-.009l2,5.6H67.524Zm5.069,9.128a1.252,1.252,0,0,1-1.254,1.249H66.217a1.253,1.253,0,0,1-1.254-1.249V20.819h9.629v1.254Zm-.129,14.87a1.135,1.135,0,0,1-1.136,1.136H38.09a1.136,1.136,0,1,1,0-2.271H73.329A1.136,1.136,0,0,1,74.464,36.943ZM38.09,42.97a1.136,1.136,0,1,1,0-2.271H55.707a1.136,1.136,0,1,1,0,2.271Zm34.575,1.222a1.136,1.136,0,0,0-1.128.374c-2.412,2.862-4.674,3.631-7.808,4.7a48.107,48.107,0,0,0-5.411,2.113l-.053.026A10.634,10.634,0,0,0,55.7,53.287,10.5,10.5,0,0,0,53.149,51.4l-.051-.026a48.107,48.107,0,0,0-5.411-2.113c-3.132-1.066-5.4-1.836-7.808-4.7a1.136,1.136,0,0,0-1.973.463A19.032,19.032,0,0,0,55.662,68.57h.088A19.03,19.03,0,0,0,73.508,45.029,1.131,1.131,0,0,0,72.665,44.192ZM43.014,59.645A16.7,16.7,0,0,1,39.74,47.686c2.288,2.052,4.608,2.841,7.217,3.729a46.412,46.412,0,0,1,5.143,2,7.937,7.937,0,0,1,2.223,1.724c-1.848,3.4-.952,7.589-.1,11.027a16.694,16.694,0,0,1-11.208-6.525Zm25.391,0a16.7,16.7,0,0,1-10.689,6.449,19.421,19.421,0,0,1,5.851-6.39,1.136,1.136,0,1,0-1.258-1.892,21.4,21.4,0,0,0-6.189,6.535c-.986-4.281-1.37-8.455,3.2-10.928a46.412,46.412,0,0,1,5.143-2c2.609-.888,4.93-1.677,7.217-3.729a16.708,16.708,0,0,1-3.273,11.958Z"/>
    </g>
  </g>
</svg>
