<svg xmlns="http://www.w3.org/2000/svg" width="127" height="256.266" viewBox="0 0 127 256.266">
  <g id="Grupo_1199767" data-name="Grupo 1199767" transform="translate(-180 -431)">
    <g id="Grupo_1199590" data-name="Grupo 1199590" transform="translate(180 431)">
      <path id="Trazado_902293" data-name="Trazado 902293" d="M12,0H115c6.627,0,12,9.738,12,21.75V234.515c0,12.012-5.373,21.75-12,21.75H12c-6.627,0-12-9.738-12-21.75V21.75C0,9.738,5.373,0,12,0Z" transform="translate(0)" fill="#04491c"/>
    </g>
    <g id="school_1575429" transform="translate(205 520)">
      <path id="Trazado_1031959" data-name="Trazado 1031959" d="M177.154,424l3.08,7.7H152l3.08-7.7Zm0,0" transform="translate(-127.617 -355.983)" fill="#898890"/>
      <path id="Trazado_1031960" data-name="Trazado 1031960" d="M191.219,392l2.053,5.133H171.2L173.252,392Zm0,0" transform="translate(-143.736 -329.117)" fill="#acabb1"/>
      <path id="Trazado_1031961" data-name="Trazado 1031961" d="M334.981,424v7.7h-23.1L308.8,424Zm0,0" transform="translate(-259.265 -355.983)" fill="#787680"/>
      <path id="Trazado_1031962" data-name="Trazado 1031962" d="M34.18,424l-3.08,7.7H8V424Zm0,0" transform="translate(-6.717 -355.983)" fill="#787680"/>
      <path id="Trazado_1031963" data-name="Trazado 1031963" d="M321.667,392v5.133H298.054L296,392Zm0,0" transform="translate(-248.517 -329.117)" fill="#6c6a73"/>
      <path id="Trazado_1031964" data-name="Trazado 1031964" d="M49.667,392l-2.053,5.133H24V392Zm0,0" transform="translate(-20.151 -329.117)" fill="#6c6a73"/>
      <path id="Trazado_1031965" data-name="Trazado 1031965" d="M330.267,173.133V198.8h-1.283v5.133H320v-30.8h1.283V168h7.7v5.133Zm0,0" transform="translate(-268.667 -141.05)" fill="#898890"/>
      <path id="Trazado_1031966" data-name="Trazado 1031966" d="M218.267,173.133v30.8H208v-30.8h1.283V168h7.7v5.133Zm0,0" transform="translate(-174.634 -141.05)" fill="#898890"/>
      <path id="Trazado_1031967" data-name="Trazado 1031967" d="M106.267,173.133v30.8H97.283V198.8H96V173.133h1.283V168h7.7v5.133Zm0,0" transform="translate(-80.601 -141.05)" fill="#898890"/>
      <path id="Trazado_1031968" data-name="Trazado 1031968" d="M48,200h7.7v25.667H48Zm0,0" transform="translate(-40.3 -167.917)" fill="#c6c5ca"/>
      <path id="Trazado_1031969" data-name="Trazado 1031969" d="M167.7,200v30.8H160V200Zm0,0" transform="translate(-134.334 -167.917)" fill="#c6c5ca"/>
      <path id="Trazado_1031970" data-name="Trazado 1031970" d="M279.7,200v30.8H272V200Zm0,0" transform="translate(-228.367 -167.917)" fill="#c6c5ca"/>
      <path id="Trazado_1031971" data-name="Trazado 1031971" d="M384,200h7.7v25.667H384Zm0,0" transform="translate(-322.401 -167.917)" fill="#c6c5ca"/>
      <g id="Grupo_1199766" data-name="Grupo 1199766" transform="translate(6.416 26.95)">
        <path id="Trazado_1031972" data-name="Trazado 1031972" d="M50.267,360v5.133H40V360Zm0,0" transform="translate(-40 -329.2)" fill="#acabb1"/>
        <path id="Trazado_1031973" data-name="Trazado 1031973" d="M386.267,360v5.133H376V360Zm0,0" transform="translate(-322.1 -329.2)" fill="#acabb1"/>
        <path id="Trazado_1031974" data-name="Trazado 1031974" d="M386.267,168v5.133H376V168Zm0,0" transform="translate(-322.1 -168)" fill="#acabb1"/>
        <path id="Trazado_1031975" data-name="Trazado 1031975" d="M274.267,168v5.133H264V168Zm0,0" transform="translate(-228.067 -168)" fill="#acabb1"/>
        <path id="Trazado_1031976" data-name="Trazado 1031976" d="M162.267,168v5.133H152V168Zm0,0" transform="translate(-134.033 -168)" fill="#acabb1"/>
        <path id="Trazado_1031977" data-name="Trazado 1031977" d="M50.267,168v5.133H40V168Zm0,0" transform="translate(-40 -168)" fill="#acabb1"/>
      </g>
      <path id="Trazado_1031978" data-name="Trazado 1031978" d="M45.217,72l1.527.321L46,75.927a3.909,3.909,0,0,0-.783-.077,3.85,3.85,0,0,0,0,7.7V87.4H8V79.7l11.55-2.387Zm0,0" transform="translate(-6.717 -60.45)" fill="#c6c5ca"/>
      <path id="Trazado_1031979" data-name="Trazado 1031979" d="M277.217,81.379v7.7H240v-3.85a3.85,3.85,0,0,0,.783-7.623L241.527,74l16.439,3.4Zm0,0" transform="translate(-201.501 -62.129)" fill="#c6c5ca"/>
      <path id="Trazado_1031980" data-name="Trazado 1031980" d="M220.63,96.077a3.865,3.865,0,1,1-.783-.077,3.908,3.908,0,0,1,.783.077Zm0,0" transform="translate(-181.348 -80.6)" fill="#ff9811"/>
      <path id="Trazado_1031981" data-name="Trazado 1031981" d="M87.7,32l-2.567,2.747L87.7,37.133H80V32Zm0,0" transform="translate(-67.167 -26.867)" fill="#ff5023"/>
      <path id="Trazado_1031982" data-name="Trazado 1031982" d="M359.7,32l-2.567,2.747,2.567,2.387H352V32Zm0,0" transform="translate(-295.534 -26.867)" fill="#ff5023"/>
      <path id="Trazado_1031983" data-name="Trazado 1031983" d="M247.7,8l-2.567,2.747,2.567,2.387H240V8Zm0,0" transform="translate(-201.501 -6.717)" fill="#ff5023"/>
      <path id="Trazado_1031984" data-name="Trazado 1031984" d="M213.133,88a5.133,5.133,0,1,0,5.133,5.133A5.134,5.134,0,0,0,213.133,88Zm0,7.7a2.567,2.567,0,1,1,2.567-2.567A2.567,2.567,0,0,1,213.133,95.7Zm0,0" transform="translate(-174.634 -73.883)"/>
      <path id="Trazado_1031985" data-name="Trazado 1031985" d="M71.866,32.083v-3.85h3.85A1.283,1.283,0,0,0,77,26.95v-7.7a1.283,1.283,0,0,0-1.026-1.256L57.749,14.222V11.55h6.417a1.283,1.283,0,0,0,.874-2.224L63.415,7.819,65.1,6.01a1.283,1.283,0,0,0-.938-2.16h-7.7a1.283,1.283,0,0,0-1.283,1.283v8.557l-15.4-3.185V7.7H46.2a1.283,1.283,0,0,0,.874-2.224L45.449,3.969,47.137,2.16A1.283,1.283,0,0,0,46.2,0H38.5a1.283,1.283,0,0,0-1.283,1.283v9.222l-23.1,4.779V11.55h6.417a1.283,1.283,0,0,0,.874-2.224L19.782,7.819,21.471,6.01a1.283,1.283,0,0,0-.938-2.16h-7.7a1.283,1.283,0,0,0-1.283,1.283V15.815L1.026,18A1.284,1.284,0,0,0,0,19.25v7.7a1.283,1.283,0,0,0,1.283,1.283h3.85v3.85a1.283,1.283,0,0,0,1.283,1.283v23.1A1.283,1.283,0,0,0,5.133,57.75V61.6H3.849a1.283,1.283,0,0,0-1.283,1.283v3.85H1.283A1.283,1.283,0,0,0,0,68.017v7.7A1.283,1.283,0,0,0,1.283,77H75.716A1.283,1.283,0,0,0,77,75.717v-7.7a1.283,1.283,0,0,0-1.283-1.283H74.433v-3.85A1.283,1.283,0,0,0,73.149,61.6H71.866V57.75a1.283,1.283,0,0,0-1.283-1.283v-23.1a1.283,1.283,0,0,0,1.283-1.283ZM57.749,6.417h3.465l-.552.592a1.284,1.284,0,0,0,.064,1.817l.171.158H57.749Zm-43.633,0h3.465l-.552.592a1.284,1.284,0,0,0,.064,1.817l.171.158H14.116ZM69.3,30.8H61.6V28.233h7.7ZM60.316,56.467a1.283,1.283,0,0,0-1.283,1.283V61.6H52.616V33.367A1.283,1.283,0,0,0,53.9,32.083v-3.85h5.133v3.85a1.283,1.283,0,0,0,1.283,1.283ZM29.358,66.733l1.026-2.567h16.23l1.026,2.567ZM48.667,69.3l2.053,5.133H26.278L28.332,69.3ZM16.683,56.467v-23.1a1.283,1.283,0,0,0,1.283-1.283v-3.85H23.1v3.85a1.283,1.283,0,0,0,1.283,1.283V61.6H17.966V57.75A1.283,1.283,0,0,0,16.683,56.467ZM51.333,30.8h-7.7V28.233h7.7Zm-8.983,2.567V61.6h-7.7V33.367a1.283,1.283,0,0,0,1.283-1.283v-3.85h5.133v3.85A1.283,1.283,0,0,0,42.349,33.367ZM33.366,30.8h-7.7V28.233h7.7Zm-6.417,2.567h5.133V61.6H26.949ZM44.916,61.6V33.367h5.133V61.6ZM39.783,2.567h3.465l-.552.592a1.284,1.284,0,0,0,.064,1.817l.171.158H39.783ZM2.566,20.295,38.5,12.86l35.933,7.434v5.372H2.566ZM15.4,28.233V30.8H7.7V28.233ZM8.983,33.367h5.133v23.1H8.983ZM7.7,59.033h7.7V61.6H7.7ZM5.133,64.167H27.621l-1.026,2.567H5.133ZM2.566,69.3h23l-2.053,5.133H2.566Zm71.867,5.133H53.485L51.432,69.3h23ZM50.4,66.733l-1.026-2.567H71.866v2.567ZM61.6,61.6V59.033h7.7V61.6Zm6.417-5.133H62.883v-23.1h5.133Zm0,0" transform="translate(0)"/>
    </g>
  </g>
</svg>
