<svg xmlns="http://www.w3.org/2000/svg" xmlns:xlink="http://www.w3.org/1999/xlink" width="272" height="265.943" viewBox="0 0 272 265.943">
  <defs>
    <clipPath id="clip-path">
      <rect id="Rectángulo_408390" data-name="Rectángulo 408390" width="272" height="178.022" rx="8" transform="translate(205.083 5119.432)" fill="#eaf4ff" opacity="0.58"/>
    </clipPath>
    <clipPath id="clip-path-2">
      <rect id="Rectángulo_408485" data-name="Rectángulo 408485" width="271.999" height="586.711" fill="none"/>
    </clipPath>
    <clipPath id="clip-path-3">
      <rect id="Rectángulo_408509" data-name="Rectángulo 408509" width="272" height="265.943" rx="8" transform="translate(205.083 5075.432)" fill="#eaf4ff" opacity="0.58"/>
    </clipPath>
    <clipPath id="clip-path-4">
      <rect id="Rectángulo_408508" data-name="Rectángulo 408508" width="287.184" height="279.484" fill="none"/>
    </clipPath>
    <clipPath id="clip-path-5">
      <rect id="Rectángulo_408507" data-name="Rectángulo 408507" width="201.163" height="279.212" fill="none"/>
    </clipPath>
    <clipPath id="clip-path-6">
      <rect id="Rectángulo_408486" data-name="Rectángulo 408486" width="14.386" height="32.873" fill="none"/>
    </clipPath>
    <clipPath id="clip-path-7">
      <rect id="Rectángulo_408487" data-name="Rectángulo 408487" width="21.825" height="27.908" fill="none"/>
    </clipPath>
    <clipPath id="clip-path-8">
      <rect id="Rectángulo_408488" data-name="Rectángulo 408488" width="13.153" height="33.394" fill="none"/>
    </clipPath>
    <clipPath id="clip-path-9">
      <rect id="Rectángulo_408492" data-name="Rectángulo 408492" width="14.769" height="38.615" fill="none"/>
    </clipPath>
    <clipPath id="clip-path-10">
      <rect id="Rectángulo_408495" data-name="Rectángulo 408495" width="71.096" height="4.309" fill="none"/>
    </clipPath>
    <clipPath id="clip-path-11">
      <rect id="Rectángulo_408496" data-name="Rectángulo 408496" width="13.646" height="46.462" fill="none"/>
    </clipPath>
    <clipPath id="clip-path-12">
      <rect id="Rectángulo_408497" data-name="Rectángulo 408497" width="3.538" height="6.846" fill="none"/>
    </clipPath>
    <clipPath id="clip-path-13">
      <rect id="Rectángulo_408498" data-name="Rectángulo 408498" width="4.594" height="6.189" fill="none"/>
    </clipPath>
    <clipPath id="clip-path-14">
      <rect id="Rectángulo_408499" data-name="Rectángulo 408499" width="20.445" height="13.818" fill="none"/>
    </clipPath>
    <clipPath id="clip-path-15">
      <rect id="Rectángulo_408502" data-name="Rectángulo 408502" width="7.615" height="3.924" fill="none"/>
    </clipPath>
    <clipPath id="clip-path-16">
      <rect id="Rectángulo_408503" data-name="Rectángulo 408503" width="1.534" height="2.974" fill="none"/>
    </clipPath>
    <clipPath id="clip-path-17">
      <rect id="Rectángulo_408504" data-name="Rectángulo 408504" width="26.65" height="39.575" fill="none"/>
    </clipPath>
    <clipPath id="clip-path-18">
      <rect id="Rectángulo_408505" data-name="Rectángulo 408505" width="4.69" height="5.108" fill="none"/>
    </clipPath>
    <clipPath id="clip-path-19">
      <rect id="Rectángulo_408506" data-name="Rectángulo 408506" width="4.691" height="5.108" fill="none"/>
    </clipPath>
  </defs>
  <g id="Grupo_1198359" data-name="Grupo 1198359" transform="translate(-205.083 -5075.432)">
    <g id="Enmascarar_grupo_1098806" data-name="Enmascarar grupo 1098806" clip-path="url(#clip-path)">
      <g id="Grupo_1198312" data-name="Grupo 1198312" transform="translate(205.083 4843.001)">
        <rect id="Rectángulo_408483" data-name="Rectángulo 408483" width="272" height="586.712" transform="translate(0 -0.001)" fill="#e2f7f2"/>
        <rect id="Rectángulo_408484" data-name="Rectángulo 408484" width="2.304" height="30.387" transform="translate(42.33 345.595)" fill="#872a21"/>
        <g id="Grupo_1198311" data-name="Grupo 1198311" transform="translate(0 0)">
          <g id="Grupo_1198310" data-name="Grupo 1198310" clip-path="url(#clip-path-2)">
            <path id="Trazado_916645" data-name="Trazado 916645" d="M47.342,304.563c-1.139-2.671-4.185-2.671-5.324,0-4.556,10.68-13.362,32.959-13.355,45.611,0,4.223,4.511,7.619,8.745,9.878a15.156,15.156,0,0,0,14.544,0c4.233-2.259,8.742-5.655,8.745-9.878.007-12.652-8.8-34.932-13.355-45.611" transform="translate(-1.197 -12.636)" fill="#569171"/>
            <path id="Trazado_916646" data-name="Trazado 916646" d="M47.451,357.868c-4.463-1.757-9.333-4.614-9.82-8.809-1.438-12.387,4.554-35.041,7.886-46.348a2.8,2.8,0,0,0-3.5,1.852c-4.556,10.68-13.362,32.959-13.355,45.612,0,4.222,4.511,7.619,8.745,9.877a15.157,15.157,0,0,0,14.544,0c.635-.338,1.276-.7,1.908-1.092a15.522,15.522,0,0,1-6.409-1.091" transform="translate(-1.197 -12.636)" fill="#3a6d50"/>
            <path id="Trazado_916647" data-name="Trazado 916647" d="M0,353.282s127.385-5.24,271.626,85.644V601.464H0Z" transform="translate(0 -14.752)" fill="#7dbb77"/>
            <path id="Trazado_916648" data-name="Trazado 916648" d="M0,477.091c114.322,7.4,232.118,60.223,271.626,79.43V502.95C178.87,425.237.008,401.7,0,401.7Z" transform="translate(0 -16.777)" fill="#569171"/>
            <path id="Trazado_916649" data-name="Trazado 916649" d="M251.683,271.481H130.5s.458-5.727,10.079-5.268c.458-9.393,13.745-15.119,22.45-7.56-6.414-15.806-2.52-27.489,8.476-28.634s18.325,10.308,20.387,17.409c6.642-7.1,8.017-1.145,8.246,0,10.08-10.995,23.595-7.33,27.718-2.977s3.207,14.66,3.207,14.66,14.431-6.184,17.638.458-2.519,8.934-2.519,8.934,4.81-.916,5.5,2.978" transform="translate(-5.45 -9.603)" fill="#fff"/>
          </g>
        </g>
      </g>
    </g>
    <g id="Enmascarar_grupo_1098807" data-name="Enmascarar grupo 1098807" clip-path="url(#clip-path-3)">
      <g id="Grupo_1198358" data-name="Grupo 1198358" transform="translate(174.386 5067.547)">
        <g id="Grupo_1198357" data-name="Grupo 1198357" clip-path="url(#clip-path-4)">
          <g id="Grupo_1198356" data-name="Grupo 1198356" transform="translate(86.022)">
            <g id="Grupo_1198355" data-name="Grupo 1198355" clip-path="url(#clip-path-5)">
              <line id="Línea_681" data-name="Línea 681" x2="85.883" y2="102.161" transform="translate(-70.129 167.836)" fill="none" stroke="#540d0a" stroke-linecap="round" stroke-miterlimit="10" stroke-width="1.157"/>
              <path id="Trazado_916650" data-name="Trazado 916650" d="M116.347,323.559l3.416-39.458s-14.17.135-3.416,39.458" transform="translate(-118.632 -82.487)" fill="#7dbb77"/>
              <path id="Trazado_916651" data-name="Trazado 916651" d="M118,323.559l3.416-39.458s13.936,2.568-3.416,39.458" transform="translate(-120.281 -82.487)" fill="#5a8e54"/>
              <line id="Línea_682" data-name="Línea 682" x1="2.581" y2="36.089" transform="translate(-2.379 212.339)" fill="none" stroke="#540d0a" stroke-linecap="round" stroke-miterlimit="10" stroke-width="1.157"/>
              <path id="Trazado_916652" data-name="Trazado 916652" d="M142.362,354.5l3.416-39.458s-14.17.135-3.416,39.458" transform="translate(-126.185 -91.472)" fill="#7dbb77"/>
              <path id="Trazado_916653" data-name="Trazado 916653" d="M144.011,354.5l3.416-39.458s13.937,2.568-3.416,39.458" transform="translate(-127.834 -91.472)" fill="#5a8e54"/>
              <line id="Línea_683" data-name="Línea 683" x1="2.581" y2="36.089" transform="translate(16.083 234.299)" fill="none" stroke="#540d0a" stroke-linecap="round" stroke-miterlimit="10" stroke-width="1.157"/>
              <path id="Trazado_916654" data-name="Trazado 916654" d="M117.5,375.8l-39.458-3.416s2.568-13.936,39.458,3.416" transform="translate(-108.681 -106.582)" fill="#aedba9"/>
              <path id="Trazado_916655" data-name="Trazado 916655" d="M117.5,377.965l-39.458-3.416s.135,14.17,39.458,3.416" transform="translate(-108.681 -108.748)" fill="#5a8e54"/>
              <line id="Línea_684" data-name="Línea 684" x2="35.996" y2="3.659" transform="translate(-19.913 266.729)" fill="none" stroke="#540d0a" stroke-linecap="round" stroke-miterlimit="10" stroke-width="1.157"/>
              <path id="Trazado_916656" data-name="Trazado 916656" d="M350.868,291.821l18.22-21.673s7.1,7.231-18.22,21.673" transform="translate(-187.894 -78.436)" fill="#aedba9"/>
              <path id="Trazado_916657" data-name="Trazado 916657" d="M350.868,291.616l18.22-21.673s-8.343-5.747-18.22,21.673" transform="translate(-187.894 -78.231)" fill="#5a8e54"/>
              <line id="Línea_685" data-name="Línea 685" x1="61.397" y2="73.035" transform="translate(114.388 198.145)" fill="none" stroke="#540d0a" stroke-linecap="round" stroke-miterlimit="10" stroke-width="0.827"/>
              <path id="Trazado_916658" data-name="Trazado 916658" d="M336.773,297.2l-2.442-28.208s10.13.1,2.442,28.208" transform="translate(-183.093 -78.101)" fill="#aedba9"/>
              <path id="Trazado_916659" data-name="Trazado 916659" d="M335.225,297.2l-2.442-28.208s-9.963,1.836,2.442,28.208" transform="translate(-181.544 -78.101)" fill="#5a8e54"/>
              <line id="Línea_686" data-name="Línea 686" x2="1.845" y2="25.8" transform="translate(151.902 198.561)" fill="none" stroke="#540d0a" stroke-linecap="round" stroke-miterlimit="10" stroke-width="0.827"/>
              <path id="Trazado_916660" data-name="Trazado 916660" d="M345.183,312.426l28.208-2.442s-1.836-9.963-28.208,2.442" transform="translate(-186.243 -88.903)" fill="#aedba9"/>
              <path id="Trazado_916661" data-name="Trazado 916661" d="M345.183,313.974l28.208-2.442s-.1,10.13-28.208,2.442" transform="translate(-186.243 -90.451)" fill="#5a8e54"/>
              <line id="Línea_687" data-name="Línea 687" x1="25.733" y2="2.616" transform="translate(153.748 221.745)" fill="none" stroke="#540d0a" stroke-linecap="round" stroke-miterlimit="10" stroke-width="0.827"/>
              <path id="Trazado_916662" data-name="Trazado 916662" d="M318.175,319.325l-2.442-28.208s10.13.1,2.442,28.208" transform="translate(-177.693 -84.524)" fill="#aedba9"/>
              <path id="Trazado_916663" data-name="Trazado 916663" d="M316.627,319.325l-2.442-28.208s-9.963,1.836,2.442,28.208" transform="translate(-176.145 -84.524)" fill="#5a8e54"/>
              <line id="Línea_688" data-name="Línea 688" x2="1.845" y2="25.8" transform="translate(138.704 214.26)" fill="none" stroke="#540d0a" stroke-linecap="round" stroke-miterlimit="10" stroke-width="0.827"/>
              <path id="Trazado_916664" data-name="Trazado 916664" d="M326.585,334.549l28.208-2.442s-1.836-9.964-28.208,2.442" transform="translate(-180.844 -95.326)" fill="#aedba9"/>
              <path id="Trazado_916665" data-name="Trazado 916665" d="M326.585,336.1l28.208-2.442s-.1,10.13-28.208,2.442" transform="translate(-180.844 -96.875)" fill="#5a8e54"/>
              <line id="Línea_689" data-name="Línea 689" x1="25.733" y2="2.616" transform="translate(140.55 237.444)" fill="none" stroke="#540d0a" stroke-linecap="round" stroke-miterlimit="10" stroke-width="0.827"/>
              <path id="Trazado_916666" data-name="Trazado 916666" d="M299.578,341.448l-2.442-28.208s10.13.1,2.442,28.208" transform="translate(-172.293 -90.947)" fill="#7dbb77"/>
              <path id="Trazado_916667" data-name="Trazado 916667" d="M298.03,341.448l-2.442-28.208s-9.963,1.836,2.442,28.208" transform="translate(-170.745 -90.947)" fill="#5a8e54"/>
              <line id="Línea_690" data-name="Línea 690" x2="1.845" y2="25.8" transform="translate(125.506 229.96)" fill="none" stroke="#540d0a" stroke-linecap="round" stroke-miterlimit="10" stroke-width="0.827"/>
              <path id="Trazado_916668" data-name="Trazado 916668" d="M307.988,356.672,336.2,354.23s-1.836-9.963-28.208,2.442" transform="translate(-175.444 -101.75)" fill="#aedba9"/>
              <path id="Trazado_916669" data-name="Trazado 916669" d="M307.988,358.22l28.208-2.442s-.1,10.13-28.208,2.442" transform="translate(-175.444 -103.298)" fill="#5a8e54"/>
              <line id="Línea_691" data-name="Línea 691" x1="25.733" y2="2.616" transform="translate(127.352 253.144)" fill="none" stroke="#540d0a" stroke-linecap="round" stroke-miterlimit="10" stroke-width="0.827"/>
              <path id="Trazado_916670" data-name="Trazado 916670" d="M280.98,363.57l-2.442-28.208s10.13.1,2.442,28.208" transform="translate(-166.893 -97.37)" fill="#7dbb77"/>
              <path id="Trazado_916671" data-name="Trazado 916671" d="M279.432,363.57l-2.442-28.208s-9.963,1.836,2.442,28.208" transform="translate(-165.345 -97.37)" fill="#5a8e54"/>
              <line id="Línea_692" data-name="Línea 692" x2="1.845" y2="25.8" transform="translate(112.308 245.659)" fill="none" stroke="#540d0a" stroke-linecap="round" stroke-miterlimit="10" stroke-width="0.827"/>
              <path id="Trazado_916672" data-name="Trazado 916672" d="M289.39,378.794l28.208-2.442s-1.836-9.963-28.208,2.442" transform="translate(-170.044 -108.173)" fill="#aedba9"/>
              <path id="Trazado_916673" data-name="Trazado 916673" d="M289.39,380.342,317.6,377.9s-.1,10.13-28.208,2.442" transform="translate(-170.044 -109.721)" fill="#5a8e54"/>
              <line id="Línea_693" data-name="Línea 693" x1="25.733" y2="2.616" transform="translate(114.154 268.843)" fill="none" stroke="#540d0a" stroke-linecap="round" stroke-miterlimit="10" stroke-width="0.827"/>
              <path id="Trazado_916674" data-name="Trazado 916674" d="M163.15,278.979s-23.823-29.766-7.957-33.531,7.957,33.531,7.957,33.531" transform="translate(-129.499 -71.187)" fill="#7dbb77"/>
              <path id="Trazado_916675" data-name="Trazado 916675" d="M155.394,245.449c-2.7.64-4.247,2.034-4.962,3.9a2.186,2.186,0,0,0,2.3.206c1.989-.947,2.976-.787,4.477.874,1.226,1.357,4.744.715,5.606-2.234-1.524-2.381-3.879-3.591-7.422-2.75" transform="translate(-129.699 -71.187)" fill="#365b31"/>
              <path id="Trazado_916676" data-name="Trazado 916676" d="M156.806,244.442s-.8-4.264-2.329-5.8a.949.949,0,0,1,.06-1.429.938.938,0,0,1,1.414.31A18.469,18.469,0,0,1,158,244.158Z" transform="translate(-130.787 -68.814)" fill="#365b31"/>
              <g id="Grupo_1198315" data-name="Grupo 1198315" transform="translate(20.247 174.919)" opacity="0.26">
                <g id="Grupo_1198314" data-name="Grupo 1198314">
                  <g id="Grupo_1198313" data-name="Grupo 1198313" clip-path="url(#clip-path-6)">
                    <path id="Trazado_916677" data-name="Trazado 916677" d="M164.133,273.632c-14.642-16.251-10.856-27.071-10.828-27.149-11.895,5.709,9.846,32.874,9.846,32.874s.49-2.312.981-5.725" transform="translate(-149.747 -246.484)" fill="#365b31"/>
                  </g>
                </g>
              </g>
              <path id="Trazado_916678" data-name="Trazado 916678" d="M153.215,282.11s-32.184-20.438-18.394-29.143,18.394,29.143,18.394,29.143" transform="translate(-124.169 -73.07)" fill="#7dbb77"/>
              <path id="Trazado_916679" data-name="Trazado 916679" d="M134.824,252.969c-2.345,1.48-3.359,3.3-3.429,5.3a2.184,2.184,0,0,0,2.243-.551c1.575-1.54,2.56-1.709,4.518-.624,1.6.886,4.719-.862,4.58-3.931-2.214-1.758-4.833-2.139-7.913-.2" transform="translate(-124.171 -73.071)" fill="#365b31"/>
              <path id="Trazado_916680" data-name="Trazado 916680" d="M135.383,252.5s-2.135-3.775-4.084-4.733a.95.95,0,0,1-.407-1.372.939.939,0,0,1,1.439-.164,18.473,18.473,0,0,1,4.093,5.612Z" transform="translate(-123.982 -71.415)" fill="#365b31"/>
              <g id="Grupo_1198318" data-name="Grupo 1198318" transform="translate(7.221 181.132)" opacity="0.26">
                <g id="Grupo_1198317" data-name="Grupo 1198317">
                  <g id="Grupo_1198316" data-name="Grupo 1198316" clip-path="url(#clip-path-7)">
                    <path id="Trazado_916681" data-name="Trazado 916681" d="M152.29,277.414c-19.118-10.629-19.043-22.092-19.042-22.175-9.4,9.255,19.969,27.908,19.969,27.908s-.286-2.345-.927-5.733" transform="translate(-131.391 -255.239)" fill="#365b31"/>
                  </g>
                </g>
              </g>
              <path id="Trazado_916682" data-name="Trazado 916682" d="M129.085,295.108S107.043,264,123.1,261.169s5.982,33.939,5.982,33.939" transform="translate(-120.063 -75.784)" fill="#7dbb77"/>
              <path id="Trazado_916683" data-name="Trazado 916683" d="M123.381,261.169c-2.731.481-4.359,1.782-5.182,3.607a2.184,2.184,0,0,0,2.284.34c2.042-.828,3.017-.611,4.418,1.134,1.145,1.427,4.694.991,5.728-1.9-1.383-2.466-3.663-3.812-7.248-3.179" transform="translate(-120.34 -75.784)" fill="#365b31"/>
              <path id="Trazado_916684" data-name="Trazado 916684" d="M124.927,260.1s-.546-4.3-1.986-5.928a.948.948,0,0,1,.143-1.423.939.939,0,0,1,1.394.392,18.471,18.471,0,0,1,1.661,6.745Z" transform="translate(-121.643 -73.337)" fill="#365b31"/>
              <g id="Grupo_1198321" data-name="Grupo 1198321" transform="translate(-2.817 185.931)" opacity="0.26">
                <g id="Grupo_1198320" data-name="Grupo 1198320">
                  <g id="Grupo_1198319" data-name="Grupo 1198319" clip-path="url(#clip-path-8)">
                    <path id="Trazado_916685" data-name="Trazado 916685" d="M130.4,289.738c-13.667-17.08-9.254-27.66-9.222-27.736-12.208,5,7.907,33.393,7.907,33.393s.624-2.279,1.315-5.657" transform="translate(-117.247 -262.001)" fill="#365b31"/>
                  </g>
                </g>
              </g>
              <path id="Trazado_916686" data-name="Trazado 916686" d="M182.793,285.111s-3.584-40.167,4.665-39.185-4.665,39.185-4.665,39.185" transform="translate(-138.87 -71.398)" fill="#cdc12d"/>
              <line id="Línea_694" data-name="Línea 694" y1="38.055" x2="4.53" transform="translate(44.058 174.528)" fill="none" stroke="#a09320" stroke-miterlimit="10" stroke-width="0.985"/>
              <path id="Trazado_916687" data-name="Trazado 916687" d="M186.376,244.4s.28,1.5,4.369.52c-1.077-3.142-1.621-3.779-.894-7.28l-1.3-.8s-.035,6.178-2.176,7.558" transform="translate(-140.135 -68.766)" fill="#a09320"/>
              <path id="Trazado_916688" data-name="Trazado 916688" d="M183.632,286.559s5.936-39.887,13.725-37-13.725,37-13.725,37" transform="translate(-139.338 -72.415)" fill="#cdc12d"/>
              <line id="Línea_695" data-name="Línea 695" y1="35.931" x2="13.329" transform="translate(44.69 177.146)" fill="none" stroke="#a09320" stroke-miterlimit="10" stroke-width="0.985"/>
              <path id="Trazado_916689" data-name="Trazado 916689" d="M199.391,247.566s-.079,1.521,4.125,1.531c-.309-3.307-.688-4.054.839-7.287l-1.076-1.08s-1.483,6-3.888,6.836" transform="translate(-143.914 -69.894)" fill="#a09320"/>
              <path id="Trazado_916690" data-name="Trazado 916690" d="M191.511,293.706s5.937-39.887,13.725-37-13.725,37-13.725,37" transform="translate(-141.626 -74.49)" fill="#cdc12d"/>
              <line id="Línea_696" data-name="Línea 696" y1="35.93" x2="13.329" transform="translate(50.281 182.218)" fill="none" stroke="#a09320" stroke-miterlimit="10" stroke-width="0.985"/>
              <path id="Trazado_916691" data-name="Trazado 916691" d="M207.27,254.713s-.079,1.521,4.125,1.531c-.309-3.307-.688-4.054.839-7.286l-1.076-1.081s-1.483,6-3.888,6.836" transform="translate(-146.201 -71.97)" fill="#a09320"/>
              <rect id="Rectángulo_408489" data-name="Rectángulo 408489" width="27.449" height="46.462" transform="translate(42.009 194.335)" fill="#540d0a"/>
              <rect id="Rectángulo_408490" data-name="Rectángulo 408490" width="77.846" height="38.615" transform="translate(-7.223 240.797)" fill="#540d0a"/>
              <line id="Línea_697" data-name="Línea 697" x2="75.385" transform="translate(-7.222 247.566)" fill="none" stroke="#872a21" stroke-miterlimit="10" stroke-width="1.22"/>
              <line id="Línea_698" data-name="Línea 698" x2="75.385" transform="translate(-7.222 254.335)" fill="none" stroke="#872a21" stroke-miterlimit="10" stroke-width="1.22"/>
              <line id="Línea_699" data-name="Línea 699" x2="75.385" transform="translate(-7.222 261.105)" fill="none" stroke="#872a21" stroke-miterlimit="10" stroke-width="1.22"/>
              <line id="Línea_700" data-name="Línea 700" x2="75.385" transform="translate(-7.222 267.874)" fill="none" stroke="#872a21" stroke-miterlimit="10" stroke-width="1.22"/>
              <line id="Línea_701" data-name="Línea 701" x2="75.385" transform="translate(-7.222 274.643)" fill="none" stroke="#872a21" stroke-miterlimit="10" stroke-width="1.22"/>
              <g id="Grupo_1198324" data-name="Grupo 1198324" transform="translate(55.855 240.797)" opacity="0.68" style="mix-blend-mode: multiply;isolation: isolate">
                <g id="Grupo_1198323" data-name="Grupo 1198323">
                  <g id="Grupo_1198322" data-name="Grupo 1198322" clip-path="url(#clip-path-9)">
                    <rect id="Rectángulo_408491" data-name="Rectángulo 408491" width="14.769" height="38.615" transform="translate(-0.001 0)" fill="#540d0a"/>
                  </g>
                </g>
              </g>
              <rect id="Rectángulo_408493" data-name="Rectángulo 408493" width="62.769" height="46.462" transform="translate(-20.76 194.335)" fill="#872a21"/>
              <g id="Grupo_1198327" data-name="Grupo 1198327" transform="translate(-7.222 240.797)" opacity="0.68" style="mix-blend-mode: multiply;isolation: isolate">
                <g id="Grupo_1198326" data-name="Grupo 1198326">
                  <g id="Grupo_1198325" data-name="Grupo 1198325" clip-path="url(#clip-path-10)">
                    <rect id="Rectángulo_408494" data-name="Rectángulo 408494" width="71.096" height="4.309" transform="translate(0)" fill="#540d0a"/>
                  </g>
                </g>
              </g>
              <line id="Línea_702" data-name="Línea 702" x2="62.769" transform="translate(-20.761 201.412)" fill="none" stroke="#540d0a" stroke-miterlimit="10" stroke-width="1.271"/>
              <line id="Línea_703" data-name="Línea 703" x2="62.769" transform="translate(-20.761 209.412)" fill="none" stroke="#540d0a" stroke-miterlimit="10" stroke-width="1.271"/>
              <line id="Línea_704" data-name="Línea 704" x2="62.769" transform="translate(-20.761 217.412)" fill="none" stroke="#540d0a" stroke-miterlimit="10" stroke-width="1.271"/>
              <line id="Línea_705" data-name="Línea 705" x2="62.769" transform="translate(-20.761 225.412)" fill="none" stroke="#540d0a" stroke-miterlimit="10" stroke-width="1.271"/>
              <line id="Línea_706" data-name="Línea 706" x2="62.769" transform="translate(-20.761 233.412)" fill="none" stroke="#540d0a" stroke-miterlimit="10" stroke-width="1.271"/>
              <line id="Línea_707" data-name="Línea 707" x2="28.461" transform="translate(42.162 201.412)" fill="none" stroke="#872a21" stroke-miterlimit="10" stroke-width="1.22"/>
              <line id="Línea_708" data-name="Línea 708" x2="28.461" transform="translate(42.162 209.412)" fill="none" stroke="#872a21" stroke-miterlimit="10" stroke-width="1.22"/>
              <line id="Línea_709" data-name="Línea 709" x2="28.461" transform="translate(42.162 217.412)" fill="none" stroke="#872a21" stroke-miterlimit="10" stroke-width="1.22"/>
              <line id="Línea_710" data-name="Línea 710" x2="28.461" transform="translate(42.162 225.412)" fill="none" stroke="#872a21" stroke-miterlimit="10" stroke-width="1.22"/>
              <line id="Línea_711" data-name="Línea 711" x2="28.461" transform="translate(42.162 233.412)" fill="none" stroke="#872a21" stroke-miterlimit="10" stroke-width="1.22"/>
              <g id="Grupo_1198330" data-name="Grupo 1198330" transform="translate(55.811 194.335)" opacity="0.68" style="mix-blend-mode: multiply;isolation: isolate">
                <g id="Grupo_1198329" data-name="Grupo 1198329">
                  <g id="Grupo_1198328" data-name="Grupo 1198328" clip-path="url(#clip-path-11)">
                    <path id="Trazado_916692" data-name="Trazado 916692" d="M199.905,320.306s-.615-35.385,2.769-46.462h10.834v46.462Z" transform="translate(-199.861 -273.844)" fill="#540d0a"/>
                  </g>
                </g>
              </g>
              <g id="Grupo_1198333" data-name="Grupo 1198333" transform="translate(30.47 181.132)" opacity="0.5" style="mix-blend-mode: overlay;isolation: isolate">
                <g id="Grupo_1198332" data-name="Grupo 1198332">
                  <g id="Grupo_1198331" data-name="Grupo 1198331" clip-path="url(#clip-path-12)">
                    <path id="Trazado_916693" data-name="Trazado 916693" d="M167.691,258.661c0,1.891-.793,3.423-1.77,3.423s-1.769-1.533-1.769-3.423.792-3.423,1.769-3.423,1.77,1.533,1.77,3.423" transform="translate(-164.152 -255.239)" fill="#fff"/>
                  </g>
                </g>
              </g>
              <g id="Grupo_1198336" data-name="Grupo 1198336" transform="translate(17.465 183.673)" opacity="0.5" style="mix-blend-mode: overlay;isolation: isolate">
                <g id="Grupo_1198335" data-name="Grupo 1198335">
                  <g id="Grupo_1198334" data-name="Grupo 1198334" clip-path="url(#clip-path-13)">
                    <path id="Trazado_916694" data-name="Trazado 916694" d="M149.655,261.03c.945,1.637,1.025,3.36.18,3.849s-2.3-.443-3.244-2.08-1.025-3.36-.18-3.849,2.3.443,3.244,2.08" transform="translate(-145.826 -258.82)" fill="#fff"/>
                  </g>
                </g>
              </g>
              <path id="Trazado_916695" data-name="Trazado 916695" d="M229.262,23.823s-4.726-6.727-8.513-7.909-15.236,2.91-20.256,10.142S195.27,43.72,198.386,48.6s30.876-24.775,30.876-24.775" transform="translate(-143.024 -4.562)" fill="#7dbb77"/>
              <path id="Trazado_916696" data-name="Trazado 916696" d="M229.267,24.96a38.939,38.939,0,0,0-4.621-5.33c-4.691,2.086-20.768,9.886-28.3,21.788a16.263,16.263,0,0,0,2.047,8.317c3.116,4.877,30.876-24.775,30.876-24.775" transform="translate(-143.029 -5.699)" fill="#651d13"/>
              <path id="Trazado_916697" data-name="Trazado 916697" d="M208.392,31.848c15.615-12.238,33.373-15.654,39.663-7.629s-1.271,24.452-16.886,36.69S197.8,76.564,191.506,68.538s1.271-24.452,16.886-36.69" transform="translate(-140.981 -5.771)" fill="#7dbb77"/>
              <path id="Trazado_916698" data-name="Trazado 916698" d="M209.962,33.853c14.959-11.724,31.877-15.343,38.8-8.573a9.661,9.661,0,0,0-.711-1.06c-6.29-8.025-24.047-4.61-39.663,7.628S185.215,60.514,191.5,68.538a9.714,9.714,0,0,0,.86.945c-4.919-8.343,2.639-23.905,17.6-35.63" transform="translate(-140.981 -5.771)" fill="#5a8e54"/>
              <path id="Trazado_916699" data-name="Trazado 916699" d="M201.954,82.646c5.691,1.214,13.442-.344,21.481-4.327l-5.886-23.409s-12.6,11.362-15.6,27.737" transform="translate(-144.658 -15.942)" fill="#336d4c"/>
              <path id="Trazado_916700" data-name="Trazado 916700" d="M344.726,170.864S359.709,162.65,362,167.43s-5.665,25.045-5.665,25.045H353.2s6.51-18.456,1.447-19.783-8.75,3.015-9.92,1.93,0-3.758,0-3.758" transform="translate(-185.96 -48.178)" fill="#365b31"/>
              <path id="Trazado_916701" data-name="Trazado 916701" d="M357.963,192.368s5.769-17.192,13.615-23.077,15.346,9.216,17.308,14.127-.462,6.3-7.038.758-10.962-13.5-20.308,7.731c-2.307,3-3.577.461-3.577.461" transform="translate(-189.954 -48.763)" fill="#5a8e54"/>
              <path id="Trazado_916702" data-name="Trazado 916702" d="M326.864,186.976s-3.808-7.922-4.039-14.017.462-6.811,4.269-6.107,3.923-1.6,4.385-6.8,8.423-6.461,9.807,7.269a50.761,50.761,0,0,1-3.692,24.462Z" transform="translate(-179.741 -45.413)" fill="#5a8e54"/>
              <path id="Trazado_916703" data-name="Trazado 916703" d="M330.991,191.713s2.308-5.539,0-13.846,1.154-7.385,4.616-10.385,2.769-.923,5.307-7.846,16.846-6.461,13.154,3.462-4.154,14.539-2.769,17.077-8.077,11.463-11.308,12.885-9-1.347-9-1.347" transform="translate(-181.906 -44.993)" fill="#7dbb77"/>
              <path id="Trazado_916704" data-name="Trazado 916704" d="M350.412,161.547s-1.03,10.235-6.8,14.578c.231,7.806-6.461,20.037-6.461,20.037" transform="translate(-183.911 -46.904)" fill="none" stroke="#5a8e54" stroke-linecap="round" stroke-miterlimit="10" stroke-width="0.738"/>
              <path id="Trazado_916705" data-name="Trazado 916705" d="M347.457,162.567a9.922,9.922,0,0,1,4.028,6.859" transform="translate(-186.904 -47.2)" fill="none" stroke="#5a8e54" stroke-linecap="round" stroke-miterlimit="10" stroke-width="0.738"/>
              <path id="Trazado_916706" data-name="Trazado 916706" d="M354.993,178.619s-1.365,1.742-7.26,1.563" transform="translate(-186.984 -51.861)" fill="none" stroke="#5a8e54" stroke-linecap="round" stroke-miterlimit="10" stroke-width="0.738"/>
              <path id="Trazado_916707" data-name="Trazado 916707" d="M335.037,179.27a15.416,15.416,0,0,0,7,8.592" transform="translate(-183.298 -52.05)" fill="none" stroke="#5a8e54" stroke-linecap="round" stroke-miterlimit="10" stroke-width="0.738"/>
              <g id="Grupo_1198339" data-name="Grupo 1198339" transform="translate(149.085 134.654)" opacity="0.33" style="mix-blend-mode: multiply;isolation: isolate">
                <g id="Grupo_1198338" data-name="Grupo 1198338">
                  <g id="Grupo_1198337" data-name="Grupo 1198337" clip-path="url(#clip-path-14)">
                    <path id="Trazado_916708" data-name="Trazado 916708" d="M340.3,203.158c3.23-1.422,12.692-10.347,11.308-12.885a5,5,0,0,1-.247-.527,69.967,69.967,0,0,1-19.259,2.192,20.905,20.905,0,0,1-.8,9.873s5.769,2.769,9,1.347" transform="translate(-331.297 -189.746)" fill="#5a8e54"/>
                  </g>
                </g>
              </g>
              <path id="Trazado_916709" data-name="Trazado 916709" d="M229.017,91.627a10.889,10.889,0,1,1-10.889-10.889,10.889,10.889,0,0,1,10.889,10.889" transform="translate(-146.193 -23.442)" fill="#651d13"/>
              <path id="Trazado_916710" data-name="Trazado 916710" d="M197.038,119.562s11.586,32.749,12.432,36.9,5.923,22.308,5.923,25.231,17-28.308,17-28.308l-26.539-36.9Z" transform="translate(-143.23 -33.822)" fill="#fff"/>
              <path id="Trazado_916711" data-name="Trazado 916711" d="M256.071,106.378s7.539-2.923,15.231,11.077,14,42.308,19.231,49.385,15.385,30.923,15.385,30.923l-32.154.615Z" transform="translate(-160.37 -30.813)" fill="#c67855"/>
              <path id="Trazado_916712" data-name="Trazado 916712" d="M271.3,117.455c-7.693-14-15.231-11.077-15.231-11.077l5.241,27.258c5.694-7.036,14.935-4.98,14.969-4.973a91.574,91.574,0,0,0-4.98-11.208" transform="translate(-160.371 -30.813)" fill="#fff"/>
              <path id="Trazado_916713" data-name="Trazado 916713" d="M236.274,105.4l6.769.77s13.846,21.385,16.615,30.923,15.693,88.153,18,96.922,14.615,76,14.615,76H255.043l-4.461-42.769v42.769H211.813s-2-63.692,1.231-83.077,7.846-40.769,4-54.769c9.846-4.154,13.231-22,2.462-53.539-.769-9.384-2-10.616,2.615-11.384s14.155-1.847,14.155-1.847" transform="translate(-147.342 -30.602)" fill="#872a21"/>
              <path id="Trazado_916714" data-name="Trazado 916714" d="M239.5,105.4s-9.538,1.078-14.154,1.847c-1.695.282-2.6.629-3.03,1.416l12.953,18.912a130.687,130.687,0,0,0,16.077-1.1c-2.462-9.538-9.42-20.8-9.42-20.8Z" transform="translate(-150.57 -30.602)" fill="#fff"/>
              <path id="Trazado_916715" data-name="Trazado 916715" d="M279.939,248.175s1.4,29.846-6.84,40.616c1.916-9.538,2.223-24.616,1.609-39.692a6.267,6.267,0,0,1,5.231-.923" transform="translate(-165.314 -71.993)" fill="#681d19"/>
              <path id="Trazado_916716" data-name="Trazado 916716" d="M315.3,193.135s-4.616-16.615-10.269-19.731-12.692,3.115-9.23,9.865a48.56,48.56,0,0,0,8.539,11.6s6.923,1.116,10.961-1.731" transform="translate(-171.639 -50.107)" fill="#cdc12d"/>
              <path id="Trazado_916717" data-name="Trazado 916717" d="M266.092,154.231s2.769,12.437,2.192,15.8-8.077,4.512-8.077,4.512-10.269,1.154-12.808-20.308Z" transform="translate(-157.853 -44.78)" fill="#681d19"/>
              <path id="Trazado_916718" data-name="Trazado 916718" d="M304.34,195.286s6.923,1.116,10.961-1.731c0,0-.628-2.259-1.7-5.264a17.653,17.653,0,0,1-11.8-3.621c-2.819-2.306-3.467-6.959-3.487-10.643a7.167,7.167,0,0,0-2.514,9.662,48.56,48.56,0,0,0,8.539,11.6" transform="translate(-171.639 -50.528)" fill="#a09320"/>
              <path id="Trazado_916719" data-name="Trazado 916719" d="M288.9,193.135S284.28,176.52,278.626,173.4s-12.692,3.115-9.231,9.865a48.56,48.56,0,0,0,8.539,11.6s6.923,1.116,10.961-1.731" transform="translate(-163.972 -50.107)" fill="#cdc12d"/>
              <path id="Trazado_916720" data-name="Trazado 916720" d="M277.934,195.286s6.923,1.116,10.961-1.731c0,0-.628-2.259-1.7-5.264a17.653,17.653,0,0,1-11.8-3.621c-2.819-2.306-3.467-6.959-3.487-10.643a7.167,7.167,0,0,0-2.514,9.662,48.56,48.56,0,0,0,8.539,11.6" transform="translate(-163.973 -50.528)" fill="#a09320"/>
              <rect id="Rectángulo_408500" data-name="Rectángulo 408500" width="65.723" height="41.154" transform="translate(100.778 140.181)" fill="#540d0a"/>
              <rect id="Rectángulo_408501" data-name="Rectángulo 408501" width="19.906" height="41.154" transform="translate(166.501 140.181)" fill="#872a21"/>
              <path id="Trazado_916721" data-name="Trazado 916721" d="M224.854,77.433a212.86,212.86,0,0,1,1.23,21.692c9.077,8.462,21.077,8.154,14.155-1.846a122.685,122.685,0,0,1-2.616-12.77Z" transform="translate(-151.307 -22.482)" fill="#c67855"/>
              <path id="Trazado_916722" data-name="Trazado 916722" d="M239.356,87.212l-8.627-1.185a19.586,19.586,0,0,0,10.159,9.215c-1.053-4.75-1.436-7.322-1.532-8.03" transform="translate(-153.012 -24.977)" fill="#651d13"/>
              <path id="Trazado_916723" data-name="Trazado 916723" d="M266.092,152.106H247.4v-5.193h17.423Z" transform="translate(-157.853 -42.655)" fill="#540d0a"/>
              <path id="Trazado_916724" data-name="Trazado 916724" d="M240.864,38.627s5.307,12.692,6.692,25.384S245.71,80.4,235.094,77.166c-9.23-3-20.538-14.769-20.538-14.769s.231-14.308,26.308-23.769" transform="translate(-148.317 -11.215)" fill="#c67855"/>
              <path id="Trazado_916725" data-name="Trazado 916725" d="M239.675,39.264c-24.877,9.458-25.119,23.317-25.119,23.317,16.711-6.029,23-17.758,25.119-23.317" transform="translate(-148.317 -11.4)" fill="#651d13"/>
              <path id="Trazado_916726" data-name="Trazado 916726" d="M243.948,59.073s-6.539.077-9.231,2.384a7.957,7.957,0,0,1,9.231-2.384" transform="translate(-154.17 -16.968)" fill="#651d13"/>
              <path id="Trazado_916727" data-name="Trazado 916727" d="M243.945,64.75s-5.538,1-7.385,3.538c6.615.385,8.154,0,8.154,0a16.183,16.183,0,0,0-.769-3.538" transform="translate(-154.705 -18.8)" fill="#fff"/>
              <path id="Trazado_916728" data-name="Trazado 916728" d="M245.878,68.289a16.181,16.181,0,0,0-.769-3.538,21.352,21.352,0,0,0-4.4,1.381,3.531,3.531,0,0,0,.123,2.3,24.083,24.083,0,0,0,5.048-.139" transform="translate(-155.87 -18.8)" fill="#651d13"/>
              <path id="Trazado_916729" data-name="Trazado 916729" d="M236.56,68.132s1.847-2.462,7.385-3.538c1.385-.308,1.753-.385,1.753-.385" transform="translate(-154.705 -18.643)" fill="none" stroke="#651d13" stroke-miterlimit="10" stroke-width="0.985"/>
              <path id="Trazado_916730" data-name="Trazado 916730" d="M258.73,63,257.7,63.4l.308,3.46,1.438-.23c-.214-1.226-.453-2.439-.713-3.625" transform="translate(-160.842 -18.293)" fill="#651d13"/>
              <path id="Trazado_916731" data-name="Trazado 916731" d="M255.806,69.737a13.879,13.879,0,0,1,1.847,5.231l-2.231.307" transform="translate(-160.182 -20.248)" fill="none" stroke="#651d13" stroke-miterlimit="10" stroke-width="0.492"/>
              <path id="Trazado_916732" data-name="Trazado 916732" d="M256.171,81.227a39.459,39.459,0,0,1-6.735.231" transform="translate(-158.444 -23.584)" fill="none" stroke="#651d13" stroke-miterlimit="10" stroke-width="0.492"/>
              <g id="Grupo_1198342" data-name="Grupo 1198342" transform="translate(81.547 51.796)" opacity="0.62">
                <g id="Grupo_1198341" data-name="Grupo 1198341">
                  <g id="Grupo_1198340" data-name="Grupo 1198340" clip-path="url(#clip-path-15)">
                    <path id="Trazado_916733" data-name="Trazado 916733" d="M243.742,74.949c0,1.084-1.7,1.961-3.808,1.961s-3.807-.878-3.807-1.961,1.7-1.961,3.807-1.961,3.808.879,3.808,1.961" transform="translate(-236.127 -72.988)" fill="#bc2617"/>
                  </g>
                </g>
              </g>
              <g id="Grupo_1198345" data-name="Grupo 1198345" transform="translate(97.728 50.047)" opacity="0.62">
                <g id="Grupo_1198344" data-name="Grupo 1198344">
                  <g id="Grupo_1198343" data-name="Grupo 1198343" clip-path="url(#clip-path-16)">
                    <path id="Trazado_916734" data-name="Trazado 916734" d="M258.927,71.927c0,.644.6,1.213,1.534,1.571-.009-.076-.014-.148-.023-.225-.1-.918-.223-1.837-.36-2.75-.71.356-1.151.853-1.151,1.4" transform="translate(-258.928 -70.523)" fill="#bc2617"/>
                  </g>
                </g>
              </g>
              <path id="Trazado_916735" data-name="Trazado 916735" d="M221.57,70.734c2.195,2.483,2.245,6.024.113,7.909s-5.641,1.4-7.835-1.082-2.245-6.023-.113-7.908,5.64-1.4,7.835,1.082" transform="translate(-147.623 -19.889)" fill="#c67855"/>
              <path id="Trazado_916736" data-name="Trazado 916736" d="M220.98,75.919c-2.195-2.482-5.7-2.967-7.835-1.081a4.455,4.455,0,0,0-.839,1.007,6.652,6.652,0,0,0,1.582,3.222c2.194,2.482,5.7,2.967,7.835,1.082a4.489,4.489,0,0,0,.839-1.008,6.665,6.665,0,0,0-1.582-3.222" transform="translate(-147.663 -21.395)" fill="#aa6144"/>
              <path id="Trazado_916737" data-name="Trazado 916737" d="M226.424,192.546a184.426,184.426,0,0,1,0,40.462c-2.523,20.923-3.323,52.308,0,102.308" transform="translate(-151.123 -55.905)" fill="none" stroke="#b2544f" stroke-miterlimit="10" stroke-width="1.22"/>
              <path id="Trazado_916738" data-name="Trazado 916738" d="M266.694,325.342s.458-10.739,4.545-19.846" transform="translate(-163.455 -88.699)" fill="none" stroke="#b2544f" stroke-miterlimit="10" stroke-width="1.22"/>
              <line id="Línea_712" data-name="Línea 712" x2="9.056" y2="54.111" transform="translate(104.952 225.301)" fill="none" stroke="#b2544f" stroke-miterlimit="10" stroke-width="1.22"/>
              <path id="Trazado_916739" data-name="Trazado 916739" d="M251.773,263.841s-3.692,13.576-20.307,13.807l.231-9.231s12-.692,14.307-10.615Z" transform="translate(-153.226 -74.851)" fill="#681d19"/>
              <path id="Trazado_916740" data-name="Trazado 916740" d="M257.307,57.373c-.573.127-1.279.392-1.186.928a10.175,10.175,0,0,1,1.337-.347c-.05-.2-.1-.387-.151-.58" transform="translate(-160.383 -16.658)" fill="#651d13"/>
              <g id="Grupo_1198348" data-name="Grupo 1198348" transform="translate(72.892 27.412)" opacity="0.18" style="mix-blend-mode: overlay;isolation: isolate">
                <g id="Grupo_1198347" data-name="Grupo 1198347">
                  <g id="Grupo_1198346" data-name="Grupo 1198346" clip-path="url(#clip-path-17)">
                    <path id="Trazado_916741" data-name="Trazado 916741" d="M243.585,38.627c-9.676,3.511-15.788,7.688-19.655,11.555,1.142,6.21,5.669,23.457,21.156,28.02,4.8-.6,6.187-5.07,5.192-14.19-1.385-12.692-6.692-25.384-6.692-25.384" transform="translate(-223.93 -38.627)" fill="#fff"/>
                  </g>
                </g>
              </g>
              <path id="Trazado_916742" data-name="Trazado 916742" d="M249.952,39.079s4.727,8.663,5.764,13.61c3.656-5.908,1.579-11.677-4.575-14.062Z" transform="translate(-158.594 -11.215)" fill="#651d13"/>
              <path id="Trazado_916743" data-name="Trazado 916743" d="M367.181,179.649s10.535-14.348,18.958,1.46" transform="translate(-192.63 -50.428)" fill="none" stroke="#365b31" stroke-miterlimit="10" stroke-width="0.492"/>
              <line id="Línea_713" data-name="Línea 713" x1="65.359" transform="translate(101.142 147.566)" fill="none" stroke="#872a21" stroke-miterlimit="10" stroke-width="1.22"/>
              <line id="Línea_714" data-name="Línea 714" x1="65.359" transform="translate(101.142 155.889)" fill="none" stroke="#872a21" stroke-miterlimit="10" stroke-width="1.22"/>
              <line id="Línea_715" data-name="Línea 715" x1="65.359" transform="translate(101.142 164.212)" fill="none" stroke="#872a21" stroke-miterlimit="10" stroke-width="1.22"/>
              <line id="Línea_716" data-name="Línea 716" x1="65.359" transform="translate(101.142 172.534)" fill="none" stroke="#872a21" stroke-miterlimit="10" stroke-width="1.22"/>
              <path id="Trazado_916744" data-name="Trazado 916744" d="M219.363,109.488s34.616,57.538,40.154,65.846,9.692,13.692,9.692,13.692,5.846,2.616,8.154,3.231,3.846,4.769.461,5.077-7.539-1.385-5.846,1.693,6,12.923,5.077,13.692a4.316,4.316,0,0,1-5.846-.461,7.99,7.99,0,0,1-6.923.461s-5.539,1.385-7.385-2.462-5.077-15.846-7.847-20.462-18.461-25.384-25.615-33.384-22.539-33.077-26.231-39.846.847-13.231,6.731-13.846,11.284-.1,15.423,6.769" transform="translate(-142.893 -29.768)" fill="#c67855"/>
              <path id="Trazado_916745" data-name="Trazado 916745" d="M228.825,125.18c-5.479-9.071-9.462-15.692-9.462-15.692-4.139-6.871-9.538-7.385-15.423-6.769s-10.423,7.077-6.73,13.846c1.9,3.478,6.882,11.789,12.25,20.134,1.175-11.093,19.365-11.519,19.365-11.519" transform="translate(-142.893 -29.768)" fill="#fff"/>
              <path id="Trazado_916746" data-name="Trazado 916746" d="M229.505,164.974a10.182,10.182,0,0,0-4.128.874,100.659,100.659,0,0,0,6.628,8.693c1.564,1.749,3.535,4.107,5.691,6.774a10.217,10.217,0,0,0-8.191-16.342" transform="translate(-151.458 -47.899)" fill="#a05a3f"/>
              <path id="Trazado_916747" data-name="Trazado 916747" d="M237.506,126.787s-9.421-16.11-11.729-18.726" transform="translate(-151.575 -31.375)" fill="none" stroke="#a0931d" stroke-miterlimit="10" stroke-width="0.637"/>
              <path id="Trazado_916748" data-name="Trazado 916748" d="M197.755,122.308s8.795,14.843,12.251,20.134" transform="translate(-143.439 -35.511)" fill="none" stroke="#a0931d" stroke-miterlimit="10" stroke-width="0.637"/>
              <line id="Línea_717" data-name="Línea 717" x2="19.906" transform="translate(166.501 147.566)" fill="none" stroke="#540d0a" stroke-miterlimit="10" stroke-width="1.221"/>
              <line id="Línea_718" data-name="Línea 718" x2="19.906" transform="translate(166.501 155.889)" fill="none" stroke="#540d0a" stroke-miterlimit="10" stroke-width="1.221"/>
              <line id="Línea_719" data-name="Línea 719" x2="19.906" transform="translate(166.501 164.212)" fill="none" stroke="#540d0a" stroke-miterlimit="10" stroke-width="1.221"/>
              <line id="Línea_720" data-name="Línea 720" x2="19.906" transform="translate(166.501 172.534)" fill="none" stroke="#540d0a" stroke-miterlimit="10" stroke-width="1.221"/>
              <g id="Grupo_1198351" data-name="Grupo 1198351" transform="translate(131.125 124.897)" opacity="0.5" style="mix-blend-mode: overlay;isolation: isolate">
                <g id="Grupo_1198350" data-name="Grupo 1198350">
                  <g id="Grupo_1198349" data-name="Grupo 1198349" clip-path="url(#clip-path-18)">
                    <path id="Trazado_916749" data-name="Trazado 916749" d="M309.836,177.349c.995,1.245,1.128,2.791.3,3.454s-2.308.192-3.3-1.053-1.128-2.791-.3-3.454,2.309-.192,3.3,1.053" transform="translate(-305.989 -175.996)" fill="#fff"/>
                  </g>
                </g>
              </g>
              <g id="Grupo_1198354" data-name="Grupo 1198354" transform="translate(110.51 125.246)" opacity="0.5" style="mix-blend-mode: overlay;isolation: isolate">
                <g id="Grupo_1198353" data-name="Grupo 1198353">
                  <g id="Grupo_1198352" data-name="Grupo 1198352" clip-path="url(#clip-path-19)">
                    <path id="Trazado_916750" data-name="Trazado 916750" d="M280.788,177.842c.994,1.245,1.128,2.791.3,3.454s-2.309.192-3.3-1.053-1.128-2.791-.3-3.454,2.309-.192,3.3,1.053" transform="translate(-276.94 -176.488)" fill="#fff"/>
                  </g>
                </g>
              </g>
              <line id="Línea_721" data-name="Línea 721" y1="2.653" x2="14.496" transform="translate(107.784 214.144)" fill="none" stroke="#b2544f" stroke-miterlimit="10" stroke-width="1.22"/>
              <path id="Trazado_916751" data-name="Trazado 916751" d="M210.329,139.267s5.383-11.015,20.461-9.476" transform="translate(-147.089 -37.641)" fill="none" stroke="#a0931d" stroke-miterlimit="10" stroke-width="0.637"/>
            </g>
          </g>
        </g>
      </g>
    </g>
  </g>
</svg>
