<svg xmlns="http://www.w3.org/2000/svg" xmlns:xlink="http://www.w3.org/1999/xlink" width="138" height="138" viewBox="0 0 138 138">
  <defs>
    <filter id="Trazado_896985" x="0" y="0" width="138" height="138" filterUnits="userSpaceOnUse">
      <feOffset dy="3" input="SourceAlpha"/>
      <feGaussianBlur stdDeviation="3" result="blur"/>
      <feFlood flood-opacity="0.161"/>
      <feComposite operator="in" in2="blur"/>
      <feComposite in="SourceGraphic"/>
    </filter>
  </defs>
  <g id="Grupo_1199693" data-name="Grupo 1199693" transform="translate(-311.109 -10348.464)">
    <g id="Grupo_1199549" data-name="Grupo 1199549" transform="translate(-14.781 6502.464)">
      <g id="Grupo_1111318" data-name="Grupo 1111318" transform="translate(334.891 3852)">
        <g id="Grupo_1109826" data-name="Grupo 1109826" transform="translate(0 0)">
          <g id="Grupo_1098742" data-name="Grupo 1098742" transform="translate(0)">
            <g transform="matrix(1, 0, 0, 1, -9, -6)" filter="url(#Trazado_896985)">
              <g id="Trazado_896985-2" data-name="Trazado 896985" transform="translate(9 6)" fill="#f1963d" opacity="0.859">
                <path d="M 59.99993896484375 118.5 C 52.10183715820312 118.5 44.44078826904297 116.9534759521484 37.22958755493164 113.9033966064453 C 33.7635383605957 112.4373931884766 30.42043876647949 110.6227951049805 27.29312324523926 108.510009765625 C 24.19512176513672 106.4170608520508 21.28185653686523 104.0133819580078 18.63423919677734 101.3657760620117 C 15.98662185668945 98.71816253662109 13.5829553604126 95.80489349365234 11.48998928070068 92.70689392089844 C 9.377205848693848 89.57958221435547 7.5626220703125 86.23646545410156 6.096605777740479 82.77043151855469 C 3.046522378921509 75.55922698974609 1.500005602836609 67.89817810058594 1.500005602836609 60.00008010864258 C 1.500005602836609 52.10181427001953 3.046522378921509 44.44076156616211 6.096605777740479 37.22956466674805 C 7.5626220703125 33.76353073120117 9.377205848693848 30.42041206359863 11.48998928070068 27.2930965423584 C 13.5829553604126 24.19511222839355 15.98662185668945 21.28184700012207 18.63423919677734 18.63422966003418 C 21.28185653686523 15.98661327362061 24.19512176513672 13.58294582366943 27.29312324523926 11.48997974395752 C 30.42043876647949 9.377196311950684 33.7635383605957 7.562613010406494 37.22958755493164 6.096596240997314 C 44.44078826904297 3.046512842178345 52.10183715820312 1.499996185302734 59.99993896484375 1.499996185302734 C 67.89804077148438 1.499996185302734 75.55908966064453 3.046512842178345 82.77028656005859 6.096596240997314 C 86.23633575439453 7.562613010406494 89.57943725585938 9.377196311950684 92.70675659179688 11.48997974395752 C 95.80475616455078 13.58294582366943 98.71802520751953 15.98661327362061 101.3656387329102 18.63422966003418 C 104.0132522583008 21.28184700012207 106.4169235229492 24.19511222839355 108.5098876953125 27.2930965423584 C 110.622673034668 30.42041206359863 112.437255859375 33.76353073120117 113.9032745361328 37.22956466674805 C 116.9533538818359 44.44076156616211 118.499870300293 52.10181427001953 118.499870300293 59.99991226196289 C 118.499870300293 67.89817810058594 116.9533538818359 75.55922698974609 113.9032745361328 82.77043151855469 C 112.437255859375 86.23646545410156 110.622673034668 89.57958221435547 108.5098876953125 92.70689392089844 C 106.4169235229492 95.80489349365234 104.0132522583008 98.71816253662109 101.3656387329102 101.3657760620117 C 98.71802520751953 104.0133819580078 95.80475616455078 106.4170608520508 92.70675659179688 108.510009765625 C 89.57943725585938 110.6227951049805 86.23633575439453 112.4373931884766 82.77028656005859 113.9033966064453 C 75.55908966064453 116.9534759521484 67.89804077148438 118.5 59.99993896484375 118.5 Z" stroke="none"/>
                <path d="M 59.99993896484375 2.999992370605469 C 52.30366516113281 2.999992370605469 44.83921051025391 4.50665283203125 37.81390380859375 7.478103637695312 C 34.43706512451172 8.906379699707031 31.17988586425781 10.67436218261719 28.1328125 12.73290252685547 C 25.11392211914062 14.77243041992188 22.27499389648438 17.11477661132812 19.69488525390625 19.69488525390625 C 17.11477661132812 22.27499389648438 14.77243041992188 25.11392211914062 12.73290252685547 28.1328125 C 10.67435455322266 31.17987060546875 8.9063720703125 34.43706512451172 7.478103637695312 37.81390380859375 C 4.506645202636719 44.83919525146484 2.999992370605469 52.30364990234375 2.999992370605469 60.00008773803711 C 2.999992370605469 67.69634246826172 4.506645202636719 75.16079711914062 7.478103637695312 82.18610382080078 C 8.9063720703125 85.56294250488281 10.67435455322266 88.82012176513672 12.73290252685547 91.86717987060547 C 14.77243041992188 94.88607025146484 17.11477661132812 97.72499847412109 19.69488525390625 100.3051071166992 C 22.27499389648438 102.8852157592773 25.11392211914062 105.2275619506836 28.1328125 107.26708984375 C 31.17988586425781 109.3256301879883 34.43706512451172 111.0936126708984 37.81390380859375 112.5218887329102 C 44.83921051025391 115.4933395385742 52.30366516113281 117 59.99993896484375 117 C 67.69621276855469 117 75.16066741943359 115.4933395385742 82.18597412109375 112.5218887329102 C 85.56281280517578 111.0936126708984 88.81999206542969 109.3256301879883 91.8670654296875 107.26708984375 C 94.88595581054688 105.2275619506836 97.72488403320312 102.8852157592773 100.3049926757812 100.3051071166992 C 102.8851013183594 97.72499847412109 105.2274475097656 94.88607025146484 107.266975402832 91.86717987060547 C 109.3255233764648 88.82012176513672 111.093505859375 85.56294250488281 112.5217742919922 82.18610382080078 C 115.4932327270508 75.16079711914062 116.999885559082 67.69634246826172 116.999885559082 59.99992370605469 C 116.999885559082 52.30364990234375 115.4932327270508 44.83919525146484 112.5217742919922 37.81390380859375 C 111.093505859375 34.43706512451172 109.3255233764648 31.17987060546875 107.266975402832 28.1328125 C 105.2274475097656 25.11392211914062 102.8851013183594 22.27499389648438 100.3049926757812 19.69488525390625 C 97.72488403320312 17.11477661132812 94.88595581054688 14.77243041992188 91.8670654296875 12.73290252685547 C 88.81999206542969 10.67436218261719 85.56281280517578 8.906379699707031 82.18597412109375 7.478103637695312 C 75.16066741943359 4.50665283203125 67.69621276855469 2.999992370605469 59.99993896484375 2.999992370605469 M 59.99993896484375 -7.62939453125e-06 C 93.13699340820312 -7.62939453125e-06 119.999885559082 26.86286926269531 119.999885559082 59.99992370605469 L 119.999885559082 60.00008773803711 C 119.999885559082 93.13712310791016 93.13699340820312 120 59.99993896484375 120 C 26.86288452148438 120 -7.62939453125e-06 93.13712310791016 -7.62939453125e-06 60.00008773803711 L -7.62939453125e-06 59.99992370605469 C -7.62939453125e-06 26.86286926269531 26.86288452148438 -7.62939453125e-06 59.99993896484375 -7.62939453125e-06 Z" stroke="none" fill="#fff"/>
              </g>
            </g>
            <g id="Rectángulo_400907" data-name="Rectángulo 400907" transform="translate(0)" fill="none" stroke="#fff" stroke-width="3">
              <rect width="120" height="120" rx="60" stroke="none"/>
              <rect x="1.5" y="1.5" width="117" height="117" rx="58.5" fill="none"/>
            </g>
          </g>
        </g>
      </g>
    </g>
    <g id="winner_2967617" transform="translate(339.626 10371.562)">
      <g id="Grupo_1199691" data-name="Grupo 1199691" transform="translate(2.272 2.272)">
        <g id="Grupo_1199667" data-name="Grupo 1199667" transform="translate(68.699 45.799)">
          <path id="Trazado_1031641" data-name="Trazado 1031641" d="M56.051,44.768a7.519,7.519,0,0,1,2.214-4.529,6.033,6.033,0,0,1,.992-.814A7.623,7.623,0,0,1,63.722,38v5.089a7.532,7.532,0,0,1-2.265,5.394,7.776,7.776,0,0,1-3.155,1.9c-.025,0-.038.013-.051.013a6.258,6.258,0,0,0-.7.178h-.025A7.486,7.486,0,0,1,56,50.722V45.633a6.45,6.45,0,0,1,.051-.865Z" transform="translate(-56 -38)" fill="#b4dd7f"/>
        </g>
        <g id="Grupo_1199668" data-name="Grupo 1199668" transform="translate(63.699 58.012)">
          <path id="Trazado_1031642" data-name="Trazado 1031642" d="M63.52,48.02l-1.272,3.817a8.049,8.049,0,0,1-7.633,5.5c-.216,0-.42-.013-.636-.025a7.7,7.7,0,0,1-1.908-.382l1.272-3.817a7.172,7.172,0,0,0,.445-1.081A8.081,8.081,0,0,1,58.6,47.956h.025a6.258,6.258,0,0,0,.7-.178c.013,0,.025-.013.051-.013a7.451,7.451,0,0,1,1.6-.165,8.078,8.078,0,0,1,2.544.42Z" transform="translate(-52.07 -47.6)" fill="#b4dd7f"/>
        </g>
        <g id="Grupo_1199669" data-name="Grupo 1199669" transform="translate(65.06 35.533)">
          <path id="Trazado_1031643" data-name="Trazado 1031643" d="M59.628,34.892A7.641,7.641,0,0,1,60,41.571l.038.051a6.033,6.033,0,0,0-.992.814,7.519,7.519,0,0,0-2.214,4.529,9.646,9.646,0,0,0-1.2-3.995l-1.527-2.735a7.667,7.667,0,0,1,2.761-10.3Z" transform="translate(-53.14 -29.93)" fill="#b4dd7f"/>
        </g>
        <g id="Grupo_1199670" data-name="Grupo 1199670" transform="translate(56.066 68.526)">
          <path id="Trazado_1031644" data-name="Trazado 1031644" d="M61.336,58.492l-2.544,2.544a9,9,0,0,1-12.722,0l2.544-2.544a9.013,9.013,0,0,1,12.722,0Z" transform="translate(-46.07 -55.864)" fill="#b4dd7f"/>
        </g>
        <g id="Grupo_1199671" data-name="Grupo 1199671" transform="translate(61.155 45.71)">
          <path id="Trazado_1031645" data-name="Trazado 1031645" d="M57.614,50.741a7.486,7.486,0,0,0,1.527-.153,8.081,8.081,0,0,0-4.809,4.071,8.518,8.518,0,0,0-4.147-10.3,7.673,7.673,0,0,1-.114-1.336V37.93a7.65,7.65,0,0,1,7.6,6.857,6.451,6.451,0,0,0-.051.865Z" transform="translate(-50.07 -37.93)" fill="#b4dd7f"/>
        </g>
        <g id="Grupo_1199672" data-name="Grupo 1199672" transform="translate(58.61 52.071)">
          <path id="Trazado_1031646" data-name="Trazado 1031646" d="M48.07,62.013a8.984,8.984,0,0,0,.382-12.3,8.522,8.522,0,0,1,.891-4.236l1.272-2.544c.038.025.076.038.114.064a8.518,8.518,0,0,1,4.147,10.3,9.158,9.158,0,0,0-.445,1.081L53.159,58.2a7.7,7.7,0,0,0,1.908.382l-.038.827A8.974,8.974,0,0,0,48.07,62.013Z" transform="translate(-48.07 -42.93)" fill="#b4dd7f"/>
        </g>
        <g id="Grupo_1199673" data-name="Grupo 1199673" transform="translate(36.881 31.805)">
          <path id="Trazado_1031647" data-name="Trazado 1031647" d="M53.9,32.089v8.905a11.451,11.451,0,0,1-11.45,11.45,11.188,11.188,0,0,1-5.089-1.2c-.089-.038-.165-.076-.242-.114a11.469,11.469,0,0,1-3.995-3.486l-.089-.114a4.934,4.934,0,0,0,1.781-3.791v-.407a4.9,4.9,0,0,0-3.829-4.771L31,38.5V32.089A5.087,5.087,0,0,1,36.092,27H48.814A5.087,5.087,0,0,1,53.9,32.089Z" transform="translate(-30.99 -27)" fill="#fcd770"/>
        </g>
        <g id="Grupo_1199674" data-name="Grupo 1199674" transform="translate(53.431 58.432)">
          <path id="Trazado_1031648" data-name="Trazado 1031648" d="M49.56,48.35a8.984,8.984,0,0,1-.382,12.3L46.634,63.2a8.991,8.991,0,0,1,0-12.722l2.544-2.544q.21.21.382.42Z" transform="translate(-43.999 -47.93)" fill="#b4dd7f"/>
        </g>
        <g id="Grupo_1199675" data-name="Grupo 1199675" transform="translate(43.255 64.882)">
          <path id="Trazado_1031649" data-name="Trazado 1031649" d="M46.178,56.817v1.272H36V56.817A3.811,3.811,0,0,1,39.817,53h2.544a3.8,3.8,0,0,1,3.778,3.333A3.1,3.1,0,0,1,46.178,56.817Z" transform="translate(-36 -53)" fill="#ffc729"/>
        </g>
        <g id="Grupo_1199676" data-name="Grupo 1199676" transform="translate(15.266 26.716)">
          <path id="Trazado_1031650" data-name="Trazado 1031650" d="M29.266,42.083v7.633H23.949a9.308,9.308,0,0,1-2.315-.28,9.894,9.894,0,0,1-7.366-7.417A9.406,9.406,0,0,1,14,39.768,17.048,17.048,0,0,1,27.994,23v1.272a3.817,3.817,0,0,0,7.633,0V23a17,17,0,0,1,9.363,5.089H40.716a5.087,5.087,0,0,0-5.089,5.089v6.412l-.013.064a4.713,4.713,0,0,0-1.056-.114,4.876,4.876,0,0,0-2.71.814Z" transform="translate(-14 -23)" fill="#ef7385"/>
        </g>
        <g id="Grupo_1199677" data-name="Grupo 1199677" transform="translate(21.627 0)">
          <path id="Trazado_1031651" data-name="Trazado 1031651" d="M41.9,11.325A9.45,9.45,0,0,1,41.149,15a3.906,3.906,0,0,0-.369-.433,3.807,3.807,0,0,0-2.7-1.12H36.811a6.144,6.144,0,0,1-4.338-1.794L30.45,9.633l-2.023,2.023a6.144,6.144,0,0,1-4.338,1.794H22.817A3.788,3.788,0,0,0,19.751,15,9.45,9.45,0,0,1,19,11.325,9.322,9.322,0,0,1,28.325,2h4.249A9.339,9.339,0,0,1,41.9,11.325Z" transform="translate(-19 -2)" fill="#656d78"/>
        </g>
        <g id="Grupo_1199678" data-name="Grupo 1199678" transform="translate(39.438 11.45)">
          <path id="Trazado_1031652" data-name="Trazado 1031652" d="M37.338,12.552a3.81,3.81,0,0,1-3.066,6.081H33V11h1.272a3.807,3.807,0,0,1,2.7,1.12A3.906,3.906,0,0,1,37.338,12.552Z" transform="translate(-33 -11)" fill="#f0d0b4"/>
        </g>
        <g id="Grupo_1199679" data-name="Grupo 1199679" transform="translate(22.9 52.338)">
          <path id="Trazado_1031653" data-name="Trazado 1031653" d="M30.178,67.134H20V43.954a9.307,9.307,0,0,0,2.315.28h10.61a5.007,5.007,0,0,0,3.1-1.094l.089.114a11.469,11.469,0,0,0,3.995,3.486c.076.038.153.076.242.114V67.134Z" transform="translate(-20 -43.14)" fill="#d3a06c"/>
        </g>
        <g id="Grupo_1199680" data-name="Grupo 1199680" transform="translate(30.533 43.255)">
          <path id="Trazado_1031654" data-name="Trazado 1031654" d="M36.178,40.885v.407A4.934,4.934,0,0,1,34.4,45.083a5.007,5.007,0,0,1-3.1,1.094H26V38.544l2.583-1.73A4.876,4.876,0,0,1,31.292,36a4.713,4.713,0,0,1,1.056.114A4.9,4.9,0,0,1,36.178,40.885Z" transform="translate(-26 -36)" fill="#f0d0b4"/>
        </g>
        <g id="Grupo_1199681" data-name="Grupo 1199681" transform="translate(26.716 7.633)">
          <path id="Trazado_1031655" data-name="Trazado 1031655" d="M32.452,24.2a4.821,4.821,0,0,1-1.819.343H28.089A4.821,4.821,0,0,1,26.27,24.2,5.066,5.066,0,0,1,23,19.45V11.817a6.144,6.144,0,0,0,4.338-1.794L29.361,8l2.023,2.023a6.144,6.144,0,0,0,4.338,1.794V19.45A5.066,5.066,0,0,1,32.452,24.2Z" transform="translate(-23 -8)" fill="#f0d0b4"/>
        </g>
        <g id="Grupo_1199682" data-name="Grupo 1199682" transform="translate(29.261 23.828)">
          <path id="Trazado_1031656" data-name="Trazado 1031656" d="M32.633,23.618V24.89a3.817,3.817,0,0,1-7.633,0V23.618l.725-2.888a4.821,4.821,0,0,0,1.819.343h2.544a4.821,4.821,0,0,0,1.819-.343Z" transform="translate(-25 -20.73)" fill="#f0d0b4"/>
        </g>
        <g id="Grupo_1199683" data-name="Grupo 1199683" transform="translate(21.627 11.45)">
          <path id="Trazado_1031657" data-name="Trazado 1031657" d="M24.089,11v7.633H22.817a3.817,3.817,0,0,1,0-7.633Z" transform="translate(-19 -11)" fill="#f0d0b4"/>
        </g>
        <g id="Grupo_1199684" data-name="Grupo 1199684" transform="translate(15.088 58.432)">
          <path id="Trazado_1031658" data-name="Trazado 1031658" d="M19.038,50.474a9,9,0,0,1,0,12.722l-2.544-2.544a8.982,8.982,0,0,1-.382-12.3q.172-.21.382-.42Z" transform="translate(-13.86 -47.93)" fill="#b4dd7f"/>
        </g>
        <g id="Grupo_1199685" data-name="Grupo 1199685" transform="translate(5 68.519)">
          <path id="Trazado_1031659" data-name="Trazado 1031659" d="M18.652,58.494,21.2,61.038a9,9,0,0,1-12.722,0L5.93,58.494a8.991,8.991,0,0,1,12.722,0Z" transform="translate(-5.93 -55.859)" fill="#b4dd7f"/>
        </g>
        <g id="Grupo_1199686" data-name="Grupo 1199686" transform="translate(10.457 52.071)">
          <path id="Trazado_1031660" data-name="Trazado 1031660" d="M17.484,62.013a9.009,9.009,0,0,0-7.226-2.6l-.038-.827A7.616,7.616,0,0,0,12.4,58.2L11.123,54.38a9.157,9.157,0,0,0-.445-1.081,8.523,8.523,0,0,1,4.249-10.356.012.012,0,0,1,.013-.013l1.272,2.544a8.522,8.522,0,0,1,.891,4.236,8.982,8.982,0,0,0,.382,12.3Z" transform="translate(-10.22 -42.93)" fill="#b4dd7f"/>
        </g>
        <g id="Grupo_1199687" data-name="Grupo 1199687" transform="translate(5.585 45.799)">
          <path id="Trazado_1031661" data-name="Trazado 1031661" d="M16.071,38v5.051a7.815,7.815,0,0,1-.1,1.234A8.523,8.523,0,0,0,11.721,54.64,8.09,8.09,0,0,0,6.39,50.429l.013-.064a7.051,7.051,0,0,0,1.946.267V45.544a7.166,7.166,0,0,1,.038-.738,7.53,7.53,0,0,1,2.226-4.58A7.755,7.755,0,0,1,16.071,38Z" transform="translate(-6.39 -38)" fill="#b4dd7f"/>
        </g>
        <g id="Grupo_1199688" data-name="Grupo 1199688" transform="translate(1.183 58.012)">
          <path id="Trazado_1031662" data-name="Trazado 1031662" d="M13.108,53.109l1.272,3.817a7.616,7.616,0,0,1-2.175.394,3.576,3.576,0,0,1-.369.013,8.049,8.049,0,0,1-7.633-5.5L2.93,48.02a7.988,7.988,0,0,1,4.4-.2,8.09,8.09,0,0,1,5.331,4.211,7.172,7.172,0,0,0,.445,1.081Z" transform="translate(-2.93 -47.6)" fill="#b4dd7f"/>
        </g>
        <g id="Grupo_1199689" data-name="Grupo 1199689" transform="translate(3.818 35.533)">
          <path id="Trazado_1031663" data-name="Trazado 1031663" d="M12.455,36.507a7.72,7.72,0,0,1-.967,3.728L9.961,42.97A9.444,9.444,0,0,0,8.765,47a7.166,7.166,0,0,0-.038.738,7.6,7.6,0,0,0-2.214-5.318,6.371,6.371,0,0,0-.954-.8l.038-.051a7.641,7.641,0,0,1,.369-6.679L8.727,29.93A7.665,7.665,0,0,1,12.455,36.507Z" transform="translate(-5.001 -29.93)" fill="#b4dd7f"/>
        </g>
        <g id="Grupo_1199690" data-name="Grupo 1199690" transform="translate(0 45.799)">
          <path id="Trazado_1031664" data-name="Trazado 1031664" d="M9.544,45.582v5.051A7.051,7.051,0,0,1,7.6,50.366a7.371,7.371,0,0,1-3.384-1.959A7.526,7.526,0,0,1,2,43.051V38a7.38,7.38,0,0,1,4.376,1.425,6.371,6.371,0,0,1,.954.8,7.6,7.6,0,0,1,2.214,5.318Z" transform="translate(-2 -38)" fill="#b4dd7f"/>
        </g>
      </g>
      <g id="Grupo_1199692" data-name="Grupo 1199692" transform="translate(1 1)">
        <path id="Trazado_1031665" data-name="Trazado 1031665" d="M42.361,42.722H39.817a1.273,1.273,0,0,1-1.272-1.272H36a3.821,3.821,0,0,0,3.817,3.817v2.544h2.544V45.266a3.817,3.817,0,1,0,0-7.633H39.817a1.272,1.272,0,0,1,0-2.544h2.544a1.273,1.273,0,0,1,1.272,1.272h2.544a3.821,3.821,0,0,0-3.817-3.817V30H39.817v2.544a3.817,3.817,0,1,0,0,7.633h2.544a1.272,1.272,0,0,1,0,2.544Z" transform="translate(8.527 6.894)"/>
        <path id="Trazado_1031666" data-name="Trazado 1031666" d="M79.967,46.8H78.694a9.026,9.026,0,0,0-2.67.4,8.888,8.888,0,0,0-1.093-5.048l-3.4-6.117-1.128.677a8.9,8.9,0,0,0-3.851,10.575,8.833,8.833,0,0,0-3.127-.578h-.09V39.166A6.368,6.368,0,0,0,56.977,32.8H49.052a18.159,18.159,0,0,0-8.846-4.9l-.284-1.136a6.361,6.361,0,0,0,2.932-4.138h.127a5.094,5.094,0,0,0,5.089-5.089,5.025,5.025,0,0,0-.625-2.392,10.5,10.5,0,0,0,.625-3.546A10.613,10.613,0,0,0,37.47,1H33.229a10.572,10.572,0,0,0-9.978,14.148,5.034,5.034,0,0,0-.623,2.39,5.094,5.094,0,0,0,5.089,5.089h.128a6.355,6.355,0,0,0,2.932,4.138L30.493,27.9A18.307,18.307,0,0,0,16.266,45.757c0,.383.02.76.057,1.132a9.1,9.1,0,0,0-2.051.522,8.9,8.9,0,0,0-3.8-10.7l-1.128-.677-3.4,6.117A8.9,8.9,0,0,0,4.85,47.188,8.718,8.718,0,0,0,2.272,46.8H1v6.325a8.838,8.838,0,0,0,2.561,6.229c-.17.047-.341.087-.51.144l-1.206.4,1.674,5.024a9.255,9.255,0,0,0,4.673,5.386c.26.13.527.237.794.342A10.167,10.167,0,0,0,6.37,72.526l-.9.9,3.444,3.444a10.269,10.269,0,0,0,14.522,0c.164-.164.312-.338.463-.51v3.518H46.8V73.515h8.4a10.271,10.271,0,0,0,16.76,3.354L75.4,73.425l-.9-.9a10.2,10.2,0,0,0-2.616-1.875c.267-.1.534-.211.794-.342a9.255,9.255,0,0,0,4.673-5.386L79.03,59.9l-1.206-.4c-.141-.047-.284-.079-.425-.12a8.825,8.825,0,0,0,2.567-6.217Zm-9.314-7.112,2.055,3.7a6.363,6.363,0,0,1,.387,5.361A9.028,9.028,0,0,0,71.2,50.785c-.09-.186-.164-.378-.265-.557l-1.523-2.74a6.373,6.373,0,0,1,1.238-7.8ZM64.7,49.38A6.359,6.359,0,0,1,69.734,55c-.018.234-.036.469-.036.707v4.9q-.181.12-.355.248a9.8,9.8,0,0,0-4.6-7.218c-.017-.187-.048-.371-.048-.56Zm1.338,16.008-1.5,4.5c-.051.014-.1.019-.155.034a10.282,10.282,0,0,0-1.841-9.254,7.247,7.247,0,0,1,.753-3.219l.654-1.307A7.261,7.261,0,0,1,66.4,64.47,9.318,9.318,0,0,0,66.039,65.389ZM62.18,53.343c.005.186.031.37.048.555l-1.21,2.42a9.822,9.822,0,0,0-.98,3.432l-2.6,2.6a10.2,10.2,0,0,0-2.619,4.478,5.058,5.058,0,0,0-2.934-.944V60.728A12.742,12.742,0,0,0,62.18,53.343ZM46.8,60.181a12.62,12.62,0,0,0,2.544.534v5.166a5.036,5.036,0,0,0-2.544.707ZM60.793,39.166v8.905a10.164,10.164,0,0,1-17.918,6.585,6.1,6.1,0,0,0,1.379-3.834V50.41a6.161,6.161,0,0,0-3.817-5.688V39.166a3.821,3.821,0,0,1,3.817-3.817H56.977a3.821,3.821,0,0,1,3.817,3.817ZM34.077,48.752,36.1,47.406a3.611,3.611,0,0,1,5.614,3v.412A3.614,3.614,0,0,1,38.1,54.432H34.077Zm8.905-28.669V14.994a2.544,2.544,0,0,1,0,5.089ZM25.172,17.539a2.547,2.547,0,0,1,2.544-2.544v5.089A2.547,2.547,0,0,1,25.172,17.539Zm3.817-5.089H27.716a5.033,5.033,0,0,0-2.4.63,7.954,7.954,0,0,1-.142-1.478,8.066,8.066,0,0,1,8.057-8.057H37.47A8.066,8.066,0,0,1,45.527,11.6a7.978,7.978,0,0,1-.142,1.48,5.019,5.019,0,0,0-2.4-.631H41.71a4.9,4.9,0,0,1-3.444-1.426L35.349,8.106l-2.917,2.917A4.9,4.9,0,0,1,28.988,12.45Zm1.272,2.432a7.461,7.461,0,0,0,3.971-2.06L35.349,11.7l1.118,1.118a7.461,7.461,0,0,0,3.971,2.06v6.473a3.821,3.821,0,0,1-3.817,3.817H34.077a3.821,3.821,0,0,1-3.817-3.817Zm3.817,12.834h2.544a6.265,6.265,0,0,0,.893-.09l.379,1.518v1.117a2.544,2.544,0,1,1-5.089,0V29.142l.379-1.516a6.265,6.265,0,0,0,.893.09Zm-3.784,2.866a5.065,5.065,0,0,0,10.111,0,15.57,15.57,0,0,1,4.7,2.22h-.85a6.368,6.368,0,0,0-6.361,6.361v5.1a6.135,6.135,0,0,0-3.207,1.019L32.42,46.8H28.988a2.547,2.547,0,0,1-2.544-2.544V40.438H23.9v3.817a5.094,5.094,0,0,0,5.089,5.089h2.544v5.089H27.486a8.687,8.687,0,0,1-8.675-8.675A15.762,15.762,0,0,1,30.294,30.582ZM23.9,56.379v6.481c-.151-.173-.3-.347-.463-.511l-2.6-2.6a9.822,9.822,0,0,0-.98-3.432l-1.13-2.259a9.217,9.217,0,0,0,.081-.934v-.262A11.261,11.261,0,0,0,23.9,56.379ZM16.5,69.928c-.051-.015-.1-.02-.155-.034l-1.5-4.5a9.466,9.466,0,0,0-.364-.92,7.262,7.262,0,0,1,2.454-8.321l.654,1.307a7.243,7.243,0,0,1,.753,3.219A10.281,10.281,0,0,0,16.5,69.928Zm-.229-16.8c0,.151-.029.3-.039.448a9.8,9.8,0,0,0-4.694,7.276c-.145-.107-.293-.212-.445-.312V55.65a6.355,6.355,0,0,1,5.179-6.183Zm-8.1-9.739,2.055-3.7a6.375,6.375,0,0,1,1.239,7.8L9.94,50.228c-.108.195-.19.4-.285.6a8.908,8.908,0,0,0-1.869-2.074,6.357,6.357,0,0,1,.383-5.369ZM3.544,49.475a6.309,6.309,0,0,1,5,6.175V59.3a6.307,6.307,0,0,1-5-6.175ZM5.932,64.116,5.1,61.62a6.775,6.775,0,0,1,6.973,3.767c.107.286.23.57.366.85l.817,2.452a6.787,6.787,0,0,1-7.325-4.572ZM10.715,75.07,9.145,73.5a7.735,7.735,0,0,1,9.949.824l1.566,1.566a7.711,7.711,0,0,1-9.945-.821Zm11.744-.98-1.566-1.566a7.735,7.735,0,0,1-.824-9.949l1.57,1.57a7.711,7.711,0,0,1,.821,9.945Zm21.8,3.242H36.622V64.789a3.808,3.808,0,0,1,1.7-3.175l1.551-1.034-1.411-2.117L36.91,59.5a6.344,6.344,0,0,0-2.833,5.292V77.332H26.444V56.923c.343.033.691.053,1.042.053H38.1a6.086,6.086,0,0,0,2.812-.711,12.683,12.683,0,0,0,3.343,2.794V77.332ZM46.8,70.971a2.547,2.547,0,0,1,2.544-2.544h2.544a2.547,2.547,0,0,1,2.544,2.544Zm10.178-1.363a7.679,7.679,0,0,1,2.262-5.462l1.57-1.57a7.737,7.737,0,0,1-.824,9.949l-1.566,1.566a7.669,7.669,0,0,1-1.441-4.483ZM70.162,75.07a7.711,7.711,0,0,1-9.945.821l1.566-1.566a7.734,7.734,0,0,1,9.949-.824Zm4.782-10.954A6.786,6.786,0,0,1,67.62,68.69l.817-2.452c.136-.281.261-.566.368-.854a6.769,6.769,0,0,1,6.972-3.763ZM77.422,53.16a6.38,6.38,0,0,1-4.984,6.18l-.019.005c-.029.006-.056.018-.085.024V55.613c0-.2-.017-.392-.029-.586a6.394,6.394,0,0,1,5.118-5.56Z" transform="translate(-1 -1)"/>
      </g>
    </g>
  </g>
</svg>
