<svg xmlns="http://www.w3.org/2000/svg" width="127" height="180.381" viewBox="0 0 127 180.381">
  <g id="Grupo_1199765" data-name="Grupo 1199765" transform="translate(-180 -1777)">
    <g id="Grupo_1199590" data-name="Grupo 1199590" transform="translate(180 1777)">
      <path id="Trazado_902293" data-name="Trazado 902293" d="M12,0H115c6.627,0,12,6.854,12,15.31V165.071c0,8.455-5.373,15.31-12,15.31H12c-6.627,0-12-6.854-12-15.31V15.31C0,6.854,5.373,0,12,0Z" transform="translate(0)" fill="#19793a"/>
    </g>
    <g id="analysis_3442807" transform="translate(194.763 1827)">
      <g id="Grupo_1199763" data-name="Grupo 1199763" transform="translate(7.501 1.264)">
        <g id="XMLID_387_" transform="translate(0 16.701)">
          <g id="Grupo_1199761" data-name="Grupo 1199761">
            <path id="Trazado_1031949" data-name="Trazado 1031949" d="M81.013,137.037v6.34a2.391,2.391,0,0,1-2.392,2.392H74.055a27.088,27.088,0,0,1-3.879,9.375l3.225,3.225a2.39,2.39,0,0,1,0,3.383l-4.483,4.483a2.39,2.39,0,0,1-3.383,0L62.31,163.01a27.075,27.075,0,0,1-9.375,3.879v4.565a2.391,2.391,0,0,1-2.392,2.392H44.2a2.393,2.393,0,0,1-2.394-2.392v-4.565a27.067,27.067,0,0,1-9.373-3.879l-3.225,3.225a2.392,2.392,0,0,1-3.385,0l-4.483-4.483a2.393,2.393,0,0,1,0-3.383l3.225-3.225a27.153,27.153,0,0,1-3.879-9.375H16.128a2.393,2.393,0,0,1-2.394-2.392v-6.34a2.394,2.394,0,0,1,2.394-2.392h4.563a27.132,27.132,0,0,1,3.879-9.373l-3.225-3.225a2.4,2.4,0,0,1,0-3.385l4.483-4.483a2.4,2.4,0,0,1,3.385,0l3.225,3.225a27.1,27.1,0,0,1,9.373-3.879V108.96a2.394,2.394,0,0,1,2.394-2.392h6.339a2.393,2.393,0,0,1,2.392,2.392v4.565a27.186,27.186,0,0,1,7.37,2.685l5.214,2.9,5.959,8.37a27.093,27.093,0,0,1,2.576,7.166H78.62A2.393,2.393,0,0,1,81.013,137.037Zm-12.057,3a21.65,21.65,0,1,0-21.649,21.649A21.649,21.649,0,0,0,68.956,140.04Z" transform="translate(-13.734 -106.568)" fill="#f3eae6"/>
          </g>
        </g>
        <g id="Grupo_1199762" data-name="Grupo 1199762" transform="translate(19.216 24.111)">
          <path id="Trazado_1031950" data-name="Trazado 1031950" d="M168.534,152.157l-1.879-.757-.054-.877a1.975,1.975,0,0,0-.378.034L146.1,154.524a22.784,22.784,0,0,0-18.23,24.942l1.087,9.508a1.107,1.107,0,0,0,.975.974l9.611,1.1a22.715,22.715,0,0,0,15.241-3.69l-.163-.53,1.446-1.65,1.645-.149a22.721,22.721,0,0,0,4.995-6.827l-.459-.264.812-2.036.646-.166a22.953,22.953,0,0,0,.757-2.808l.867-4.287-.753-.366.361-1.918.9-.215L167,160.381l-.707-.451.486-1.7.724-.332,1.018-5.032a1.955,1.955,0,0,0,.013-.709Z" transform="translate(-127.722 -150.523)" fill="#bbec6c"/>
          <path id="Trazado_1031951" data-name="Trazado 1031951" d="M132.658,183.838a22.785,22.785,0,0,1,18.23-24.942l17.1-3.371.538-2.659a1.958,1.958,0,0,0,.012-.709l-1.879-.757-.054-.877a1.975,1.975,0,0,0-.378.034L146.1,154.524a22.784,22.784,0,0,0-18.23,24.942l1.087,9.508a1.107,1.107,0,0,0,.975.974l3.469.4Z" transform="translate(-127.722 -150.523)" fill="#a2e62e"/>
        </g>
        <circle id="Elipse_12164" data-name="Elipse 12164" cx="3.404" cy="3.404" r="3.404" transform="translate(73.891)" fill="#f37c7c"/>
      </g>
      <g id="Grupo_1199764" data-name="Grupo 1199764" transform="translate(6.237 0)">
        <path id="Trazado_1031952" data-name="Trazado 1031952" d="M72.387,127.146H68.832a28.39,28.39,0,0,0-2.259-6.082l2.168-10.722a3.223,3.223,0,0,0-3.782-3.8l-10.7,2.109a28.387,28.387,0,0,0-6.294-2.37v-3.555a3.661,3.661,0,0,0-3.657-3.657H37.971a3.657,3.657,0,0,0-3.657,3.657v3.555a28.216,28.216,0,0,0-7.929,3.281l-2.511-2.511a3.662,3.662,0,0,0-5.172,0l-4.483,4.483a3.662,3.662,0,0,0,0,5.172l2.511,2.511a28.221,28.221,0,0,0-3.281,7.93H9.894A3.661,3.661,0,0,0,6.237,130.8v6.339A3.657,3.657,0,0,0,9.894,140.8h3.555a28.217,28.217,0,0,0,3.281,7.929l-2.511,2.511a3.662,3.662,0,0,0,0,5.172L18.7,160.9a3.661,3.661,0,0,0,5.172,0l2.511-2.511a28.222,28.222,0,0,0,7.929,3.281v3.555a3.661,3.661,0,0,0,3.657,3.657H44.31a3.661,3.661,0,0,0,3.657-3.657v-3.555a28.217,28.217,0,0,0,7.929-3.281l2.511,2.511a3.662,3.662,0,0,0,5.172,0l4.483-4.483a3.662,3.662,0,0,0,0-5.172l-2.511-2.511a28.222,28.222,0,0,0,3.281-7.93h3.555a3.657,3.657,0,0,0,3.657-3.657V130.8a3.661,3.661,0,0,0-3.657-3.657Zm-44.279,9.4a21.452,21.452,0,0,1,2.658-13.056l1.349,17.718L29,144.327Zm12.217-15.722a1.264,1.264,0,0,0,1.259,1.168c.032,0,.065,0,.1,0a1.264,1.264,0,0,0,1.165-1.357l-.52-6.825a21.643,21.643,0,0,1,3-.819l4.1-.809.829,10.887-6.715,6.715-.286-3.759a1.264,1.264,0,0,0-2.521.192l.451,5.924-6.714,6.714-1.419-18.642a21.439,21.439,0,0,1,6.818-5.361Zm23.222,2.441-9.212-.7,5.855-5.855,4.542.7Zm1.687-8.339-2.826-.435,3.653-3.653Zm-4.557-2.28-.4-2.606,3.745-.738Zm-2.218,2.218-5.845,5.845-.687-9.023,5.866-1.156Zm-3.546,27.267-18.719-1.426,6.714-6.714,17.418,1.326a21.629,21.629,0,0,1-5.412,6.814ZM28.5,148.4l9.88,1.13q.28.032.559.057.058.005.115.005a1.264,1.264,0,0,0,.112-2.524c-.167-.015-.334-.032-.5-.051l-7.882-.9,3.051-3.051,17.768,1.353a21.377,21.377,0,0,1-7.346,2.511,1.264,1.264,0,1,0,.369,2.5,24.088,24.088,0,0,0,16.49-10.463A20.592,20.592,0,0,1,27.5,149.4Zm33.7-18.5a21.382,21.382,0,0,1-.828,2.961l-16.113-1.227,6.714-6.714,11.063.842Zm11.31,7.241a1.128,1.128,0,0,1-1.128,1.128H67.823a1.264,1.264,0,0,0-1.238,1.008,25.744,25.744,0,0,1-3.7,8.937,1.264,1.264,0,0,0,.163,1.588l3.225,3.225a1.13,1.13,0,0,1,0,1.6l-4.483,4.483a1.129,1.129,0,0,1-1.6,0l-3.225-3.225a1.264,1.264,0,0,0-1.588-.163,25.748,25.748,0,0,1-8.937,3.7,1.265,1.265,0,0,0-1.007,1.238v4.565a1.13,1.13,0,0,1-1.128,1.128h-6.34a1.13,1.13,0,0,1-1.128-1.128v-4.565a1.265,1.265,0,0,0-1.007-1.238,25.741,25.741,0,0,1-8.937-3.7,1.264,1.264,0,0,0-1.588.163l-3.225,3.225a1.13,1.13,0,0,1-1.6,0l-4.483-4.483a1.128,1.128,0,0,1,0-1.6l3.225-3.225a1.264,1.264,0,0,0,.163-1.588,25.743,25.743,0,0,1-3.7-8.936,1.265,1.265,0,0,0-1.238-1.008H9.894a1.128,1.128,0,0,1-1.128-1.128V130.8a1.13,1.13,0,0,1,1.128-1.128h4.565a1.264,1.264,0,0,0,1.238-1.008,25.744,25.744,0,0,1,3.7-8.937,1.265,1.265,0,0,0-.163-1.588l-3.225-3.225a1.128,1.128,0,0,1,0-1.6l4.483-4.483a1.13,1.13,0,0,1,1.6,0l3.225,3.225a1.265,1.265,0,0,0,1.588.163,25.748,25.748,0,0,1,8.937-3.7,1.265,1.265,0,0,0,1.007-1.238v-4.565a1.128,1.128,0,0,1,1.128-1.128H44.31a1.13,1.13,0,0,1,1.128,1.128v4.565a1.265,1.265,0,0,0,1.007,1.238,25.788,25.788,0,0,1,3.465.979l-5.074,1q-.9.178-1.783.423a23.219,23.219,0,0,0-17.03,5.545,1.264,1.264,0,0,0,1.655,1.912,20.586,20.586,0,0,1,8.67-4.432A24.064,24.064,0,0,0,25.6,136.835l1.118,9.777-1,1a20.546,20.546,0,0,1-1.46-25.43,1.264,1.264,0,0,0-2.072-1.45A23.124,23.124,0,1,0,64.2,132.35c.186-.638.348-1.287.481-1.946l1-4.967a25.765,25.765,0,0,1,.9,3.231,1.265,1.265,0,0,0,1.238,1.008h4.565a1.13,1.13,0,0,1,1.128,1.128v6.339Z" transform="translate(-6.237 -82.368)"/>
        <path id="Trazado_1031953" data-name="Trazado 1031953" d="M290.632,17.448a1.264,1.264,0,0,0,1.729-.457l6.43-11.058h17.441a4.669,4.669,0,1,0,0-2.529H298.063a1.264,1.264,0,0,0-1.093.629l-6.8,11.686a1.264,1.264,0,0,0,.457,1.729ZM320.725,2.529a2.14,2.14,0,1,1-2.14,2.14,2.142,2.142,0,0,1,2.14-2.14Z" transform="translate(-242.166 0)"/>
        <path id="Trazado_1031954" data-name="Trazado 1031954" d="M406.592,82.784a1.264,1.264,0,1,0,0,2.529h14.6a1.264,1.264,0,0,0,0-2.529Z" transform="translate(-338.049 -68.828)"/>
        <path id="Trazado_1031955" data-name="Trazado 1031955" d="M421.191,121.1h-14.6a1.264,1.264,0,1,0,0,2.529h14.6a1.264,1.264,0,0,0,0-2.529Z" transform="translate(-338.049 -100.684)"/>
        <path id="Trazado_1031956" data-name="Trazado 1031956" d="M421.191,159.413h-14.6a1.264,1.264,0,1,0,0,2.529h14.6a1.264,1.264,0,0,0,0-2.529Z" transform="translate(-338.049 -132.539)"/>
        <path id="Trazado_1031957" data-name="Trazado 1031957" d="M421.191,197.727h-14.6a1.264,1.264,0,1,0,0,2.529h14.6a1.264,1.264,0,0,0,0-2.529Z" transform="translate(-338.049 -164.394)"/>
        <path id="Trazado_1031958" data-name="Trazado 1031958" d="M421.191,236.041h-14.6a1.264,1.264,0,1,0,0,2.529h14.6a1.264,1.264,0,0,0,0-2.529Z" transform="translate(-338.049 -196.249)"/>
      </g>
    </g>
  </g>
</svg>
