<svg xmlns="http://www.w3.org/2000/svg" xmlns:xlink="http://www.w3.org/1999/xlink" width="117.999" height="118" viewBox="0 0 117.999 118">
  <defs>
    <filter id="Trazado_874925" x="0" y="0" width="117.999" height="118" filterUnits="userSpaceOnUse">
      <feOffset dy="3" input="SourceAlpha"/>
      <feGaussianBlur stdDeviation="3" result="blur"/>
      <feFlood flood-opacity="0.161"/>
      <feComposite operator="in" in2="blur"/>
      <feComposite in="SourceGraphic"/>
    </filter>
    <clipPath id="clip-path">
      <path id="path8820" d="M0-682.665H56.921v56.921H0Z" transform="translate(0 682.665)"/>
    </clipPath>
  </defs>
  <g id="Grupo_1199715" data-name="Grupo 1199715" transform="translate(-793.5 -14961.999)">
    <g id="Grupo_1112429" data-name="Grupo 1112429" transform="translate(-314.634 13028)">
      <g id="Grupo_1111553" data-name="Grupo 1111553" transform="translate(308.634 -577.158)">
        <g id="Grupo_1111316" data-name="Grupo 1111316" transform="translate(808.5 2517.157)">
          <g id="Grupo_1109835" data-name="Grupo 1109835" transform="translate(0 0)">
            <g id="Grupo_1107913" data-name="Grupo 1107913" transform="translate(0 0)">
              <g transform="matrix(1, 0, 0, 1, -9, -6)" filter="url(#Trazado_874925)">
                <g id="Trazado_874925-2" data-name="Trazado 874925" transform="translate(9 6)" fill="#fc0" opacity="0.859">
                  <path d="M 49.99972534179688 98.4998779296875 C 43.45164108276367 98.4998779296875 37.10022354125977 97.21776580810547 31.12189674377441 94.68914794921875 C 25.34676742553711 92.24647521972656 20.15985298156738 88.74925994873047 15.70523929595947 84.29464721679688 C 11.25062561035156 79.84004974365234 7.753411293029785 74.65313720703125 5.310725212097168 68.87800598144531 C 2.782111167907715 62.89969253540039 1.499996781349182 56.54829406738281 1.499996781349182 50.00022125244141 C 1.499996781349182 43.45157623291016 2.782111167907715 37.10017776489258 5.310725212097168 31.12186431884766 C 7.753411293029785 25.34673500061035 11.25062561035156 20.15983581542969 15.70523929595947 15.70522117614746 C 20.15985298156738 11.25062084197998 25.34676742553711 7.753406524658203 31.12189674377441 5.31073522567749 C 37.10022354125977 2.782120943069458 43.45164108276367 1.500006556510925 49.99972534179688 1.500006556510925 C 56.54780960083008 1.500006556510925 62.89922714233398 2.782120943069458 68.87755584716797 5.31073522567749 C 74.65267944335938 7.753406524658203 79.839599609375 11.25062084197998 84.29421234130859 15.70522117614746 C 88.74882507324219 20.15983581542969 92.24604034423828 25.34673500061035 94.68872833251953 31.12186431884766 C 97.21733856201172 37.10017776489258 98.49945068359375 43.45157623291016 98.49945068359375 49.99964904785156 C 98.49945068359375 56.54829406738281 97.21733856201172 62.89969253540039 94.68872833251953 68.87800598144531 C 92.24604034423828 74.65313720703125 88.74882507324219 79.84004974365234 84.29421234130859 84.29464721679688 C 79.839599609375 88.74925994873047 74.65267944335938 92.24647521972656 68.87755584716797 94.68914794921875 C 62.89922714233398 97.21776580810547 56.54780960083008 98.4998779296875 49.99972534179688 98.4998779296875 Z" stroke="none"/>
                  <path d="M 49.99972534179688 3 C 43.65348052978516 3 37.49866485595703 4.242240905761719 31.70623016357422 6.692230224609375 C 26.10989379882812 9.059272766113281 21.08323669433594 12.44853210449219 16.76589202880859 16.76587677001953 C 12.44855499267578 21.08321380615234 9.059295654296875 26.10985565185547 6.692230224609375 31.70618438720703 C 4.24224853515625 37.49859619140625 3 43.65341186523438 3 50.00022888183594 C 3 56.34645843505859 4.24224853515625 62.50127410888672 6.692230224609375 68.29368591308594 C 9.059295654296875 73.8900146484375 12.44855499267578 78.91665649414062 16.76589202880859 83.23399353027344 C 21.08323669433594 87.55132293701172 26.10989379882812 90.94059753417969 31.70623016357422 93.30764007568359 C 37.49866485595703 95.75762939453125 43.65348052978516 96.99987030029297 49.99972534179688 96.99987030029297 C 56.34597015380859 96.99987030029297 62.50078582763672 95.75762939453125 68.293212890625 93.30764007568359 C 73.88955688476562 90.94059753417969 78.91621398925781 87.55132293701172 83.23355865478516 83.23399353027344 C 87.55089569091797 78.91665649414062 90.94015502929688 73.8900146484375 93.30722045898438 68.29368591308594 C 95.7572021484375 62.50127410888672 96.99945068359375 56.34645843505859 96.99945068359375 49.99964141845703 C 96.99945068359375 43.65341186523438 95.7572021484375 37.49859619140625 93.30722045898438 31.70618438720703 C 90.94015502929688 26.10985565185547 87.55089569091797 21.08321380615234 83.23355865478516 16.76587677001953 C 78.91621398925781 12.44853210449219 73.88955688476562 9.059272766113281 68.293212890625 6.692230224609375 C 62.50078582763672 4.242240905761719 56.34597015380859 3 49.99972534179688 3 M 49.99972534179688 0 C 77.61381530761719 0 99.99945068359375 22.38559722900391 99.99945068359375 49.99964141845703 L 99.99945068359375 50.00022888183594 C 99.99945068359375 77.6142578125 77.61381530761719 99.99987030029297 49.99972534179688 99.99987030029297 C 22.38563537597656 99.99987030029297 0 77.6142578125 0 50.00022888183594 L 0 49.99964141845703 C 0 22.38559722900391 22.38563537597656 0 49.99972534179688 0 Z" stroke="none" fill="#fff4cb"/>
                </g>
              </g>
              <g id="Trazado_874923" data-name="Trazado 874923" transform="translate(0 0)" fill="none">
                <path d="M50,0a50,50,0,0,1,50,50h0A50,50,0,0,1,0,50H0A50,50,0,0,1,50,0Z" stroke="none"/>
                <path d="M 49.99972534179688 3 C 43.65348052978516 3 37.49866485595703 4.242240905761719 31.70623016357422 6.692230224609375 C 26.10989379882812 9.059272766113281 21.08323669433594 12.44853210449219 16.76589202880859 16.76587677001953 C 12.44855499267578 21.08321380615234 9.059295654296875 26.10985565185547 6.692230224609375 31.70618438720703 C 4.24224853515625 37.49859619140625 3 43.65341186523438 3 50.00022888183594 C 3 56.34645843505859 4.24224853515625 62.50127410888672 6.692230224609375 68.29368591308594 C 9.059295654296875 73.8900146484375 12.44855499267578 78.91665649414062 16.76589202880859 83.23399353027344 C 21.08323669433594 87.55132293701172 26.10989379882812 90.94059753417969 31.70623016357422 93.30764007568359 C 37.49866485595703 95.75762939453125 43.65348052978516 96.99987030029297 49.99972534179688 96.99987030029297 C 56.34597015380859 96.99987030029297 62.50078582763672 95.75762939453125 68.293212890625 93.30764007568359 C 73.88955688476562 90.94059753417969 78.91621398925781 87.55132293701172 83.23355865478516 83.23399353027344 C 87.55089569091797 78.91665649414062 90.94015502929688 73.8900146484375 93.30722045898438 68.29368591308594 C 95.7572021484375 62.50127410888672 96.99945068359375 56.34645843505859 96.99945068359375 49.99964141845703 C 96.99945068359375 43.65341186523438 95.7572021484375 37.49859619140625 93.30722045898438 31.70618438720703 C 90.94015502929688 26.10985565185547 87.55089569091797 21.08321380615234 83.23355865478516 16.76587677001953 C 78.91621398925781 12.44853210449219 73.88955688476562 9.059272766113281 68.293212890625 6.692230224609375 C 62.50078582763672 4.242240905761719 56.34597015380859 3 49.99972534179688 3 M 49.99972534179688 0 C 77.61381530761719 0 99.99945068359375 22.38559722900391 99.99945068359375 49.99964141845703 L 99.99945068359375 50.00022888183594 C 99.99945068359375 77.6142578125 77.61381530761719 99.99987030029297 49.99972534179688 99.99987030029297 C 22.38563537597656 99.99987030029297 0 77.6142578125 0 50.00022888183594 L 0 49.99964141845703 C 0 22.38559722900391 22.38563537597656 0 49.99972534179688 0 Z" stroke="none" fill="#fff4cb"/>
              </g>
            </g>
          </g>
        </g>
      </g>
    </g>
    <g id="g8814" transform="translate(824.04 15674.204)">
      <g id="g8816" transform="translate(0 -682.665)">
        <g id="g8818" clip-path="url(#clip-path)">
          <g id="g8824" transform="translate(0.834 18.825)">
            <path id="path8826" d="M-586.951-388.418h-51.531a1.861,1.861,0,0,1-1.861-1.861v-33.471h55.253v33.471a1.861,1.861,0,0,1-1.861,1.861" transform="translate(640.344 423.751)" fill="#fd9468"/>
          </g>
          <g id="g8828" transform="translate(5.416 32.52)">
            <path id="path8830" d="M-23.015-68.23c2.079,2.079,5.821,1.708,5.821,1.708s.371-3.742-1.708-5.821-5-2.527-5.822-1.708-.371,3.742,1.708,5.821" transform="translate(25.109 74.437)" fill="#fe7d43"/>
          </g>
          <g id="g8832" transform="translate(13.357 32.52)">
            <path id="path8834" d="M-64.278-68.23c-2.079,2.079-5.821,1.708-5.821,1.708s-.371-3.742,1.708-5.821,5-2.527,5.822-1.708.371,3.742-1.708,5.821" transform="translate(70.125 74.437)" fill="#fe7d43"/>
          </g>
          <g id="g8836" transform="translate(31.095 32.52)">
            <path id="path8838" d="M-23.015-68.23c2.079,2.079,5.821,1.708,5.821,1.708s.371-3.742-1.708-5.821-5-2.527-5.821-1.708-.371,3.742,1.708,5.821" transform="translate(25.109 74.437)" fill="#fe7d43"/>
          </g>
          <g id="g8840" transform="translate(39.036 32.52)">
            <path id="path8842" d="M-64.278-68.23c-2.079,2.079-5.821,1.708-5.821,1.708s-.371-3.742,1.708-5.821,5-2.527,5.821-1.708.371,3.742-1.708,5.821" transform="translate(70.125 74.437)" fill="#fe7d43"/>
          </g>
          <g id="g8844" transform="translate(31.095 20.266)">
            <path id="path8846" d="M-23.015-68.231c2.079,2.079,5.821,1.708,5.821,1.708s.371-3.742-1.708-5.821-5-2.527-5.821-1.708-.371,3.742,1.708,5.821" transform="translate(25.109 74.438)" fill="#fe7d43"/>
          </g>
          <g id="g8848" transform="translate(39.036 20.266)">
            <path id="path8850" d="M-64.278-68.23c-2.079,2.079-5.821,1.708-5.821,1.708s-.371-3.742,1.708-5.821,5-2.527,5.821-1.708.371,3.742-1.708,5.821" transform="translate(70.125 74.436)" fill="#fe7d43"/>
          </g>
          <g id="g8852" transform="translate(5.416 20.266)">
            <path id="path8854" d="M-23.015-68.231c2.079,2.079,5.821,1.708,5.821,1.708s.371-3.742-1.708-5.821-5-2.527-5.822-1.708-.371,3.742,1.708,5.821" transform="translate(25.109 74.438)" fill="#fe7d43"/>
          </g>
          <g id="g8856" transform="translate(13.357 20.266)">
            <path id="path8858" d="M-64.278-68.23c-2.079,2.079-5.821,1.708-5.821,1.708s-.371-3.742,1.708-5.821,5-2.527,5.822-1.708.371,3.742-1.708,5.821" transform="translate(70.125 74.436)" fill="#fe7d43"/>
          </g>
          <g id="g8860" transform="translate(49.73 18.825)">
            <path id="path8862" d="M-20.461,0V33.471a1.861,1.861,0,0,1-1.861,1.861h4.5a1.861,1.861,0,0,0,1.861-1.861V0Z" transform="translate(22.323)" fill="#fe7d43"/>
          </g>
          <g id="g8864" transform="translate(0.834 40.46)">
            <path id="path8866" d="M-575.151-91.7h-49.384a2.935,2.935,0,0,1-2.935-2.935V-97.1a2.935,2.935,0,0,1,2.935-2.935h49.384a2.934,2.934,0,0,1,2.935,2.935v2.472a2.935,2.935,0,0,1-2.935,2.935" transform="translate(627.47 100.038)" fill="#57be92"/>
          </g>
          <g id="g8868" transform="translate(48.657 40.46)">
            <path id="path8870" d="M-49.422,0h-4.5a2.935,2.935,0,0,1,2.935,2.935V5.407a2.935,2.935,0,0,1-2.935,2.935h4.5a2.935,2.935,0,0,0,2.935-2.935V2.935A2.934,2.934,0,0,0-49.422,0" transform="translate(53.917)" fill="#22b380"/>
          </g>
          <g id="g8872" transform="translate(0.834 9.563)">
            <path id="path8874" d="M0-116.1v-8.937a1.624,1.624,0,0,1,1.624-1.624H16.2a20.094,20.094,0,0,1,9.563,2.421l7.334,3.969Z" transform="translate(0 126.658)" fill="#bbec6c"/>
          </g>
          <g id="g8876" transform="translate(12.542 9.563)">
            <path id="path8878" d="M-235.179-70.25l-3.8.478-8.033-4.447a20.085,20.085,0,0,0-9.563-2.421h4.5a20.088,20.088,0,0,1,9.563,2.421Z" transform="translate(256.573 76.64)" fill="#a8e237"/>
          </g>
          <g id="g8880" transform="translate(0.834 28.207)">
            <path id="path8882" d="M-607.412-32.253v2.473a2.935,2.935,0,0,1-2.935,2.935H-659.73a2.935,2.935,0,0,1-2.935-2.935v-2.473a2.934,2.934,0,0,1,2.935-2.934h49.383a2.934,2.934,0,0,1,2.935,2.934" transform="translate(662.665 35.187)" fill="#57be92"/>
          </g>
          <g id="g8884" transform="translate(5.416 32.52)">
            <path id="path8886" d="M-81.432-44.285h-6.829c-.72-1.57-.747-3.09-.193-3.643.818-.818,3.742-.371,5.822,1.708a5.365,5.365,0,0,1,1.2,1.936" transform="translate(88.839 48.314)" fill="#22b380"/>
          </g>
          <g id="g8888" transform="translate(13.889 32.52)">
            <path id="path8890" d="M-75.089-44.285H-81.92a5.383,5.383,0,0,1,1.2-1.936c2.079-2.079,5-2.526,5.821-1.708.554.554.528,2.075-.192,3.643" transform="translate(81.92 48.314)" fill="#22b380"/>
          </g>
          <g id="g8892" transform="translate(31.095 32.52)">
            <path id="path8894" d="M-81.432-44.285h-6.829c-.72-1.57-.747-3.09-.193-3.643.818-.818,3.742-.371,5.822,1.708a5.365,5.365,0,0,1,1.2,1.936" transform="translate(88.839 48.314)" fill="#22b380"/>
          </g>
          <g id="g8896" transform="translate(39.568 32.52)">
            <path id="path8898" d="M-75.088-44.285h-6.83a5.381,5.381,0,0,1,1.2-1.936c2.079-2.079,5-2.526,5.821-1.708.554.554.528,2.075-.192,3.643" transform="translate(81.918 48.314)" fill="#22b380"/>
          </g>
          <g id="g8900" transform="translate(48.657 28.207)">
            <path id="path8902" d="M-49.422,0h-4.5a2.935,2.935,0,0,1,2.935,2.935V5.407a2.935,2.935,0,0,1-2.935,2.935h4.5a2.934,2.934,0,0,0,2.935-2.935V2.935A2.935,2.935,0,0,0-49.422,0" transform="translate(53.917)" fill="#22b380"/>
          </g>
          <g id="g8904" transform="translate(0.834 15.953)">
            <path id="path8906" d="M-607.412-32.254v2.472a2.935,2.935,0,0,1-2.935,2.935H-659.73a2.935,2.935,0,0,1-2.935-2.935v-2.472a2.935,2.935,0,0,1,2.935-2.934h49.383a2.935,2.935,0,0,1,2.935,2.934" transform="translate(662.665 35.188)" fill="#57be92"/>
          </g>
          <g id="g8908" transform="translate(31.095 20.266)">
            <path id="path8910" d="M-81.432-44.286h-6.829c-.72-1.57-.747-3.09-.193-3.643.818-.818,3.742-.371,5.822,1.708a5.365,5.365,0,0,1,1.2,1.936" transform="translate(88.839 48.315)" fill="#22b380"/>
          </g>
          <g id="g8912" transform="translate(39.568 20.266)">
            <path id="path8914" d="M-75.088-44.286h-6.83a5.381,5.381,0,0,1,1.2-1.936c2.079-2.079,5-2.526,5.821-1.708.554.554.528,2.075-.192,3.643" transform="translate(81.918 48.315)" fill="#22b380"/>
          </g>
          <g id="g8916" transform="translate(5.416 20.266)">
            <path id="path8918" d="M-81.432-44.286h-6.829c-.72-1.57-.747-3.09-.193-3.643.818-.818,3.742-.371,5.822,1.708a5.365,5.365,0,0,1,1.2,1.936" transform="translate(88.839 48.315)" fill="#22b380"/>
          </g>
          <g id="g8920" transform="translate(13.889 20.266)">
            <path id="path8922" d="M-75.089-44.286H-81.92a5.383,5.383,0,0,1,1.2-1.936c2.079-2.079,5-2.526,5.821-1.708.554.554.528,2.075-.192,3.643" transform="translate(81.92 48.315)" fill="#22b380"/>
          </g>
          <g id="g8924" transform="translate(48.657 15.953)">
            <path id="path8926" d="M-49.422,0h-4.5a2.935,2.935,0,0,1,2.935,2.935V5.407a2.935,2.935,0,0,1-2.935,2.935h4.5a2.935,2.935,0,0,0,2.935-2.935V2.935A2.934,2.934,0,0,0-49.422,0" transform="translate(53.917)" fill="#22b380"/>
          </g>
          <path id="path8928" d="M477.149-579.974H464.7v-8.063h12.45Z" transform="translate(-425.952 595.927)" fill="#e94444"/>
          <path id="path8930" d="M586.552-579.974h2.29v-8.063h-2.29Z" transform="translate(-537.645 595.927)" fill="#d83131"/>
          <g id="g8932" transform="translate(42.292 11.321)">
            <path id="path8934" d="M-58.914-50.926h-5.359v-3.7a.932.932,0,0,1,.931-.932h3.5a.932.932,0,0,1,.931.932Z" transform="translate(64.273 55.559)" fill="#e7eaf7"/>
          </g>
          <g id="g8936" transform="translate(44.43 11.321)">
            <path id="path8938" d="M-25.169,0h-2.29a.932.932,0,0,1,.932.932v3.7h2.29V.932A.932.932,0,0,0-25.169,0" transform="translate(27.459)" fill="#d4daf3"/>
          </g>
          <g id="g8940" transform="translate(38.747 2.763)">
            <path id="path8942" d="M-80.5,0h-2.2a5.127,5.127,0,0,0-5.127,5.127h12.45A5.127,5.127,0,0,0-80.5,0" transform="translate(87.825 0)" fill="#e94444"/>
          </g>
          <g id="g8944" transform="translate(43.827 2.763)">
            <path id="path8946" d="M-24.655,0H-26.9a5.126,5.126,0,0,1,5.08,5.126h2.29A5.127,5.127,0,0,0-24.655,0" transform="translate(26.897 0)" fill="#d83131"/>
          </g>
          <g id="g8948" transform="translate(7.68 32.52)">
            <path id="path8950" d="M-23.015-68.23c2.079,2.079,5.821,1.708,5.821,1.708s.371-3.742-1.708-5.821-5-2.527-5.822-1.708-.371,3.742,1.708,5.821" transform="translate(25.109 74.437)" fill="#bbec6c"/>
          </g>
          <g id="g8952" transform="translate(8.359 32.52)">
            <path id="path8954" d="M-60.774-23.012c-1.879-1.879-4.447-2.425-5.528-1.909a7.425,7.425,0,0,1,3.264,1.909c1.885,1.885,1.756,5.137,1.716,5.728a10.049,10.049,0,0,0,2.257.094s.371-3.742-1.708-5.821" transform="translate(66.303 25.105)" fill="#a8e237"/>
          </g>
          <g id="g8956" transform="translate(15.621 32.52)">
            <path id="path8958" d="M-64.278-68.23c-2.079,2.079-5.821,1.708-5.821,1.708s-.371-3.742,1.708-5.821,5-2.527,5.822-1.708.371,3.742-1.708,5.821" transform="translate(70.125 74.437)" fill="#bbec6c"/>
          </g>
          <g id="g8960" transform="translate(15.639 32.52)">
            <path id="path8962" d="M-82.859-4.228a2.85,2.85,0,0,0-2.557-.2,1.048,1.048,0,0,1,.293.2c.818.818.371,3.742-1.708,5.821A6.372,6.372,0,0,1-90.4,3.209c0,.061.007.093.007.093s3.742.371,5.821-1.708,2.527-5,1.708-5.821" transform="translate(90.396 4.612)" fill="#a8e237"/>
          </g>
          <g id="g8964" transform="translate(33.359 32.52)">
            <path id="path8966" d="M-23.015-68.23c2.079,2.079,5.821,1.708,5.821,1.708s.371-3.742-1.708-5.821-5-2.527-5.821-1.708-.371,3.742,1.708,5.821" transform="translate(25.108 74.437)" fill="#bbec6c"/>
          </g>
          <g id="g8968" transform="translate(34.038 32.52)">
            <path id="path8970" d="M-60.775-23.012c-1.879-1.879-4.447-2.425-5.528-1.909a7.426,7.426,0,0,1,3.264,1.909c1.885,1.885,1.756,5.137,1.716,5.728a10.049,10.049,0,0,0,2.257.094s.371-3.742-1.708-5.821" transform="translate(66.304 25.105)" fill="#a8e237"/>
          </g>
          <g id="g8972" transform="translate(41.3 32.52)">
            <path id="path8974" d="M-64.278-68.23c-2.079,2.079-5.821,1.708-5.821,1.708s-.371-3.742,1.708-5.821,5-2.527,5.821-1.708.371,3.742-1.708,5.821" transform="translate(70.125 74.437)" fill="#bbec6c"/>
          </g>
          <g id="g8976" transform="translate(41.318 32.52)">
            <path id="path8978" d="M-82.859-4.228a2.85,2.85,0,0,0-2.557-.2,1.05,1.05,0,0,1,.293.2c.818.818.371,3.742-1.708,5.821A6.372,6.372,0,0,1-90.4,3.209c0,.061.008.093.008.093s3.742.371,5.821-1.708,2.527-5,1.708-5.821" transform="translate(90.396 4.612)" fill="#a8e237"/>
          </g>
          <g id="g8980" transform="translate(33.359 20.266)">
            <path id="path8982" d="M-23.015-68.23c2.079,2.079,5.821,1.708,5.821,1.708s.371-3.742-1.708-5.821-5-2.527-5.821-1.708-.371,3.742,1.708,5.821" transform="translate(25.108 74.437)" fill="#bbec6c"/>
          </g>
          <g id="g8984" transform="translate(34.038 20.266)">
            <path id="path8986" d="M-60.775-23.012c-1.879-1.879-4.447-2.425-5.528-1.909a7.424,7.424,0,0,1,3.264,1.909c1.885,1.885,1.756,5.137,1.716,5.728a10.057,10.057,0,0,0,2.257.094s.371-3.742-1.708-5.821" transform="translate(66.304 25.105)" fill="#a8e237"/>
          </g>
          <g id="g8988" transform="translate(41.3 20.266)">
            <path id="path8990" d="M-64.278-68.23c-2.079,2.079-5.821,1.708-5.821,1.708s-.371-3.742,1.708-5.821,5-2.527,5.821-1.708.371,3.742-1.708,5.821" transform="translate(70.125 74.437)" fill="#bbec6c"/>
          </g>
          <g id="g8992" transform="translate(41.318 20.267)">
            <path id="path8994" d="M-82.859-4.227a2.85,2.85,0,0,0-2.557-.2,1.05,1.05,0,0,1,.293.2c.818.818.371,3.742-1.708,5.821A6.372,6.372,0,0,1-90.4,3.209c0,.061.008.093.008.093s3.742.371,5.821-1.708,2.527-5,1.708-5.821" transform="translate(90.396 4.611)" fill="#a8e237"/>
          </g>
          <g id="g8996" transform="translate(7.68 20.266)">
            <path id="path8998" d="M-23.015-68.23c2.079,2.079,5.821,1.708,5.821,1.708s.371-3.742-1.708-5.821-5-2.527-5.822-1.708-.371,3.742,1.708,5.821" transform="translate(25.109 74.437)" fill="#bbec6c"/>
          </g>
          <g id="g9000" transform="translate(8.359 20.266)">
            <path id="path9002" d="M-60.774-23.012c-1.879-1.879-4.447-2.425-5.528-1.909a7.424,7.424,0,0,1,3.264,1.909c1.885,1.885,1.756,5.137,1.716,5.728a10.058,10.058,0,0,0,2.257.094s.371-3.742-1.708-5.821" transform="translate(66.303 25.105)" fill="#a8e237"/>
          </g>
          <g id="g9004" transform="translate(15.621 20.266)">
            <path id="path9006" d="M-64.278-68.23c-2.079,2.079-5.821,1.708-5.821,1.708s-.371-3.742,1.708-5.821,5-2.527,5.822-1.708.371,3.742-1.708,5.821" transform="translate(70.125 74.437)" fill="#bbec6c"/>
          </g>
          <g id="g9008" transform="translate(15.639 20.267)">
            <path id="path9010" d="M-82.859-4.227a2.85,2.85,0,0,0-2.557-.2,1.048,1.048,0,0,1,.293.2c.818.818.371,3.742-1.708,5.821A6.372,6.372,0,0,1-90.4,3.209c0,.061.007.093.007.093s3.742.371,5.821-1.708,2.527-5,1.708-5.821" transform="translate(90.396 4.611)" fill="#a8e237"/>
          </g>
          <g id="g9012" transform="translate(0.834 18.825)">
            <path id="path9014" d="M-480.019-388.418h-41.8a1.861,1.861,0,0,1-1.861-1.861v-33.471" transform="translate(523.684 423.751)" fill="none" stroke="#000" stroke-linecap="round" stroke-linejoin="round" stroke-miterlimit="10" stroke-width="1.3"/>
          </g>
          <g id="g9016" transform="translate(48.409 18.825)">
            <path id="path9018" d="M-84.412,0V33.471a1.861,1.861,0,0,1-1.861,1.861H-92.09" transform="translate(92.09)" fill="none" stroke="#000" stroke-linecap="round" stroke-linejoin="round" stroke-miterlimit="10" stroke-width="1.3"/>
          </g>
          <g id="g9020" transform="translate(0.834 40.46)">
            <path id="path9022" d="M-146.82-91.7h-10.421a2.935,2.935,0,0,1-2.935-2.935V-97.1a2.934,2.934,0,0,1,2.935-2.935h49.384a2.935,2.935,0,0,1,2.935,2.935v2.472a2.935,2.935,0,0,1-2.935,2.935h-35.062" transform="translate(160.176 100.038)" fill="none" stroke="#000" stroke-linecap="round" stroke-linejoin="round" stroke-miterlimit="10" stroke-width="1.3"/>
          </g>
          <g id="g9024" transform="translate(0.834 9.563)">
            <path id="path9026" d="M0-116.1v-8.937a1.624,1.624,0,0,1,1.624-1.624H16.2a20.094,20.094,0,0,1,9.563,2.421l7.334,3.969" transform="translate(0 126.658)" fill="none" stroke="#000" stroke-linecap="round" stroke-linejoin="round" stroke-miterlimit="10" stroke-width="1.3"/>
          </g>
          <path id="path9028" d="M477.149-579.974H464.7v-8.063h12.45Z" transform="translate(-425.952 595.927)" fill="none" stroke="#000" stroke-linecap="round" stroke-linejoin="round" stroke-miterlimit="10" stroke-width="1.3"/>
          <g id="g9030" transform="translate(42.292 11.321)">
            <path id="path9032" d="M-58.914-50.926h-5.359v-3.7a.932.932,0,0,1,.931-.932h3.5a.932.932,0,0,1,.931.932Z" transform="translate(64.273 55.559)" fill="none" stroke="#000" stroke-linecap="round" stroke-linejoin="round" stroke-miterlimit="10" stroke-width="1.3"/>
          </g>
          <g id="g9034" transform="translate(38.747 2.763)">
            <path id="path9036" d="M-80.5,0h-2.2a5.127,5.127,0,0,0-5.127,5.127h12.45A5.127,5.127,0,0,0-80.5,0Z" transform="translate(87.825 0)" fill="none" stroke="#000" stroke-linecap="round" stroke-linejoin="round" stroke-miterlimit="10" stroke-width="1.3"/>
          </g>
          <g id="g9038" transform="translate(4.476 6.874)">
            <path id="path9040" d="M0,0,2.689,2.689,5.375,0" fill="none" stroke="#000" stroke-linecap="round" stroke-linejoin="round" stroke-miterlimit="10" stroke-width="1.3"/>
          </g>
          <g id="g9042" transform="translate(14.443 6.874)">
            <path id="path9044" d="M0,0,2.689,2.689,5.375,0" fill="none" stroke="#000" stroke-linecap="round" stroke-linejoin="round" stroke-miterlimit="10" stroke-width="1.3"/>
          </g>
          <g id="g9046" transform="translate(7.68 32.52)">
            <path id="path9048" d="M-23.015-68.23c2.079,2.079,5.821,1.708,5.821,1.708s.371-3.742-1.708-5.821-5-2.527-5.822-1.708S-25.094-70.309-23.015-68.23Z" transform="translate(25.109 74.437)" fill="none" stroke="#000" stroke-linecap="round" stroke-linejoin="round" stroke-miterlimit="10" stroke-width="1.3"/>
          </g>
          <g id="g9050" transform="translate(15.621 32.52)">
            <path id="path9052" d="M-64.278-68.23c-2.079,2.079-5.821,1.708-5.821,1.708s-.371-3.742,1.708-5.821,5-2.527,5.822-1.708S-62.2-70.309-64.278-68.23Z" transform="translate(70.125 74.437)" fill="none" stroke="#000" stroke-linecap="round" stroke-linejoin="round" stroke-miterlimit="10" stroke-width="1.3"/>
          </g>
          <g id="g9054" transform="translate(33.359 32.52)">
            <path id="path9056" d="M-23.015-68.23c2.079,2.079,5.821,1.708,5.821,1.708s.371-3.742-1.708-5.821-5-2.527-5.821-1.708S-25.094-70.309-23.015-68.23Z" transform="translate(25.108 74.437)" fill="none" stroke="#000" stroke-linecap="round" stroke-linejoin="round" stroke-miterlimit="10" stroke-width="1.3"/>
          </g>
          <g id="g9058" transform="translate(41.3 32.52)">
            <path id="path9060" d="M-64.278-68.23c-2.079,2.079-5.821,1.708-5.821,1.708s-.371-3.742,1.708-5.821,5-2.527,5.821-1.708S-62.2-70.309-64.278-68.23Z" transform="translate(70.125 74.437)" fill="none" stroke="#000" stroke-linecap="round" stroke-linejoin="round" stroke-miterlimit="10" stroke-width="1.3"/>
          </g>
          <g id="g9062" transform="translate(33.359 20.266)">
            <path id="path9064" d="M-23.015-68.23c2.079,2.079,5.821,1.708,5.821,1.708s.371-3.742-1.708-5.821-5-2.527-5.821-1.708S-25.094-70.309-23.015-68.23Z" transform="translate(25.108 74.437)" fill="none" stroke="#000" stroke-linecap="round" stroke-linejoin="round" stroke-miterlimit="10" stroke-width="1.3"/>
          </g>
          <g id="g9066" transform="translate(41.3 20.266)">
            <path id="path9068" d="M-64.278-68.23c-2.079,2.079-5.821,1.708-5.821,1.708s-.371-3.742,1.708-5.821,5-2.527,5.821-1.708S-62.2-70.309-64.278-68.23Z" transform="translate(70.125 74.437)" fill="none" stroke="#000" stroke-linecap="round" stroke-linejoin="round" stroke-miterlimit="10" stroke-width="1.3"/>
          </g>
          <g id="g9070" transform="translate(7.68 20.266)">
            <path id="path9072" d="M-23.015-68.23c2.079,2.079,5.821,1.708,5.821,1.708s.371-3.742-1.708-5.821-5-2.527-5.822-1.708S-25.094-70.309-23.015-68.23Z" transform="translate(25.109 74.437)" fill="none" stroke="#000" stroke-linecap="round" stroke-linejoin="round" stroke-miterlimit="10" stroke-width="1.3"/>
          </g>
          <g id="g9074" transform="translate(15.621 20.266)">
            <path id="path9076" d="M-64.278-68.23c-2.079,2.079-5.821,1.708-5.821,1.708s-.371-3.742,1.708-5.821,5-2.527,5.822-1.708S-62.2-70.309-64.278-68.23Z" transform="translate(70.125 74.437)" fill="none" stroke="#000" stroke-linecap="round" stroke-linejoin="round" stroke-miterlimit="10" stroke-width="1.3"/>
          </g>
          <g id="g9078" transform="translate(0.834 28.207)">
            <path id="path9080" d="M-81.616-91.7H-86.1a2.935,2.935,0,0,1-2.935-2.935v-2.473A2.934,2.934,0,0,1-86.1-100.04h49.383a2.934,2.934,0,0,1,2.935,2.934v2.473A2.935,2.935,0,0,1-36.721-91.7h-4.489" transform="translate(89.04 100.04)" fill="none" stroke="#000" stroke-linecap="round" stroke-linejoin="round" stroke-miterlimit="10" stroke-width="1.3"/>
          </g>
          <g id="g9082" transform="translate(22.984 36.548)">
            <path id="path9084" d="M-120.407,0H-131.36" transform="translate(131.36)" fill="none" stroke="#000" stroke-linecap="round" stroke-linejoin="round" stroke-miterlimit="10" stroke-width="1.3"/>
          </g>
          <g id="g9086" transform="translate(26.987 24.295)">
            <path id="path9088" d="M-76.4,0h-6.95" transform="translate(83.35)" fill="none" stroke="#000" stroke-linecap="round" stroke-linejoin="round" stroke-miterlimit="10" stroke-width="1.3"/>
          </g>
          <g id="g9090" transform="translate(0.834 15.954)">
            <path id="path9092" d="M-81.616-91.7H-86.1a2.935,2.935,0,0,1-2.935-2.935v-2.473A2.935,2.935,0,0,1-86.1-100.04h49.383a2.935,2.935,0,0,1,2.935,2.934v2.473A2.935,2.935,0,0,1-36.721-91.7h-4.489" transform="translate(89.04 100.04)" fill="none" stroke="#000" stroke-linecap="round" stroke-linejoin="round" stroke-miterlimit="10" stroke-width="1.3"/>
          </g>
          <g id="g9094" transform="translate(33.745 20.651)">
            <path id="path9096" d="M-82.775-82.777l-7.53-7.53" transform="translate(90.305 90.306)" fill="none" stroke="#000" stroke-linecap="round" stroke-linejoin="round" stroke-miterlimit="10" stroke-width="1.3"/>
          </g>
          <g id="g9098" transform="translate(41.326 32.905)">
            <path id="path9100" d="M0-82.775l7.53-7.53" transform="translate(0 90.305)" fill="none" stroke="#000" stroke-linecap="round" stroke-linejoin="round" stroke-miterlimit="10" stroke-width="1.3"/>
          </g>
          <g id="g9102" transform="translate(15.647 20.651)">
            <path id="path9104" d="M-82.777,0l-7.53,7.53" transform="translate(90.306)" fill="none" stroke="#000" stroke-linecap="round" stroke-linejoin="round" stroke-miterlimit="10" stroke-width="1.3"/>
          </g>
          <g id="g9106" transform="translate(8.066 20.651)">
            <path id="path9108" d="M-82.777-82.777l-7.53-7.53" transform="translate(90.306 90.306)" fill="none" stroke="#000" stroke-linecap="round" stroke-linejoin="round" stroke-miterlimit="10" stroke-width="1.3"/>
          </g>
          <g id="g9110" transform="translate(15.647 32.905)">
            <path id="path9112" d="M0-82.775l7.53-7.53" transform="translate(0 90.305)" fill="none" stroke="#000" stroke-linecap="round" stroke-linejoin="round" stroke-miterlimit="10" stroke-width="1.3"/>
          </g>
          <g id="g9114" transform="translate(8.09 32.929)">
            <path id="path9116" d="M-82.513-82.511l-7.506-7.506" transform="translate(90.018 90.017)" fill="none" stroke="#000" stroke-linecap="round" stroke-linejoin="round" stroke-miterlimit="10" stroke-width="1.3"/>
          </g>
          <g id="g9118" transform="translate(41.326 20.651)">
            <path id="path9120" d="M0-82.777l7.53-7.53" transform="translate(0 90.306)" fill="none" stroke="#000" stroke-linecap="round" stroke-linejoin="round" stroke-miterlimit="10" stroke-width="1.3"/>
          </g>
          <g id="g9122" transform="translate(33.745 32.905)">
            <path id="path9124" d="M-82.775-82.775l-7.53-7.53" transform="translate(90.305 90.305)" fill="none" stroke="#000" stroke-linecap="round" stroke-linejoin="round" stroke-miterlimit="10" stroke-width="1.3"/>
          </g>
        </g>
      </g>
    </g>
  </g>
</svg>
