<svg xmlns="http://www.w3.org/2000/svg" xmlns:xlink="http://www.w3.org/1999/xlink" width="118" height="118" viewBox="0 0 118 118">
  <defs>
    <filter id="Trazado_874925" x="0" y="0" width="118" height="118" filterUnits="userSpaceOnUse">
      <feOffset dy="3" input="SourceAlpha"/>
      <feGaussianBlur stdDeviation="3" result="blur"/>
      <feFlood flood-opacity="0.161"/>
      <feComposite operator="in" in2="blur"/>
      <feComposite in="SourceGraphic"/>
    </filter>
  </defs>
  <g id="Grupo_1199729" data-name="Grupo 1199729" transform="translate(4867.8 -3353.999)">
    <g id="Grupo_1199576" data-name="Grupo 1199576" transform="translate(-5975.935 1420)">
      <g id="Grupo_1111553" data-name="Grupo 1111553" transform="translate(308.634 -577.158)">
        <g id="Grupo_1111316" data-name="Grupo 1111316" transform="translate(808.5 2517.157)">
          <g id="Grupo_1109835" data-name="Grupo 1109835" transform="translate(0 0)">
            <g id="Grupo_1107913" data-name="Grupo 1107913" transform="translate(0 0)">
              <g transform="matrix(1, 0, 0, 1, -9, -6)" filter="url(#Trazado_874925)">
                <g id="Trazado_874925-2" data-name="Trazado 874925" transform="translate(9 6)" fill="#fc0" opacity="0.859">
                  <path d="M 49.99972534179688 98.4998779296875 C 43.45164108276367 98.4998779296875 37.10022354125977 97.21776580810547 31.12189674377441 94.68914794921875 C 25.34676742553711 92.24647521972656 20.15985298156738 88.74925994873047 15.70523929595947 84.29464721679688 C 11.25062561035156 79.84004974365234 7.753411293029785 74.65313720703125 5.310725212097168 68.87800598144531 C 2.782111167907715 62.89969253540039 1.499996781349182 56.54829406738281 1.499996781349182 50.00022125244141 C 1.499996781349182 43.45157623291016 2.782111167907715 37.10017776489258 5.310725212097168 31.12186431884766 C 7.753411293029785 25.34673500061035 11.25062561035156 20.15983581542969 15.70523929595947 15.70522117614746 C 20.15985298156738 11.25062084197998 25.34676742553711 7.753406524658203 31.12189674377441 5.31073522567749 C 37.10022354125977 2.782120943069458 43.45164108276367 1.500006556510925 49.99972534179688 1.500006556510925 C 56.54780960083008 1.500006556510925 62.89922714233398 2.782120943069458 68.87755584716797 5.31073522567749 C 74.65267944335938 7.753406524658203 79.839599609375 11.25062084197998 84.29421234130859 15.70522117614746 C 88.74882507324219 20.15983581542969 92.24604034423828 25.34673500061035 94.68872833251953 31.12186431884766 C 97.21733856201172 37.10017776489258 98.49945068359375 43.45157623291016 98.49945068359375 49.99964904785156 C 98.49945068359375 56.54829406738281 97.21733856201172 62.89969253540039 94.68872833251953 68.87800598144531 C 92.24604034423828 74.65313720703125 88.74882507324219 79.84004974365234 84.29421234130859 84.29464721679688 C 79.839599609375 88.74925994873047 74.65267944335938 92.24647521972656 68.87755584716797 94.68914794921875 C 62.89922714233398 97.21776580810547 56.54780960083008 98.4998779296875 49.99972534179688 98.4998779296875 Z" stroke="none"/>
                  <path d="M 49.99972534179688 3 C 43.65348052978516 3 37.49866485595703 4.242240905761719 31.70623016357422 6.692230224609375 C 26.10989379882812 9.059272766113281 21.08323669433594 12.44853210449219 16.76589202880859 16.76587677001953 C 12.44855499267578 21.08321380615234 9.059295654296875 26.10985565185547 6.692230224609375 31.70618438720703 C 4.24224853515625 37.49859619140625 3 43.65341186523438 3 50.00022888183594 C 3 56.34645843505859 4.24224853515625 62.50127410888672 6.692230224609375 68.29368591308594 C 9.059295654296875 73.8900146484375 12.44855499267578 78.91665649414062 16.76589202880859 83.23399353027344 C 21.08323669433594 87.55132293701172 26.10989379882812 90.94059753417969 31.70623016357422 93.30764007568359 C 37.49866485595703 95.75762939453125 43.65348052978516 96.99987030029297 49.99972534179688 96.99987030029297 C 56.34597015380859 96.99987030029297 62.50078582763672 95.75762939453125 68.293212890625 93.30764007568359 C 73.88955688476562 90.94059753417969 78.91621398925781 87.55132293701172 83.23355865478516 83.23399353027344 C 87.55089569091797 78.91665649414062 90.94015502929688 73.8900146484375 93.30722045898438 68.29368591308594 C 95.7572021484375 62.50127410888672 96.99945068359375 56.34645843505859 96.99945068359375 49.99964141845703 C 96.99945068359375 43.65341186523438 95.7572021484375 37.49859619140625 93.30722045898438 31.70618438720703 C 90.94015502929688 26.10985565185547 87.55089569091797 21.08321380615234 83.23355865478516 16.76587677001953 C 78.91621398925781 12.44853210449219 73.88955688476562 9.059272766113281 68.293212890625 6.692230224609375 C 62.50078582763672 4.242240905761719 56.34597015380859 3 49.99972534179688 3 M 49.99972534179688 0 C 77.61381530761719 0 99.99945068359375 22.38559722900391 99.99945068359375 49.99964141845703 L 99.99945068359375 50.00022888183594 C 99.99945068359375 77.6142578125 77.61381530761719 99.99987030029297 49.99972534179688 99.99987030029297 C 22.38563537597656 99.99987030029297 0 77.6142578125 0 50.00022888183594 L 0 49.99964141845703 C 0 22.38559722900391 22.38563537597656 0 49.99972534179688 0 Z" stroke="none" fill="#fff4cb"/>
                </g>
              </g>
              <g id="Trazado_874923" data-name="Trazado 874923" transform="translate(0 0)" fill="none">
                <path d="M50,0a50,50,0,0,1,50,50h0A50,50,0,0,1,0,50H0A50,50,0,0,1,50,0Z" stroke="none"/>
                <path d="M 49.99972534179688 3 C 43.65348052978516 3 37.49866485595703 4.242240905761719 31.70623016357422 6.692230224609375 C 26.10989379882812 9.059272766113281 21.08323669433594 12.44853210449219 16.76589202880859 16.76587677001953 C 12.44855499267578 21.08321380615234 9.059295654296875 26.10985565185547 6.692230224609375 31.70618438720703 C 4.24224853515625 37.49859619140625 3 43.65341186523438 3 50.00022888183594 C 3 56.34645843505859 4.24224853515625 62.50127410888672 6.692230224609375 68.29368591308594 C 9.059295654296875 73.8900146484375 12.44855499267578 78.91665649414062 16.76589202880859 83.23399353027344 C 21.08323669433594 87.55132293701172 26.10989379882812 90.94059753417969 31.70623016357422 93.30764007568359 C 37.49866485595703 95.75762939453125 43.65348052978516 96.99987030029297 49.99972534179688 96.99987030029297 C 56.34597015380859 96.99987030029297 62.50078582763672 95.75762939453125 68.293212890625 93.30764007568359 C 73.88955688476562 90.94059753417969 78.91621398925781 87.55132293701172 83.23355865478516 83.23399353027344 C 87.55089569091797 78.91665649414062 90.94015502929688 73.8900146484375 93.30722045898438 68.29368591308594 C 95.7572021484375 62.50127410888672 96.99945068359375 56.34645843505859 96.99945068359375 49.99964141845703 C 96.99945068359375 43.65341186523438 95.7572021484375 37.49859619140625 93.30722045898438 31.70618438720703 C 90.94015502929688 26.10985565185547 87.55089569091797 21.08321380615234 83.23355865478516 16.76587677001953 C 78.91621398925781 12.44853210449219 73.88955688476562 9.059272766113281 68.293212890625 6.692230224609375 C 62.50078582763672 4.242240905761719 56.34597015380859 3 49.99972534179688 3 M 49.99972534179688 0 C 77.61381530761719 0 99.99945068359375 22.38559722900391 99.99945068359375 49.99964141845703 L 99.99945068359375 50.00022888183594 C 99.99945068359375 77.6142578125 77.61381530761719 99.99987030029297 49.99972534179688 99.99987030029297 C 22.38563537597656 99.99987030029297 0 77.6142578125 0 50.00022888183594 L 0 49.99964141845703 C 0 22.38559722900391 22.38563537597656 0 49.99972534179688 0 Z" stroke="none" fill="#fff4cb"/>
              </g>
            </g>
          </g>
        </g>
      </g>
    </g>
    <g id="smart-farm_3474044_2_" data-name="smart-farm_3474044 (2)" transform="translate(-4855.324 3366.976)">
      <g id="Grupo_1199727" data-name="Grupo 1199727" transform="translate(16.967 16.967)">
        <path id="Trazado_1031768" data-name="Trazado 1031768" d="M77.694,24H26.419A2.419,2.419,0,0,0,24,26.419V54.475a2.419,2.419,0,0,0,2.419,2.419h6.288l8.707,8.949V56.894h36.28a2.419,2.419,0,0,0,2.419-2.419V26.419A2.419,2.419,0,0,0,77.694,24Z" transform="translate(-24 -24)" fill="#57e6b6"/>
        <path id="Trazado_1031769" data-name="Trazado 1031769" d="M57.938,200a4.82,4.82,0,0,0-1.9.387,4.838,4.838,0,0,0,6.7,5.031,4.83,4.83,0,0,0-4.8-5.418Z" transform="translate(-52.133 -178.716)" fill="#f8fefc"/>
        <path id="Trazado_1031770" data-name="Trazado 1031770" d="M113.938,205.8a4.82,4.82,0,0,1-1.9-.387,4.838,4.838,0,0,1,6.7-5.031,4.83,4.83,0,0,1-4.8,5.418Z" transform="translate(-101.361 -178.716)" fill="#f8fefc"/>
        <ellipse id="Elipse_12160" data-name="Elipse 12160" cx="5.443" cy="6.123" rx="5.443" ry="6.123" transform="translate(22.614 3.563)" fill="#f8fefc"/>
        <g id="Grupo_1199724" data-name="Grupo 1199724" transform="translate(19.751 27.089)">
          <path id="Trazado_1031771" data-name="Trazado 1031771" d="M238.624,298.121V278.45a2.419,2.419,0,0,0-1.488-2.232L227.014,272h-7.74l-10.121,4.217a2.419,2.419,0,0,0-1.488,2.233v19.672Z" transform="translate(-205.205 -269.098)" fill="#fac850"/>
          <path id="Trazado_1031772" data-name="Trazado 1031772" d="M305.34,251.382l-4.837,7.26-4.837-7.26L297.6,248h5.8Z" transform="translate(-282.563 -248)" fill="#ffd4cf"/>
          <rect id="Rectángulo_408620" data-name="Rectángulo 408620" width="13.607" height="19.05" rx="6.804" transform="translate(8.305 24.1) rotate(-90)" fill="#fa7d29"/>
          <g id="Grupo_1199723" data-name="Grupo 1199723" transform="translate(0 14.512)">
            <path id="Trazado_1031773" data-name="Trazado 1031773" d="M189.867,376.707l2.9-2.9v-.967A4.837,4.837,0,0,1,197.607,368v9.675l-4.837,4.837h-3.095a2.348,2.348,0,0,1-2.313-2.75l.193-1.109A2.348,2.348,0,0,1,189.867,376.707Z" transform="translate(-187.327 -368)" fill="#ffd4cf"/>
            <path id="Trazado_1031774" data-name="Trazado 1031774" d="M407.74,376.707l-2.9-2.9v-.967A4.837,4.837,0,0,0,400,368v9.675l4.837,4.837h3.095a2.348,2.348,0,0,0,2.313-2.75l-.193-1.109A2.348,2.348,0,0,0,407.74,376.707Z" transform="translate(-374.281 -368)" fill="#ffd4cf"/>
          </g>
        </g>
        <path id="Trazado_1031775" data-name="Trazado 1031775" d="M293.544,94.772H280L283.87,88h5.8Z" transform="translate(-249.041 -80.26)" fill="#fac850"/>
        <ellipse id="Elipse_12161" data-name="Elipse 12161" cx="10.886" cy="3.402" rx="10.886" ry="3.402" transform="translate(26.696 13.088)" fill="#fa7d29"/>
        <g id="Grupo_1199725" data-name="Grupo 1199725" transform="translate(31.926 16.133)">
          <path id="Trazado_1031776" data-name="Trazado 1031776" d="M310.55,248h-5.8l-.952,1.664,1.48.987a4.354,4.354,0,0,0,4.83,0l1.421-.948Z" transform="translate(-301.883 -237.045)" fill="#fbb8b0"/>
          <path id="Trazado_1031777" data-name="Trazado 1031777" d="M299.609,158.69l-1.98-.66a12.093,12.093,0,0,0-7.648,0l-1.98.66v6.446a2.419,2.419,0,0,0,1.077,2.012l3.386,2.257a2.419,2.419,0,0,0,2.683,0l3.386-2.257a2.419,2.419,0,0,0,1.077-2.012Z" transform="translate(-288 -157.409)" fill="#ffd4cf"/>
        </g>
        <g id="Grupo_1199726" data-name="Grupo 1199726" transform="translate(3.87 3.87)">
          <path id="Trazado_1031778" data-name="Trazado 1031778" d="M57.938,56a4.82,4.82,0,0,0-1.9.387,4.838,4.838,0,0,0,6.7,5.031A4.83,4.83,0,0,0,57.938,56Z" transform="translate(-56.003 -56)" fill="#f8fefc"/>
          <path id="Trazado_1031779" data-name="Trazado 1031779" d="M113.938,61.8a4.82,4.82,0,0,1-1.9-.387,4.838,4.838,0,0,1,6.7-5.031,4.83,4.83,0,0,1-4.8,5.418Z" transform="translate(-105.231 -56)" fill="#f8fefc"/>
          <path id="Trazado_1031780" data-name="Trazado 1031780" d="M57.938,128a4.82,4.82,0,0,0-1.9.387,4.838,4.838,0,0,0,6.7,5.031,4.83,4.83,0,0,0-4.8-5.418Z" transform="translate(-56.003 -119.293)" fill="#f8fefc"/>
          <path id="Trazado_1031781" data-name="Trazado 1031781" d="M113.938,133.8a4.82,4.82,0,0,1-1.9-.387,4.838,4.838,0,0,1,6.7-5.031,4.83,4.83,0,0,1-4.8,5.418Z" transform="translate(-105.231 -119.293)" fill="#f8fefc"/>
        </g>
      </g>
      <g id="Grupo_1199728" data-name="Grupo 1199728" transform="translate(16 16)">
        <path id="Trazado_1031782" data-name="Trazado 1031782" d="M37.284,48.894h-2.9a.967.967,0,0,0-.967.967v6.567l-7.046-7.242a.967.967,0,0,0-.693-.293H19.386a1.453,1.453,0,0,1-1.451-1.451V19.386a1.453,1.453,0,0,1,1.451-1.451h3.386V16H19.386A3.39,3.39,0,0,0,16,19.386V47.442a3.39,3.39,0,0,0,3.386,3.386h5.88l8.422,8.656a.967.967,0,0,0,1.661-.675V50.828h1.935Z" transform="translate(-16 -16)"/>
        <path id="Trazado_1031783" data-name="Trazado 1031783" d="M137.34,47.442V19.386A3.39,3.39,0,0,0,133.954,16H88v1.935h45.954a1.453,1.453,0,0,1,1.451,1.451V47.442a1.453,1.453,0,0,1-1.451,1.451H128.98l-5.573-2.322-1.254-2.192,1.1-.735a3.379,3.379,0,0,0,1.508-2.817v-3.42c3.127-.875,4.837-2.279,4.837-3.993,0-1.04-.651-2.517-3.754-3.646-.366-.133-.753-.256-1.157-.368l-2.956-5.173a.967.967,0,0,0-.84-.487h-5.8a.967.967,0,0,0-.84.487L111.293,29.4c-.4.112-.791.235-1.157.368-3.1,1.128-3.754,2.606-3.754,3.646,0,1.714,1.71,3.118,4.837,3.993v3.42a3.379,3.379,0,0,0,1.508,2.818l1.044.7-1.277,2.23-8.906,3.711a3.377,3.377,0,0,0-2.084,3.126v10h1.935v-10a1.447,1.447,0,0,1,.893-1.34l8.379-3.491,3.433,5.153h-6.618a2.179,2.179,0,0,0-2.177,2.177v2.5a5.808,5.808,0,0,0-2.862,5v.567l-2.362,2.363a3.308,3.308,0,0,0-2.838,2.721l-.193,1.109a3.316,3.316,0,0,0,3.266,3.883h31.3a3.316,3.316,0,0,0,3.266-3.883l-.193-1.109a3.308,3.308,0,0,0-2.838-2.721l-2.363-2.363v-.567a5.808,5.808,0,0,0-2.9-5.026V55.908a2.179,2.179,0,0,0-2.177-2.177h-6.7l3.434-5.153,8.378,3.491a1.447,1.447,0,0,1,.893,1.34v10H134.4v-10a3.377,3.377,0,0,0-1.191-2.58h.748a3.39,3.39,0,0,0,3.386-3.386Zm-34.98,24.67A1.381,1.381,0,0,1,101,70.5l.193-1.109a1.379,1.379,0,0,1,1.36-1.144.967.967,0,0,0,.684-.283l2.9-2.9a.968.968,0,0,0,.283-.684v-.967a3.877,3.877,0,0,1,2.9-3.747v8.184l-4.271,4.27Zm8.333-2.9H125.33l2.9,2.9H107.79Zm19.192-4.153,2.9,2.9a.968.968,0,0,0,.684.283,1.379,1.379,0,0,1,1.36,1.144l.193,1.109a1.381,1.381,0,0,1-1.36,1.617h-2.694l-4.27-4.27V59.658a3.877,3.877,0,0,1,2.9,3.747v.967a.968.968,0,0,0,.283.684ZM126.7,55.908v1.774a5.825,5.825,0,0,0-.967-.081.967.967,0,0,0-.967.967v8.707h-13.5V58.568a.967.967,0,0,0-.967-.967,5.818,5.818,0,0,0-1.008.088V55.908a.242.242,0,0,1,.242-.242h16.93A.242.242,0,0,1,126.7,55.908ZM115.65,25.675h4.682l1.828,3.2a29.444,29.444,0,0,0-8.338,0Zm-3.77,7.789a.967.967,0,0,0-.661.918v1.006c-2.106-.678-2.9-1.515-2.9-1.973s.767-1.2,2.48-1.827a24.608,24.608,0,0,1,14.389,0c1.713.623,2.48,1.367,2.48,1.827s-.8,1.295-2.9,1.973V34.382a.967.967,0,0,0-.661-.918l-1.981-.66a13.141,13.141,0,0,0-8.26,0Zm1.273,7.363V35.079l1.319-.44a11.2,11.2,0,0,1,7.037,0l1.319.439v5.748a1.449,1.449,0,0,1-.646,1.208L118.8,44.292a1.448,1.448,0,0,1-1.61,0L113.8,42.035a1.449,1.449,0,0,1-.646-1.207Zm4.8,12.127-3.7-5.554,1.135-1.983.728.485a3.377,3.377,0,0,0,3.757,0l.669-.446,1.113,1.944Z" transform="translate(-79.293 -16)"/>
        <path id="Trazado_1031784" data-name="Trazado 1031784" d="M54.772,48v1.482a5.8,5.8,0,0,0-6.149-1.016.967.967,0,0,0-.58.775,5.887,5.887,0,0,0-.043.695,5.81,5.81,0,0,0,6.772,5.725v2.529a5.8,5.8,0,0,0-6.149-1.016.967.967,0,0,0-.58.775,5.885,5.885,0,0,0-.043.694,5.81,5.81,0,0,0,6.772,5.725V66.9a5.8,5.8,0,0,0-6.149-1.016.967.967,0,0,0-.58.775,5.885,5.885,0,0,0-.043.694,5.81,5.81,0,0,0,6.772,5.725v2.015h1.935V73.073a5.8,5.8,0,0,0,6.73-6.42.967.967,0,0,0-.58-.774A5.8,5.8,0,0,0,56.707,66.9V64.366a5.8,5.8,0,0,0,6.73-6.42.967.967,0,0,0-.58-.774,5.8,5.8,0,0,0-6.149,1.016V55.659a5.8,5.8,0,0,0,6.73-6.42.967.967,0,0,0-.58-.774,5.8,5.8,0,0,0-6.149,1.016V48ZM53.8,53.8a3.875,3.875,0,0,1-3.868-3.749,3.874,3.874,0,0,1,4.833,3.628A3.863,3.863,0,0,1,53.8,53.8Zm0,8.707a3.875,3.875,0,0,1-3.868-3.749A3.874,3.874,0,0,1,54.77,62.39,3.863,3.863,0,0,1,53.8,62.511Zm0,8.707a3.875,3.875,0,0,1-3.868-3.749A3.874,3.874,0,0,1,54.77,71.1,3.862,3.862,0,0,1,53.8,71.218Zm6.772-3.87a3.863,3.863,0,0,1,.966.121A3.874,3.874,0,0,1,56.709,71.1,3.875,3.875,0,0,1,60.577,67.348Zm0-8.707a3.863,3.863,0,0,1,.966.121,3.874,3.874,0,0,1-4.833,3.628A3.875,3.875,0,0,1,60.577,58.641Zm0-8.707a3.863,3.863,0,0,1,.966.121,3.874,3.874,0,0,1-4.833,3.628A3.875,3.875,0,0,1,60.577,49.934Z" transform="translate(-44.13 -44.129)"/>
        <path id="Trazado_1031785" data-name="Trazado 1031785" d="M309.872,401.207l1.28,1.451a2.9,2.9,0,0,1,3.839,0l1.28-1.451A4.837,4.837,0,0,0,309.872,401.207Z" transform="translate(-274.333 -353.56)"/>
        <path id="Trazado_1031786" data-name="Trazado 1031786" d="M289.986,371.626a6.772,6.772,0,0,1,8.958,0l1.28-1.451a8.707,8.707,0,0,0-11.519,0Z" transform="translate(-255.727 -325.43)"/>
        <path id="Trazado_1031787" data-name="Trazado 1031787" d="M168,255.78h10.643v1.935H168Z" transform="translate(-149.618 -226.783)"/>
        <path id="Trazado_1031788" data-name="Trazado 1031788" d="M191.966,169.555H193.9v1.572h-1.935Z" transform="translate(-170.686 -150.985)"/>
        <path id="Trazado_1031789" data-name="Trazado 1031789" d="M224,192h1.935v1.572H224Z" transform="translate(-198.846 -170.716)"/>
        <path id="Trazado_1031790" data-name="Trazado 1031790" d="M192,208h1.935v1.572H192Z" transform="translate(-170.716 -184.781)"/>
        <path id="Trazado_1031791" data-name="Trazado 1031791" d="M435.87,51.87v-2.9A.967.967,0,0,0,434.9,48H432v1.935h1.935V51.87Z" transform="translate(-381.692 -44.13)"/>
        <path id="Trazado_1031792" data-name="Trazado 1031792" d="M432,243.87h2.9a.967.967,0,0,0,.967-.967V240h-1.935v1.935H432Z" transform="translate(-381.692 -212.911)"/>
        <path id="Trazado_1031793" data-name="Trazado 1031793" d="M206.782,49.945a4.846,4.846,0,0,1,3.606,1.613l1.442-1.29a6.772,6.772,0,1,0-8.434,10.38l.969-1.675a4.838,4.838,0,0,1,2.418-9.028Z" transform="translate(-177.758 -44.14)"/>
      </g>
    </g>
  </g>
</svg>
