<svg xmlns="http://www.w3.org/2000/svg" xmlns:xlink="http://www.w3.org/1999/xlink" width="118" height="118" viewBox="0 0 118 118">
  <defs>
    <filter id="Trazado_874925" x="0" y="0" width="118" height="118" filterUnits="userSpaceOnUse">
      <feOffset dy="3" input="SourceAlpha"/>
      <feGaussianBlur stdDeviation="3" result="blur"/>
      <feFlood flood-opacity="0.161"/>
      <feComposite operator="in" in2="blur"/>
      <feComposite in="SourceGraphic"/>
    </filter>
    <clipPath id="clip-path">
      <path id="path4476" d="M0-682.665H60.6v60.6H0Z" transform="translate(0 682.665)"/>
    </clipPath>
  </defs>
  <g id="Grupo_1199730" data-name="Grupo 1199730" transform="translate(5199.8 -3774.999)">
    <g id="Grupo_1199577" data-name="Grupo 1199577" transform="translate(-6307.935 1841)">
      <g id="Grupo_1111553" data-name="Grupo 1111553" transform="translate(308.634 -577.158)">
        <g id="Grupo_1111316" data-name="Grupo 1111316" transform="translate(808.5 2517.157)">
          <g id="Grupo_1109835" data-name="Grupo 1109835" transform="translate(0 0)">
            <g id="Grupo_1107913" data-name="Grupo 1107913" transform="translate(0 0)">
              <g transform="matrix(1, 0, 0, 1, -9, -6)" filter="url(#Trazado_874925)">
                <g id="Trazado_874925-2" data-name="Trazado 874925" transform="translate(9 6)" fill="#fc0" opacity="0.859">
                  <path d="M 49.99972534179688 98.4998779296875 C 43.45164108276367 98.4998779296875 37.10022354125977 97.21776580810547 31.12189674377441 94.68914794921875 C 25.34676742553711 92.24647521972656 20.15985298156738 88.74925994873047 15.70523929595947 84.29464721679688 C 11.25062561035156 79.84004974365234 7.753411293029785 74.65313720703125 5.310725212097168 68.87800598144531 C 2.782111167907715 62.89969253540039 1.499996781349182 56.54829406738281 1.499996781349182 50.00022125244141 C 1.499996781349182 43.45157623291016 2.782111167907715 37.10017776489258 5.310725212097168 31.12186431884766 C 7.753411293029785 25.34673500061035 11.25062561035156 20.15983581542969 15.70523929595947 15.70522117614746 C 20.15985298156738 11.25062084197998 25.34676742553711 7.753406524658203 31.12189674377441 5.31073522567749 C 37.10022354125977 2.782120943069458 43.45164108276367 1.500006556510925 49.99972534179688 1.500006556510925 C 56.54780960083008 1.500006556510925 62.89922714233398 2.782120943069458 68.87755584716797 5.31073522567749 C 74.65267944335938 7.753406524658203 79.839599609375 11.25062084197998 84.29421234130859 15.70522117614746 C 88.74882507324219 20.15983581542969 92.24604034423828 25.34673500061035 94.68872833251953 31.12186431884766 C 97.21733856201172 37.10017776489258 98.49945068359375 43.45157623291016 98.49945068359375 49.99964904785156 C 98.49945068359375 56.54829406738281 97.21733856201172 62.89969253540039 94.68872833251953 68.87800598144531 C 92.24604034423828 74.65313720703125 88.74882507324219 79.84004974365234 84.29421234130859 84.29464721679688 C 79.839599609375 88.74925994873047 74.65267944335938 92.24647521972656 68.87755584716797 94.68914794921875 C 62.89922714233398 97.21776580810547 56.54780960083008 98.4998779296875 49.99972534179688 98.4998779296875 Z" stroke="none"/>
                  <path d="M 49.99972534179688 3 C 43.65348052978516 3 37.49866485595703 4.242240905761719 31.70623016357422 6.692230224609375 C 26.10989379882812 9.059272766113281 21.08323669433594 12.44853210449219 16.76589202880859 16.76587677001953 C 12.44855499267578 21.08321380615234 9.059295654296875 26.10985565185547 6.692230224609375 31.70618438720703 C 4.24224853515625 37.49859619140625 3 43.65341186523438 3 50.00022888183594 C 3 56.34645843505859 4.24224853515625 62.50127410888672 6.692230224609375 68.29368591308594 C 9.059295654296875 73.8900146484375 12.44855499267578 78.91665649414062 16.76589202880859 83.23399353027344 C 21.08323669433594 87.55132293701172 26.10989379882812 90.94059753417969 31.70623016357422 93.30764007568359 C 37.49866485595703 95.75762939453125 43.65348052978516 96.99987030029297 49.99972534179688 96.99987030029297 C 56.34597015380859 96.99987030029297 62.50078582763672 95.75762939453125 68.293212890625 93.30764007568359 C 73.88955688476562 90.94059753417969 78.91621398925781 87.55132293701172 83.23355865478516 83.23399353027344 C 87.55089569091797 78.91665649414062 90.94015502929688 73.8900146484375 93.30722045898438 68.29368591308594 C 95.7572021484375 62.50127410888672 96.99945068359375 56.34645843505859 96.99945068359375 49.99964141845703 C 96.99945068359375 43.65341186523438 95.7572021484375 37.49859619140625 93.30722045898438 31.70618438720703 C 90.94015502929688 26.10985565185547 87.55089569091797 21.08321380615234 83.23355865478516 16.76587677001953 C 78.91621398925781 12.44853210449219 73.88955688476562 9.059272766113281 68.293212890625 6.692230224609375 C 62.50078582763672 4.242240905761719 56.34597015380859 3 49.99972534179688 3 M 49.99972534179688 0 C 77.61381530761719 0 99.99945068359375 22.38559722900391 99.99945068359375 49.99964141845703 L 99.99945068359375 50.00022888183594 C 99.99945068359375 77.6142578125 77.61381530761719 99.99987030029297 49.99972534179688 99.99987030029297 C 22.38563537597656 99.99987030029297 0 77.6142578125 0 50.00022888183594 L 0 49.99964141845703 C 0 22.38559722900391 22.38563537597656 0 49.99972534179688 0 Z" stroke="none" fill="#fff4cb"/>
                </g>
              </g>
              <g id="Trazado_874923" data-name="Trazado 874923" transform="translate(0 0)" fill="none">
                <path d="M50,0a50,50,0,0,1,50,50h0A50,50,0,0,1,0,50H0A50,50,0,0,1,50,0Z" stroke="none"/>
                <path d="M 49.99972534179688 3 C 43.65348052978516 3 37.49866485595703 4.242240905761719 31.70623016357422 6.692230224609375 C 26.10989379882812 9.059272766113281 21.08323669433594 12.44853210449219 16.76589202880859 16.76587677001953 C 12.44855499267578 21.08321380615234 9.059295654296875 26.10985565185547 6.692230224609375 31.70618438720703 C 4.24224853515625 37.49859619140625 3 43.65341186523438 3 50.00022888183594 C 3 56.34645843505859 4.24224853515625 62.50127410888672 6.692230224609375 68.29368591308594 C 9.059295654296875 73.8900146484375 12.44855499267578 78.91665649414062 16.76589202880859 83.23399353027344 C 21.08323669433594 87.55132293701172 26.10989379882812 90.94059753417969 31.70623016357422 93.30764007568359 C 37.49866485595703 95.75762939453125 43.65348052978516 96.99987030029297 49.99972534179688 96.99987030029297 C 56.34597015380859 96.99987030029297 62.50078582763672 95.75762939453125 68.293212890625 93.30764007568359 C 73.88955688476562 90.94059753417969 78.91621398925781 87.55132293701172 83.23355865478516 83.23399353027344 C 87.55089569091797 78.91665649414062 90.94015502929688 73.8900146484375 93.30722045898438 68.29368591308594 C 95.7572021484375 62.50127410888672 96.99945068359375 56.34645843505859 96.99945068359375 49.99964141845703 C 96.99945068359375 43.65341186523438 95.7572021484375 37.49859619140625 93.30722045898438 31.70618438720703 C 90.94015502929688 26.10985565185547 87.55089569091797 21.08321380615234 83.23355865478516 16.76587677001953 C 78.91621398925781 12.44853210449219 73.88955688476562 9.059272766113281 68.293212890625 6.692230224609375 C 62.50078582763672 4.242240905761719 56.34597015380859 3 49.99972534179688 3 M 49.99972534179688 0 C 77.61381530761719 0 99.99945068359375 22.38559722900391 99.99945068359375 49.99964141845703 L 99.99945068359375 50.00022888183594 C 99.99945068359375 77.6142578125 77.61381530761719 99.99987030029297 49.99972534179688 99.99987030029297 C 22.38563537597656 99.99987030029297 0 77.6142578125 0 50.00022888183594 L 0 49.99964141845703 C 0 22.38559722900391 22.38563537597656 0 49.99972534179688 0 Z" stroke="none" fill="#fff4cb"/>
              </g>
            </g>
          </g>
        </g>
      </g>
    </g>
    <g id="g4470" transform="translate(-5170.599 4480.366)">
      <g id="g4472" transform="translate(0 -682.665)">
        <g id="g4474" clip-path="url(#clip-path)">
          <g id="g4480" transform="translate(11.649 4.471)">
            <path id="path4482" d="M0-351.4v-19.841a14.388,14.388,0,0,1,14.388-14.388h0a14.389,14.389,0,0,1,14.388,14.388V-351.4Z" transform="translate(0 385.627)" fill="#9ca8c1"/>
          </g>
          <g id="g4484" transform="translate(1.183 35.742)">
            <path id="path4486" d="M-303.287,0h1.031a19.133,19.133,0,0,1,19.133,19.134V23.67H-332.83V19.134A19.134,19.134,0,0,1-313.7,0h10.41Z" transform="translate(332.83)" fill="#ffce62"/>
          </g>
          <g id="g4488" transform="translate(29.588 35.742)">
            <path id="path4490" d="M0,0H2.17A19.073,19.073,0,0,1,9.685,1.532" fill="none" stroke="#000" stroke-linecap="round" stroke-linejoin="round" stroke-miterlimit="10" stroke-width="1.3"/>
          </g>
          <g id="g4492" transform="translate(10.17 35.742)">
            <path id="path4494" d="M0-30.374l2.959,2.959L0-24.457,2.959-21.5,0-18.539l2.959,2.959L0-12.622,2.959-9.663H9.99L7.031-12.622,9.99-15.581,7.031-18.539,9.99-21.5,7.031-24.457,9.99-27.416,7.031-30.374,9.99-33.333Z" transform="translate(0 33.333)" fill="#ff7c7a"/>
          </g>
          <g id="g4496" transform="translate(31.915 35.742)">
            <path id="path4498" d="M-45.3-106.185a10.754,10.754,0,0,1,6.791-2.892l.792-.929-2.006-3.564-9.99-2.959,2.959,2.959-2.959,2.959Z" transform="translate(49.711 116.529)" fill="#ff7c7a"/>
          </g>
          <g id="g4500" transform="translate(32.902 43.179)">
            <path id="path4502" d="M-161.339,0h-4.921a10.8,10.8,0,0,0-10.795,10.795v5.439h26.511V10.795A10.8,10.8,0,0,0-161.339,0" transform="translate(177.056)" fill="#cdeb72"/>
          </g>
          <g id="g4504" transform="translate(17.516 18.86)">
            <path id="path4506" d="M-87.478-149.194h0A8.521,8.521,0,0,1-96-157.716v-3.106a2.906,2.906,0,0,1,2.906-2.906h11.231a2.906,2.906,0,0,1,2.906,2.906v3.106a8.521,8.521,0,0,1-8.521,8.521" transform="translate(96 163.728)" fill="#ffb888"/>
          </g>
          <g id="g4508" transform="translate(41.067 43.966)">
            <path id="path4510" d="M-104.512,0a5.09,5.09,0,0,1-5.09,5.09A5.09,5.09,0,0,1-114.693,0Z" transform="translate(114.693)" fill="#ffcaa7"/>
          </g>
          <g id="g4512" transform="translate(22.487 32.675)">
            <path id="path4514" d="M-72.9,0V3.185a3.551,3.551,0,0,1-3.551,3.551h0A3.551,3.551,0,0,1-80,3.185V0Z" transform="translate(80)" fill="#ffb888"/>
          </g>
          <g id="g4516" transform="translate(17.516 18.86)">
            <path id="path4518" d="M-87.478-149.194h0A8.521,8.521,0,0,1-96-157.716v-3.106a2.906,2.906,0,0,1,2.906-2.906h11.231a2.906,2.906,0,0,1,2.906,2.906v3.106A8.521,8.521,0,0,1-87.478-149.194Z" transform="translate(96 163.728)" fill="none" stroke="#000" stroke-linecap="round" stroke-linejoin="round" stroke-miterlimit="10" stroke-width="1.3"/>
          </g>
          <g id="g4520" transform="translate(22.487 32.675)">
            <path id="path4522" d="M-72.9,0V3.185a3.551,3.551,0,0,1-3.551,3.551h0A3.551,3.551,0,0,1-80,3.185V0" transform="translate(80)" fill="none" stroke="#000" stroke-linecap="round" stroke-linejoin="round" stroke-miterlimit="10" stroke-width="1.3"/>
          </g>
          <g id="g4524" transform="translate(17.2 35.742)">
            <path id="path4526" d="M-30.374,0l-2.959,2.959,2.959,2.959-2.959,2.959,2.959,2.959-2.959,2.959,2.959,2.959-2.959,2.959,2.959,2.959" transform="translate(33.333)" fill="none" stroke="#000" stroke-linecap="round" stroke-linejoin="round" stroke-miterlimit="10" stroke-width="1.3"/>
          </g>
          <g id="g4528" transform="translate(10.17 38.701)">
            <path id="path4530" d="M0,0,2.959,2.959,0,5.918,2.959,8.876,0,11.835l2.959,2.959L0,17.753l2.959,2.959" fill="none" stroke="#000" stroke-linecap="round" stroke-linejoin="round" stroke-miterlimit="10" stroke-width="1.3"/>
          </g>
          <g id="g4532" transform="translate(31.915 35.742)">
            <path id="path4534" d="M0,0,2.959,2.959,0,5.918l4.221,4.221" fill="none" stroke="#000" stroke-linecap="round" stroke-linejoin="round" stroke-miterlimit="10" stroke-width="1.3"/>
          </g>
          <g id="g4536" transform="translate(24.973 27.28)">
            <path id="path4538" d="M-21.862,0a1.506,1.506,0,0,1-2.13,0" transform="translate(23.992)" fill="none" stroke="#000" stroke-linecap="round" stroke-linejoin="round" stroke-miterlimit="10" stroke-width="1.3"/>
          </g>
          <g id="g4540" transform="translate(39.273 29.41)">
            <path id="path4542" d="M-141.345-70.672a6.884,6.884,0,0,0-6.884-6.884,6.884,6.884,0,0,0-6.884,6.884,6.884,6.884,0,0,0,6.884,6.884,6.884,6.884,0,0,0,6.884-6.884" transform="translate(155.113 77.556)" fill="#ffcaa7"/>
          </g>
          <g id="g4544" transform="translate(32.902 43.179)">
            <path id="path4546" d="M-161.339,0h-4.921a10.8,10.8,0,0,0-10.795,10.795v5.439h26.511V10.795A10.8,10.8,0,0,0-161.339,0Z" transform="translate(177.056)" fill="none" stroke="#000" stroke-linecap="round" stroke-linejoin="round" stroke-miterlimit="10" stroke-width="1.3"/>
          </g>
          <g id="g4548" transform="translate(39.273 29.41)">
            <path id="path4550" d="M-141.345-70.672a6.884,6.884,0,0,0-6.884-6.884,6.884,6.884,0,0,0-6.884,6.884,6.884,6.884,0,0,0,6.884,6.884A6.884,6.884,0,0,0-141.345-70.672Z" transform="translate(155.113 77.556)" fill="none" stroke="#000" stroke-linecap="round" stroke-linejoin="round" stroke-miterlimit="10" stroke-width="1.3"/>
          </g>
          <g id="g4552" transform="translate(11.649 13.652)">
            <path id="path4554" d="M-283.693,0h-26.492a1.142,1.142,0,0,0-1.142,1.142V5.207h28.777V1.142A1.142,1.142,0,0,0-283.693,0" transform="translate(311.327)" fill="#ff7c7a"/>
          </g>
          <g id="g4556" transform="translate(11.649 13.652)">
            <path id="path4558" d="M-93.036,0h-7.92A1.142,1.142,0,0,0-102.1,1.142V5.207h28.777V1.142A1.142,1.142,0,0,0-74.464,0h-7.92" transform="translate(102.098)" fill="none" stroke="#000" stroke-linecap="round" stroke-linejoin="round" stroke-miterlimit="10" stroke-width="1.3"/>
          </g>
          <g id="g4560" transform="translate(33.977 1.183)">
            <path id="path4562" d="M0-64a8.688,8.688,0,0,0,2.8,6.234A8.689,8.689,0,0,0,5.592-64a8.689,8.689,0,0,0-2.8-6.234A8.688,8.688,0,0,0,0-64" transform="translate(0 70.236)" fill="#cdeb72"/>
          </g>
          <g id="g4564" transform="translate(33.977 1.183)">
            <path id="path4566" d="M0-64a8.688,8.688,0,0,0,2.8,6.234A8.689,8.689,0,0,0,5.592-64a8.689,8.689,0,0,0-2.8-6.234A8.688,8.688,0,0,0,0-64Z" transform="translate(0 70.236)" fill="none" stroke="#000" stroke-linecap="round" stroke-linejoin="round" stroke-miterlimit="10" stroke-width="1.3"/>
          </g>
          <g id="g4568" transform="translate(38.503 4.833)">
            <path id="path4570" d="M-24.97-24.97A8.688,8.688,0,0,0-27.4-18.584a8.688,8.688,0,0,0,6.385-2.431A8.688,8.688,0,0,0-18.584-27.4,8.688,8.688,0,0,0-24.97-24.97" transform="translate(27.402 27.402)" fill="#cdeb72"/>
          </g>
          <g id="g4572" transform="translate(38.503 4.833)">
            <path id="path4574" d="M-24.97-24.97A8.688,8.688,0,0,0-27.4-18.584a8.688,8.688,0,0,0,6.385-2.431A8.688,8.688,0,0,0-18.584-27.4,8.688,8.688,0,0,0-24.97-24.97Z" transform="translate(27.402 27.402)" fill="none" stroke="#000" stroke-linecap="round" stroke-linejoin="round" stroke-miterlimit="10" stroke-width="1.3"/>
          </g>
          <g id="g4576" transform="translate(41.067 43.966)">
            <path id="path4578" d="M-104.512,0a5.09,5.09,0,0,1-5.09,5.09A5.09,5.09,0,0,1-114.693,0" transform="translate(114.693)" fill="none" stroke="#000" stroke-linecap="round" stroke-linejoin="round" stroke-miterlimit="10" stroke-width="1.3"/>
          </g>
          <g id="g4580" transform="translate(41.067 43.966)">
            <path id="path4582" d="M-104.512,0a5.09,5.09,0,0,1-5.09,5.09A5.09,5.09,0,0,1-114.693,0" transform="translate(114.693)" fill="none" stroke="#000" stroke-linecap="round" stroke-linejoin="round" stroke-miterlimit="10" stroke-width="1.3"/>
          </g>
          <g id="g4584" transform="translate(1.183 35.742)">
            <path id="path4586" d="M-341.895-243h-33.3v-4.537a19.134,19.134,0,0,1,19.134-19.134h1.031" transform="translate(375.199 266.666)" fill="none" stroke="#000" stroke-linecap="round" stroke-linejoin="round" stroke-miterlimit="10" stroke-width="1.3"/>
          </g>
          <g id="g4588" transform="translate(40.426 18.86)">
            <path id="path4590" d="M0,0V13.214" fill="none" stroke="#000" stroke-linecap="round" stroke-linejoin="round" stroke-miterlimit="10" stroke-width="1.3"/>
          </g>
          <g id="g4592" transform="translate(12.62 4.471)">
            <path id="path4594" d="M0-94.247a14.394,14.394,0,0,1,13.417-9.181h0a14.321,14.321,0,0,1,7.959,2.4" transform="translate(0 103.428)" fill="none" stroke="#000" stroke-linecap="round" stroke-linejoin="round" stroke-miterlimit="10" stroke-width="1.3"/>
          </g>
          <g id="g4596" transform="translate(11.649 18.86)">
            <path id="path4598" d="M0-185.383v-18.058" transform="translate(0 203.441)" fill="none" stroke="#000" stroke-linecap="round" stroke-linejoin="round" stroke-miterlimit="10" stroke-width="1.3"/>
          </g>
          <g id="g4600" transform="translate(26.037 13.652)">
            <path id="path4602" d="M0,0H0" fill="none" stroke="#000" stroke-linecap="round" stroke-linejoin="round" stroke-miterlimit="10" stroke-width="1.3"/>
          </g>
        </g>
      </g>
    </g>
  </g>
</svg>
