<svg xmlns="http://www.w3.org/2000/svg" xmlns:xlink="http://www.w3.org/1999/xlink" width="272" height="328.807" viewBox="0 0 272 328.807">
  <defs>
    <clipPath id="clip-path">
      <rect id="Rectángulo_408390" data-name="Rectángulo 408390" width="272" height="236.022" rx="8" transform="translate(205.083 5090.432)" fill="#eaf4ff" opacity="0.58"/>
    </clipPath>
    <clipPath id="clip-path-2">
      <rect id="Rectángulo_408485" data-name="Rectángulo 408485" width="271.999" height="586.711" fill="none"/>
    </clipPath>
    <clipPath id="clip-path-3">
      <rect id="Rectángulo_408516" data-name="Rectángulo 408516" width="255.864" height="328.807" fill="none"/>
    </clipPath>
    <clipPath id="clip-path-5">
      <rect id="Rectángulo_408514" data-name="Rectángulo 408514" width="33.812" height="79.678" fill="none"/>
    </clipPath>
  </defs>
  <g id="Grupo_1199732" data-name="Grupo 1199732" transform="translate(-205.058 -16223.25)">
    <g id="Enmascarar_grupo_1098806" data-name="Enmascarar grupo 1098806" transform="translate(-0.025 11160.568)" clip-path="url(#clip-path)">
      <g id="Grupo_1198312" data-name="Grupo 1198312" transform="translate(205.083 4843.001)">
        <rect id="Rectángulo_408483" data-name="Rectángulo 408483" width="272" height="586.712" transform="translate(0 -0.001)" fill="#e2f7f2"/>
        <rect id="Rectángulo_408484" data-name="Rectángulo 408484" width="2.304" height="30.387" transform="translate(42.33 345.595)" fill="#872a21"/>
        <g id="Grupo_1198311" data-name="Grupo 1198311" transform="translate(0 0)">
          <g id="Grupo_1198310" data-name="Grupo 1198310" clip-path="url(#clip-path-2)">
            <path id="Trazado_916645" data-name="Trazado 916645" d="M47.342,304.563c-1.139-2.671-4.185-2.671-5.324,0-4.556,10.68-13.362,32.959-13.355,45.611,0,4.223,4.511,7.619,8.745,9.878a15.156,15.156,0,0,0,14.544,0c4.233-2.259,8.742-5.655,8.745-9.878.007-12.652-8.8-34.932-13.355-45.611" transform="translate(-1.197 -12.636)" fill="#569171"/>
            <path id="Trazado_916646" data-name="Trazado 916646" d="M47.451,357.868c-4.463-1.757-9.333-4.614-9.82-8.809-1.438-12.387,4.554-35.041,7.886-46.348a2.8,2.8,0,0,0-3.5,1.852c-4.556,10.68-13.362,32.959-13.355,45.612,0,4.222,4.511,7.619,8.745,9.877a15.157,15.157,0,0,0,14.544,0c.635-.338,1.276-.7,1.908-1.092a15.522,15.522,0,0,1-6.409-1.091" transform="translate(-1.197 -12.636)" fill="#3a6d50"/>
            <path id="Trazado_916647" data-name="Trazado 916647" d="M0,353.282s127.385-5.24,271.626,85.644V601.464H0Z" transform="translate(0 -14.752)" fill="#7dbb77"/>
            <path id="Trazado_916648" data-name="Trazado 916648" d="M0,477.091c114.322,7.4,232.118,60.223,271.626,79.43V502.95C178.87,425.237.008,401.7,0,401.7Z" transform="translate(0 -16.777)" fill="#569171"/>
            <path id="Trazado_916649" data-name="Trazado 916649" d="M251.683,271.481H130.5s.458-5.727,10.079-5.268c.458-9.393,13.745-15.119,22.45-7.56-6.414-15.806-2.52-27.489,8.476-28.634s18.325,10.308,20.387,17.409c6.642-7.1,8.017-1.145,8.246,0,10.08-10.995,23.595-7.33,27.718-2.977s3.207,14.66,3.207,14.66,14.431-6.184,17.638.458-2.519,8.934-2.519,8.934,4.81-.916,5.5,2.978" transform="translate(-5.45 -9.603)" fill="#fff"/>
          </g>
        </g>
      </g>
    </g>
    <g id="Grupo_1199731" data-name="Grupo 1199731" transform="translate(213.125 16223.25)">
      <g id="Grupo_1198381" data-name="Grupo 1198381" clip-path="url(#clip-path-3)">
        <g id="Grupo_1198380" data-name="Grupo 1198380">
          <g id="Grupo_1198379" data-name="Grupo 1198379" clip-path="url(#clip-path-3)">
            <path id="Trazado_916800" data-name="Trazado 916800" d="M.06,82.387A465.811,465.811,0,0,1,1.747,154.31c28.4-1.291,35.3-5.486,35.3-5.486S28.22,94.37,16.055,82.387-.582,75.776.06,82.387" transform="translate(218.821 -12.927)" fill="#90afa6"/>
            <path id="Trazado_916801" data-name="Trazado 916801" d="M41.357,97.252s-2.728,15.369-7.062,22.986c-.186-6.623-.486-12.578-.806-17.591Z" transform="translate(186.77 -16.701)" fill="#63847a"/>
            <path id="Trazado_916802" data-name="Trazado 916802" d="M100.763,99.911s11.763,8.207,23.252,27.629S149.457,175.2,149.457,175.2l-19.7,37.418L99.4,170.8Z" transform="translate(24.08 -17.158)" fill="#c67855"/>
            <path id="Trazado_916803" data-name="Trazado 916803" d="M116.049,99.911s11.763,8.207,23.252,27.629c4.2,7.1,8.725,15.371,12.78,23.014-6.292,4.293-20.548,15.712-27.008,34.556L114.682,170.8Z" transform="translate(8.795 -17.158)" fill="#fff"/>
            <path id="Trazado_916804" data-name="Trazado 916804" d="M148.332,151.066s-20.049,13.52-28.279,34.952" transform="translate(8.096 -25.942)" fill="none" stroke="#a0931d" stroke-miterlimit="10" stroke-width="0.647"/>
            <path id="Trazado_916805" data-name="Trazado 916805" d="M128.954,84.058s-16.824,6.039-26.4,13.962c0,47.315,1.915,145.248,0,162.482s-5.471,82.522-5.471,82.522h59.909V300.137l19.149,42.887h57.721s-34.178-86.077-37.743-92.916c-3.291-38.845-7.394-133.77-12.866-152.919-17.781-9.848-54.3-13.131-54.3-13.131" transform="translate(-58.412 -14.435)" fill="#fff"/>
            <path id="Trazado_916806" data-name="Trazado 916806" d="M219.587,26.264s6.024-1.778,7.939-5.334,1.777-8.891.273-8.617a34.845,34.845,0,0,0-5.255,2.052S226.191,4.79,219.4,1.643c-2.274-.957-3.322,5.608-3.322,5.608S212.862.139,207.2,0s-1.149,4.787-2.106,5.882S194.015,5.2,187.723,7.525s-9.712,8.967-9.712,8.967-2.736-3.222-4.1-2.538,3.146,5.334,3.146,5.334-3.967-.547-4.513,2.052,3.419,1.231,3.419,1.231.957,13.658,1.778,19.344,3.8,13.946,9.363,15.945c6.777.41,9.239-1.778,9.239-1.778Z" transform="translate(-115.949 0)" fill="#651d13"/>
            <path id="Trazado_916807" data-name="Trazado 916807" d="M185.258,98.214l7.346,9.848s8.48-7.523,8.753-14.362c.274-6.428-6.428-2.462-6.428-2.462Z" transform="translate(-98.945 -15.46)" fill="none" stroke="#a0931d" stroke-miterlimit="10" stroke-width="0.647"/>
            <path id="Trazado_916808" data-name="Trazado 916808" d="M222.526,97.181l-7.7,11.079s-15.593-12.721-8.071-24.21C213.615,83.23,222.526,97.181,222.526,97.181Z" transform="translate(-136.213 -14.428)" fill="none" stroke="#a0931d" stroke-miterlimit="10" stroke-width="0.647"/>
            <path id="Trazado_916809" data-name="Trazado 916809" d="M183.254,97.834c5.472,19.149,9.575,114.073,12.866,152.918,3.565,6.839,37.743,92.917,37.743,92.917H176.142l-19.149-42.887v42.887H97.084s3.556-65.288,5.471-82.522c.989-8.9.957-39.335.693-73.2,2-.25,6.687-.8,15.994-1.753,11.216-61.823-5.717-94.6-5.717-94.6,2.739-1.454,5.442-2.732,7.8-3.779C128.77,99.682,133.74,137.5,133.74,137.5s27.082-.821,40.487-7.933c1.074-12.03.461-28.946.149-35.658a62.065,62.065,0,0,1,8.878,3.925" transform="translate(-58.41 -15.08)" fill="#872a21"/>
            <path id="Trazado_916810" data-name="Trazado 916810" d="M207.272,154.186s-28.815,4.012-38.3,5.471l.912,9.119,38.48-4.742a68.968,68.968,0,0,0-1.094-9.848" transform="translate(-92.458 -26.478)" fill="#540d0a"/>
            <path id="Trazado_916811" data-name="Trazado 916811" d="M205.078,166.076s1.149,12,1.951,24.357a8.1,8.1,0,0,1-6.7,8.5c-9.762,1.7-17.61,2.647-22.991,3.173a8.08,8.08,0,0,1-8.832-7.4L166.6,170.818Z" transform="translate(-89.17 -28.52)" fill="#681d19"/>
            <path id="Trazado_916812" data-name="Trazado 916812" d="M198.313,99.911s4.337,26.115,5.294,38.225" transform="translate(-112 -17.158)" fill="none" stroke="#a0931d" stroke-miterlimit="10" stroke-width="0.647"/>
            <path id="Trazado_916813" data-name="Trazado 916813" d="M192.753,124.695a2.325,2.325,0,1,0,2.325-2.325,2.325,2.325,0,0,0-2.325,2.325" transform="translate(-101.192 -21.014)" fill="#a0931d"/>
            <line id="Línea_722" data-name="Línea 722" y1="44.012" transform="translate(98.582 241.69)" fill="none" stroke="#b2544f" stroke-miterlimit="10" stroke-width="1.24"/>
            <line id="Línea_723" data-name="Línea 723" y1="5.525" x2="14.414" transform="translate(98.582 236.166)" fill="none" stroke="#b2544f" stroke-miterlimit="10" stroke-width="1.24"/>
            <line id="Línea_724" data-name="Línea 724" x1="6.927" y2="156.479" transform="translate(46.848 171.849)" fill="none" stroke="#b2544f" stroke-miterlimit="10" stroke-width="1.24"/>
            <line id="Línea_725" data-name="Línea 725" x2="28.661" y2="61.198" transform="translate(98.582 267.391)" fill="none" stroke="#b2544f" stroke-miterlimit="10" stroke-width="1.24"/>
            <path id="Trazado_916814" data-name="Trazado 916814" d="M189.373,54.625s.821,16.551,0,24.073c8.891,11.216,15.77,13.131,15.77,13.131l12.7-5.334L213.4,73.227l-18.009-20.38Z" transform="translate(-118.831 -9.075)" fill="#c67855"/>
            <path id="Trazado_916815" data-name="Trazado 916815" d="M218.929,49.387c2.463,4.266,6.693,6.437,9.447,4.846s2.99-6.339.527-10.605-6.692-6.436-9.447-4.845-2.99,6.338-.527,10.6" transform="translate(-154.664 -6.571)" fill="#c67855"/>
            <path id="Trazado_916816" data-name="Trazado 916816" d="M229.35,48.359a11.528,11.528,0,0,1,1.659,6.663c-.012.007-.022.017-.036.024-2.754,1.59-6.984-.579-9.447-4.845a11.529,11.529,0,0,1-1.659-6.663c.012-.007.023-.017.036-.025,2.754-1.59,6.984.58,9.447,4.846" transform="translate(-157.261 -7.383)" fill="#aa6144"/>
            <path id="Trazado_916817" data-name="Trazado 916817" d="M179.454,25.269s-5.608,2.462-3.83,13.951,4.787,32.143,12.857,38.024S203.8,85.178,212.145,83.4c3.072-1.079,2.918-5.486,2.322-8.783a65.514,65.514,0,0,1-1.03-8.756c-.176-4.014-.707-9.171-2.25-10.227-2.6-1.777-28.86-27.765-31.733-30.364" transform="translate(-104.125 -4.339)" fill="#651d13"/>
            <path id="Trazado_916818" data-name="Trazado 916818" d="M211.386,54.713s-.547-12.036-1.367-19.97S202.906,19.151,193.6,19.971s-13.951,4.377-13.951,4.377,2.736,25.167,11.49,28.176,20.243,2.188,20.243,2.188" transform="translate(-104.323 -3.419)" fill="#c67855"/>
            <path id="Trazado_916819" data-name="Trazado 916819" d="M207.759,48.35s-1.824-4.833-9.393-3.739c-3.647.912-2.279,2.736-2.279,2.736a11.344,11.344,0,0,0,11.672,1" transform="translate(-114.101 -7.633)" fill="#fff"/>
            <path id="Trazado_916820" data-name="Trazado 916820" d="M199.814,47.348s-1.367-1.824,2.279-2.736a10.941,10.941,0,0,1,5.977.568,4.643,4.643,0,0,1-.458,4.3,11.727,11.727,0,0,1-7.8-2.134" transform="translate(-117.828 -7.634)" fill="#651d13"/>
            <path id="Trazado_916821" data-name="Trazado 916821" d="M180.216,49.116c.267-2.308,2.438-3.49,5.582-3.382.124,1.675.236,3.35.335,4.92-.965-.05-4.219-.3-5.916-1.538" transform="translate(-79.536 -7.853)" fill="#fff"/>
            <path id="Trazado_916822" data-name="Trazado 916822" d="M208.565,38.423s-5.106-1.185-8.936.73c-2.1.73-.364-3.557,4.1-4.1s5.106,1.732,4.833,3.374" transform="translate(-117.369 -6.005)" fill="#651d13"/>
            <path id="Trazado_916823" data-name="Trazado 916823" d="M181.14,38.459c.351-1.968,3.03-3.494,5.2-3.26a17.556,17.556,0,0,1,.362,2.166c.046.447.092.909.137,1.378a17.6,17.6,0,0,0-5.7-.284" transform="translate(-81.008 -6.041)" fill="#651d13"/>
            <path id="Trazado_916824" data-name="Trazado 916824" d="M185.517,45.871a3.868,3.868,0,0,1,.22,4.613,9.645,9.645,0,0,1-3.992-1.343c.211-1.83,1.632-2.938,3.772-3.271" transform="translate(-81.066 -7.877)" fill="#651d13"/>
            <path id="Trazado_916825" data-name="Trazado 916825" d="M189.572,52.131a52.082,52.082,0,0,0,3.1,8.572c1.642,3.1-6.292.729-8.663-2.736,3.557-3.739,5.563-5.836,5.563-5.836" transform="translate(-89.44 -8.952)" fill="#c67855"/>
            <path id="Trazado_916826" data-name="Trazado 916826" d="M183.967,57.967a11.077,11.077,0,0,0,7.851,4.174c1.907.111.793-1.29.229-2.65s-2.518-7.361-2.518-7.361" transform="translate(-89.397 -8.952)" fill="none" stroke="#651d13" stroke-miterlimit="10" stroke-width="0.5"/>
            <path id="Trazado_916827" data-name="Trazado 916827" d="M207.349,48.377s-2.874-6.176-11.513-2.723" transform="translate(-113.69 -7.66)" fill="none" stroke="#651d13" stroke-miterlimit="10" stroke-width="1"/>
            <path id="Trazado_916828" data-name="Trazado 916828" d="M180.62,49.115s.769-3.663,5.582-3.382" transform="translate(-79.94 -7.851)" fill="none" stroke="#651d13" stroke-miterlimit="10" stroke-width="1"/>
            <path id="Trazado_916829" data-name="Trazado 916829" d="M206.694,44.459a7.4,7.4,0,0,0-2.208-1.3,9.18,9.18,0,0,0-2.511-.611,9.522,9.522,0,0,0-2.582.088,11.565,11.565,0,0,0-1.256.283c-.408.129-.808.289-1.2.449a19.223,19.223,0,0,1,2.5-.416,12.786,12.786,0,0,1,2.5.007,12.138,12.138,0,0,1,2.447.5,11.158,11.158,0,0,1,2.314,1" transform="translate(-113.947 -7.298)" fill="#651d13"/>
            <path id="Trazado_916830" data-name="Trazado 916830" d="M181.14,46.392a11.793,11.793,0,0,1,2.774-1.57,8.526,8.526,0,0,1,1.511-.451,11.5,11.5,0,0,1,1.6-.2,5.394,5.394,0,0,0-3.258.263,6.286,6.286,0,0,0-1.45.8,5.356,5.356,0,0,0-1.172,1.153" transform="translate(-81.19 -7.562)" fill="#651d13"/>
            <path id="Trazado_916831" data-name="Trazado 916831" d="M195.694,67.323a31.551,31.551,0,0,1-10.685-1.754.6.6,0,0,0-.677.948c2.289,2.458,7.586,4.449,11.68,1.927a.608.608,0,0,0-.319-1.121" transform="translate(-92.979 -11.253)" fill="#fff"/>
            <g id="Grupo_1198378" data-name="Grupo 1198378" transform="translate(79.184)" opacity="0.18" style="mix-blend-mode: overlay;isolation: isolate">
              <g id="Grupo_1198377" data-name="Grupo 1198377">
                <g id="Grupo_1198376" data-name="Grupo 1198376" clip-path="url(#clip-path-5)">
                  <path id="Trazado_916832" data-name="Trazado 916832" d="M183.808,76.7c-15.432-25.025-10.6-58.087-10.6-58.087s5.734-3.431,5.552-5.255c-1.276-4.56,6.566-3.83,8.915-.912,1.205-4.266-5.406-8.32-5.406-8.321-.642-1.817-1.691-4.223,2.29-4.126,5.662.137,8.882,7.249,8.882,7.249s1.049-6.566,3.322-5.608c6.787,3.146,3.141,12.721,3.141,12.721a34.845,34.845,0,0,1,5.255-2.052c1.5-.273,1.641,5.061-.274,8.617-1.526,2.834-5.653,4.535-7.27,5.11A18.029,18.029,0,0,1,199,31.324c.821,7.933,1.368,19.97,1.368,19.97,1.543,1.056,2.073,6.212,2.25,10.227a65.543,65.543,0,0,0,1.03,8.756c.6,3.3.75,7.7-2.322,8.783A25.466,25.466,0,0,1,183.808,76.7" transform="translate(-172.49 0)" fill="#fff"/>
                </g>
              </g>
            </g>
            <path id="Trazado_916833" data-name="Trazado 916833" d="M34.765,307.461h0a4.265,4.265,0,0,0,6.028-.176L237.685,98.493a4.264,4.264,0,0,0-6.2-5.851L34.588,301.433a4.264,4.264,0,0,0,.176,6.028" transform="translate(-10.669 -15.679)" fill="#540d0a"/>
            <path id="Trazado_916834" data-name="Trazado 916834" d="M83.444,150.187s-9.575,19.781-16.961,29.176S50.89,206.814,54.447,214.747,76.6,227.64,87,208.884s23.8-63.073,24.894-69.912-2.736-15.593-7.387-21.611-11.489-6.909-10.942-1.266c-6.565,6.738-8.754,8.105-8.207,13.3-1.915,4.651-4.651,7.112-1.915,11.763,2.188,1.642,1.415,6.18,0,9.027" transform="translate(99.394 -19.288)" fill="#c67855"/>
            <path id="Trazado_916835" data-name="Trazado 916835" d="M86.4,236.721a18.754,18.754,0,0,1,28.963-4.822c-9.489,13.217-23.668,10.784-28.963,4.822" transform="translate(68.946 -38.994)" fill="#a05a3f"/>
            <line id="Línea_726" data-name="Línea 726" x1="16.539" y2="26.532" transform="translate(154.21 152.418)" fill="none" stroke="#651d13" stroke-miterlimit="10" stroke-width="0.647"/>
            <path id="Trazado_916836" data-name="Trazado 916836" d="M255.464,100.914s-16.961,12.027-27.63,41.023-18.328,43.115-16.14,53.974,36.657,62.288,41.854,69.674,11.49,18.055,16.14,17.781,17.508-6.292,20.79-8.754,1.094-15.593-1.094-16.14c-4.377-.548-7.522-7.325-7.522-7.325a15.8,15.8,0,0,0-9.711-4.438c-13.4-19.97-21.338-43.512-22.979-46.923l17.234-42.53s7.66-47.031-10.942-56.342" transform="translate(-211.32 -17.33)" fill="#c67855"/>
            <path id="Trazado_916837" data-name="Trazado 916837" d="M247.839,141.937c10.669-29,27.63-41.023,27.63-41.023,18.6,9.311,10.942,56.342,10.942,56.342L274.95,185.54c-7.533-14.873-26.272-22.012-34.431-24.49,2.182-5.565,4.657-11.875,7.32-19.113" transform="translate(-231.325 -17.33)" fill="#fff"/>
            <path id="Trazado_916838" data-name="Trazado 916838" d="M250.771,162.234c10.55,2.334,25.33,8.158,35.323,22.654" transform="translate(-237.936 -27.86)" fill="none" stroke="#a0931d" stroke-miterlimit="10" stroke-width="0.647"/>
            <path id="Trazado_916839" data-name="Trazado 916839" d="M305.813,210.683a18.75,18.75,0,0,1-7.942,15.331c-3.567-6.382-6.091-11.563-6.634-14.252-1.022-5.075.107-10.863,2.688-18.547a18.78,18.78,0,0,1,11.888,17.467" transform="translate(-290.863 -33.181)" fill="#a05a3f"/>
            <line id="Línea_727" data-name="Línea 727" x1="6.018" y1="13.26" transform="translate(31.834 169.197)" fill="none" stroke="#651d13" stroke-miterlimit="10" stroke-width="0.647"/>
            <path id="Trazado_916840" data-name="Trazado 916840" d="M240.6,185.54s10.093-25.183,11.461-28.283,5.563-51.955-10.942-56.342" transform="translate(-196.975 -17.33)" fill="none" stroke="#a0931d" stroke-miterlimit="10" stroke-width="0.647"/>
            <path id="Trazado_916841" data-name="Trazado 916841" d="M13.594,88.837a113.358,113.358,0,0,1,5.636,13.6c1.621,4.628,3.019,9.326,4.266,14.062.567,2.384,1.216,4.746,1.693,7.15l.765,3.593.682,3.61.339,1.806.281,1.816.586,3.629c.359,2.424.626,4.862.975,7.291l.522-.7-9.624,1.983c-1.6.334-3.21.655-4.821.947-.805.149-1.612.284-2.421.412a20.424,20.424,0,0,1-2.436.3,35.011,35.011,0,0,0,4.919-.279c1.634-.17,3.265-.369,4.893-.581q4.88-.676,9.731-1.514l.58-.1-.058-.6c-.237-2.457-.463-4.918-.764-7.37-.357-2.444-.629-4.9-1.107-7.331l-.66-3.649c-.224-1.216-.523-2.417-.784-3.625-.507-2.42-1.16-4.807-1.779-7.2a136.029,136.029,0,0,0-4.767-14.039C19.3,99.77,18.323,97.5,17.2,95.3a62.543,62.543,0,0,0-3.61-6.459" transform="translate(217.39 -15.256)" fill="#63847a"/>
            <path id="Trazado_916842" data-name="Trazado 916842" d="M41.623,373.31l24.99-24.99s-9.075,24.992-24.99,24.99" transform="translate(154.776 -59.816)" fill="#5a8e54"/>
            <path id="Trazado_916843" data-name="Trazado 916843" d="M41.623,373.31l24.99-24.99s-24.992,9.075-24.99,24.99" transform="translate(154.776 -59.816)" fill="#7dbb77"/>
            <path id="Trazado_916844" data-name="Trazado 916844" d="M41.623,337.138l24.99-24.99s-9.075,24.992-24.99,24.99" transform="translate(154.776 -53.605)" fill="#5a8e54"/>
            <path id="Trazado_916845" data-name="Trazado 916845" d="M41.623,337.138l24.99-24.99s-24.992,9.075-24.99,24.99" transform="translate(154.776 -53.605)" fill="#7dbb77"/>
            <path id="Trazado_916846" data-name="Trazado 916846" d="M41.623,300.967l24.99-24.99s-9.075,24.992-24.99,24.99" transform="translate(154.776 -47.393)" fill="#5a8e54"/>
            <path id="Trazado_916847" data-name="Trazado 916847" d="M41.623,300.967l24.99-24.99s-24.992,9.075-24.99,24.99" transform="translate(154.776 -47.393)" fill="#7dbb77"/>
            <path id="Trazado_916848" data-name="Trazado 916848" d="M96.784,373.31l-24.99-24.99s9.075,24.992,24.99,24.99" transform="translate(99.615 -59.816)" fill="#5a8e54"/>
            <path id="Trazado_916849" data-name="Trazado 916849" d="M96.784,373.31l-24.99-24.99s24.992,9.075,24.99,24.99" transform="translate(99.616 -59.816)" fill="#7dbb77"/>
            <path id="Trazado_916850" data-name="Trazado 916850" d="M96.784,337.138l-24.99-24.99s9.075,24.992,24.99,24.99" transform="translate(99.615 -53.605)" fill="#5a8e54"/>
            <path id="Trazado_916851" data-name="Trazado 916851" d="M96.784,337.138l-24.99-24.99s24.992,9.075,24.99,24.99" transform="translate(99.616 -53.605)" fill="#7dbb77"/>
            <path id="Trazado_916852" data-name="Trazado 916852" d="M96.784,300.967l-24.99-24.99s9.075,24.992,24.99,24.99" transform="translate(99.615 -47.393)" fill="#5a8e54"/>
            <path id="Trazado_916853" data-name="Trazado 916853" d="M96.784,300.967l-24.99-24.99s24.992,9.075,24.99,24.99" transform="translate(99.616 -47.393)" fill="#7dbb77"/>
            <path id="Trazado_916854" data-name="Trazado 916854" d="M76.8,270.028V234.686s-11.255,24.09,0,35.342" transform="translate(119.603 -40.302)" fill="#5a8e54"/>
            <path id="Trazado_916855" data-name="Trazado 916855" d="M65.754,270.028V234.686s11.255,24.09,0,35.342" transform="translate(130.645 -40.302)" fill="#7dbb77"/>
            <line id="Línea_728" data-name="Línea 728" y1="133.136" transform="translate(196.399 195.305)" fill="none" stroke="#540d0a" stroke-miterlimit="10" stroke-width="0.84"/>
            <line id="Línea_729" data-name="Línea 729" x1="17.373" y1="17.373" transform="translate(179.026 236.201)" fill="none" stroke="#540d0a" stroke-linecap="round" stroke-miterlimit="10" stroke-width="0.84"/>
            <line id="Línea_730" data-name="Línea 730" x1="17.373" y1="17.373" transform="translate(179.026 266.042)" fill="none" stroke="#540d0a" stroke-linecap="round" stroke-miterlimit="10" stroke-width="0.84"/>
            <line id="Línea_731" data-name="Línea 731" x1="17.373" y1="17.373" transform="translate(179.026 295.883)" fill="none" stroke="#540d0a" stroke-linecap="round" stroke-miterlimit="10" stroke-width="0.84"/>
            <line id="Línea_732" data-name="Línea 732" y1="17.373" x2="17.373" transform="translate(196.399 236.201)" fill="none" stroke="#540d0a" stroke-linecap="round" stroke-miterlimit="10" stroke-width="0.84"/>
            <line id="Línea_733" data-name="Línea 733" y1="17.373" x2="17.373" transform="translate(196.399 266.042)" fill="none" stroke="#540d0a" stroke-linecap="round" stroke-miterlimit="10" stroke-width="0.84"/>
            <line id="Línea_734" data-name="Línea 734" y1="17.373" x2="17.373" transform="translate(196.399 295.883)" fill="none" stroke="#540d0a" stroke-linecap="round" stroke-miterlimit="10" stroke-width="0.84"/>
            <path id="Trazado_916856" data-name="Trazado 916856" d="M105.341,373.31l24.99-24.99s-9.075,24.992-24.99,24.99" transform="translate(38.282 -59.816)" fill="#5a8e54"/>
            <path id="Trazado_916857" data-name="Trazado 916857" d="M105.341,373.31l24.99-24.99s-24.992,9.075-24.99,24.99" transform="translate(38.282 -59.816)" fill="#7dbb77"/>
            <path id="Trazado_916858" data-name="Trazado 916858" d="M105.341,337.138l24.99-24.99s-9.075,24.992-24.99,24.99" transform="translate(38.282 -53.605)" fill="#5a8e54"/>
            <path id="Trazado_916859" data-name="Trazado 916859" d="M105.341,337.138l24.99-24.99s-24.992,9.075-24.99,24.99" transform="translate(38.282 -53.605)" fill="#7dbb77"/>
            <path id="Trazado_916860" data-name="Trazado 916860" d="M105.341,300.967l24.99-24.99s-9.075,24.992-24.99,24.99" transform="translate(38.282 -47.393)" fill="#5a8e54"/>
            <path id="Trazado_916861" data-name="Trazado 916861" d="M105.341,300.967l24.99-24.99s-24.992,9.075-24.99,24.99" transform="translate(38.282 -47.393)" fill="#7dbb77"/>
            <path id="Trazado_916862" data-name="Trazado 916862" d="M160.5,373.31l-24.99-24.99s9.075,24.992,24.99,24.99" transform="translate(-16.878 -59.816)" fill="#5a8e54"/>
            <path id="Trazado_916863" data-name="Trazado 916863" d="M160.5,373.31l-24.99-24.99S160.5,357.4,160.5,373.31" transform="translate(-16.878 -59.816)" fill="#7dbb77"/>
            <path id="Trazado_916864" data-name="Trazado 916864" d="M160.5,337.138l-24.99-24.99s9.075,24.992,24.99,24.99" transform="translate(-16.878 -53.605)" fill="#5a8e54"/>
            <path id="Trazado_916865" data-name="Trazado 916865" d="M160.5,337.138l-24.99-24.99s24.992,9.075,24.99,24.99" transform="translate(-16.878 -53.605)" fill="#7dbb77"/>
            <path id="Trazado_916866" data-name="Trazado 916866" d="M160.5,300.967l-24.99-24.99s9.075,24.992,24.99,24.99" transform="translate(-16.878 -47.393)" fill="#5a8e54"/>
            <path id="Trazado_916867" data-name="Trazado 916867" d="M160.5,300.967l-24.99-24.99s24.992,9.075,24.99,24.99" transform="translate(-16.878 -47.393)" fill="#7dbb77"/>
            <path id="Trazado_916868" data-name="Trazado 916868" d="M140.514,270.028V234.686s-11.255,24.09,0,35.342" transform="translate(3.109 -40.302)" fill="#5a8e54"/>
            <path id="Trazado_916869" data-name="Trazado 916869" d="M129.472,270.028V234.686s11.255,24.09,0,35.342" transform="translate(14.151 -40.302)" fill="#7dbb77"/>
            <line id="Línea_735" data-name="Línea 735" y1="133.284" transform="translate(143.623 195.305)" fill="none" stroke="#540d0a" stroke-miterlimit="10" stroke-width="0.84"/>
            <line id="Línea_736" data-name="Línea 736" x1="17.373" y1="17.373" transform="translate(126.25 236.201)" fill="none" stroke="#540d0a" stroke-linecap="round" stroke-miterlimit="10" stroke-width="0.84"/>
            <line id="Línea_737" data-name="Línea 737" x1="17.373" y1="17.373" transform="translate(126.25 266.042)" fill="none" stroke="#540d0a" stroke-linecap="round" stroke-miterlimit="10" stroke-width="0.84"/>
            <line id="Línea_738" data-name="Línea 738" x1="17.373" y1="17.373" transform="translate(126.25 295.883)" fill="none" stroke="#540d0a" stroke-linecap="round" stroke-miterlimit="10" stroke-width="0.84"/>
            <line id="Línea_739" data-name="Línea 739" y1="17.373" x2="17.373" transform="translate(143.623 236.201)" fill="none" stroke="#540d0a" stroke-linecap="round" stroke-miterlimit="10" stroke-width="0.84"/>
            <line id="Línea_740" data-name="Línea 740" y1="17.373" x2="17.373" transform="translate(143.623 266.042)" fill="none" stroke="#540d0a" stroke-linecap="round" stroke-miterlimit="10" stroke-width="0.84"/>
            <line id="Línea_741" data-name="Línea 741" y1="17.373" x2="17.373" transform="translate(143.623 295.883)" fill="none" stroke="#540d0a" stroke-linecap="round" stroke-miterlimit="10" stroke-width="0.84"/>
          </g>
        </g>
      </g>
    </g>
  </g>
</svg>
