<svg xmlns="http://www.w3.org/2000/svg" xmlns:xlink="http://www.w3.org/1999/xlink" width="86.109" height="86.109" viewBox="0 0 86.109 86.109">
  <defs>
    <filter id="Trazado_896985" x="0" y="0" width="86.109" height="86.109" filterUnits="userSpaceOnUse">
      <feOffset dy="3" input="SourceAlpha"/>
      <feGaussianBlur stdDeviation="3" result="blur"/>
      <feFlood flood-opacity="0.161"/>
      <feComposite operator="in" in2="blur"/>
      <feComposite in="SourceGraphic"/>
    </filter>
  </defs>
  <g id="Grupo_1199734" data-name="Grupo 1199734" transform="translate(-336.525 -16833.086)">
    <g id="Grupo_1198723" data-name="Grupo 1198723" transform="translate(139.635 12371.764)">
      <g id="Grupo_1198139" data-name="Grupo 1198139" transform="translate(205.891 4467.322)">
        <g id="Grupo_1111318" data-name="Grupo 1111318" transform="translate(0)">
          <g id="Grupo_1109826" data-name="Grupo 1109826" transform="translate(0 0)">
            <g id="Grupo_1098742" data-name="Grupo 1098742" transform="translate(0)">
              <g transform="matrix(1, 0, 0, 1, -9, -6)" filter="url(#Trazado_896985)">
                <g id="Trazado_896985-2" data-name="Trazado 896985" transform="translate(9 6)" fill="#fc0" opacity="0.859">
                  <path d="M 34.05470275878906 67.6094970703125 C 29.52462196350098 67.6094970703125 25.13032341003418 66.72238159179688 20.99385261535645 64.97280120849609 C 16.99824333190918 63.28280639648438 13.40971279144287 60.86331558227539 10.32794284820557 57.78155517578125 C 7.246182918548584 54.69978332519531 4.826692581176758 51.11125564575195 3.136692762374878 47.11564636230469 C 1.387112736701965 42.97917556762695 0.5000027418136597 38.58487319946289 0.5000027418136597 34.05479431152344 C 0.5000027418136597 29.52469444274902 1.387112736701965 25.13037490844727 3.136692762374878 20.9938850402832 C 4.826692581176758 16.99826431274414 7.246182918548584 13.40972518920898 10.32794284820557 10.32795429229736 C 13.40971279144287 7.246184825897217 16.99824333190918 4.826694488525391 20.99385261535645 3.136694669723511 C 25.13032341003418 1.387114763259888 29.52462196350098 0.5000047087669373 34.05470275878906 0.5000047087669373 C 38.58478164672852 0.5000047087669373 42.97908401489258 1.387114763259888 47.11555099487305 3.136694669723511 C 51.11116409301758 4.826694488525391 54.69969177246094 7.246174812316895 57.78146362304688 10.3279447555542 C 60.86322402954102 13.4097146987915 63.28271102905273 16.99823379516602 64.97270965576172 20.99384498596191 C 66.7222900390625 25.13031387329102 67.60940551757812 29.52461433410645 67.60940551757812 34.05469512939453 C 67.60940551757812 38.58479309082031 66.7222900390625 42.9791145324707 64.97270965576172 47.11560440063477 C 63.28271102905273 51.11122512817383 60.86322402954102 54.69976425170898 57.78146362304688 57.78153610229492 C 54.69969177246094 60.86330413818359 51.11116409301758 63.28280639648438 47.11555099487305 64.97280120849609 C 42.97908401489258 66.72238159179688 38.58478164672852 67.6094970703125 34.05470275878906 67.6094970703125 Z" stroke="none"/>
                  <path d="M 34.05470275878906 0.9999923706054688 C 29.59190368652344 0.9999923706054688 25.26313400268555 1.873817443847656 21.18863296508789 3.597183227539062 C 17.25262451171875 5.261985778808594 13.71751403808594 7.645496368408203 10.68150329589844 10.68150329589844 C 7.645492553710938 13.71752548217773 5.261981964111328 17.25263595581055 3.597190856933594 21.18866348266602 C 1.873825073242188 25.26318359375 1 29.59197616577148 1 34.05479431152344 C 1 38.51759338378906 1.873825073242188 42.84636688232422 3.597190856933594 46.92086410522461 C 5.261981964111328 50.85687255859375 7.645492553710938 54.39198303222656 10.68150329589844 57.42799377441406 C 13.71751403808594 60.46399307250977 17.25262451171875 62.84750366210938 21.18863296508789 64.51229858398438 C 25.26313400268555 66.23566436767578 29.59190368652344 67.10948181152344 34.05470275878906 67.10948181152344 C 38.51750183105469 67.10948181152344 42.84627532958984 66.23566436767578 46.92077255249023 64.51229858398438 C 50.85679244995117 62.84749603271484 54.39189147949219 60.46399307250977 57.42790222167969 57.42798614501953 C 60.46391296386719 54.39196395874023 62.8474235534668 50.85684204101562 64.51221466064453 46.92082214355469 C 66.23558044433594 42.84630584716797 67.10940551757812 38.51751708984375 67.10940551757812 34.05469512939453 C 67.10940551757812 29.59189605712891 66.23558044433594 25.26312637329102 64.51221466064453 21.18862533569336 C 62.8474235534668 17.25261306762695 60.46391296386719 13.71750640869141 57.42790222167969 10.68149566650391 C 54.39189147949219 7.645484924316406 50.85678100585938 5.261974334716797 46.92077255249023 3.597183227539062 C 42.84627532958984 1.873817443847656 38.51750183105469 0.9999923706054688 34.05470275878906 0.9999923706054688 M 34.05470275878906 -7.62939453125e-06 C 52.86259460449219 -7.62939453125e-06 68.10940551757812 15.24680328369141 68.10940551757812 34.05469512939453 L 68.10940551757812 34.05479431152344 C 68.10940551757812 52.86268615722656 52.86259460449219 68.10948181152344 34.05470275878906 68.10948181152344 C 15.24681091308594 68.10948181152344 0 52.86268615722656 0 34.05479431152344 L 0 34.05469512939453 C 0 15.24680328369141 15.24681091308594 -7.62939453125e-06 34.05470275878906 -7.62939453125e-06 Z" stroke="none" fill="#fff"/>
                </g>
              </g>
              <g id="Rectángulo_400907" data-name="Rectángulo 400907" transform="translate(0)" fill="none" stroke="#fff" stroke-width="1">
                <rect width="68.109" height="68.109" rx="34.055" stroke="none"/>
                <rect x="0.5" y="0.5" width="67.109" height="67.109" rx="33.555" fill="none"/>
              </g>
            </g>
          </g>
        </g>
      </g>
    </g>
    <g id="farmer_10770918" transform="translate(281.424 16831.469)">
      <path id="Trazado_1031794" data-name="Trazado 1031794" d="M191.427,24h0a7.431,7.431,0,0,1,7.427,7.427v.825H184v-.825A7.431,7.431,0,0,1,191.427,24Z" transform="translate(-93.272 -7.175)" fill="#b97a0a"/>
      <ellipse id="Elipse_12162" data-name="Elipse 12162" cx="17.33" cy="5.364" rx="17.33" ry="5.364" transform="translate(80.825 20.952)" fill="#d78e0c"/>
      <path id="Trazado_1031795" data-name="Trazado 1031795" d="M161.038,104.193l-1.439,1.485a3.851,3.851,0,0,0-.853,4.154l.707,1.768h1.754Z" transform="translate(-70.377 -79.095)" fill="#7a4922"/>
      <path id="Trazado_1031796" data-name="Trazado 1031796" d="M325.7,104.113l1.378,1.494a3.851,3.851,0,0,1,.853,4.154l-.707,1.768h-1.754Z" transform="translate(-220.15 -79.024)" fill="#7a4922"/>
      <path id="Trazado_1031797" data-name="Trazado 1031797" d="M200.369,259.716v3.3l2.713,2.466-6.783,4.136-6.783-4.136,2.657-2.466v-3.3Z" transform="translate(-98.219 -218.575)" fill="#d3976e"/>
      <path id="Trazado_1031798" data-name="Trazado 1031798" d="M159.732,167.584h.678v4.07h-.678a2.035,2.035,0,1,1,0-4.07Z" transform="translate(-69.682 -135.947)" fill="#d3976e"/>
      <path id="Trazado_1031799" data-name="Trazado 1031799" d="M2.035,0h.678V4.07H2.035a2.035,2.035,0,0,1,0-4.07Z" transform="translate(108.296 35.707) rotate(180)" fill="#d3976e"/>
      <g id="Grupo_1199733" data-name="Grupo 1199733" transform="translate(90.659 25.078)">
        <path id="Trazado_1031800" data-name="Trazado 1031800" d="M195.537,120.066a7.362,7.362,0,0,1-4.642,1.648h-.2a7.362,7.362,0,0,1-7.362-7.362V104h14.923v10.352a7.362,7.362,0,0,1-2.72,5.714Z" transform="translate(-183.333 -104)" fill="#e6af89"/>
        <path id="Trazado_1031801" data-name="Trazado 1031801" d="M185.677,215.145a.825.825,0,0,1-.825.825h-.389l-.433-1.65h.822A.825.825,0,0,1,185.677,215.145Z" transform="translate(-183.958 -202.94)" fill="#e6af89"/>
        <path id="Trazado_1031802" data-name="Trazado 1031802" d="M185.05,191.145a.825.825,0,0,1-.825.825h-.891c0-.067,0-.135,0-.2V190.32h.894A.825.825,0,0,1,185.05,191.145Z" transform="translate(-183.33 -181.415)" fill="#e6af89"/>
        <path id="Trazado_1031803" data-name="Trazado 1031803" d="M313.578,214.32a7.328,7.328,0,0,1-.433,1.65h-.32a.825.825,0,1,1,0-1.65Z" transform="translate(-298.727 -202.94)" fill="#e6af89"/>
        <path id="Trazado_1031804" data-name="Trazado 1031804" d="M313.65,190.32v1.447c0,.068,0,.136,0,.2h-.822a.825.825,0,0,1,0-1.65Z" transform="translate(-298.727 -181.415)" fill="#e6af89"/>
      </g>
      <path id="Trazado_1031805" data-name="Trazado 1031805" d="M119.37,286.322l5.806,2.729a10.677,10.677,0,0,1,5.748,9.471v8.6H98.364v-8.6a10.677,10.677,0,0,1,5.748-9.471l5.355-2.729,5.158,4.126,4.745-4.126Z" transform="translate(-16.47 -242.436)" fill="#e42a3c"/>
      <path id="Trazado_1031806" data-name="Trazado 1031806" d="M167.107,421.6a2.415,2.415,0,0,1-1.6-.6,7.184,7.184,0,0,1-2.283-3.97L162.981,416H148.126l-.3,1.336A4.944,4.944,0,0,1,146,420.278a3.268,3.268,0,0,1-2,.674v2.476h23.107Z" transform="translate(-57.398 -358.737)" fill="#007af6"/>
      <path id="Trazado_1031807" data-name="Trazado 1031807" d="M211.158,290.448l-3.3,2.649L206,286.322Z" transform="translate(-113.002 -242.436)" fill="#c92535"/>
      <path id="Trazado_1031808" data-name="Trazado 1031808" d="M256,290.459l3.3,2.649,1.419-6.774Z" transform="translate(-157.845 -242.447)" fill="#c92535"/>
      <path id="Trazado_1031809" data-name="Trazado 1031809" d="M288,292.479h3.3l.613-12.214-3.22-1.994Z" transform="translate(-186.544 -235.217)" fill="#529fff"/>
      <path id="Trazado_1031810" data-name="Trazado 1031810" d="M188.367,294.269h-3.3l-.8-12.234,3.2-1.767Z" transform="translate(-93.512 -237.006)" fill="#529fff"/>
      <path id="Trazado_1031811" data-name="Trazado 1031811" d="M110.654,21.734a33.519,33.519,0,0,0-5.082-1.1,8.254,8.254,0,0,0-14.833,0,33.518,33.518,0,0,0-5.082,1.1C81.956,22.88,80,24.464,80,26.316c0,2.187,2.758,4.009,7.769,5.14l.132.331a2.858,2.858,0,0,0,2.006,4.742,8.148,8.148,0,0,0,2.951,5.256q.133.108.27.21v1.072l-.037.015-5.808,2.79-.024.012a11.465,11.465,0,0,0-6.192,10.2v8.432a.825.825,0,0,0,.825.825h32.56a.825.825,0,0,0,.825-.825V56.085a11.465,11.465,0,0,0-6.192-10.2l-.036-.018L103,43.084l-.027-.011v-.982c.138-.1.275-.2.407-.308a8.149,8.149,0,0,0,2.951-5.254,2.858,2.858,0,0,0,1.965-4.862l.069-.173c5.123-1.127,7.943-2.964,7.943-5.179,0-1.852-1.956-3.436-5.657-4.581Zm-12.5-4.084a6.592,6.592,0,0,1,5.351,2.732c-1.71-.168-3.51-.256-5.351-.256s-3.639.088-5.347.256A6.646,6.646,0,0,1,98.155,17.651Zm-8.321,13.17a2.845,2.845,0,0,0-.508.084l-.19-.474a3.023,3.023,0,0,1,.67-3.264l.028-.028Zm-.994,2.851a1.211,1.211,0,0,1,.994-1.189v2.379a1.211,1.211,0,0,1-.994-1.189Zm15.766,11.966-.628,10.8h-1.648L103,44.9l1.6.738Zm3.463,1.592c-.007.042-.011,1.183-.011,1.183H106.1l.118-2.035,1.853.852Zm-23.3,2.828a.833.833,0,0,0,.092.005H86.6v2.247H83.467a9.794,9.794,0,0,1,1.306-2.253Zm5.312-3.7.121,2.057H88.252s0-1.133-.009-1.172ZM88.467,60.564h-.215V58.088H89.7l-.074.328,0,.02A4.109,4.109,0,0,1,88.467,60.564Zm1.968-8.253H88.252V50.064H90.3Zm.1,1.651.146,2.476H88.252V53.962ZM86.6,48.413h-.212c.07-.056.141-.112.212-.167Zm0,5.548v2.476H82.719v-.352a9.917,9.917,0,0,1,.23-2.124Zm-3.882,4.126H86.6v2.476H82.719Zm5.533,4.65a5.749,5.749,0,0,0,2.981-3.968l.154-.683h13.54l.09.385a7.949,7.949,0,0,0,3.041,4.819v.4H88.252v-.953Zm7.235-8.777H97.33v2.476h-1.7Zm5.191,2.476h-1.7V53.962h1.841Zm12.951-.352v.352h-3.92V53.962h3.69A9.916,9.916,0,0,1,113.629,56.085Zm-5.57.352h-2.426l.144-2.476h2.283Zm-2.187-4.126L106,50.064h2.056v2.247Zm1.806,8.253a6.339,6.339,0,0,1-1.044-2.427l-.006-.026-.005-.023h1.436v2.476Zm2.032-2.476h3.92v2.476h-3.92Zm0-5.777V50.064h1.87a9.8,9.8,0,0,1,1.3,2.247h-3.172Zm0-3.9v-.194q.127.1.25.194Zm-8.617.9L99.4,47.95l1.881-1.844ZM100.94,51.3l.035.025-.057.981H98.981V49.732Zm-3.61,1.007H95.39l-.058-.979.039-.028,1.959-1.572v2.579Zm-2.117-3-.19-3.235,1.893,1.869Zm-1.918-4.5.684,11.623H92.331l-.638-10.854,1.6-.77Zm-10.576,17.4H86.6v1.477H82.719Zm26.99,1.477V62.214h3.92v1.477Zm-8.384-19.943-3.168,3.105-3.378-3.335v-.575a8.2,8.2,0,0,0,3.242.673h.2a8.2,8.2,0,0,0,3.1-.614Zm1.017-3.246h0a6.556,6.556,0,0,1-4.121,1.463h-.2A6.541,6.541,0,0,1,92,37.977a.824.824,0,0,0-.433-1.518,6.6,6.6,0,0,1-.076-.826h.063V33.983h-.069V25.9h13.273v8.079l-.006,1.65a6.582,6.582,0,0,1-.077.83.824.824,0,0,0-.416,1.477,6.522,6.522,0,0,1-1.916,2.563Zm4.674-10.073-.176.44a2.852,2.852,0,0,0-.432-.055V27.233a3.021,3.021,0,0,1,.609,3.2Zm-.609,4.442v-2.4a1.209,1.209,0,0,1,0,2.4Zm2.461-5.19A4.671,4.671,0,0,0,107.514,26l-1.135-1.135a.825.825,0,0,0-.8-.612H90.659a.825.825,0,0,0-.745.472L88.639,26a4.671,4.671,0,0,0-1.358,3.641c-3.879-1-5.631-2.359-5.631-3.325,0-1.9,6.279-4.539,16.505-4.539s16.505,2.644,16.505,4.539c0,.984-1.8,2.365-5.792,3.366Z"/>
    </g>
  </g>
</svg>
