<svg xmlns="http://www.w3.org/2000/svg" xmlns:xlink="http://www.w3.org/1999/xlink" width="86.109" height="86.109" viewBox="0 0 86.109 86.109">
  <defs>
    <filter id="Trazado_896985" x="0" y="0" width="86.109" height="86.109" filterUnits="userSpaceOnUse">
      <feOffset dy="3" input="SourceAlpha"/>
      <feGaussianBlur stdDeviation="3" result="blur"/>
      <feFlood flood-opacity="0.161"/>
      <feComposite operator="in" in2="blur"/>
      <feComposite in="SourceGraphic"/>
    </filter>
  </defs>
  <g id="Grupo_1199736" data-name="Grupo 1199736" transform="translate(-546.474 -16833.086)">
    <g id="Grupo_1199583" data-name="Grupo 1199583" transform="translate(349.584 12371.764)">
      <g id="Grupo_1198139" data-name="Grupo 1198139" transform="translate(205.891 4467.322)">
        <g id="Grupo_1111318" data-name="Grupo 1111318" transform="translate(0)">
          <g id="Grupo_1109826" data-name="Grupo 1109826" transform="translate(0 0)">
            <g id="Grupo_1098742" data-name="Grupo 1098742" transform="translate(0)">
              <g transform="matrix(1, 0, 0, 1, -9, -6)" filter="url(#Trazado_896985)">
                <g id="Trazado_896985-2" data-name="Trazado 896985" transform="translate(9 6)" fill="#fc0" opacity="0.859">
                  <path d="M 34.05470275878906 67.6094970703125 C 29.52462196350098 67.6094970703125 25.13032341003418 66.72238159179688 20.99385261535645 64.97280120849609 C 16.99824333190918 63.28280639648438 13.40971279144287 60.86331558227539 10.32794284820557 57.78155517578125 C 7.246182918548584 54.69978332519531 4.826692581176758 51.11125564575195 3.136692762374878 47.11564636230469 C 1.387112736701965 42.97917556762695 0.5000027418136597 38.58487319946289 0.5000027418136597 34.05479431152344 C 0.5000027418136597 29.52469444274902 1.387112736701965 25.13037490844727 3.136692762374878 20.9938850402832 C 4.826692581176758 16.99826431274414 7.246182918548584 13.40972518920898 10.32794284820557 10.32795429229736 C 13.40971279144287 7.246184825897217 16.99824333190918 4.826694488525391 20.99385261535645 3.136694669723511 C 25.13032341003418 1.387114763259888 29.52462196350098 0.5000047087669373 34.05470275878906 0.5000047087669373 C 38.58478164672852 0.5000047087669373 42.97908401489258 1.387114763259888 47.11555099487305 3.136694669723511 C 51.11116409301758 4.826694488525391 54.69969177246094 7.246174812316895 57.78146362304688 10.3279447555542 C 60.86322402954102 13.4097146987915 63.28271102905273 16.99823379516602 64.97270965576172 20.99384498596191 C 66.7222900390625 25.13031387329102 67.60940551757812 29.52461433410645 67.60940551757812 34.05469512939453 C 67.60940551757812 38.58479309082031 66.7222900390625 42.9791145324707 64.97270965576172 47.11560440063477 C 63.28271102905273 51.11122512817383 60.86322402954102 54.69976425170898 57.78146362304688 57.78153610229492 C 54.69969177246094 60.86330413818359 51.11116409301758 63.28280639648438 47.11555099487305 64.97280120849609 C 42.97908401489258 66.72238159179688 38.58478164672852 67.6094970703125 34.05470275878906 67.6094970703125 Z" stroke="none"/>
                  <path d="M 34.05470275878906 0.9999923706054688 C 29.59190368652344 0.9999923706054688 25.26313400268555 1.873817443847656 21.18863296508789 3.597183227539062 C 17.25262451171875 5.261985778808594 13.71751403808594 7.645496368408203 10.68150329589844 10.68150329589844 C 7.645492553710938 13.71752548217773 5.261981964111328 17.25263595581055 3.597190856933594 21.18866348266602 C 1.873825073242188 25.26318359375 1 29.59197616577148 1 34.05479431152344 C 1 38.51759338378906 1.873825073242188 42.84636688232422 3.597190856933594 46.92086410522461 C 5.261981964111328 50.85687255859375 7.645492553710938 54.39198303222656 10.68150329589844 57.42799377441406 C 13.71751403808594 60.46399307250977 17.25262451171875 62.84750366210938 21.18863296508789 64.51229858398438 C 25.26313400268555 66.23566436767578 29.59190368652344 67.10948181152344 34.05470275878906 67.10948181152344 C 38.51750183105469 67.10948181152344 42.84627532958984 66.23566436767578 46.92077255249023 64.51229858398438 C 50.85679244995117 62.84749603271484 54.39189147949219 60.46399307250977 57.42790222167969 57.42798614501953 C 60.46391296386719 54.39196395874023 62.8474235534668 50.85684204101562 64.51221466064453 46.92082214355469 C 66.23558044433594 42.84630584716797 67.10940551757812 38.51751708984375 67.10940551757812 34.05469512939453 C 67.10940551757812 29.59189605712891 66.23558044433594 25.26312637329102 64.51221466064453 21.18862533569336 C 62.8474235534668 17.25261306762695 60.46391296386719 13.71750640869141 57.42790222167969 10.68149566650391 C 54.39189147949219 7.645484924316406 50.85678100585938 5.261974334716797 46.92077255249023 3.597183227539062 C 42.84627532958984 1.873817443847656 38.51750183105469 0.9999923706054688 34.05470275878906 0.9999923706054688 M 34.05470275878906 -7.62939453125e-06 C 52.86259460449219 -7.62939453125e-06 68.10940551757812 15.24680328369141 68.10940551757812 34.05469512939453 L 68.10940551757812 34.05479431152344 C 68.10940551757812 52.86268615722656 52.86259460449219 68.10948181152344 34.05470275878906 68.10948181152344 C 15.24681091308594 68.10948181152344 0 52.86268615722656 0 34.05479431152344 L 0 34.05469512939453 C 0 15.24680328369141 15.24681091308594 -7.62939453125e-06 34.05470275878906 -7.62939453125e-06 Z" stroke="none" fill="#fff"/>
                </g>
              </g>
              <g id="Rectángulo_400907" data-name="Rectángulo 400907" transform="translate(0)" fill="none" stroke="#fff" stroke-width="1">
                <rect width="68.109" height="68.109" rx="34.055" stroke="none"/>
                <rect x="0.5" y="0.5" width="67.109" height="67.109" rx="33.555" fill="none"/>
              </g>
            </g>
          </g>
        </g>
      </g>
    </g>
    <g id="team_12309507_2_" data-name="team_12309507 (2)" transform="translate(567.994 16849.945)">
      <path id="Trazado_1031812" data-name="Trazado 1031812" d="M44,55h9.649v5.514H44Z" transform="translate(-13.673 -17.092)" fill="#ffcc3e"/>
      <path id="Trazado_1031813" data-name="Trazado 1031813" d="M39,55h3.446v5.514H39Z" transform="translate(-12.119 -17.092)" fill="#f4baa6"/>
      <path id="Trazado_1031814" data-name="Trazado 1031814" d="M20,55h3.446v5.514H20Z" transform="translate(-6.215 -17.092)" fill="#f4baa6"/>
      <path id="Trazado_1031815" data-name="Trazado 1031815" d="M6,55h9.649v5.514H6Z" transform="translate(-1.864 -17.092)" fill="#ffcc3e"/>
      <path id="Trazado_1031816" data-name="Trazado 1031816" d="M4.446,52.514v5.514H1V47H4.446Z" transform="translate(-0.31 -14.606)" fill="#f4baa6"/>
      <path id="Trazado_1031817" data-name="Trazado 1031817" d="M41.825,49.825v2.068H38.378L37,49.135V45A4.83,4.83,0,0,1,41.825,49.825Z" transform="translate(-11.498 -13.984)" fill="#228ab2"/>
      <path id="Trazado_1031818" data-name="Trazado 1031818" d="M34.649,53.757v5.514H25V53.757L26.378,51h6.892Z" transform="translate(-7.769 -15.849)" fill="#f7a539"/>
      <path id="Trazado_1031819" data-name="Trazado 1031819" d="M33.892,45v4.135H27V45h6.892Z" transform="translate(-8.39 -13.984)" fill="#228ab2"/>
      <path id="Trazado_1031820" data-name="Trazado 1031820" d="M24.825,45v4.135l-1.378,2.757H20V49.825A4.83,4.83,0,0,1,24.825,45Z" transform="translate(-6.215 -13.984)" fill="#228ab2"/>
      <path id="Trazado_1031821" data-name="Trazado 1031821" d="M14.058,16.213a4.1,4.1,0,0,1,1.213,2.922H7A4.139,4.139,0,0,1,11.135,15,4.1,4.1,0,0,1,14.058,16.213Z" transform="translate(-2.175 -4.661)" fill="#ffcc3e"/>
      <path id="Trazado_1031822" data-name="Trazado 1031822" d="M15.271,25.135v1.378a4.139,4.139,0,0,1-4.135,4.135A4.142,4.142,0,0,1,7,26.514V21h8.271Z" transform="translate(-2.175 -6.526)" fill="#f4baa6"/>
      <path id="Trazado_1031823" data-name="Trazado 1031823" d="M15.649,48.582v2.068H6V45.135L6.689,41H14.96l.689,4.135Z" transform="translate(-1.864 -12.741)" fill="#f7a539"/>
      <path id="Trazado_1031824" data-name="Trazado 1031824" d="M5.135,35v4.135l-.689,4.135H1V39.135A4.13,4.13,0,0,1,5.135,35Z" transform="translate(-0.31 -10.877)" fill="#228ab2"/>
      <path id="Trazado_1031825" data-name="Trazado 1031825" d="M15.271,35v4.135H7V35h8.271Z" transform="translate(-2.175 -10.877)" fill="#228ab2"/>
      <path id="Trazado_1031826" data-name="Trazado 1031826" d="M25.038,40.679a4.1,4.1,0,0,0,2.922,1.213H24.514a4.83,4.83,0,0,0-4.825,4.825V43.271L19,39.135V35c2.667,0,4.135.689,4.825,2.757a4.1,4.1,0,0,0,1.213,2.922Z" transform="translate(-5.904 -10.877)" fill="#228ab2"/>
      <path id="Trazado_1031827" data-name="Trazado 1031827" d="M21.96,27.892v5.514c-.689-2.068-2.157-2.757-4.825-2.757H13a4.139,4.139,0,0,0,4.135-4.135V25.135c0-2.068,1.716-4.135,4.825-4.135Z" transform="translate(-4.04 -6.526)" fill="#228ab2"/>
      <path id="Trazado_1031828" data-name="Trazado 1031828" d="M61.446,47V58.028H58V47Z" transform="translate(-18.024 -14.606)" fill="#f4baa6"/>
      <path id="Trazado_1031829" data-name="Trazado 1031829" d="M61.135,39.135v4.135H57.689L57,39.135V35A4.13,4.13,0,0,1,61.135,39.135Z" transform="translate(-17.713 -10.877)" fill="#228ab2"/>
      <path id="Trazado_1031830" data-name="Trazado 1031830" d="M49.135,15a4.139,4.139,0,0,1,4.135,4.135H45A4.142,4.142,0,0,1,49.135,15Z" transform="translate(-13.984 -4.661)" fill="#ffcc3e"/>
      <path id="Trazado_1031831" data-name="Trazado 1031831" d="M53.271,35v4.135H45V35h8.271Z" transform="translate(-13.984 -10.877)" fill="#228ab2"/>
      <path id="Trazado_1031832" data-name="Trazado 1031832" d="M53.271,21v5.514a4.142,4.142,0,0,1-4.135,4.135A4.139,4.139,0,0,1,45,26.514V21Z" transform="translate(-13.984 -6.526)" fill="#f4baa6"/>
      <path id="Trazado_1031833" data-name="Trazado 1031833" d="M53.649,45.135v5.514H44V45.135L44.689,41H52.96Z" transform="translate(-13.673 -12.741)" fill="#f7a539"/>
      <path id="Trazado_1031834" data-name="Trazado 1031834" d="M32,41.892a4.139,4.139,0,0,0,4.135-4.135C36.825,35.689,38.293,35,40.96,35v4.135l-.689,4.135v3.446a4.83,4.83,0,0,0-4.825-4.825Z" transform="translate(-9.944 -10.877)" fill="#228ab2"/>
      <path id="Trazado_1031835" data-name="Trazado 1031835" d="M34.271,31v5.514a4.139,4.139,0,0,1-4.135,4.135A4.142,4.142,0,0,1,26,36.514V31Z" transform="translate(-8.079 -9.634)" fill="#f4baa6"/>
      <path id="Trazado_1031836" data-name="Trazado 1031836" d="M30.135,25a4.142,4.142,0,0,1,4.135,4.135H26A4.139,4.139,0,0,1,30.135,25Z" transform="translate(-8.079 -7.769)" fill="#ffcc3e"/>
      <path id="Trazado_1031837" data-name="Trazado 1031837" d="M42.825,26.514a4.139,4.139,0,0,0,4.135,4.135H42.825c-2.667,0-4.135.689-4.825,2.757V21c3.108,0,4.825,2.068,4.825,4.135Z" transform="translate(-11.809 -6.526)" fill="#228ab2"/>
      <path id="Trazado_1031838" data-name="Trazado 1031838" d="M34.271,21v6.892a4.142,4.142,0,0,0-4.135-4.135A4.139,4.139,0,0,0,26,27.892V21Z" transform="translate(-8.079 -6.526)" fill="#228ab2"/>
      <path id="Trazado_1031839" data-name="Trazado 1031839" d="M34.271,7v5.514a4.139,4.139,0,0,1-4.135,4.135A4.142,4.142,0,0,1,26,12.514V7Z" transform="translate(-8.079 -2.175)" fill="#f4baa6"/>
      <path id="Trazado_1031840" data-name="Trazado 1031840" d="M30.135,1a4.142,4.142,0,0,1,4.135,4.135H26A4.139,4.139,0,0,1,30.135,1Z" transform="translate(-8.079 -0.311)" fill="#ffcc3e"/>
      <g id="Grupo_1199735" data-name="Grupo 1199735" transform="translate(0.001)">
        <path id="Trazado_1031844" data-name="Trazado 1031844" d="M39.287,23.434h-.765a5.128,5.128,0,0,0,1.454-3.446V15.163h.689a.689.689,0,0,0,0-1.378h-.744a4.829,4.829,0,0,0-4.77-4.135,4.831,4.831,0,0,0-4.825,4.825v.884a5.684,5.684,0,0,0-4.135-1.574h-.766a4.809,4.809,0,0,0,1.455-3.446V5.514h.689a.689.689,0,0,0,0-1.378h-.743A4.822,4.822,0,0,0,22.057,0a4.829,4.829,0,0,0-4.77,4.135h-.744a.689.689,0,1,0,0,1.378h.689v4.825a4.726,4.726,0,0,0,1.455,3.446h-.766a5.684,5.684,0,0,0-4.135,1.574v-.884A4.831,4.831,0,0,0,8.961,9.649a4.829,4.829,0,0,0-4.77,4.135H3.447a.689.689,0,0,0,0,1.378h.689v4.825a5.531,5.531,0,0,0,1.455,3.446H4.826A4.831,4.831,0,0,0,0,28.259V43.422a.689.689,0,0,0,.689.689H43.423a.689.689,0,0,0,.689-.689V28.259a4.831,4.831,0,0,0-4.825-4.825Zm3.446,4.825v3.446H40.56l-.584-3.5v-3.32A3.452,3.452,0,0,1,42.733,28.259ZM35.152,40.665a.689.689,0,0,0-.689.689v1.378H31.016V38.6h8.271v4.135H35.841V41.354A.689.689,0,0,0,35.152,40.665Zm-26.191,0a.689.689,0,0,0-.689.689v1.378H4.825V38.6H13.1v4.135H9.65V41.354A.689.689,0,0,0,8.96,40.665Zm8.278-13.637a4.834,4.834,0,0,0,1.447,3.3,6.151,6.151,0,0,0-4.231,1.9L13.784,28.2V24.835c1.992.108,2.94.725,3.453,2.193Zm4.818-7.73a.689.689,0,0,0,.689-.689v-.62a3.461,3.461,0,0,1,2.688,2.687H18.679a3.457,3.457,0,0,1,2.687-2.687v.62a.689.689,0,0,0,.689.689ZM38.7,28.948l.584,3.5v4.768H31.016V32.451l.584-3.5h7.1ZM19.3,31.705h5.514v2.757H19.3Zm.32-2.392A3.4,3.4,0,0,1,18.61,26.88V22.056H25.5V26.88a3.45,3.45,0,0,1-3.446,3.446A3.4,3.4,0,0,1,19.619,29.313Zm7.688,7.906-1.115-2.23V31.768a4.138,4.138,0,0,1,3.446,4.073V37.22H27.307Zm3.02-9.017-.671,4.024a6.119,6.119,0,0,0-4.231-1.9,4.808,4.808,0,0,0,1.447-3.3c.513-1.469,1.461-2.086,3.454-2.194Zm-17.815.746.584,3.5v4.767H4.825V32.451l.584-3.5h7.1Zm1.962,6.892a4.139,4.139,0,0,1,3.446-4.073v3.221l-1.115,2.23H14.474V35.84Zm3.446,2.23,1.115-2.23h6.04l1.115,2.23v4.662H17.921Zm9.649.527h2.068v4.135H27.57ZM38.6,24.813V27.57H31.705V24.813ZM34.462,11.1v.62a.689.689,0,1,0,1.378,0V11.1a3.457,3.457,0,0,1,2.687,2.687H31.774A3.461,3.461,0,0,1,34.462,11.1Zm-2.757,4.067H38.6v4.825a3.452,3.452,0,0,1-3.446,3.446,3.45,3.45,0,0,1-3.446-3.446Zm-1.378,3.446v1.378a4.806,4.806,0,0,0,1.455,3.446h-.766a6.217,6.217,0,0,0-4.135,1.146V22.056h.689a.689.689,0,0,0,0-1.378h-.689v-5.47A3.558,3.558,0,0,1,30.327,18.609ZM21.367,1.448v.62a.689.689,0,1,0,1.378,0v-.62a3.461,3.461,0,0,1,2.688,2.687H18.679a3.457,3.457,0,0,1,2.687-2.687ZM19.619,12.772a3.4,3.4,0,0,1-1.009-2.433V5.514H25.5v4.825a3.45,3.45,0,0,1-3.446,3.446A3.4,3.4,0,0,1,19.619,12.772ZM25.5,15.163V18c-.012-.012-.022-.026-.034-.038A4.812,4.812,0,0,0,18.61,18V15.163H25.5Zm-8.271.044v5.47h-.689a.689.689,0,0,0,0,1.378h.689V24.58A6.217,6.217,0,0,0,13.1,23.434H12.33a4.809,4.809,0,0,0,1.455-3.446V18.609A3.558,3.558,0,0,1,17.231,15.207ZM8.271,11.1v.62a.689.689,0,0,0,1.378,0V11.1a3.461,3.461,0,0,1,2.688,2.687H5.584A3.457,3.457,0,0,1,8.271,11.1ZM6.523,22.421a3.4,3.4,0,0,1-1.009-2.433V15.163h6.892v4.825A3.45,3.45,0,0,1,8.96,23.434,3.4,3.4,0,0,1,6.523,22.421Zm5.883,2.392V27.57H5.514V24.813Zm-8.271.07V28.2l-.584,3.5H1.379V28.259a3.453,3.453,0,0,1,2.757-3.377Zm-2.757,8.2H3.447v9.649H1.379Zm13.1,5.514h2.068v4.135H14.474Zm26.191,4.135V33.083h2.068v9.649Z" transform="translate(-0.001)" fill="#12263f"/>
      </g>
    </g>
  </g>
</svg>
