<svg xmlns="http://www.w3.org/2000/svg" xmlns:xlink="http://www.w3.org/1999/xlink" width="86.109" height="86.109" viewBox="0 0 86.109 86.109">
  <defs>
    <filter id="Trazado_896985" x="0" y="0" width="86.109" height="86.109" filterUnits="userSpaceOnUse">
      <feOffset dy="3" input="SourceAlpha"/>
      <feGaussianBlur stdDeviation="3" result="blur"/>
      <feFlood flood-opacity="0.161"/>
      <feComposite operator="in" in2="blur"/>
      <feComposite in="SourceGraphic"/>
    </filter>
  </defs>
  <g id="Grupo_1199758" data-name="Grupo 1199758" transform="translate(-1176.474 -16833.086)">
    <g id="Grupo_1199586" data-name="Grupo 1199586" transform="translate(979.584 12371.764)">
      <g id="Grupo_1198139" data-name="Grupo 1198139" transform="translate(205.891 4467.322)">
        <g id="Grupo_1111318" data-name="Grupo 1111318" transform="translate(0)">
          <g id="Grupo_1109826" data-name="Grupo 1109826" transform="translate(0 0)">
            <g id="Grupo_1098742" data-name="Grupo 1098742" transform="translate(0)">
              <g transform="matrix(1, 0, 0, 1, -9, -6)" filter="url(#Trazado_896985)">
                <g id="Trazado_896985-2" data-name="Trazado 896985" transform="translate(9 6)" fill="#fc0" opacity="0.859">
                  <path d="M 34.05470275878906 67.6094970703125 C 29.52462196350098 67.6094970703125 25.13032341003418 66.72238159179688 20.99385261535645 64.97280120849609 C 16.99824333190918 63.28280639648438 13.40971279144287 60.86331558227539 10.32794284820557 57.78155517578125 C 7.246182918548584 54.69978332519531 4.826692581176758 51.11125564575195 3.136692762374878 47.11564636230469 C 1.387112736701965 42.97917556762695 0.5000027418136597 38.58487319946289 0.5000027418136597 34.05479431152344 C 0.5000027418136597 29.52469444274902 1.387112736701965 25.13037490844727 3.136692762374878 20.9938850402832 C 4.826692581176758 16.99826431274414 7.246182918548584 13.40972518920898 10.32794284820557 10.32795429229736 C 13.40971279144287 7.246184825897217 16.99824333190918 4.826694488525391 20.99385261535645 3.136694669723511 C 25.13032341003418 1.387114763259888 29.52462196350098 0.5000047087669373 34.05470275878906 0.5000047087669373 C 38.58478164672852 0.5000047087669373 42.97908401489258 1.387114763259888 47.11555099487305 3.136694669723511 C 51.11116409301758 4.826694488525391 54.69969177246094 7.246174812316895 57.78146362304688 10.3279447555542 C 60.86322402954102 13.4097146987915 63.28271102905273 16.99823379516602 64.97270965576172 20.99384498596191 C 66.7222900390625 25.13031387329102 67.60940551757812 29.52461433410645 67.60940551757812 34.05469512939453 C 67.60940551757812 38.58479309082031 66.7222900390625 42.9791145324707 64.97270965576172 47.11560440063477 C 63.28271102905273 51.11122512817383 60.86322402954102 54.69976425170898 57.78146362304688 57.78153610229492 C 54.69969177246094 60.86330413818359 51.11116409301758 63.28280639648438 47.11555099487305 64.97280120849609 C 42.97908401489258 66.72238159179688 38.58478164672852 67.6094970703125 34.05470275878906 67.6094970703125 Z" stroke="none"/>
                  <path d="M 34.05470275878906 0.9999923706054688 C 29.59190368652344 0.9999923706054688 25.26313400268555 1.873817443847656 21.18863296508789 3.597183227539062 C 17.25262451171875 5.261985778808594 13.71751403808594 7.645496368408203 10.68150329589844 10.68150329589844 C 7.645492553710938 13.71752548217773 5.261981964111328 17.25263595581055 3.597190856933594 21.18866348266602 C 1.873825073242188 25.26318359375 1 29.59197616577148 1 34.05479431152344 C 1 38.51759338378906 1.873825073242188 42.84636688232422 3.597190856933594 46.92086410522461 C 5.261981964111328 50.85687255859375 7.645492553710938 54.39198303222656 10.68150329589844 57.42799377441406 C 13.71751403808594 60.46399307250977 17.25262451171875 62.84750366210938 21.18863296508789 64.51229858398438 C 25.26313400268555 66.23566436767578 29.59190368652344 67.10948181152344 34.05470275878906 67.10948181152344 C 38.51750183105469 67.10948181152344 42.84627532958984 66.23566436767578 46.92077255249023 64.51229858398438 C 50.85679244995117 62.84749603271484 54.39189147949219 60.46399307250977 57.42790222167969 57.42798614501953 C 60.46391296386719 54.39196395874023 62.8474235534668 50.85684204101562 64.51221466064453 46.92082214355469 C 66.23558044433594 42.84630584716797 67.10940551757812 38.51751708984375 67.10940551757812 34.05469512939453 C 67.10940551757812 29.59189605712891 66.23558044433594 25.26312637329102 64.51221466064453 21.18862533569336 C 62.8474235534668 17.25261306762695 60.46391296386719 13.71750640869141 57.42790222167969 10.68149566650391 C 54.39189147949219 7.645484924316406 50.85678100585938 5.261974334716797 46.92077255249023 3.597183227539062 C 42.84627532958984 1.873817443847656 38.51750183105469 0.9999923706054688 34.05470275878906 0.9999923706054688 M 34.05470275878906 -7.62939453125e-06 C 52.86259460449219 -7.62939453125e-06 68.10940551757812 15.24680328369141 68.10940551757812 34.05469512939453 L 68.10940551757812 34.05479431152344 C 68.10940551757812 52.86268615722656 52.86259460449219 68.10948181152344 34.05470275878906 68.10948181152344 C 15.24681091308594 68.10948181152344 0 52.86268615722656 0 34.05479431152344 L 0 34.05469512939453 C 0 15.24680328369141 15.24681091308594 -7.62939453125e-06 34.05470275878906 -7.62939453125e-06 Z" stroke="none" fill="#fff"/>
                </g>
              </g>
              <g id="Rectángulo_400907" data-name="Rectángulo 400907" transform="translate(0)" fill="none" stroke="#fff" stroke-width="1">
                <rect width="68.109" height="68.109" rx="34.055" stroke="none"/>
                <rect x="0.5" y="0.5" width="67.109" height="67.109" rx="33.555" fill="none"/>
              </g>
            </g>
          </g>
        </g>
      </g>
    </g>
    <g id="Artwork" transform="translate(1190.709 16844.32)">
      <path id="Trazado_1031916" data-name="Trazado 1031916" d="M38.2,170.4l-5.5-7.814a2.1,2.1,0,0,0-1.715-.89H14.1a2.1,2.1,0,0,0-1.715.89l-5.5,7.814A2.088,2.088,0,0,0,6.5,171.6v8.488a2.1,2.1,0,0,0,2.1,2.1H36.486a2.1,2.1,0,0,0,2.1-2.1V171.6A2.087,2.087,0,0,0,38.2,170.4Z" transform="translate(0 -131.054)" fill="#f5ba4e"/>
      <path id="Trazado_1031917" data-name="Trazado 1031917" d="M38.584,180.091v-1.579c-17.122-.377-22.522-13.5-23.618-16.821H14.1a2.1,2.1,0,0,0-1.715.89l-5.5,7.814A2.088,2.088,0,0,0,6.5,171.6v8.488a2.1,2.1,0,0,0,2.1,2.1H36.486a2.1,2.1,0,0,0,2.1-2.1Z" transform="translate(0 -131.054)" fill="#ebae3f"/>
      <path id="Trazado_1031918" data-name="Trazado 1031918" d="M60.271,181.644v-10.5a1.727,1.727,0,0,0-1.726-1.725h-1.26l1.653-7.214a2.1,2.1,0,0,0-1.372-.512h-3.36l-2.5,7.726H46.541l-2.5-7.726h-3.36a2.1,2.1,0,0,0-1.372.512l1.653,7.214H39.7a1.726,1.726,0,0,0-1.725,1.725v10.5a.544.544,0,0,0,.544.544h21.2A.544.544,0,0,0,60.271,181.644Z" transform="translate(-26.582 -131.054)" fill="#a6675a"/>
      <path id="Trazado_1031919" data-name="Trazado 1031919" d="M50.064,63.812a2.87,2.87,0,1,0,0,5.74.544.544,0,0,0,.544-.545V64.356a.544.544,0,0,0-.544-.544Z" transform="translate(-34.365 -48.398)" fill="#f0b6aa"/>
      <path id="Trazado_1031920" data-name="Trazado 1031920" d="M60.266,223.966V221.58c-16.046-.759-20.1-7.389-21.049-9.771a1.726,1.726,0,0,0-1.245,1.656v10.5a.544.544,0,0,0,.544.544H59.722A.544.544,0,0,0,60.266,223.966Z" transform="translate(-26.577 -173.376)" fill="#9c5d50"/>
      <path id="Trazado_1031921" data-name="Trazado 1031921" d="M151.011,74.441a.544.544,0,0,0-.517-.373H147.93a.544.544,0,0,0-.541.607l.354,3.056a.544.544,0,0,0,.541.482,2.874,2.874,0,0,0,2.726-3.772Z" transform="translate(-118.973 -57.059)" fill="#f0b6aa"/>
      <path id="Trazado_1031922" data-name="Trazado 1031922" d="M84.28,246.307H76.833A1.635,1.635,0,0,0,75.2,247.94V253.1a.544.544,0,0,0,.544.544h9.624a.544.544,0,0,0,.544-.544V247.94A1.635,1.635,0,0,0,84.28,246.307Z" transform="translate(-58.015 -202.508)" fill="#8f5a4e"/>
      <path id="Trazado_1031923" data-name="Trazado 1031923" d="M85.915,254.927v-2.979a27.249,27.249,0,0,1-10.069-3.476,1.63,1.63,0,0,0-.644,1.3v5.158a.544.544,0,0,0,.544.544h9.624A.544.544,0,0,0,85.915,254.927Z" transform="translate(-58.017 -204.336)" fill="#825247"/>
      <path id="Trazado_1031924" data-name="Trazado 1031924" d="M71.816,6.5a7.306,7.306,0,0,0-6.939,4.993.544.544,0,0,0,.429.71c13.807,2.244,13.2,2.153,13.28,2.153a.544.544,0,0,0,.544-.544A7.321,7.321,0,0,0,71.816,6.5Z" transform="translate(-49.273 0)" fill="#f5d08c"/>
      <path id="Trazado_1031925" data-name="Trazado 1031925" d="M76.793,59.844l-13.54-2.406a.544.544,0,0,0-.64.536v6.5a7.314,7.314,0,1,0,14.629,0v-4.1A.544.544,0,0,0,76.793,59.844Z" transform="translate(-47.386 -43.008)" fill="#f7ccc1"/>
      <path id="Trazado_1031926" data-name="Trazado 1031926" d="M92.722,62.1l-11.245-2V64.9a7.32,7.32,0,0,0,9.614,6.94,7.286,7.286,0,0,0,2.08-5.1v-4.1A.544.544,0,0,0,92.722,62.1Z" transform="translate(-63.315 -45.267)" fill="#ffdad1"/>
      <path id="Trazado_1031927" data-name="Trazado 1031927" d="M79.13,17.274a7.323,7.323,0,0,0-.093-1.159A9.862,9.862,0,0,1,68.826,10.6a7.3,7.3,0,0,0-3.949,4.355.544.544,0,0,0,.429.71L78.5,17.811a.544.544,0,0,0,.632-.537Z" transform="translate(-49.273 -3.462)" fill="#f2c777"/>
      <path id="Trazado_1031928" data-name="Trazado 1031928" d="M58.968,37.987c-8.218-.242-9.189-2.353-17.5-2.613a2.208,2.208,0,0,0-.131,4.414c8.218.242,9.189,2.353,17.5,2.613a2.208,2.208,0,1,0,.131-4.414Z" transform="translate(-27.611 -24.382)" fill="#f5ba4e"/>
      <path id="Trazado_1031929" data-name="Trazado 1031929" d="M70.389,21.689H76.6a.544.544,0,1,0,0-1.089H71.268A7.28,7.28,0,0,0,70.389,21.689Z" transform="translate(-53.952 -11.907)" fill="#f5ba4e"/>
      <path id="Trazado_1031930" data-name="Trazado 1031930" d="M74.5,20.6H71.27a7.324,7.324,0,0,0-.881,1.089h5.02A11.4,11.4,0,0,1,74.5,20.6Z" transform="translate(-53.952 -11.907)" fill="#ebad3d"/>
      <path id="Trazado_1031931" data-name="Trazado 1031931" d="M127.026,34.988h-4.213a.544.544,0,1,0,0,1.089H127.4A7.263,7.263,0,0,0,127.026,34.988Z" transform="translate(-97.762 -24.057)" fill="#f5ba4e"/>
      <path id="Trazado_1031932" data-name="Trazado 1031932" d="M233.75,138.678h-3.282a.544.544,0,0,0-.544.544V144.7a.475.475,0,0,1-.474.474h-1.215a.475.475,0,0,1-.475-.474v-5.477a.544.544,0,0,0-.544-.544h-3.282a.544.544,0,0,0-.544.544v5.441a4.345,4.345,0,0,0,3.794,4.3v3.522a.544.544,0,0,0,.544.544h2.229a.544.544,0,0,0,.544-.544v-3.522a4.345,4.345,0,0,0,3.793-4.3v-5.441A.544.544,0,0,0,233.75,138.678Z" transform="translate(-183.154 -111.619)" fill="#d1d4de"/>
      <path id="Trazado_1031933" data-name="Trazado 1031933" d="M56.646,227.9H54.627a.544.544,0,1,1,0-1.089h2.019a.544.544,0,1,1,0,1.089Z" transform="translate(-40.182 -186.044)" fill="#8f5a4e"/>
      <path id="Trazado_1031934" data-name="Trazado 1031934" d="M147.783,227.9h-2.019a.544.544,0,1,1,0-1.089h2.019a.544.544,0,1,1,0,1.089Z" transform="translate(-117.144 -186.044)" fill="#8f5a4e"/>
      <path id="Trazado_1031935" data-name="Trazado 1031935" d="M246.73,223.976h-3.954a.544.544,0,0,0-.544.544v7.82a2.452,2.452,0,0,0,2.449,2.449h.144a2.452,2.452,0,0,0,2.449-2.449v-7.82A.544.544,0,0,0,246.73,223.976Z" transform="translate(-199.067 -183.65)" fill="#e8ebf7"/>
      <path id="Trazado_1031936" data-name="Trazado 1031936" d="M242.776,223.976a.544.544,0,0,0-.544.544v7.82a2.452,2.452,0,0,0,2.449,2.449h.144a2.452,2.452,0,0,0,2.364-1.819c-4.452-1.8-4.1-8.995-4.1-8.995Z" transform="translate(-199.067 -183.65)" fill="#e1e4f0"/>
      <path id="Trazado_1031937" data-name="Trazado 1031937" d="M242.232,255.238h5.043v3.33h-5.043Z" transform="translate(-199.067 -210.05)" fill="#d1d4de"/>
      <path id="Trazado_1031938" data-name="Trazado 1031938" d="M243.576,255.238h-1.344v3.33h2.989A8.376,8.376,0,0,1,243.576,255.238Z" transform="translate(-199.067 -210.05)" fill="#c7cad4"/>
      <path id="Trazado_1031939" data-name="Trazado 1031939" d="M255.486,63.56a.544.544,0,0,1-.544-.544V51.979a.544.544,0,1,1,1.089,0V63.015A.544.544,0,0,1,255.486,63.56Z" transform="translate(-209.8 -37.946)" fill="#e8b65b"/>
      <g id="Grupo_1199757" data-name="Grupo 1199757" transform="translate(40.45 7.258)">
        <ellipse id="Elipse_12163" data-name="Elipse 12163" cx="1.345" cy="3.703" rx="1.345" ry="3.703" transform="translate(3.892 0)" fill="#f5c876"/>
        <path id="Trazado_1031940" data-name="Trazado 1031940" d="M235.348,94.16a4.927,4.927,0,0,0-4.685,2.7,4.9,4.9,0,0,0-4.685-2.7.533.533,0,0,0-.526.539,4.883,4.883,0,0,0,4.815,4.938h.792a4.883,4.883,0,0,0,4.815-4.938A.533.533,0,0,0,235.348,94.16Z" transform="translate(-225.346 -81.282)" fill="#f5c876"/>
        <path id="Trazado_1031941" data-name="Trazado 1031941" d="M234.865,55.164a5.091,5.091,0,0,0-4.778,2.645,5.062,5.062,0,0,0-4.778-2.645.533.533,0,0,0-.537.529,4.882,4.882,0,0,0,4.911,4.841h.808a4.882,4.882,0,0,0,4.91-4.841A.533.533,0,0,0,234.865,55.164Z" transform="translate(-224.773 -48.351)" fill="#f5c876"/>
      </g>
      <path id="Trazado_1031942" data-name="Trazado 1031942" d="M60.79,41.333c-11.314-1.231-16.07-4.072-18.01-5.9-.418-.025-.854-.046-1.312-.06a2.208,2.208,0,1,0-.131,4.414c8.218.242,9.189,2.353,17.5,2.613A2.192,2.192,0,0,0,60.79,41.333Z" transform="translate(-27.609 -24.378)" fill="#ebad3d"/>
      <path id="Trazado_1031943" data-name="Trazado 1031943" d="M233.765,138.679h-3.313v0a.543.543,0,0,0-.524.542V144.7a.475.475,0,0,1-.474.474H228.24a.475.475,0,0,1-.475-.474v-5.477a.544.544,0,0,0-.544-.544c-.013,0-.025,0-.038,0v0H223.87v.007a.543.543,0,0,0-.475.537v5.441a4.345,4.345,0,0,0,3.794,4.3v2.978h-.318a.544.544,0,0,0-.544.544v7.82a2.452,2.452,0,0,0,2.448,2.449h.144a2.452,2.452,0,0,0,2.449-2.449v-7.82a.544.544,0,0,0-.544-.544h-.318v-2.978a4.345,4.345,0,0,0,3.794-4.3v-5.441A.544.544,0,0,0,233.765,138.679Zm-3.487,21.63a1.434,1.434,0,0,1-2.865,0v-.171h2.865Zm0-1.26h-2.865V157.9h2.865Zm0-2.241h-2.865v-3.774h2.865Zm-.318-8.895a.544.544,0,0,0-.544.544v3.488h-1.141v-3.489a.544.544,0,0,0-.544-.544,3.253,3.253,0,0,1-3.249-3.249v-4.9h2.193V144.7a1.565,1.565,0,0,0,1.563,1.563h1.215a1.565,1.565,0,0,0,1.563-1.563v-4.933h2.193v4.9a3.253,3.253,0,0,1-3.249,3.249Z" transform="translate(-183.159 -111.619)"/>
      <path id="Trazado_1031944" data-name="Trazado 1031944" d="M41.337,15.41c.5.015.974.036,1.422.064a2.867,2.867,0,0,0,.078,5.644v.356a7.314,7.314,0,1,0,14.629,0v-.367a2.872,2.872,0,0,0,2.292-3.253,2.209,2.209,0,0,0-.792-4.243c-.533-.016-1.034-.039-1.507-.069a7.314,7.314,0,0,0-14.1-2.445c-.589-.044-1.218-.078-1.894-.1a2.208,2.208,0,1,0-.131,4.414Zm1.5,4.6a1.778,1.778,0,0,1,0-3.431Zm13.54,1.468a6.226,6.226,0,1,1-12.451,0v-5.91c5.168.477,7.09,1.831,12.451,2.314Zm1.089-1.488V17.96q.582.036,1.217.058a1.782,1.782,0,0,1-1.217,1.967ZM45.4,9.787h4.848a.544.544,0,1,0,0-1.089H46.608a6.227,6.227,0,0,1,9.059,2.238H52.66a.544.544,0,0,0,0,1.089h3.453a6.19,6.19,0,0,1,.253,1.431c-5-.463-6.906-1.729-11.864-2.257a6.2,6.2,0,0,1,.9-1.412Zm-4.008,2.3h.036c.812.026,1.548.069,2.228.126h.009c6.157.523,7.727,2.265,15.264,2.486a1.119,1.119,0,1,1-.065,2.237c-8.137-.256-9.154-2.368-17.5-2.613a1.119,1.119,0,1,1,.028-2.238Z" transform="translate(-27.609 -0.005)"/>
      <path id="Trazado_1031945" data-name="Trazado 1031945" d="M56.646,226.811H54.627a.544.544,0,1,0,0,1.089h2.019a.544.544,0,1,0,0-1.089Z" transform="translate(-40.182 -186.044)"/>
      <path id="Trazado_1031946" data-name="Trazado 1031946" d="M229.467,23.64v2.3a5.179,5.179,0,0,0-4.126-1.884.544.544,0,0,0-.563.525,4.988,4.988,0,0,0,4.805,5.153c.53.018.3.015.839.015a4.988,4.988,0,0,0,4.982-4.982.544.544,0,0,0-.544-.544,5.062,5.062,0,0,0-4.3,1.879V23.658a4.987,4.987,0,0,0,4.848-4.979.544.544,0,0,0-.544-.544,5.062,5.062,0,0,0-4.3,1.879V18.562a4.059,4.059,0,0,0-.286-7.1.545.545,0,0,0-.517,0,4.06,4.06,0,0,0-.286,7.1v1.29a5.181,5.181,0,0,0-4.126-1.883.544.544,0,0,0-.563.525,4.987,4.987,0,0,0,4.689,5.146Zm-3.582,1.531a3.892,3.892,0,0,1,3.563,3.469,3.9,3.9,0,0,1-3.563-3.469Zm8.391.147a3.9,3.9,0,0,1-3.682,3.341,3.9,3.9,0,0,1,3.682-3.342Zm0-6.089a3.9,3.9,0,0,1-3.682,3.341,3.9,3.9,0,0,1,3.682-3.342Zm-4.265-6.651a2.959,2.959,0,0,1,0,5.042,2.959,2.959,0,0,1,0-5.042Zm-.563,9.972a3.9,3.9,0,0,1-3.563-3.469,3.893,3.893,0,0,1,3.563,3.468Z" transform="translate(-184.324 -4.137)"/>
      <path id="Trazado_1031947" data-name="Trazado 1031947" d="M32.7,162.582a2.1,2.1,0,0,0-1.715-.89H14.1a2.1,2.1,0,0,0-1.715.89l-5.5,7.814A2.088,2.088,0,0,0,6.5,171.6v8.488a2.1,2.1,0,0,0,2.1,2.1H36.486a2.1,2.1,0,0,0,2.1-2.1V171.6A2.087,2.087,0,0,0,38.2,170.4Zm-5.428.2-2.147,6.637H19.96l-2.147-6.637ZM11.4,171.143V181.1H8.6a1.011,1.011,0,0,1-1.009-1.009V171.6a1,1,0,0,1,.184-.58l5.263-7.475,1.345,5.87h-1.26A1.726,1.726,0,0,0,11.4,171.143ZM26.809,181.1H18.274v-4.614a.544.544,0,0,1,.544-.544h7.446a.544.544,0,0,1,.544.544Zm5.791,0H27.9v-4.614a1.635,1.635,0,0,0-1.633-1.633H18.819a1.635,1.635,0,0,0-1.633,1.633V181.1h-4.7v-9.957a.638.638,0,0,1,.637-.636h1.944a.544.544,0,0,0,.531-.666l-1.617-7.052a1.014,1.014,0,0,1,.121-.007h2.568l2.378,7.349a.544.544,0,0,0,.518.377h5.957a.544.544,0,0,0,.518-.377l2.378-7.349h2.568a1.016,1.016,0,0,1,.121.007L29.49,169.84a.544.544,0,0,0,.531.666h1.944a.638.638,0,0,1,.637.636Zm4.895-1.009a1.01,1.01,0,0,1-1.009,1.009h-2.8v-9.957a1.726,1.726,0,0,0-1.726-1.725H30.7l1.345-5.87,5.263,7.475a1,1,0,0,1,.184.581Z" transform="translate(0 -131.054)"/>
      <path id="Trazado_1031948" data-name="Trazado 1031948" d="M147.783,226.811h-2.019a.544.544,0,1,0,0,1.089h2.019a.544.544,0,1,0,0-1.089Z" transform="translate(-117.144 -186.044)"/>
    </g>
  </g>
</svg>
